<svg width="259" height="259" viewBox="0 0 259 259" fill="none" xmlns="http://www.w3.org/2000/svg">
<path fill-rule="evenodd" clip-rule="evenodd" d="M129.5 0C201.034 0 259 57.966 259 129.5C259 201.034 201.034 259 129.5 259C57.966 259 0 201.034 0 129.5C0 57.966 57.966 0 129.5 0Z" fill="#EAEAFF"/>
<path fill-rule="evenodd" clip-rule="evenodd" d="M156.071 39.0834C178.496 35.8798 187.391 72.6268 189.84 91.0191C197.152 146.724 176.838 164.965 131.611 164.965C86.8359 164.965 57.5138 150.153 68.519 91.0191C77.7529 41.2694 115.329 15.8292 156.071 39.0834Z" fill="#812855"/>
<path fill-rule="evenodd" clip-rule="evenodd" d="M112.841 131.008C112.954 151.548 119.022 172.164 94.449 177.818C53.0286 187.315 43.2294 201.562 41.458 224.439C64.5615 245.884 95.5043 259 129.5 259C163.345 259 194.175 245.997 217.24 224.741C214.828 202.24 204.162 187.165 163.571 177.855C138.998 172.202 145.066 151.586 145.179 131.046C134.4 131.008 123.62 131.008 112.841 131.008Z" fill="#F1BF92"/>
<path fill-rule="evenodd" clip-rule="evenodd" d="M111.635 141.109C115.404 145.142 119.437 146.989 121.171 148.195C128.03 152.906 130.367 152.906 137.264 148.195C138.998 147.027 142.729 145.142 146.536 141.109C136.473 166.474 121.849 166.173 111.635 141.109Z" fill="#D6A37B"/>
<path fill-rule="evenodd" clip-rule="evenodd" d="M138.395 150.154C142.842 147.554 158.445 134.363 161.988 126.372C165.945 117.402 166.624 108.206 165.606 99.0101C164.852 92.2261 165.531 76.3212 152.151 65.0898C121.472 93.6582 94.7883 71.7231 92.6023 99.0101C91.8485 108.244 92.2631 117.44 96.2205 126.372C99.7633 134.363 115.367 147.554 119.814 150.154C127.766 154.79 130.442 154.79 138.395 150.154Z" fill="#F1BF92"/>
<path fill-rule="evenodd" clip-rule="evenodd" d="M90.0394 100.593C87.2881 101.121 85.8936 106.51 86.9489 112.767C88.0042 119.023 91.1324 123.772 93.8837 123.282C96.6727 122.83 98.0295 117.365 96.9742 111.108C95.9189 104.852 97.1627 99.2363 90.0394 100.593ZM168.885 99.3116C171.674 99.8393 173.106 105.304 172.013 111.674C170.92 118.043 167.755 122.83 164.966 122.377C162.139 121.925 160.744 116.385 161.837 110.015C162.93 103.608 161.687 97.8795 168.885 99.3116Z" fill="#F1BF92"/>
<path fill-rule="evenodd" clip-rule="evenodd" d="M113.482 97.0117C115.178 97.0117 116.535 99.0469 116.535 101.572C116.535 104.097 115.178 106.133 113.482 106.133C111.786 106.133 110.429 104.097 110.429 101.572C110.429 99.0846 111.786 97.0117 113.482 97.0117ZM144.839 97.0117C146.535 97.0117 147.892 99.0469 147.892 101.572C147.892 104.097 146.535 106.133 144.839 106.133C143.143 106.133 141.787 104.097 141.787 101.572C141.787 99.0846 143.181 97.0117 144.839 97.0117Z" fill="black"/>
<path fill-rule="evenodd" clip-rule="evenodd" d="M141.937 127.578C137.942 139.978 120.756 140.016 116.384 127.578C124.6 130.066 133.721 130.103 141.937 127.578Z" fill="white"/>
<path fill-rule="evenodd" clip-rule="evenodd" d="M127.314 109.299C126.409 112.126 122.716 120.455 133.834 121.849C124.412 123.206 121.887 117.854 127.314 109.299Z" fill="#D6A37B"/>
<path fill-rule="evenodd" clip-rule="evenodd" d="M103.042 89.0224C101.497 90.643 108.356 88.947 114.387 89.5501C118.344 89.9646 121.623 91.3214 122.226 89.3993C122.791 87.6279 119.286 86.6857 114.537 86.3088C110.768 86.0073 104.738 87.251 103.042 89.0224ZM155.43 89.0224C156.975 90.643 150.116 88.947 144.086 89.5501C140.128 89.9646 136.849 91.3214 136.246 89.3993C135.681 87.6279 139.186 86.6857 143.935 86.3088C147.704 86.0073 153.696 87.251 155.43 89.0224Z" fill="#812855"/>
<path fill-rule="evenodd" clip-rule="evenodd" d="M108.997 169.451C106.133 173.258 101.572 176.16 94.449 177.818C53.0286 187.316 43.2294 201.562 41.458 224.44C64.5615 245.885 95.5043 259.001 129.5 259.001C163.345 259.001 194.175 245.998 217.24 224.741C214.828 202.241 204.162 187.165 163.571 177.856C156.146 176.16 151.548 173.069 148.684 169.074L129.01 221.538L108.997 169.451Z" fill="#5A6882"/>
<path fill-rule="evenodd" clip-rule="evenodd" d="M129.161 223.912C118.608 209.552 108.093 200.507 97.5396 186.147L113.369 155.77C110.618 176.272 123.281 199.225 129.161 218.748C134.927 199.187 147.478 175.443 144.613 155.77L160.443 185.959C150.041 200.318 139.601 209.552 129.161 223.912Z" fill="#8690A1"/>
<path fill-rule="evenodd" clip-rule="evenodd" d="M130.97 103.795C132.138 111.069 138.357 116.082 145.895 115.743C157.088 115.291 161.724 102.853 163.006 93.7324C158.294 90.7926 142.691 92.0364 134.852 96.5214C129.99 99.3104 128.332 99.3104 123.507 96.5214C115.63 91.9987 100.065 90.7549 95.3535 93.7324C96.5973 102.665 101.61 115.291 112.464 115.743C120.002 116.044 126.221 111.069 127.389 103.795C127.729 101.459 130.593 101.459 130.97 103.795ZM132.967 102.627C132.666 109.486 138.96 114.085 145.819 113.821C156.636 113.368 161.31 99.838 156.485 96.2199C151.623 92.6017 133.269 95.7676 132.967 102.627ZM125.354 102.627C125.656 109.486 119.362 114.085 112.502 113.821C101.685 113.368 97.0118 99.838 101.836 96.2199C106.698 92.6017 125.053 95.7676 125.354 102.627Z" fill="#5A6882"/>
</svg>
