<svg width="21" height="21" viewBox="0 0 21 21" fill="none" xmlns="http://www.w3.org/2000/svg">
<path d="M5.17506 7.26684L5.17507 7.26684C5.35639 7.44821 5.35651 7.74199 5.17508 7.92308C4.99407 8.10453 4.69988 8.10453 4.51884 7.92311C4.33735 7.74201 4.33746 7.44822 4.51883 7.26684L5.17506 7.26684ZM5.17506 7.26684C4.99403 7.0858 4.69984 7.08579 4.51884 7.26684L5.17506 7.26684Z" fill="#6161FF" stroke="#6161FF" stroke-width="0.15"/>
<path d="M2.31922 16.7915L2.31923 16.7914C2.41529 16.6953 2.54281 16.6426 2.67895 16.6426H9.29353C9.57394 16.6426 9.80216 16.8708 9.80216 17.1512C9.80216 17.2873 9.74934 17.4148 9.65323 17.511L9.65322 17.511C9.55716 17.6071 9.42963 17.6598 9.2935 17.6598H2.67895C2.39855 17.6598 2.17033 17.4316 2.17033 17.1512C2.17033 17.0151 2.22311 16.8876 2.31922 16.7915ZM1.47343 17.932C0.87073 18.2818 0.46394 18.9341 0.46394 19.6803V20.0694C0.46394 20.3258 0.671766 20.5336 0.928047 20.5336H11.0444C11.3007 20.5336 11.5085 20.3258 11.5085 20.0694V19.6803C11.5085 18.9345 11.1022 18.2824 10.5 17.9325C10.65 17.7019 10.7304 17.4326 10.7304 17.1513C10.7304 16.3589 10.0859 15.7144 9.29353 15.7144H2.67895C2.29515 15.7144 1.93408 15.864 1.66292 16.1352C1.39164 16.4064 1.24212 16.7675 1.24212 17.1513C1.24212 17.4389 1.32729 17.7071 1.47343 17.932ZM1.39466 19.6053C1.43334 19.038 1.9074 18.5881 2.4844 18.5881H2.67895H9.29353H9.48809C10.0651 18.5881 10.5391 19.038 10.5778 19.6053H1.39466Z" fill="#6161FF" stroke="#6161FF" stroke-width="0.15"/>
<path d="M17.816 14.6477L17.816 14.6478C17.8358 14.6676 17.8534 14.6888 17.8689 14.711L19.6791 16.2898C19.6792 16.2899 19.6793 16.29 19.6794 16.2901C19.8639 16.4473 20.0263 16.6339 20.1621 16.8445C20.6304 17.5682 20.6617 18.5204 20.2413 19.2713L20.2413 19.2713C19.8589 19.9541 19.2057 20.4069 18.449 20.5116C18.336 20.5273 18.2231 20.535 18.1112 20.535C17.4761 20.535 16.8711 20.2864 16.4135 19.8289L16.4665 19.7758L16.4135 19.8289C16.3676 19.783 16.3233 19.735 16.2819 19.6861C16.2818 19.686 16.2817 19.6859 16.2816 19.6858L14.6706 17.8348C14.6642 17.8293 14.6565 17.8225 14.6489 17.8149C14.6258 17.7918 14.606 17.7669 14.5891 17.7412L9.22205 11.5747C8.99865 11.7629 8.71888 11.8657 8.42337 11.8657C8.09158 11.8657 7.77939 11.7364 7.54486 11.5018L17.816 14.6477ZM17.816 14.6477C17.7807 14.6125 17.7412 14.5846 17.6996 14.5633L16.6073 13.6107L11.5755 9.22134M17.816 14.6477L11.5755 9.22134M11.5755 9.22134C11.7639 8.99815 11.8669 8.71823 11.8669 8.42243C11.8669 8.09055 11.7376 7.77828 11.5028 7.54352L11.5027 7.54349C11.4262 7.46701 11.3418 7.40274 11.2521 7.35054L11.6209 6.98173C11.7453 7.01135 11.8726 7.02649 12.0001 7.02649C12.4176 7.02645 12.8354 6.86749 13.1535 6.54946C13.4616 6.24136 13.6315 5.83143 13.6315 5.39584C13.6315 4.96026 13.4616 4.55033 13.1535 4.24222L13.1005 4.29525L13.1535 4.24222L9.85202 0.940803C9.54391 0.632693 9.13393 0.462842 8.69824 0.462842C8.26273 0.462842 7.85287 0.632701 7.54481 0.940807M11.5755 9.22134L7.54481 0.940807M7.54481 0.940807C7.54481 0.940805 7.54481 0.940804 7.54481 0.940803L7.59774 0.993728L7.54481 0.940807ZM6.55064 13.1524L6.55063 13.1524C6.2325 13.4705 5.81459 13.6295 5.39698 13.6295C4.9794 13.6295 4.5615 13.4705 4.24336 13.1524L4.29639 13.0994L6.55064 13.1524ZM6.55064 13.1524C6.96579 12.7372 7.10938 12.1525 6.98289 11.6198M6.55064 13.1524L6.98289 11.6198M17.0696 19.1725L17.0697 19.1725C17.401 19.5036 17.857 19.6565 18.3218 19.5922C18.7866 19.5279 19.1913 19.2467 19.4315 18.8179C19.6812 18.3717 19.6617 17.7797 19.3825 17.3482L19.3824 17.3481C19.2946 17.2121 19.1915 17.0935 19.0758 16.9952L19.0714 16.9913L19.0704 16.9905L17.4996 15.6204L15.6146 17.5055L16.9836 19.0786L16.9842 19.0792L16.9887 19.0845L17.0696 19.1725ZM17.0696 19.1725C17.0413 19.1441 17.0141 19.1145 16.9888 19.0846L17.0696 19.1725ZM6.98289 11.6198L7.35107 11.2516C7.40411 11.3419 7.46896 11.426 7.54485 11.5018L6.98289 11.6198ZM8.20119 1.59715L8.20119 1.59714C8.33419 1.46414 8.51053 1.39106 8.69828 1.39106C8.88632 1.39106 9.06277 1.46416 9.19571 1.59714L9.19571 1.59714L12.4972 4.8986C12.6302 5.03159 12.7033 5.20796 12.7033 5.39588C12.7033 5.5838 12.6302 5.76017 12.4972 5.89315L12.4972 5.89317C12.2231 6.16726 11.777 6.16726 11.503 5.89317L11.503 5.89316L8.20147 2.59163L8.20139 2.59155L8.20119 2.59135C7.92709 2.31729 7.92709 1.87121 8.20119 1.59715ZM5.8943 12.4961L5.8943 12.4961C5.62016 12.7702 5.17383 12.7702 4.8997 12.4961L4.84666 12.5491L4.8997 12.4961L1.59824 9.19462C1.32407 8.92044 1.32406 8.47423 1.59824 8.20001L1.59825 8.20001C1.73092 8.0673 1.90724 7.99432 2.09533 7.99432C2.28337 7.99432 2.45958 8.06726 2.59222 8.19986C2.59222 8.19986 2.59222 8.19987 2.59223 8.19987L5.89426 11.5019L5.89427 11.5019C6.16839 11.7759 6.16839 12.222 5.8943 12.4961ZM9.74615 7.54344L9.74587 7.54372L7.5464 9.74323C7.54632 9.74331 7.54624 9.74339 7.54616 9.74347C7.54119 9.74836 7.53642 9.75339 7.5326 9.75741L7.53182 9.75823L6.49757 10.7925L3.30183 7.59679L7.59784 3.30069L10.7935 6.49643L9.75706 7.53295L9.75661 7.5334L9.74615 7.54344ZM8.20117 10.8455L8.20114 10.8455C8.14165 10.786 8.10903 10.7073 8.10903 10.6231C8.10903 10.5408 8.14025 10.4639 8.19682 10.4058C8.19692 10.4057 8.19703 10.4056 8.19713 10.4055L10.4059 8.1967C10.406 8.19659 10.4061 8.19648 10.4062 8.19637C10.5283 8.07805 10.726 8.07953 10.8467 8.20002C10.9061 8.25948 10.9387 8.33822 10.9387 8.42243C10.9387 8.50655 10.9062 8.58498 10.8467 8.64439L10.8466 8.64446L10.5748 8.9163L10.5742 8.91687L10.5686 8.92244L10.5681 8.923L8.92186 10.5693L8.92185 10.5693L8.92184 10.5693L8.92183 10.5693L8.92182 10.5693L8.92181 10.5693L8.92181 10.5693L8.9218 10.5693L8.92179 10.5693L8.92178 10.5693L8.92177 10.5693L8.92176 10.5694L8.92175 10.5694L8.92174 10.5694L8.92173 10.5694L8.92172 10.5694L8.92171 10.5694L8.92171 10.5694L8.9217 10.5694L8.92169 10.5694L8.92168 10.5694L8.92167 10.5694L8.92166 10.5695L8.92165 10.5695L8.92164 10.5695L8.92163 10.5695L8.92162 10.5695L8.92162 10.5695L8.92161 10.5695L8.9216 10.5695L8.92159 10.5695L8.92158 10.5695L8.92157 10.5695L8.92156 10.5696L8.92155 10.5696L8.92154 10.5696L8.92153 10.5696L8.92153 10.5696L8.92152 10.5696L8.92151 10.5696L8.9215 10.5696L8.92149 10.5696L8.92148 10.5696L8.92147 10.5696L8.92146 10.5697L8.92145 10.5697L8.92144 10.5697L8.92144 10.5697L8.92143 10.5697L8.92142 10.5697L8.92141 10.5697L8.9214 10.5697L8.92139 10.5697L8.92138 10.5697L8.92137 10.5697L8.92136 10.5698L8.92135 10.5698L8.92135 10.5698L8.92134 10.5698L8.92133 10.5698L8.92132 10.5698L8.92131 10.5698L8.9213 10.5698L8.92129 10.5698L8.92128 10.5698L8.92127 10.5698L8.92127 10.5698L8.92126 10.5699L8.92125 10.5699L8.92124 10.5699L8.92123 10.5699L8.92122 10.5699L8.92121 10.5699L8.9212 10.5699L8.92119 10.5699L8.92118 10.5699L8.92118 10.5699L8.92117 10.5699L8.92116 10.57L8.92115 10.57L8.92114 10.57L8.92113 10.57L8.92112 10.57L8.92111 10.57L8.9211 10.57L8.9211 10.57L8.92109 10.57L8.92108 10.57L8.92107 10.57L8.92106 10.5701L8.92105 10.5701L8.92104 10.5701L8.92103 10.5701L8.92102 10.5701L8.92102 10.5701L8.92101 10.5701L8.921 10.5701L8.92099 10.5701L8.92098 10.5701L8.92097 10.5701L8.92096 10.5702L8.92095 10.5702L8.92094 10.5702L8.92093 10.5702L8.92093 10.5702L8.92092 10.5702L8.92091 10.5702L8.9209 10.5702L8.92089 10.5702L8.92088 10.5702L8.92087 10.5702L8.92086 10.5703L8.92086 10.5703L8.92085 10.5703L8.92084 10.5703L8.92083 10.5703L8.92082 10.5703L8.92081 10.5703L8.9208 10.5703L8.92079 10.5703L8.92078 10.5703L8.92078 10.5703L8.92077 10.5703L8.92076 10.5704L8.92075 10.5704L8.92074 10.5704L8.92073 10.5704L8.92072 10.5704L8.92071 10.5704L8.9207 10.5704L8.9207 10.5704L8.92069 10.5704L8.92068 10.5704L8.92067 10.5704L8.92066 10.5705L8.92065 10.5705L8.92064 10.5705L8.92063 10.5705L8.92062 10.5705L8.92062 10.5705L8.92061 10.5705L8.9206 10.5705L8.92059 10.5705L8.92058 10.5705L8.92057 10.5705L8.92056 10.5706L8.92055 10.5706L8.92054 10.5706L8.92054 10.5706L8.92053 10.5706L8.92052 10.5706L8.92051 10.5706L8.9205 10.5706L8.92049 10.5706L8.92048 10.5706L8.92047 10.5706L8.92046 10.5707L8.92045 10.5707L8.92045 10.5707L8.92044 10.5707L8.92043 10.5707L8.92042 10.5707L8.92041 10.5707L8.9204 10.5707L8.92039 10.5707L8.92038 10.5707L8.92037 10.5707L8.92037 10.5707L8.92036 10.5708L8.92035 10.5708L8.92034 10.5708L8.92033 10.5708L8.92032 10.5708L8.92031 10.5708L8.9203 10.5708L8.92029 10.5708L8.92029 10.5708L8.92028 10.5708L8.92027 10.5708L8.92026 10.5709L8.92025 10.5709L8.92024 10.5709L8.92023 10.5709L8.92022 10.5709L8.92021 10.5709L8.92021 10.5709L8.9202 10.5709L8.92019 10.5709L8.92018 10.5709L8.92017 10.5709L8.92016 10.571L8.92015 10.571L8.92014 10.571L8.92013 10.571L8.92013 10.571L8.92012 10.571L8.92011 10.571L8.9201 10.571L8.92009 10.571L8.92008 10.571L8.92007 10.571L8.92006 10.5711L8.92005 10.5711L8.92004 10.5711L8.92004 10.5711L8.92003 10.5711L8.92002 10.5711L8.92001 10.5711L8.92 10.5711L8.91999 10.5711L8.91998 10.5711L8.91997 10.5711L8.91996 10.5712L8.91995 10.5712L8.91995 10.5712L8.91994 10.5712L8.91993 10.5712L8.91992 10.5712L8.91991 10.5712L8.9199 10.5712L8.91989 10.5712L8.91988 10.5712L8.91987 10.5712L8.91986 10.5713L8.91986 10.5713L8.91985 10.5713L8.91984 10.5713L8.91983 10.5713L8.91982 10.5713L8.91981 10.5713L8.9198 10.5713L8.91979 10.5713L8.91978 10.5713L8.91977 10.5713L8.91976 10.5714L8.91976 10.5714L8.91975 10.5714L8.91974 10.5714L8.91973 10.5714L8.91972 10.5714L8.91971 10.5714L8.9197 10.5714L8.91969 10.5714L8.91968 10.5714L8.91967 10.5714L8.91967 10.5715L8.91966 10.5715L8.91965 10.5715L8.91964 10.5715L8.91963 10.5715L8.91962 10.5715L8.91961 10.5715L8.9196 10.5715L8.91959 10.5715L8.91958 10.5715L8.91957 10.5715L8.91957 10.5716L8.64557 10.8455C8.64557 10.8455 8.64556 10.8456 8.64556 10.8456C8.58612 10.905 8.5075 10.9375 8.42333 10.9375C8.3392 10.9375 8.26054 10.9049 8.20117 10.8455ZM13.9796 15.6268L9.88317 10.9206L10.9214 9.8824L15.6229 13.9834L13.9796 15.6268ZM15.0038 16.8037L14.5904 16.3286L16.324 14.595L16.7985 15.0089L15.0038 16.8037Z" fill="#6161FF" stroke="#6161FF" stroke-width="0.15"/>
<path d="M7.92664 4.51551L7.92665 4.51552C8.10787 4.69679 8.10789 4.99061 7.92664 5.17182C7.92664 5.17182 7.92664 5.17182 7.92664 5.17183L6.27574 6.82272L6.27573 6.82274C6.18512 6.9133 6.06624 6.95866 5.94757 6.95866L7.92664 4.51551ZM7.92664 4.51551C7.74536 4.33428 7.45158 4.33428 7.27031 4.51551L7.2703 4.51552L5.6194 6.16642C5.43817 6.34765 5.43816 6.64152 5.6194 6.82272L7.92664 4.51551Z" fill="#6161FF" stroke="#6161FF" stroke-width="0.15"/>
</svg>
