<svg width="18" height="24" viewBox="0 0 18 24" fill="none" xmlns="http://www.w3.org/2000/svg">
<path d="M5.42032 3.92517H3.08614C2.46707 3.92517 1.87336 4.17109 1.43562 4.60884C0.997875 5.04658 0.751953 5.64029 0.751953 6.25935V20.2644C0.751953 20.8835 0.997875 21.4772 1.43562 21.915C1.87336 22.3527 2.46707 22.5986 3.08614 22.5986H14.757C15.3761 22.5986 15.9698 22.3527 16.4076 21.915C16.8453 21.4772 17.0912 20.8835 17.0912 20.2644V6.25935C17.0912 5.64029 16.8453 5.04658 16.4076 4.60884C15.9698 4.17109 15.3761 3.92517 14.757 3.92517H12.4229" stroke="#6161FF" stroke-width="1.5" stroke-linecap="round" stroke-linejoin="round"/>
<path d="M11.2554 10.9266H8.33765C7.87335 10.9266 7.42807 11.111 7.09976 11.4393C6.77145 11.7676 6.58701 12.2129 6.58701 12.6772C6.58701 13.1415 6.77145 13.5868 7.09976 13.9151C7.42807 14.2434 7.87335 14.4278 8.33765 14.4278H9.50474C9.96904 14.4278 10.4143 14.6123 10.7426 14.9406C11.0709 15.2689 11.2554 15.7142 11.2554 16.1785C11.2554 16.6428 11.0709 17.0881 10.7426 17.4164C10.4143 17.7447 9.96904 17.9291 9.50474 17.9291H6.58701M8.9212 17.9291V19.0962M8.9212 9.75948V10.9266M5.41992 3.92403C5.41992 3.30496 5.66584 2.71125 6.10359 2.27351C6.54133 1.83577 7.13504 1.58984 7.7541 1.58984H10.0883C10.7074 1.58984 11.3011 1.83577 11.7388 2.27351C12.1765 2.71125 12.4225 3.30496 12.4225 3.92403C12.4225 4.54309 12.1765 5.1368 11.7388 5.57454C11.3011 6.01229 10.7074 6.25821 10.0883 6.25821H7.7541C7.13504 6.25821 6.54133 6.01229 6.10359 5.57454C5.66584 5.1368 5.41992 4.54309 5.41992 3.92403Z" stroke="#6161FF" stroke-width="1.5" stroke-linecap="round" stroke-linejoin="round"/>
</svg>
