<svg width="38" height="38" viewBox="0 0 38 38" fill="none" xmlns="http://www.w3.org/2000/svg">
<path d="M19 24.25C20.3924 24.25 21.7277 23.6969 22.7123 22.7123C23.6969 21.7277 24.25 20.3924 24.25 19C24.25 17.6076 23.6969 16.2723 22.7123 15.2877C21.7277 14.3031 20.3924 13.75 19 13.75C17.6076 13.75 16.2723 14.3031 15.2877 15.2877C14.3031 16.2723 13.75 17.6076 13.75 19C13.75 20.3924 14.3031 21.7277 15.2877 22.7123C16.2723 23.6969 17.6076 24.25 19 24.25Z" stroke="#2D3353" stroke-width="2" stroke-linecap="round" stroke-linejoin="round"/>
<path d="M32.3375 16.191L30.4178 11.5535L32.999 8.49976L29.499 4.99976L26.4628 7.59501L21.7255 5.64726L20.6353 1.49976H17.2158L16.1098 5.70151L11.481 7.65276L8.49902 4.99976L4.99902 8.49976L7.54177 11.6305L5.65177 16.2803L1.49902 17.2498V20.7498L5.70077 21.896L7.65202 26.5248L4.99902 29.4998L8.49902 32.9998L11.6333 30.4448L16.1938 32.3208L17.249 36.4998H20.749L21.806 32.3225L26.4453 30.401C27.2188 30.954 29.499 32.9998 29.499 32.9998L32.999 29.4998L30.402 26.4373L32.3235 21.7963L36.499 20.7113V17.2498L32.3375 16.191Z" stroke="#2D3353" stroke-width="2" stroke-linecap="round" stroke-linejoin="round"/>
</svg>
