<svg width="33" height="37" viewBox="0 0 33 37" fill="none" xmlns="http://www.w3.org/2000/svg">
<path d="M31.8196 22.9194L28.4689 19.5278V15.0349C28.4651 11.93 27.324 8.93678 25.2663 6.63411C23.2086 4.33144 20.3805 2.88285 17.3289 2.56845V0H14.8533V2.56845C11.8017 2.88285 8.9736 4.33144 6.91592 6.63411C4.85825 8.93678 3.71717 11.93 3.71334 15.0349V19.5278L0.362669 22.9194C0.130524 23.1543 7.01046e-05 23.4729 0 23.8052V27.5639C0 27.8962 0.130408 28.2149 0.362537 28.4498C0.594665 28.6848 0.909499 28.8168 1.23778 28.8168H9.90223V29.7903C9.8753 31.3798 10.4288 32.9234 11.4566 34.1254C12.4844 35.3274 13.9143 36.1032 15.4722 36.3042C16.3327 36.3905 17.2015 36.2937 18.0228 36.0198C18.844 35.7458 19.5996 35.301 20.2408 34.7138C20.882 34.1266 21.3947 33.41 21.7459 32.6102C22.0971 31.8104 22.279 30.945 22.28 30.0697V28.8168H30.9445C31.2727 28.8168 31.5876 28.6848 31.8197 28.4498C32.0518 28.2149 32.1822 27.8962 32.1822 27.5639V23.8052C32.1822 23.4729 32.0517 23.1543 31.8196 22.9194ZM19.8045 30.0697C19.8045 31.0666 19.4132 32.0226 18.7168 32.7275C18.0205 33.4324 17.076 33.8284 16.0911 33.8284C15.1063 33.8284 14.1618 33.4324 13.4654 32.7275C12.769 32.0226 12.3778 31.0666 12.3778 30.0697V28.8168H19.8045V30.0697ZM29.7067 26.311H2.47556V24.3239L5.82622 20.9323C6.05837 20.6974 6.18882 20.3787 6.18889 20.0465V15.0349C6.18889 12.3765 7.23216 9.82708 9.08919 7.94736C10.9462 6.06764 13.4649 5.01162 16.0911 5.01162C18.7174 5.01162 21.236 6.06764 23.0931 7.94736C24.9501 9.82708 25.9933 12.3765 25.9933 15.0349V20.0465C25.9934 20.3787 26.1239 20.6974 26.356 20.9323L29.7067 24.3239V26.311Z" fill="#2D3353"/>
</svg>
