<svg width="22" height="21" viewBox="0 0 22 21" fill="none" xmlns="http://www.w3.org/2000/svg">
<path d="M14.371 11.1594H1.37799C1.00701 11.1594 0.705933 10.8556 0.705933 10.4813C0.705933 10.107 1.00701 9.80322 1.37799 9.80322H14.371C14.742 9.80322 15.0431 10.107 15.0431 10.4813C15.0431 10.8556 14.742 11.1594 14.371 11.1594Z" fill="#6161FF"/>
<path d="M10.6923 14.8402C10.5164 14.8402 10.3407 14.7748 10.2068 14.6429C9.93854 14.3801 9.93854 13.9539 10.2068 13.6909L13.3847 10.5778L10.2068 7.46456C9.93854 7.20172 9.93854 6.77541 10.2068 6.51256C10.4753 6.24972 10.9103 6.24972 11.1786 6.51256L14.8418 10.1014C15.1101 10.3643 15.1101 10.7904 14.8418 11.0532L11.1786 14.6419C11.0439 14.7748 10.8682 14.8402 10.6923 14.8402Z" fill="#6161FF"/>
<path d="M11.4329 20.4597C7.37421 20.4597 3.79103 18.0003 2.3026 14.1933C2.16707 13.8484 2.3364 13.4568 2.67981 13.3203C3.02224 13.1855 3.41203 13.3535 3.54756 13.7012C4.83269 16.9879 7.92811 19.1123 11.4329 19.1123C16.1041 19.1123 19.9051 15.2838 19.9051 10.5787C19.9051 5.8737 16.1041 2.04515 11.4329 2.04515C7.92811 2.04515 4.83269 4.16955 3.54756 7.4563C3.41105 7.80401 3.02224 7.97194 2.67981 7.83723C2.3364 7.70071 2.16707 7.30909 2.3026 6.96418C3.79103 3.15719 7.37421 0.697754 11.4329 0.697754C16.8417 0.697754 21.2429 5.13075 21.2429 10.5787C21.2429 16.0267 16.8417 20.4597 11.4329 20.4597Z" fill="#6161FF"/>
</svg>
