<svg width="39" height="38" viewBox="0 0 39 38" fill="none" xmlns="http://www.w3.org/2000/svg">
<path d="M18.8506 0.000488281C19.0509 0.000488281 19.2512 0.000488281 19.4515 0.000488281C20.0524 0.300939 20.5532 0.60139 21.1541 0.901841C26.462 3.8062 31.77 6.61041 37.078 9.51477C37.3784 9.71507 37.6789 9.91537 37.8792 10.2158C38.2798 10.9169 37.9793 11.6179 37.1781 12.1187C35.5757 13.02 33.9733 13.8212 32.4711 14.7226C32.3709 14.8227 32.2707 14.8227 32.0704 14.9229C32.2707 15.023 32.3709 15.1232 32.4711 15.1232C34.0735 15.9244 35.5757 16.8257 37.1781 17.6269C37.3784 17.7271 37.5787 17.9274 37.779 18.0275C38.3799 18.7286 38.1796 19.6299 37.2783 20.1307C35.6759 21.0321 34.0735 21.8333 32.4711 22.7346C32.3709 22.8348 32.2707 22.8348 32.0704 22.9349C32.2707 23.0351 32.3709 23.1352 32.4711 23.1352C34.0735 23.9364 35.5757 24.8378 37.1781 25.639C37.5787 25.8393 37.8792 26.0396 37.9793 26.5403C38.1796 27.2414 37.8792 27.8423 37.1781 28.2429C31.4695 31.3475 25.8611 34.352 20.1526 37.4567C19.4515 37.8573 18.8506 37.8573 18.2497 37.4567C12.5411 34.4522 6.93273 31.4477 1.32431 28.4432C0.823558 28.1427 0.422957 27.8423 0.222656 27.3415C0.222656 27.1412 0.222656 26.9409 0.222656 26.7406C0.422957 26.2399 0.823558 25.8393 1.32431 25.639C2.82656 24.8378 4.32882 24.0366 5.93122 23.1352C6.03137 23.0351 6.13152 23.0351 6.33182 22.9349C6.13152 22.8348 6.03137 22.7346 5.93122 22.7346C4.42897 21.9334 2.92671 21.1322 1.42446 20.331C0.923708 20.0305 0.523107 19.7301 0.322807 19.2293C0.322807 19.029 0.322807 18.8287 0.322807 18.6284C0.523107 18.1277 0.923708 17.7271 1.42446 17.5268C1.72491 17.4266 2.02536 17.2263 2.32581 17.026C3.62777 16.325 5.02987 15.6239 6.43197 14.8227C6.33182 14.7226 6.13152 14.6224 6.03137 14.6224C4.52912 13.8212 2.92671 12.9199 1.42446 12.1187C0.923708 11.8182 0.523107 11.5178 0.422957 11.017C0.422957 10.8167 0.422957 10.6164 0.422957 10.4161C0.623257 10.0155 0.823558 9.71507 1.32431 9.41462C7.03288 6.30996 12.9417 3.2053 18.8506 0.000488281ZM33.8731 10.8167C33.773 10.7166 33.6729 10.7166 33.5727 10.6164C28.8656 8.11266 24.1586 5.6089 19.5517 3.005C19.3514 2.90485 19.1511 2.90485 18.9508 3.005C14.2437 5.50875 9.53663 8.11266 4.82957 10.6164C4.72942 10.6164 4.62927 10.7166 4.52912 10.8167C4.62927 10.8167 4.62927 10.9169 4.72942 10.9169C9.43648 13.5208 14.2437 16.0245 18.9508 18.6284C19.1511 18.7286 19.3514 18.7286 19.5517 18.6284C23.9583 16.2248 28.3649 13.9214 32.6714 11.5178C33.072 11.3175 33.3724 11.017 33.8731 10.8167ZM4.42897 18.9289C4.52912 19.029 4.62927 19.029 4.62927 19.1292C9.33633 21.633 14.1435 24.2369 18.8506 26.7406C19.0509 26.8408 19.1511 26.8408 19.3514 26.7406C24.0584 24.2369 28.7655 21.633 33.4726 19.1292C33.5727 19.1292 33.6729 19.029 33.773 18.9289C32.2707 18.1277 30.8686 17.3265 29.4665 16.6254C29.2662 16.5253 29.0659 16.5253 28.8656 16.6254C25.9613 18.2278 23.0569 19.7301 20.0524 21.3325C19.3514 21.7331 18.8506 21.7331 18.1496 21.3325C15.2452 19.7301 12.2407 18.1277 9.33633 16.6254C9.23618 16.4251 9.03588 16.4251 8.83558 16.5253C7.53363 17.2263 6.13152 18.0275 4.72942 18.7286C4.72942 18.8287 4.62927 18.8287 4.42897 18.9289ZM4.42897 27.0411C4.52912 27.1412 4.62927 27.1412 4.62927 27.1412C9.33633 29.7451 14.1435 32.2489 18.8506 34.8528C19.0509 34.9529 19.2512 34.9529 19.3514 34.8528C24.0584 32.349 28.7655 29.8453 33.3724 27.2414C33.4725 27.1412 33.5727 27.1412 33.6729 27.0411C32.1706 26.2399 30.7685 25.4387 29.2662 24.6375C29.0659 24.5373 28.8656 24.5373 28.6653 24.6375C25.761 26.2399 22.8566 27.7421 19.8521 29.3445C19.1511 29.7451 18.5502 29.7451 17.9493 29.3445C15.0449 27.7421 12.1405 26.1397 9.13603 24.6375C9.03588 24.5373 8.83558 24.5373 8.63528 24.5373C7.43348 25.4387 5.93122 26.2399 4.42897 27.0411Z" fill="white"/>
</svg>
