<svg width="71" height="50" viewBox="0 0 71 50" fill="none" xmlns="http://www.w3.org/2000/svg">
<path fill-rule="evenodd" clip-rule="evenodd" d="M9.73751 8.09559C10.5923 7.84364 11.6016 7.96683 12.4871 8.50942L13.9666 9.41176C14.9446 10.011 15.4664 10.9917 15.7421 11.9041C16.0177 12.8166 16.0993 13.7222 16.1927 14.4754C16.2309 14.7832 16.4034 15.1621 16.8847 15.838C17.0925 16.1296 18.1525 16.6703 18.5645 16.6703H22.1336C22.7498 16.6433 23.3462 16.8178 23.95 17.2794C24.5537 17.741 25.076 18.5956 25.0926 19.6231C25.0927 19.6321 25.0927 19.6411 25.0926 19.6501C25.0926 21.2795 23.7744 22.6262 22.1791 22.6262H15.0865C14.4704 22.6262 13.8763 22.3724 13.4386 21.9243L12.4553 20.9198L9.5372 25.3931C9.02768 26.1733 8.73419 27.079 8.68591 28.0158L7.61156 48.875C7.59518 49.1792 7.4652 49.4653 7.2484 49.6746C7.0316 49.8839 6.74447 50.0004 6.44616 50H1.78455C1.6312 50 1.47936 49.9692 1.33773 49.9091C1.19611 49.8491 1.06748 49.7608 0.959213 49.6499C0.85095 49.539 0.765184 49.4073 0.706829 49.2624C0.648473 49.1176 0.618677 48.9624 0.619146 48.8058V23.5102C0.61916 21.9258 1.06084 20.3739 1.8938 19.0369L7.73903 9.65341C8.19162 8.92726 8.8827 8.34745 9.73751 8.09559ZM10.3839 10.3836C10.1311 10.4556 9.87784 10.6563 9.70564 10.9325L3.86042 20.316C3.26548 21.271 2.94996 22.3786 2.94995 23.5104V47.6159H5.33994L6.35511 27.8862C6.42538 26.5227 6.85638 25.205 7.5979 24.0687L10.516 19.5954C11.3184 18.3664 13.0809 18.1875 14.1032 19.2327L15.0865 20.2416H22.1791C22.5121 20.2416 22.7534 19.9896 22.7572 19.6503C22.7482 19.3435 22.6759 19.2796 22.5524 19.1852C22.4253 19.0871 22.1591 19.0475 22.2246 19.0448C22.2094 19.0451 22.1943 19.0451 22.1791 19.0448H18.5645C17.1776 19.0448 15.8502 18.4248 15 17.2314C14.4403 16.4449 13.9946 15.6948 13.8801 14.7717C13.7819 13.979 13.6954 13.1939 13.5159 12.5999C13.3365 12.006 13.1181 11.6604 12.7694 11.4468L11.2898 10.5448C10.8995 10.3054 10.6368 10.308 10.3839 10.3836Z" fill="#6161FF"/>
<path fill-rule="evenodd" clip-rule="evenodd" d="M69.3598 8.33307C69.5143 8.3307 69.6678 8.35971 69.8112 8.41847C69.9546 8.47723 70.0852 8.56445 70.1953 8.67522C70.3054 8.78599 70.3928 8.91791 70.4524 9.06351C70.5121 9.20911 70.5428 9.36535 70.5428 9.5232C70.5428 9.68104 70.5121 9.83728 70.4524 9.98288C70.3928 10.1285 70.3054 10.2607 70.1953 10.3714C70.0852 10.4822 69.9546 10.5694 69.8112 10.6282C69.6678 10.687 69.5143 10.716 69.3598 10.7136H62.504C60.4528 10.7136 58.4758 11.5064 56.9683 12.9272L47.1671 22.1618C45.244 23.9745 42.7567 25.0386 40.1428 25.1657L26.2855 25.8396C22.985 26.0015 20.4129 28.7607 20.413 32.1359V39.269C20.4151 39.4268 20.3866 39.5831 20.329 39.7295C20.2714 39.8759 20.1859 40.0093 20.0775 40.1217C19.9691 40.234 19.8398 40.323 19.6974 40.3839C19.5549 40.4448 19.402 40.4762 19.2476 40.4762C19.0931 40.4762 18.9402 40.4448 18.7977 40.3839C18.6553 40.323 18.526 40.234 18.4176 40.1217C18.3092 40.0093 18.2237 39.8759 18.1661 39.7295C18.1085 39.5831 18.08 39.4268 18.0821 39.269V32.1359C18.0821 27.5142 21.6566 23.6834 26.1762 23.4637L40.0336 22.7898C42.1009 22.6899 44.0665 21.8474 45.5875 20.4134L55.3887 11.1741C57.3261 9.34784 59.8677 8.33307 62.504 8.33307H69.3598Z" fill="#6161FF"/>
<path fill-rule="evenodd" clip-rule="evenodd" d="M69.3609 13.0943C69.5154 13.092 69.6688 13.121 69.8122 13.1797C69.9557 13.2385 70.0862 13.326 70.1963 13.4368C70.3064 13.5475 70.3938 13.6795 70.4535 13.8251C70.5132 13.9707 70.5439 14.1269 70.5439 14.2847C70.5439 14.4426 70.5132 14.5988 70.4535 14.7444C70.3938 14.89 70.3064 15.0222 70.1963 15.133C70.0862 15.2438 69.9557 15.331 69.8122 15.3897C69.6688 15.4485 69.5154 15.4775 69.3609 15.4751H62.1591C61.8497 15.4751 61.5537 15.6013 61.3351 15.8244L54.6932 22.6178H69.3609C69.5154 22.6155 69.6688 22.6445 69.8122 22.7032C69.9557 22.762 70.0862 22.8492 70.1963 22.96C70.3064 23.0708 70.3938 23.203 70.4535 23.3486C70.5132 23.4942 70.5439 23.6504 70.5439 23.8082C70.5439 23.9661 70.5132 24.1223 70.4535 24.2679C70.3938 24.4135 70.3064 24.5454 70.1963 24.6562C70.0862 24.767 69.9557 24.8545 69.8122 24.9132C69.6688 24.972 69.5154 25.001 69.3609 24.9986H51.8798C51.6494 24.9985 51.4242 24.9287 51.2326 24.7979C51.041 24.6671 50.8917 24.481 50.8036 24.2635C50.7154 24.0461 50.6923 23.8068 50.7372 23.5759C50.7821 23.3451 50.893 23.1331 51.0559 22.9666L59.6871 14.1455C60.3423 13.476 61.2321 13.0949 62.1591 13.0949L69.3609 13.0943Z" fill="#6161FF"/>
<path fill-rule="evenodd" clip-rule="evenodd" d="M68.1962 27.3792C68.3507 27.3768 68.5041 27.4059 68.6475 27.4646C68.791 27.5234 68.9215 27.6106 69.0316 27.7214C69.1417 27.8321 69.2291 27.9641 69.2888 28.1097C69.3485 28.2553 69.3792 28.4115 69.3792 28.5693C69.3792 28.7272 69.3485 28.8837 69.2888 29.0293C69.2291 29.1749 69.1417 29.3068 69.0316 29.4176C68.9215 29.5284 68.791 29.6156 68.6475 29.6743C68.5041 29.7331 68.3507 29.7621 68.1962 29.7597H64.7318C64.5773 29.7621 64.4239 29.7331 64.2805 29.6743C64.137 29.6156 64.0065 29.5284 63.8964 29.4176C63.7863 29.3068 63.6989 29.1749 63.6392 29.0293C63.5796 28.8837 63.5488 28.7272 63.5488 28.5693C63.5488 28.4115 63.5796 28.2553 63.6392 28.1097C63.6989 27.9641 63.7863 27.8321 63.8964 27.7214C64.0065 27.6106 64.137 27.5234 64.2805 27.4646C64.4239 27.4059 64.5773 27.3768 64.7318 27.3792H68.1962Z" fill="#6161FF"/>
<path fill-rule="evenodd" clip-rule="evenodd" d="M23.8967 38.0923C24.051 38.0904 24.2041 38.1196 24.3471 38.1785C24.4902 38.2375 24.6203 38.3251 24.7301 38.4358C24.8398 38.5465 24.927 38.6784 24.9864 38.8238C25.0459 38.9692 25.0765 39.1251 25.0765 39.2827C25.0765 39.4403 25.0459 39.5962 24.9864 39.7416C24.927 39.8869 24.8398 40.0188 24.7301 40.1296C24.6203 40.2403 24.4902 40.3276 24.3471 40.3866C24.2041 40.4456 24.051 40.475 23.8967 40.4731H20.4142C19.7567 40.4731 19.2488 40.9923 19.2488 41.6635C19.2488 42.3348 19.7567 42.8539 20.4142 42.8539H25.0576C25.2121 42.8515 25.3655 42.8805 25.509 42.9393C25.6524 42.9981 25.7829 43.0853 25.893 43.1961C26.0031 43.3068 26.0905 43.4387 26.1502 43.5843C26.2099 43.7299 26.2406 43.8865 26.2406 44.0443C26.2406 44.2021 26.2099 44.3584 26.1502 44.504C26.0905 44.6496 26.0031 44.7815 25.893 44.8923C25.7829 45.0031 25.6524 45.0903 25.509 45.149C25.3655 45.2078 25.2121 45.2368 25.0576 45.2344H20.4142C18.8205 45.2344 17.6775 44.0153 17.264 42.5145C17.1538 42.4032 17.0665 42.2707 17.007 42.1246C16.9476 41.9784 16.9174 41.8215 16.918 41.6632C16.918 39.705 18.4971 38.092 20.4142 38.092L23.8967 38.0923Z" fill="#6161FF"/>
<path d="M36.7295 30.95C31.5942 30.95 27.4062 35.228 27.4063 40.4733C27.4062 45.7186 31.5942 49.9962 36.7295 49.9962C41.8647 49.9962 46.0527 45.7186 46.0527 40.4733C46.0527 35.228 41.8647 30.95 36.7295 30.95ZM36.7295 33.3309C40.6051 33.3309 43.7219 36.5147 43.7219 40.4733C43.7219 44.432 40.6051 47.6154 36.7295 47.6154C32.8539 47.6154 29.737 44.432 29.7371 40.4733C29.737 36.5147 32.8539 33.3309 36.7295 33.3309Z" fill="#6161FF"/>
<path d="M36.73 35.7116C34.1692 35.7116 32.0684 37.8577 32.0684 40.4732C32.0684 43.0889 34.1692 45.2346 36.73 45.2346C39.2907 45.2346 41.3916 43.0889 41.3916 40.4732C41.3916 37.8577 39.2907 35.7116 36.73 35.7116ZM36.73 38.0924C38.031 38.0924 39.0608 39.1443 39.0608 40.4732C39.0608 41.8022 38.031 42.854 36.73 42.854C35.4289 42.854 34.3992 41.8022 34.3992 40.4732C34.3992 39.1443 35.4289 38.0924 36.73 38.0924Z" fill="#6161FF"/>
<path fill-rule="evenodd" clip-rule="evenodd" d="M69.3608 42.8543C69.5153 42.8519 69.6687 42.8809 69.8122 42.9397C69.9556 42.9984 70.0861 43.0856 70.1962 43.1964C70.3063 43.3072 70.3937 43.4391 70.4534 43.5847C70.5131 43.7303 70.5438 43.8868 70.5438 44.0447C70.5438 44.2025 70.5131 44.3587 70.4534 44.5043C70.3937 44.65 70.3063 44.7819 70.1962 44.8926C70.0861 45.0034 69.9556 45.0906 69.8122 45.1494C69.6687 45.2082 69.5153 45.2372 69.3608 45.2348H48.4018C48.2473 45.2372 48.0938 45.2082 47.9504 45.1494C47.807 45.0906 47.6764 45.0034 47.5663 44.8926C47.4562 44.7819 47.3688 44.65 47.3092 44.5043C47.2495 44.3587 47.2188 44.2025 47.2188 44.0447C47.2188 43.8868 47.2495 43.7303 47.3092 43.5847C47.3688 43.4391 47.4562 43.3072 47.5663 43.1964C47.6764 43.0856 47.807 42.9984 47.9504 42.9397C48.0938 42.8809 48.2473 42.8519 48.4018 42.8543H69.3608Z" fill="#6161FF"/>
<path fill-rule="evenodd" clip-rule="evenodd" d="M69.3606 38.0924C69.5149 38.0905 69.668 38.1197 69.811 38.1786C69.9541 38.2376 70.0842 38.3252 70.194 38.4359C70.3037 38.5466 70.3909 38.6785 70.4503 38.8239C70.5098 38.9693 70.5404 39.1252 70.5404 39.2828C70.5404 39.4404 70.5098 39.5963 70.4503 39.7417C70.3909 39.887 70.3037 40.0189 70.194 40.1297C70.0842 40.2404 69.9541 40.3277 69.811 40.3867C69.668 40.4457 69.5149 40.4751 69.3606 40.4732H54.2286C54.0744 40.4751 53.9213 40.4457 53.7782 40.3867C53.6352 40.3277 53.505 40.2404 53.3953 40.1297C53.2855 40.0189 53.1984 39.887 53.1389 39.7417C53.0794 39.5963 53.0488 39.4404 53.0488 39.2828C53.0488 39.1252 53.0794 38.9693 53.1389 38.8239C53.1984 38.6785 53.2855 38.5466 53.3953 38.4359C53.505 38.3252 53.6352 38.2376 53.7782 38.1786C53.9213 38.1197 54.0744 38.0905 54.2286 38.0924H69.3606Z" fill="#6161FF"/>
<path fill-rule="evenodd" clip-rule="evenodd" d="M28.59 4.76152C28.7577 4.76156 28.9234 4.79855 29.0758 4.86999C29.2282 4.94142 29.3637 5.04552 29.4731 5.17535L44.0224 22.4361L42.2561 23.9889L28.0528 7.14205H25.0938V4.76152H28.59Z" fill="#6161FF"/>
<path fill-rule="evenodd" clip-rule="evenodd" d="M63.5339 14.2846V23.8079H61.2031V14.2846H63.5339Z" fill="#6161FF"/>
<path fill-rule="evenodd" clip-rule="evenodd" d="M34.4166 14.2846H36.7474L36.7292 23.8079H34.3984L34.4166 14.2846Z" fill="#6161FF"/>
<path d="M16.935 0C19.4958 0 21.5967 2.14602 21.5967 4.76162C21.5967 7.3773 19.4958 9.52296 16.935 9.52296C14.3743 9.52296 12.2734 7.3773 12.2734 4.76162C12.2734 2.14602 14.3743 0 16.935 0ZM16.935 2.38081C15.634 2.38081 14.6042 3.43267 14.6042 4.76162C14.6042 6.09056 15.634 7.14242 16.935 7.14242C18.2361 7.14242 19.2658 6.09056 19.2658 4.76162C19.2658 3.43267 18.2361 2.38081 16.935 2.38081Z" fill="#6161FF"/>
</svg>
