<svg width="51" height="50" viewBox="0 0 51 50" fill="none" xmlns="http://www.w3.org/2000/svg">
<path d="M48.5756 30.9373L46.6096 29.9577C47.4238 29.1765 47.9415 28.0918 47.9415 26.8797V4.29129C47.9415 1.92467 46.0114 0 43.6389 0H27.0103C24.6378 0 22.7077 1.92467 22.7077 4.29129V19.5733H19.8024C18.1694 19.5733 16.7002 20.4797 15.9671 21.9434L12.9147 28.0566C12.6582 28.5297 12.2377 28.8632 11.7438 28.9907L3.28328 31.0988C1.36186 31.5979 0.0195312 33.3103 0.0195312 35.2661V41.1959C0.0195312 43.5533 1.9589 45.4716 4.34128 45.4716H6.40458C7.26395 48.1151 9.77893 50 12.664 50C15.5194 50 18.0142 48.133 18.8874 45.4716H30.603C31.4595 48.1151 33.9617 50 36.83 50C39.6964 50 42.1958 48.1192 43.0569 45.4716H46.6565C49.0401 45.4716 50.9794 43.5533 50.9794 41.1959V34.7555C50.9794 33.1643 50.0355 31.666 48.5756 30.9373ZM25.269 4.29129C25.269 3.33183 26.0502 2.55354 27.0103 2.55354H43.6383C44.5996 2.55354 45.3808 3.33183 45.3808 4.29129V26.8791C45.3808 27.5737 44.9621 28.1645 44.368 28.4415C44.3616 28.4288 44.3506 28.4207 44.3448 28.408L41.0799 21.9393C40.3607 20.5039 38.8556 19.5727 37.2457 19.5727H25.269V4.29129ZM16.6133 44.0206C16.3429 45.9735 14.6439 47.4465 12.664 47.4465C10.6632 47.4465 8.95199 45.9735 8.68445 44.0333C8.65781 43.8308 8.63002 43.6317 8.63002 43.4292C8.63002 41.2334 10.4397 39.446 12.664 39.446C14.8709 39.446 16.6649 41.2334 16.6649 43.4292C16.6649 43.6219 16.6383 43.8117 16.6133 44.0206ZM40.7799 44.0206C40.5095 45.9735 38.8122 47.4465 36.8305 47.4465C34.8489 47.4465 33.1516 45.9735 32.884 44.0333C32.8574 43.8308 32.8308 43.6317 32.8308 43.4292C32.8308 41.2334 34.6248 39.446 36.8305 39.446C39.0374 39.446 40.8315 41.2334 40.8315 43.4292C40.8315 43.6312 40.8031 43.8308 40.7799 44.0206ZM48.4175 41.1959C48.4175 42.1455 47.6282 42.9181 46.6559 42.9181H43.3395C43.0737 39.5562 40.2732 36.8919 36.83 36.8919C33.3884 36.8919 30.5874 39.5562 30.3204 42.9181H19.1735C18.9077 39.5562 16.1072 36.8919 12.664 36.8919C9.20505 36.8919 6.3901 39.5562 6.1214 42.9181H4.34128C3.37072 42.9181 2.58142 42.1455 2.58142 41.1959V35.2661C2.58142 34.4595 3.12229 33.7776 3.91623 33.5687L12.3779 31.4606C12.7421 31.3665 13.0815 31.2113 13.4064 31.0285V31.1681H33.0572V28.6145H15.4945L18.258 23.0805C18.5579 22.4828 19.1364 22.1274 19.8024 22.1274H37.2463C37.8932 22.1274 38.5 22.5013 38.7919 23.0834L42.0429 29.5267C42.4274 30.3361 43.0586 30.9904 43.973 31.4952L47.4285 33.2174C48.0209 33.5133 48.4175 34.1301 48.4175 34.7561V41.1959Z" fill="#6161FF"/>
<path d="M28.7539 7.7731H41.8952V10.3266H28.7539V7.7731Z" fill="#6161FF"/>
<path d="M28.7539 14.1512H41.8952V16.7048H28.7539V14.1512Z" fill="#6161FF"/>
</svg>
