<svg width="51" height="50" viewBox="0 0 51 50" fill="none" xmlns="http://www.w3.org/2000/svg">
<mask id="mask0_1_607" style="mask-type:luminance" maskUnits="userSpaceOnUse" x="0" y="0" width="51" height="50">
<path d="M0.441406 7.62939e-05H50.3893V50H0.441406V7.62939e-05Z" fill="white"/>
</mask>
<g mask="url(#mask0_1_607)">
<path d="M25.4159 0.976086C24.3429 0.976086 23.4648 1.85499 23.4648 2.92921V6.83545C23.4648 7.90967 24.3428 8.78857 25.4158 8.78857C26.4889 8.78857 27.367 7.90967 27.367 6.83545V2.92921C27.367 1.85499 26.489 0.976086 25.4159 0.976086Z" stroke="#6161FF" stroke-width="1.8" stroke-miterlimit="22.926" stroke-linecap="round" stroke-linejoin="round"/>
<path d="M13.7089 0.976086C12.6358 0.976086 11.7578 1.85499 11.7578 2.92921V6.83545C11.7578 7.90967 12.6358 8.78857 13.7089 8.78857C14.782 8.78857 15.66 7.90967 15.66 6.83545V2.92921C15.66 1.85499 14.782 0.976086 13.7089 0.976086Z" stroke="#6161FF" stroke-width="1.8" stroke-miterlimit="22.926" stroke-linecap="round" stroke-linejoin="round"/>
<path d="M37.121 0.976086C36.048 0.976086 35.1699 1.85499 35.1699 2.92921V6.83545C35.1699 7.90967 36.0479 8.78857 37.1209 8.78857C38.194 8.78857 39.0721 7.90967 39.0721 6.83545V2.92921C39.0721 1.85499 38.1941 0.976086 37.121 0.976086Z" stroke="#6161FF" stroke-width="1.8" stroke-miterlimit="22.926" stroke-linecap="round" stroke-linejoin="round"/>
<path d="M32.244 49.0232H7.85539C6.78229 49.0232 5.9043 48.1443 5.9043 47.0701V6.83554C5.9043 5.76122 6.78229 4.88241 7.85539 4.88241H11.1966M39.1948 4.88241H42.975C44.0481 4.88241 44.9261 5.76132 44.9261 6.83554V47.0701C44.9261 48.1443 44.0481 49.0232 42.975 49.0232H41.0239M27.5004 4.88241H34.9877M15.8427 4.88241H23.3422" stroke="#6161FF" stroke-width="1.8" stroke-miterlimit="22.926" stroke-linecap="round" stroke-linejoin="round"/>
<path d="M18.0978 12.6948H44.6575M6.17188 12.6948H9.31791" stroke="#6161FF" stroke-width="1.8" stroke-miterlimit="22.926" stroke-linecap="round" stroke-linejoin="round"/>
<path d="M25.3948 30.0191C24.0988 28.6743 22.3325 27.3245 22.3325 25.331C22.3325 23.6221 23.731 22.3254 25.4144 22.3254C27.0978 22.3254 28.4964 23.6221 28.4963 25.331C28.4963 27.3346 26.7121 28.6878 25.4144 30.0394L16.3145 39.5167L19.3579 40.4412L20.7579 43.2998L28.3937 33.1422C30.1874 30.756 32.3986 28.5146 32.3986 25.331C32.3986 21.4618 29.2549 18.4192 25.4144 18.4192C21.5739 18.4192 18.4303 21.4618 18.4303 25.331C18.4303 28.5086 20.6349 30.7502 22.425 33.1334M25.4614 37.1726L30.071 43.2998L31.4711 40.4412L34.5144 39.5167L28.4567 33.2078" stroke="#6161FF" stroke-width="1.8" stroke-miterlimit="22.926" stroke-linecap="round" stroke-linejoin="round"/>
<path d="M22.334 25.3311C22.334 22.5926 23.1682 18.4925 25.4159 18.4925C27.6636 18.4925 28.4978 22.5926 28.4978 25.3311" stroke="#6161FF" stroke-width="1.8" stroke-miterlimit="22.926" stroke-linecap="round" stroke-linejoin="round"/>
<path d="M13.707 12.6948H13.7083" stroke="#6161FF" stroke-width="1.8" stroke-miterlimit="2.613" stroke-linecap="round" stroke-linejoin="round"/>
<path d="M36.6328 49.0234H36.634" stroke="#6161FF" stroke-width="1.8" stroke-miterlimit="2.613" stroke-linecap="round" stroke-linejoin="round"/>
</g>
</svg>
