<svg width="45" height="50" viewBox="0 0 45 50" fill="none" xmlns="http://www.w3.org/2000/svg">
<path d="M35.3955 4.58887C34.857 4.58887 34.4199 5.02637 34.4199 5.56543C34.4199 6.10449 34.857 6.54199 35.3955 6.54199C35.934 6.54199 36.371 6.10449 36.371 5.56543C36.371 5.02637 35.9342 4.58887 35.3955 4.58887Z" fill="#6161FF"/>
<path d="M36.2893 0.781129C30.1713 -1.18273 25.0584 1.01492 22.7142 2.36912C20.3703 1.01463 15.2581 -1.18313 9.13864 0.781129C1.03459 3.38337 -2.76487 15.2293 3.73295 24.7874C6.81147 29.314 7.22257 32.8055 7.65776 36.5021C7.97637 39.208 8.30581 42.0062 9.68192 45.2775C10.6073 47.4767 11.9154 49.9924 13.8508 49.9922C13.8683 49.9922 13.8861 49.992 13.9037 49.9916C15.46 49.9548 16.7141 48.4097 17.9699 44.9815C18.6095 43.2339 19.0193 41.1718 19.4157 39.1778C20.1291 35.5885 20.8669 31.8771 22.7211 31.8641C22.7245 31.8641 22.7277 31.8641 22.731 31.8641C24.5649 31.8641 25.3011 35.5768 26.013 39.1671C26.4096 41.1675 26.8197 43.2361 27.4593 44.9817C28.7166 48.4151 29.9706 49.9627 31.5254 49.9994C31.5431 49.9998 31.5606 50 31.5782 50C33.5097 50 34.8196 47.4803 35.7463 45.2774C37.0614 42.1513 37.4058 39.3601 37.739 36.6608C38.208 32.8603 38.651 29.2706 41.7025 24.7771C48.2764 15.0955 44.2574 3.33806 36.2893 0.781129ZM40.0888 23.679C36.7723 28.5628 36.2793 32.5578 35.8024 36.4213C35.471 39.1066 35.158 41.6429 33.948 44.5192C32.5124 47.9312 31.6799 48.0468 31.5746 48.0468C31.5734 48.0468 31.5725 48.0468 31.5715 48.0468C31.5339 48.0459 30.6363 47.9828 29.2912 44.3091C28.7039 42.7064 28.3089 40.7138 27.9269 38.7868C27.498 36.6238 27.093 34.5805 26.4253 32.9857C25.571 30.9451 24.3293 29.9108 22.7342 29.9108C22.7253 29.9108 22.7163 29.9108 22.7074 29.9109C21.1056 29.9221 19.8593 30.9645 19.0032 33.0092C18.3359 34.6032 17.9309 36.6402 17.5024 38.7966C17.1204 40.7177 16.7256 42.7043 16.1382 44.3093C14.7954 47.9751 13.8957 48.0382 13.858 48.0391C13.7706 48.0406 12.9283 47.9606 11.4804 44.5194C10.2115 41.5029 9.91244 38.9629 9.59587 36.2736C9.15229 32.5061 8.69359 28.6104 5.3463 23.6886C-0.511358 15.0723 3.01953 4.79753 9.73479 2.64119C15.5744 0.766676 20.3939 3.20173 22.1948 4.33581C22.5122 4.53571 22.9161 4.53581 23.2334 4.33591C25.035 3.20212 29.8557 0.767262 35.6938 2.64128C42.542 4.83864 45.828 15.2269 40.0888 23.679Z" fill="#6161FF"/>
<path d="M40.3831 10.1098C40.0663 9.18902 39.6463 8.34176 39.135 7.59147C38.8313 7.14577 38.2245 7.03102 37.7794 7.33502C37.3343 7.63893 37.2196 8.24645 37.5233 8.69205C37.9367 9.29859 38.2782 9.98971 38.5385 10.746C39.5106 13.5706 39.257 16.8664 37.8425 19.7883C37.6075 20.2737 37.8101 20.8578 38.295 21.093C38.7799 21.3283 39.3634 21.1254 39.5983 20.6401C41.2361 17.257 41.5222 13.4188 40.3831 10.1098Z" fill="#6161FF"/>
<path d="M19.1685 13.3591L15.2412 12.0487L13.9321 8.11736C13.7994 7.71863 13.4265 7.44958 13.0066 7.44958C12.5868 7.44958 12.214 7.71853 12.0811 8.11736L10.7721 12.0487L6.84481 13.3591C6.4465 13.4921 6.17773 13.8653 6.17773 14.2856C6.17773 14.7059 6.4464 15.0791 6.84481 15.2121L10.7721 16.5225L12.0811 20.4539C12.2139 20.8526 12.5868 21.1216 13.0066 21.1216C13.4265 21.1216 13.7993 20.8527 13.9321 20.4539L15.2412 16.5225L19.1685 15.2121C19.5668 15.0792 19.8356 14.7059 19.8356 14.2856C19.8356 13.8653 19.5669 13.4922 19.1685 13.3591ZM14.1615 14.824C13.8702 14.9212 13.6415 15.15 13.5445 15.4417L13.0066 17.0569L12.4688 15.4417C12.3718 15.1501 12.1432 14.9212 11.8518 14.824L10.2382 14.2856L11.8518 13.7472C12.1431 13.6501 12.3718 13.4213 12.4688 13.1296L13.0066 11.5143L13.5445 13.1296C13.6415 13.4212 13.8701 13.6501 14.1615 13.7472L15.775 14.2856L14.1615 14.824Z" fill="#6161FF"/>
</svg>
