<svg width="63" height="50" viewBox="0 0 63 50" fill="none" xmlns="http://www.w3.org/2000/svg">
<path d="M61.9304 36.6596L57.0945 31.8121V15.1847L60.2516 14.0438C60.9764 13.7817 61.4597 13.0928 61.4604 12.3204C61.461 11.5482 60.9786 10.8582 60.2541 10.5953L31.3685 0.10954C30.9663 -0.0365134 30.5252 -0.0365134 30.123 0.10954L1.23753 10.5953C0.515817 10.8574 0.0341876 11.543 0.0312613 12.3124C0.0285788 13.0818 0.505209 13.771 1.22485 14.0383L11.8852 17.9967V30.0789C11.8852 30.4539 11.9998 30.8199 12.2138 31.1274C12.3315 31.2966 13.446 32.8223 16.2997 34.262C19.9049 36.0812 24.6334 37.0035 30.3537 37.0035C36.0698 37.0035 40.8222 36.0831 44.4788 34.2675C47.3607 32.8367 48.5123 31.3269 48.6343 31.1596C48.8625 30.8458 48.9855 30.4676 48.9855 30.0791V18.115L53.4366 16.5064V31.8121L48.6006 36.6596C48.2576 37.0034 48.0648 37.4697 48.0648 37.9559C48.0648 38.4421 48.2575 38.9085 48.6006 39.2522L53.4366 44.0996V48.1667C53.4366 49.1792 54.2555 50 55.2656 50C56.2757 50 57.0946 49.1792 57.0946 48.1667V44.0996L61.9305 39.2522C62.6448 38.5364 62.6448 37.3755 61.9304 36.6596ZM30.7458 3.78313L54.2494 12.3152L30.3623 20.9475L7.17779 12.3386L30.7458 3.78313ZM45.3275 29.3483C39.0749 34.9878 20.4953 34.3411 15.5431 29.3666V19.355L29.7183 24.6186C29.9433 24.6543 30.1557 24.8487 30.9739 24.6242L45.3276 19.4371L45.3275 29.3483ZM55.2655 40.7477L52.4802 37.9559L55.2655 35.164L58.0507 37.9559L55.2655 40.7477Z" fill="#6161FF"/>
</svg>
