<svg width="31" height="50" viewBox="0 0 31 50" fill="none" xmlns="http://www.w3.org/2000/svg">
<path d="M17.9613 3.31139H12.9996C12.0862 3.31139 11.3457 4.05262 11.3457 4.96702V6.62265C11.3457 7.53706 12.0862 8.27828 12.9996 8.27828H17.9613C18.8748 8.27828 19.6152 7.53706 19.6152 6.62265V4.96702C19.6152 4.05262 18.8748 3.31139 17.9613 3.31139ZM12.9996 6.62265V4.96702H17.9613V6.62265H12.9996Z" fill="#6161FF"/>
<path d="M20.4972 0H10.4633C9.07806 0 7.95506 1.11923 7.95506 2.50015V10.1593C3.59853 10.9661 0.43696 14.7507 0.429688 19.1666V37.5C0.433132 40.5975 2.00549 43.4837 4.61053 45.1733V46.6667C4.61053 48.5077 6.10787 50 7.95506 50H23.0054C24.8526 50 26.3503 48.5077 26.3503 46.6667V45.1733C28.955 43.4837 30.5277 40.5975 30.5308 37.5V19.1666C30.5239 14.7507 27.3619 10.9661 23.0054 10.1593V2.50015C23.0054 1.11923 21.8824 0 20.4972 0ZM9.62732 2.50015C9.62732 2.03972 10.0017 1.66664 10.4633 1.66664H20.4972C20.9588 1.66664 21.3331 2.03972 21.3331 2.50015V9.99985H9.62732V2.50015ZM24.6777 46.0407V46.6667C24.6777 47.5872 23.929 48.3334 23.0054 48.3334H7.95506C7.03147 48.3334 6.28279 47.5872 6.28279 46.6667V46.0407C6.40298 46.0876 6.52776 46.1243 6.65062 46.1643C6.77349 46.204 6.873 46.2433 6.98515 46.2776C7.15242 46.3257 7.31356 46.3608 7.47929 46.4043C7.60292 46.434 7.72425 46.4668 7.84865 46.4874C8.02701 46.5225 8.20767 46.545 8.38719 46.571C8.50087 46.5866 8.61301 46.6076 8.72822 46.619C9.02601 46.6476 9.32532 46.664 9.6254 46.664H21.3331C21.6336 46.664 21.9329 46.6476 22.2303 46.619C22.3459 46.6076 22.4581 46.5866 22.5717 46.571C22.7513 46.5466 22.9319 46.524 23.1099 46.4874C23.2347 46.4626 23.356 46.4298 23.4796 46.4043C23.6469 46.365 23.8142 46.3257 23.9738 46.2776C24.0875 46.2433 24.1988 46.2025 24.3083 46.1643C24.4178 46.1258 24.5575 46.0876 24.6777 46.0407ZM28.8585 19.1666V37.5C28.8424 40.5148 27.0316 43.2323 24.2498 44.4168C24.1854 44.4435 24.1177 44.4633 24.0534 44.4881C23.8391 44.5717 23.6228 44.6457 23.4019 44.7083C23.3101 44.7342 23.2171 44.7567 23.1233 44.78C22.9143 44.8307 22.703 44.8727 22.4887 44.9059C22.4052 44.9184 22.3214 44.9341 22.2322 44.9451C21.9337 44.981 21.6336 44.9993 21.3331 45.0001H9.62732C9.32685 44.9982 9.02677 44.9787 8.72822 44.9417C8.64478 44.9306 8.55713 44.915 8.47178 44.9024C8.25782 44.8692 8.04615 44.8273 7.83717 44.7765C7.74339 44.7533 7.65076 44.7308 7.55852 44.7048C7.33805 44.6426 7.12141 44.5675 6.90745 44.4851C6.84277 44.4599 6.77502 44.4401 6.71072 44.4134C3.92999 43.2297 2.11956 40.5136 2.10195 37.5V19.1666C2.10693 15.0265 5.47327 11.6718 9.62732 11.6665H21.3331C25.4872 11.6718 28.8535 15.0265 28.8585 19.1666Z" fill="#6161FF"/>
<path d="M18.2006 25.2802C16.6955 24.0733 15.3953 23.0262 15.3953 21.7738C15.4608 21.3339 15.7245 20.9476 16.1111 20.7263C16.4598 20.4848 16.5979 20.0365 16.4452 19.641C16.2921 19.2405 15.886 18.9955 15.4596 19.0463C12.4496 19.4055 11.0437 22.9654 11.0437 25.2576C11.1095 26.3674 11.4835 27.4371 12.1235 28.3466C12.4159 28.7456 12.618 29.2031 12.716 29.6876C12.716 30.439 12.4729 30.439 12.2146 30.439C11.8414 30.439 11.6534 30.361 11.6006 30.2876C11.5088 29.9903 11.5317 29.6693 11.6649 29.3876C11.7958 29.0066 11.6504 28.5855 11.3124 28.3657C10.9702 28.1609 10.5354 28.1961 10.2311 28.4536C8.90368 29.6746 8.11481 31.3711 8.03711 33.1714C8.03711 36.8662 10.85 39.0728 15.5626 39.0728C20.2751 39.0728 23.0877 36.8662 23.0877 33.1714C23.0877 29.2023 20.3777 27.0278 18.2006 25.2802ZM15.5626 37.4031C13.3766 37.4031 9.70939 36.8528 9.70939 33.1714C9.7182 32.4877 9.89006 31.8163 10.2112 31.2129C10.2211 31.2278 10.2303 31.2419 10.241 31.2553C10.7134 31.8545 11.4571 32.1744 12.2176 32.106C13.2687 32.106 14.3917 31.4716 14.3917 29.685C14.3182 28.8935 14.0327 28.1364 13.5649 27.4936C13.0873 26.8363 12.7956 26.0628 12.7194 25.2545C12.7432 24.1008 13.0938 22.9772 13.7303 22.0142C13.8558 23.9346 15.4588 25.2236 17.1529 26.5818C19.2482 28.2641 21.4173 30.0048 21.4173 33.1714C21.4154 36.8528 17.7481 37.4031 15.5626 37.4031Z" fill="#6161FF"/>
</svg>
