<svg width="40" height="50" viewBox="0 0 40 50" fill="none" xmlns="http://www.w3.org/2000/svg">
<path fill-rule="evenodd" clip-rule="evenodd" d="M16.1735 10.6731H14.3727C13.3767 10.6731 12.5684 11.4639 12.5684 12.4383C12.5684 13.4126 13.3767 14.2034 14.3727 14.2034H16.1807L16.1843 15.9722C16.1861 16.9465 16.9963 17.7356 17.9923 17.7338C18.9883 17.7321 19.7948 16.9395 19.793 15.9651L19.7894 14.2034H21.5902C22.5862 14.2034 23.3945 13.4126 23.3945 12.4383C23.3945 11.4639 22.5862 10.6731 21.5902 10.6731H19.7822L19.7786 8.90435C19.7768 7.92996 18.9666 7.14092 17.9706 7.14269C16.9746 7.14445 16.1681 7.93702 16.1699 8.91141L16.1735 10.6731Z" fill="#6161FF"/>
<path fill-rule="evenodd" clip-rule="evenodd" d="M35.9427 12.5V5.35714C35.9427 3.93571 35.3751 2.57321 34.3639 1.56964C33.3544 0.564286 31.984 0 30.5542 0C24.3341 0 11.6281 0 5.40801 0C3.97826 0 2.6078 0.564286 1.59835 1.56964C0.587118 2.57321 0.0195312 3.93571 0.0195312 5.35714V44.6429C0.0195312 46.0643 0.587118 47.4268 1.59835 48.4304C2.6078 49.4357 3.97826 50 5.40801 50H30.5524C31.5439 50 32.3486 49.2 32.3486 48.2143C32.3486 47.2286 31.5439 46.4286 30.5524 46.4286C23.9372 46.4286 10.078 46.4286 5.40801 46.4286C4.93202 46.4286 4.474 46.2411 4.13812 45.9054C3.80045 45.5714 3.61185 45.1161 3.61185 44.6429V5.35714C3.61185 4.88393 3.80045 4.42857 4.13812 4.09464C4.474 3.75893 4.93202 3.57143 5.40801 3.57143H30.5542C31.0302 3.57143 31.4882 3.75893 31.8241 4.09464C32.1618 4.42857 32.3504 4.88393 32.3504 5.35714V12.5C32.3504 13.4857 33.1551 14.2857 34.1465 14.2857C35.138 14.2857 35.9427 13.4857 35.9427 12.5Z" fill="#6161FF"/>
<path fill-rule="evenodd" clip-rule="evenodd" d="M32.1512 21.6712C30.06 22.4141 28.5605 24.4042 28.5605 26.7406C28.5605 29.7177 30.9658 32.1008 33.9592 32.1008C34.957 32.1008 35.778 32.9048 35.778 33.8971C35.778 34.8877 34.9696 35.6916 33.9736 35.6916C32.9776 35.6916 32.1693 34.8877 32.1693 33.8971C32.1693 32.9066 31.3609 32.1026 30.3649 32.1026C29.3689 32.1026 28.5605 32.9066 28.5605 33.8971C28.5605 36.2336 30.0618 38.2255 32.1566 38.9684L32.1476 41.0554C32.144 42.046 32.9487 42.8535 33.9448 42.8571C34.9408 42.8625 35.7527 42.0603 35.7563 41.0698L35.7654 38.9774C37.8728 38.2416 39.3867 36.2443 39.3867 33.8971C39.3867 30.9272 36.9436 28.5118 33.9592 28.5118C32.9686 28.5118 32.1693 27.7258 32.1693 26.7406C32.1693 25.7501 32.9776 24.9461 33.9736 24.9461C34.966 24.9461 35.7726 25.7447 35.778 26.7299V26.7532C35.7852 27.7366 36.5899 28.5351 37.5823 28.5351C38.5784 28.5351 39.3867 27.7312 39.3867 26.7406C39.3867 24.3916 37.871 22.3926 35.7599 21.6586L35.778 19.5429C35.7852 18.5523 34.9841 17.743 33.9881 17.734C32.9921 17.7268 32.1765 18.5254 32.1693 19.5142L32.1512 21.6712Z" fill="#6161FF"/>
<path fill-rule="evenodd" clip-rule="evenodd" d="M9.1739 26.6007H23.3463C24.3242 26.6007 25.1179 25.8283 25.1179 24.8766C25.1179 23.9248 24.3242 23.1524 23.3463 23.1524H9.1739C8.196 23.1524 7.40234 23.9248 7.40234 24.8766C7.40234 25.8283 8.196 26.6007 9.1739 26.6007Z" fill="#6161FF"/>
<path fill-rule="evenodd" clip-rule="evenodd" d="M9.1739 33.9901H23.3463C24.3242 33.9901 25.1179 33.1625 25.1179 32.1428C25.1179 31.1231 24.3242 30.2955 23.3463 30.2955H9.1739C8.196 30.2955 7.40234 31.1231 7.40234 32.1428C7.40234 33.1625 8.196 33.9901 9.1739 33.9901Z" fill="#6161FF"/>
<path fill-rule="evenodd" clip-rule="evenodd" d="M9.1739 40.8867H23.3463C24.3242 40.8867 25.1179 40.1143 25.1179 39.1626C25.1179 38.2109 24.3242 37.4384 23.3463 37.4384H9.1739C8.196 37.4384 7.40234 38.2109 7.40234 39.1626C7.40234 40.1143 8.196 40.8867 9.1739 40.8867Z" fill="#6161FF"/>
</svg>
