<svg width="44" height="50" viewBox="0 0 44 50" fill="none" xmlns="http://www.w3.org/2000/svg">
<path d="M40.4616 9.25312L22.3669 0.193697C22.1266 0.0664925 21.8589 0 21.587 0C21.3152 0 21.0474 0.0664925 20.8071 0.193697L2.77479 9.25312C1.85208 9.71665 1.09558 10.4552 0.609488 11.3672C0.123399 12.2791 -0.0683704 13.3195 0.0605928 14.3451L1.93246 29.3244C2.32993 32.5855 3.46709 35.7122 5.25692 38.4656C7.04675 41.2189 9.44182 43.5257 12.2589 45.2097L19.0444 49.2864C19.8191 49.7533 20.7062 50 21.6104 50C22.5146 50 23.4017 49.7533 24.1764 49.2864L30.9775 45.2097C33.7954 43.5266 36.191 41.22 37.981 38.4665C39.7709 35.7131 40.9076 32.5858 41.304 29.3244L43.1758 14.3451C43.3048 13.3195 43.113 12.2791 42.6269 11.3672C42.1408 10.4552 41.3843 9.71665 40.4616 9.25312ZM38.0126 28.9183C37.6763 31.6762 36.7142 34.3206 35.2002 36.6489C33.6861 38.9772 31.6601 40.9277 29.2772 42.3513L22.4917 46.428C22.2331 46.5852 21.9364 46.6683 21.6338 46.6683C21.3313 46.6683 21.0345 46.5852 20.7759 46.428L13.9748 42.3513C11.5898 40.9286 9.56134 38.9785 8.0446 36.6503C6.52786 34.3221 5.56299 31.6773 5.22381 28.9183L3.35195 13.939C3.30861 13.5964 3.37232 13.2488 3.53433 12.9439C3.69634 12.639 3.94869 12.3919 4.25668 12.2365L21.6182 3.55193L38.9797 12.2365C39.2877 12.3919 39.5401 12.639 39.7021 12.9439C39.8641 13.2488 39.9278 13.5964 39.8845 13.939L38.0126 28.9183Z" fill="#6161FF"/>
<path d="M23.2892 31.6727C22.9359 31.6614 22.5951 31.5395 22.315 31.3244C22.0349 31.1093 21.8298 30.8119 21.7285 30.4741L19.5747 22.9552L18.1545 25.7728C18.0106 26.0595 17.7868 26.2986 17.5099 26.4616C17.2331 26.6245 16.915 26.7042 16.5938 26.6913H9.97656V23.3755H15.6106L18.5291 17.6468C18.6698 17.3576 18.893 17.1162 19.1706 16.9529C19.4482 16.7895 19.7679 16.7114 20.0898 16.7284C20.4246 16.7592 20.7422 16.8901 21.0012 17.104C21.2601 17.3179 21.4484 17.6047 21.5412 17.927L23.8822 26.0997L25.2088 24.1071C25.3624 23.8809 25.5694 23.6958 25.8117 23.5683C26.0539 23.4407 26.3239 23.3745 26.5978 23.3755H33.2619V26.6913H27.4874L24.647 30.9411C24.4963 31.163 24.2943 31.3454 24.0579 31.4727C23.8215 31.6001 23.5578 31.6687 23.2892 31.6727Z" fill="#6161FF"/>
</svg>
