<svg width="51" height="50" viewBox="0 0 51 50" fill="none" xmlns="http://www.w3.org/2000/svg">
<path d="M44.2305 24.4138C44.4043 24.5433 44.6089 24.6068 44.8125 24.6068C45.064 24.6068 45.3142 24.5098 45.5033 24.3201L50.2724 19.5363C50.4726 19.3355 50.5756 19.0577 50.5549 18.7748C50.5341 18.492 50.3916 18.2321 50.1642 18.0629L45.2894 14.433V4.6875C45.2894 4.14814 44.8526 3.71094 44.3139 3.71094H38.0704C37.5317 3.71094 37.0948 4.14814 37.0948 4.6875V8.33115L26.1657 0.193066C25.8201 -0.0643555 25.3467 -0.0643555 25.0011 0.193066L16.4587 6.554C16.0264 6.87588 15.9366 7.4877 16.2582 7.92041C16.5799 8.35322 17.1911 8.44307 17.6232 8.12109L25.5834 2.19375L48.0944 18.956L44.7182 22.3427L26.1657 8.52813C25.8201 8.2707 25.3467 8.2707 25.0011 8.52813L6.44872 22.3427L3.07245 18.956L11.8205 12.442C12.2527 12.1201 12.3426 11.5083 12.021 11.0756C11.6993 10.6428 11.0882 10.553 10.656 10.8749L1.00264 18.0629C0.775334 18.2321 0.632807 18.492 0.612028 18.7748C0.591151 19.0576 0.694266 19.3355 0.894448 19.5363L5.6636 24.3201C6.00573 24.6633 6.54765 24.7032 6.9364 24.4138L7.63333 23.8947V31.6406H2.56049C1.48465 31.6406 0.609394 32.5168 0.609394 33.5938V48.0469C0.609394 49.1238 1.48465 50 2.56049 50H9.19421C10.1687 50 10.9762 49.2804 11.1201 48.3446L15.6573 49.9445C15.7614 49.9813 15.8709 50 15.9814 50H29.9114C31.5231 50 33.0881 49.4261 34.3182 48.3839L44.8707 39.4441C45.7067 38.7359 46.202 37.7432 46.265 36.6486C46.3281 35.5541 45.9504 34.5108 45.2014 33.711C44.7279 33.2054 44.1512 32.8519 43.5335 32.6521V23.8947L44.2305 24.4138ZM43.3383 12.9802L39.0459 9.78399V5.66406H43.3383V12.9802ZM9.19421 48.0469H2.56049V33.5938H4.9018V40.8203C4.9018 41.3597 5.33865 41.7969 5.87735 41.7969C6.41604 41.7969 6.85289 41.3597 6.85289 40.8203V33.5938H9.19421V34.3736C9.19421 34.3741 9.19421 34.3745 9.19421 34.375C9.19421 34.3755 9.19421 34.3759 9.19421 34.3764L9.19528 46.93C9.19421 46.9525 9.19479 46.975 9.19528 46.9974L9.19547 48.0469C9.19547 48.0469 9.19508 48.0469 9.19421 48.0469ZM43.7778 35.0467C44.1576 35.4521 44.349 35.9811 44.3171 36.5359C44.2851 37.0908 44.0341 37.5941 43.6102 37.9532L33.0577 46.893C32.1795 47.6371 31.0621 48.0469 29.9113 48.0469H16.1482L11.1453 46.2827V35.3516H18.3014C19.2662 35.3516 20.2004 35.6347 21.0031 36.1704L27.5294 40.5258C27.8207 40.7202 28.0149 41.0173 28.0763 41.3624C28.1377 41.7075 28.0579 42.0535 27.8514 42.3366C27.4905 42.8316 26.8274 42.9996 26.2751 42.7352L20.6917 40.0654C20.2053 39.8329 19.6231 40.039 19.3909 40.5257C19.1586 41.0123 19.3645 41.5953 19.8507 41.8277L25.434 44.4975C25.8793 44.7105 26.3528 44.8126 26.8212 44.8126C27.8247 44.8126 28.8041 44.343 29.4275 43.4878C29.9503 42.7706 30.1527 41.8941 29.9973 41.0199C29.8418 40.1458 29.3497 39.3932 28.6117 38.9006L22.0854 34.5452C20.9612 33.795 19.6527 33.3984 18.3015 33.3984H11.1354C11.0502 32.5433 10.4118 31.8488 9.58452 31.68V22.4419L25.5835 10.5287L41.5825 22.4419V32.5276H41.5824C40.9336 32.6493 40.3071 32.9342 39.7679 33.3878L32.0022 39.9222C31.5897 40.2691 31.5365 40.8852 31.8831 41.298C32.2299 41.7109 32.8452 41.7642 33.2576 41.4172L41.0234 34.8828C41.8392 34.1964 43.0492 34.2684 43.7778 35.0467Z" fill="#6161FF"/>
<path d="M14.9152 8.7426C14.7338 8.56096 14.4821 8.45647 14.2255 8.45647C13.9679 8.45647 13.7162 8.56096 13.5349 8.7426C13.3534 8.92424 13.25 9.17619 13.25 9.43303C13.25 9.68987 13.3534 9.94182 13.5349 10.1235C13.7173 10.3051 13.968 10.4096 14.2255 10.4096C14.4821 10.4096 14.7327 10.3051 14.9152 10.1235C15.0966 9.94182 15.2011 9.68987 15.2011 9.43303C15.2011 9.17619 15.0967 8.92424 14.9152 8.7426Z" fill="#6161FF"/>
<path d="M29.3143 18.8718C28.8452 18.6066 28.2501 18.7723 27.9853 19.2421L21.4934 30.7535C21.2285 31.2232 21.3941 31.8189 21.8633 32.084C22.0149 32.1696 22.1795 32.2104 22.342 32.2104C22.6824 32.2104 23.0131 32.0317 23.1924 31.7137L29.6843 20.2023C29.9491 19.7326 29.7836 19.1369 29.3143 18.8718Z" fill="#6161FF"/>
<path d="M29.8813 26.2605C28.0524 26.2605 26.5645 27.75 26.5645 29.5808C26.5645 31.4117 28.0524 32.9011 29.8813 32.9011C31.7103 32.9011 33.1982 31.4117 33.1982 29.5808C33.1982 27.75 31.7103 26.2605 29.8813 26.2605ZM29.8813 30.948C29.1282 30.948 28.5155 30.3347 28.5155 29.5808C28.5155 28.8269 29.1282 28.2136 29.8813 28.2136C30.6344 28.2136 31.2471 28.8269 31.2471 29.5808C31.2471 30.3347 30.6344 30.948 29.8813 30.948Z" fill="#6161FF"/>
<path d="M21.2973 16.7984C19.4684 16.7984 17.9805 18.2879 17.9805 20.1187C17.9805 21.9496 19.4684 23.439 21.2973 23.439C23.1263 23.439 24.6142 21.9496 24.6142 20.1187C24.6142 18.2879 23.1263 16.7984 21.2973 16.7984ZM21.2973 21.4859C20.5442 21.4859 19.9316 20.8726 19.9316 20.1187C19.9316 19.3648 20.5442 18.7515 21.2973 18.7515C22.0504 18.7515 22.6631 19.3648 22.6631 20.1187C22.6631 20.8726 22.0504 21.4859 21.2973 21.4859Z" fill="#6161FF"/>
<path d="M6.61633 43.9873C6.43498 43.8057 6.18329 43.7012 5.92672 43.7012C5.67015 43.7012 5.41846 43.8057 5.23701 43.9873C5.05458 44.1689 4.95117 44.4209 4.95117 44.6777C4.95117 44.9346 5.05458 45.1865 5.23701 45.3682C5.41846 45.5498 5.67015 45.6543 5.92672 45.6543C6.18329 45.6543 6.43498 45.5498 6.61633 45.3682C6.79778 45.1865 6.90226 44.9346 6.90226 44.6777C6.90226 44.4209 6.79788 44.1689 6.61633 43.9873Z" fill="#6161FF"/>
</svg>
