<svg width="51" height="50" viewBox="0 0 51 50" fill="none" xmlns="http://www.w3.org/2000/svg">
<mask id="mask0_1_639" style="mask-type:luminance" maskUnits="userSpaceOnUse" x="0" y="0" width="51" height="50">
<path d="M0.441406 0H50.3894V50H0.441406V0Z" fill="white"/>
</mask>
<g mask="url(#mask0_1_639)">
<path d="M20.7718 3.36565C21.064 3.07385 21.4476 2.92795 21.8312 2.92795C22.2148 2.92795 22.5985 3.07385 22.8906 3.36565L24.4025 4.87639C24.9737 5.447 25.8985 5.447 26.4696 4.87639L27.9815 3.36565C28.5657 2.78196 29.5161 2.78196 30.1003 3.36565C30.3823 3.64748 30.5376 4.0219 30.5376 4.42004C30.5376 4.81819 30.3823 5.1926 30.1003 5.47444L26.4954 9.07639C25.9114 9.65998 24.9609 9.66008 24.3766 9.07639L20.7718 5.47444C20.4898 5.1926 20.3345 4.81819 20.3345 4.42004C20.3345 4.0219 20.4898 3.64748 20.7718 3.36565ZM22.3095 11.1501C23.1715 12.0114 24.3038 12.442 25.4361 12.442C26.5683 12.442 27.7005 12.0114 28.5625 11.1501L32.1674 7.54817C33.0035 6.71272 33.4638 5.60178 33.4638 4.42004C33.4638 3.23821 33.0035 2.12727 32.1674 1.29192C30.4434 -0.43074 27.6384 -0.43074 25.9145 1.29192L25.4361 1.76985L24.9577 1.29192C23.2337 -0.43074 20.4286 -0.430643 18.7047 1.29192C17.8687 2.12727 17.4082 3.23821 17.4082 4.42004C17.4082 5.60178 17.8687 6.71272 18.7048 7.54817L22.3095 11.1501Z" fill="#6161FF"/>
<path d="M43.2819 29.4348C42.5468 30.7479 41.5038 31.1282 40.1764 31.1944C39.9724 30.6076 39.7523 30.0222 39.525 29.4175C39.2036 28.5628 38.8713 27.679 38.5304 26.6552C37.6207 23.9234 36.5203 21.101 34.6516 18.887C34.6912 18.8759 34.7316 18.8658 34.7724 18.8566C35.4608 18.7024 36.8939 18.6895 38.7598 20.3413C39.7202 21.1914 41.2323 22.9109 42.2823 24.6771C43.1429 26.1247 44.0148 28.1253 43.2819 29.4348ZM37.1383 42.813C36.3962 43.964 35.3141 44.8924 33.9222 45.5723C31.7064 46.6546 29.0601 46.9653 26.8985 47.0452V40.6995C27.6835 40.3685 28.3015 39.8418 28.6695 39.4745C29.2455 38.8993 30.212 37.7112 30.212 36.2181C30.212 34.814 29.4475 33.6542 28.167 33.1159C27.4802 32.8273 26.6888 32.7095 25.4353 32.7095C24.1818 32.7095 23.3904 32.8273 22.7038 33.1159C21.4232 33.6541 20.6587 34.8139 20.6587 36.2181C20.6587 37.7112 21.625 38.8993 22.2011 39.4745C22.5689 39.8418 23.1869 40.3686 23.9721 40.6996V47.0452C21.8104 46.9653 19.1642 46.6545 16.9484 45.5723C15.5566 44.8924 14.4745 43.964 13.7322 42.813C12.8763 41.4854 12.4422 39.8164 12.4422 37.8525C12.4422 34.8171 13.1301 32.9874 14.0825 30.4545C14.4135 29.5743 14.7557 28.664 15.1163 27.5819C15.9639 25.0369 16.9765 22.4264 18.6329 20.5722C20.3369 18.6645 22.4986 17.776 25.4353 17.776C28.372 17.776 30.5335 18.6645 32.2377 20.5722C33.8944 22.4267 34.9069 25.037 35.7543 27.5819C36.1131 28.6588 36.4553 29.5692 36.7883 30.4547C37.7404 32.9873 38.4284 34.8171 38.4284 37.8525C38.4284 39.8166 37.9945 41.4856 37.1383 42.813ZM26.6031 37.4C26.2025 37.8 25.7222 38.0793 25.4352 38.0793C25.1481 38.0793 24.668 37.8 24.2676 37.4002C23.8656 36.9989 23.5849 36.5127 23.5849 36.2181C23.5849 35.9657 23.6626 35.8904 23.8367 35.8172C24.1294 35.6942 24.6224 35.6393 25.4353 35.6393C26.2483 35.6393 26.7413 35.6942 27.034 35.8172C27.208 35.8904 27.2857 35.9657 27.2857 36.2181C27.2857 36.5126 27.0049 36.9988 26.6031 37.4ZM11.3437 29.4228C11.0977 30.0768 10.8603 30.7083 10.6424 31.344C9.32087 31.276 8.28211 30.894 7.54928 29.5851C6.81635 28.2755 7.6883 26.2749 8.54883 24.8273C9.59881 23.0611 11.1108 21.3416 12.0716 20.4913C13.9374 18.8396 15.3707 18.8522 16.0588 19.0068C16.0758 19.0106 16.0926 19.0146 16.1093 19.0188C14.3073 21.2121 13.2321 23.9771 12.3403 26.655C11.9975 27.6839 11.6652 28.5676 11.3437 29.4228ZM44.7969 23.1786C43.5795 21.131 41.8611 19.1757 40.6981 18.1463C37.8577 15.632 35.3653 15.7209 34.1321 15.9978C33.4727 16.1458 32.8633 16.4146 32.3385 16.7823C30.4286 15.4828 28.1482 14.8462 25.4353 14.8462C22.6611 14.8462 20.3392 15.5119 18.4032 16.8713C17.899 16.5349 17.3213 16.2877 16.6991 16.148C15.4661 15.871 12.9733 15.7822 10.1334 18.2963C8.97007 19.3259 7.25145 21.2813 6.03426 23.3288C4.20891 26.3994 3.85976 28.9863 4.99657 31.0175C6.32633 33.3928 8.40552 34.0417 9.85215 34.2191C9.64163 35.2987 9.51588 36.478 9.51588 37.8525C9.51588 40.3895 10.1074 42.5931 11.2738 44.4021C12.3096 46.0083 13.7871 47.2879 15.6654 48.2054C18.9586 49.814 22.8185 49.9999 25.4353 49.9999C28.0522 49.9999 31.9121 49.814 35.2052 48.2054C37.0837 47.2879 38.5611 46.0083 39.5969 44.4022C40.7633 42.5934 41.3547 40.3898 41.3547 37.8525C41.3547 36.4136 41.217 35.1887 40.9882 34.0677C42.4344 33.8888 44.5076 33.2375 45.8346 30.8672C46.9713 28.8363 46.6223 26.2494 44.7969 23.1786Z" fill="#6161FF"/>
<path d="M21.5062 24.9546C20.6981 24.9546 20.043 25.6105 20.043 26.4195V28.6237C20.043 29.4327 20.6981 30.0886 21.5062 30.0886C22.3142 30.0886 22.9693 29.4327 22.9693 28.6237V26.4195C22.9693 25.6105 22.3142 24.9546 21.5062 24.9546Z" fill="#6161FF"/>
<path d="M29.3245 24.9546C28.5164 24.9546 27.8613 25.6105 27.8613 26.4195V28.6237C27.8613 29.4327 28.5164 30.0886 29.3245 30.0886C30.1325 30.0886 30.7876 29.4327 30.7876 28.6237V26.4195C30.7876 25.6105 30.1325 24.9546 29.3245 24.9546Z" fill="#6161FF"/>
</g>
</svg>
