<svg width="44" height="50" viewBox="0 0 44 50" fill="none" xmlns="http://www.w3.org/2000/svg">
<path d="M15.263 21.5707C15.2702 21.5707 15.2763 21.5748 15.2835 21.5748C15.2886 21.5748 15.2927 21.5717 15.2978 21.5717C15.9513 21.583 16.48 22.1143 16.48 22.7716C16.48 23.3367 16.9372 23.7953 17.5027 23.7953C18.0683 23.7953 18.5254 23.3367 18.5254 22.7716C18.5254 21.3414 17.5917 20.1365 16.3062 19.7034V18.7216C16.3062 18.1565 15.849 17.6979 15.2835 17.6979C14.7179 17.6979 14.2608 18.1565 14.2608 18.7216V19.6993C12.9691 20.1293 12.0293 21.3363 12.0293 22.7716C12.0293 24.5642 13.4866 26.023 15.2773 26.023C15.94 26.023 16.48 26.5636 16.48 27.227C16.48 27.8852 15.9493 28.4176 15.2937 28.4268C15.2896 28.4268 15.2866 28.4247 15.2835 28.4247C15.2773 28.4247 15.2733 28.4278 15.2671 28.4278C14.6095 28.4217 14.0757 27.8862 14.0757 27.2259C14.0757 26.6608 13.6186 26.2022 13.053 26.2022C12.4875 26.2022 12.0303 26.6608 12.0303 27.2259C12.0303 28.6612 12.9702 29.8682 14.2618 30.2982V31.2779C14.2618 31.843 14.719 32.3017 15.2845 32.3017C15.8501 32.3017 16.3072 31.843 16.3072 31.2779V30.2951C17.5927 29.8621 18.5264 28.6571 18.5264 27.227C18.5264 25.4344 17.0691 23.9755 15.2784 23.9755C14.6157 23.9755 14.0757 23.436 14.0757 22.7716C14.0757 22.1133 14.6075 21.5789 15.263 21.5707Z" fill="#6161FF"/>
<path d="M43.9571 5.63473C43.9571 5.62961 43.954 5.62551 43.954 5.62039C43.9448 2.51945 41.4229 0 38.3241 0H19.8882C17.8029 0 15.9815 1.14353 15.0089 2.83579H5.10423C2.30207 2.83579 0.0214844 5.12285 0.0214844 7.93407V42.0659C0.0214844 44.8772 2.30105 47.1642 5.10423 47.1642H15.0089C15.9825 48.8554 17.8029 50 19.8882 50H38.3241C41.429 50 43.955 47.4713 43.955 44.3622V5.64496C43.9561 5.64189 43.9571 5.63882 43.9571 5.63473ZM19.8882 2.04853H38.3241C39.943 2.04853 41.2981 3.13473 41.7419 4.612H16.4693C16.9142 3.1337 18.2703 2.04853 19.8882 2.04853ZM29.4043 26.8182H25.5089C25.6132 26.2265 25.6786 25.6214 25.6786 25C25.6786 24.2844 25.606 23.5862 25.4679 22.9105H29.4053C29.9708 22.9105 30.428 22.4519 30.428 21.8868V20.3204L35.4453 25L30.4269 29.6785V27.8419C30.4269 27.2768 29.9698 26.8182 29.4043 26.8182ZM23.6322 25C23.6322 29.61 19.8851 33.361 15.2789 33.361C10.6728 33.361 6.92666 29.61 6.92666 25C6.92666 20.3901 10.6738 16.639 15.28 16.639C19.8861 16.639 23.6322 20.3901 23.6322 25ZM2.06788 8.95782H14.2573V14.6427C9.00169 15.1587 4.88129 19.6059 4.88129 25C4.88129 30.3941 9.00169 34.8413 14.2573 35.3573V38.4828H2.06788V8.95782ZM5.10423 4.88329H14.3135C14.2808 5.12695 14.2583 5.37469 14.2573 5.62756C14.2573 5.63063 14.2552 5.63268 14.2552 5.63473C14.2552 5.63677 14.2562 5.6378 14.2562 5.63984V6.91032H2.25605C2.6774 5.73301 3.78906 4.88329 5.10423 4.88329ZM5.10423 45.1167C3.42907 45.1167 2.06686 43.748 2.06686 42.0659V40.5303H14.2562V41.7076H10.8323C10.2667 41.7076 9.80961 42.1663 9.80961 42.7314C9.80961 43.2965 10.2667 43.7551 10.8323 43.7551H14.2573V44.3622C14.2573 44.6192 14.2808 44.869 14.3135 45.1167H5.10423ZM41.9107 44.3622C41.9107 46.3421 40.303 47.9525 38.3251 47.9525H19.8882C17.9103 47.9525 16.3016 46.3421 16.3016 44.3622V43.5637H25.2501H41.9097L41.9107 44.3622ZM25.2501 41.5162H16.3016V35.3573C20.2257 34.9724 23.5105 32.3925 24.9259 28.8657H28.3816V30.9552C28.3816 31.595 28.7334 32.1642 29.2774 32.4048C29.4574 32.4846 29.6456 32.5235 29.8328 32.5235C30.1733 32.5235 30.5098 32.3946 30.7859 32.1437L37.1777 26.1845C37.4927 25.8866 37.6727 25.4556 37.6727 25.001C37.6727 24.5465 37.4917 24.1145 37.1726 23.8125L30.7767 17.8501C30.3584 17.4683 29.7847 17.3731 29.2774 17.5962C28.7334 17.8368 28.3816 18.406 28.3816 19.0459V20.864H24.8165C23.3438 17.4765 20.1254 15.0184 16.3016 14.6437V6.6595H41.9097V41.5162H25.2501Z" fill="#6161FF"/>
<path d="M26.3879 46.8849H31.8276C32.3931 46.8849 32.8503 46.4263 32.8503 45.8612C32.8503 45.296 32.3931 44.8374 31.8276 44.8374H26.3879C25.8224 44.8374 25.3652 45.296 25.3652 45.8612C25.3652 46.4263 25.8224 46.8849 26.3879 46.8849Z" fill="#6161FF"/>
</svg>
