<svg width="48" height="50" viewBox="0 0 48 50" fill="none" xmlns="http://www.w3.org/2000/svg">
<path fill-rule="evenodd" clip-rule="evenodd" d="M28.9325 8.26364C29.6575 6.26789 30.9014 4.79825 32.2285 3.98873C33.5508 3.18214 34.8741 3.06236 35.9644 3.53986C35.9802 3.54681 35.9962 3.55345 36.0122 3.55991C37.8081 4.27897 39.1346 6.71945 38.7199 9.79023C37.3384 9.28761 35.8539 9.01291 34.3135 9.01291C33.8762 9.01291 33.4155 9.07098 33.1034 9.11834C32.9389 9.14334 32.7972 9.16827 32.6956 9.18713C32.6446 9.19659 32.603 9.20467 32.5732 9.21056L32.5371 9.21782L32.5261 9.22008L32.5198 9.2214C31.6401 9.40526 31.076 10.2682 31.2596 11.1488C31.4433 12.0293 32.3071 12.5937 33.1867 12.4099L33.2057 12.4061L33.2892 12.3901C33.3633 12.3763 33.4691 12.3577 33.5913 12.3392C33.8527 12.2995 34.1226 12.2706 34.3135 12.2706C39.6966 12.2706 44.2028 16.7815 44.2028 22.1701C44.2028 25.9557 42.0377 29.3739 38.8205 30.9841C38.2693 31.26 37.9211 31.824 37.9211 32.441V43.0763L30.7059 45.9654V32.441C30.7059 31.824 30.3576 31.26 29.8064 30.9841C26.5893 29.3739 24.4242 25.9557 24.4242 22.1701C24.4242 21.3196 24.5967 20.4223 24.7944 19.6307C25.0123 18.758 24.4823 17.8736 23.6104 17.6555C22.7387 17.4373 21.8552 17.9679 21.6373 18.8406C21.4162 19.7258 21.1699 20.9246 21.1699 22.1701C21.1699 26.8312 23.6377 31.0858 27.4516 33.4008V48.3712C27.4516 48.9117 27.7194 49.417 28.1665 49.72C28.6136 50.023 29.1817 50.0842 29.683 49.8835L40.1525 45.6913C40.7703 45.444 41.1754 44.845 41.1754 44.179V33.4008C44.9893 31.0858 47.457 26.8312 47.457 22.1701C47.457 17.7243 45.1757 13.7446 41.7361 11.3553C42.7411 6.91742 41.2012 2.14583 37.2449 0.544902C34.9916 -0.431579 32.5559 -0.0258385 30.5351 1.20688C28.5119 2.44103 26.8244 4.5347 25.8742 7.15034C24.9284 9.75402 24.844 12.4231 25.5332 14.6808C26.2224 16.9385 27.7244 18.8684 29.9729 19.7125C32.1605 20.5337 34.5727 20.2341 36.6414 18.9399C37.4034 18.463 37.6351 17.4581 37.1588 16.6953C36.6825 15.9325 35.6787 15.7006 34.9166 16.1774C33.6351 16.9791 32.2782 17.0987 31.1156 16.6623C30.0138 16.2487 29.1079 15.2441 28.6454 13.7289C28.1829 12.2136 28.2032 10.2714 28.9325 8.26364Z" fill="#6161FF"/>
<path d="M22.5785 7.32974C23.004 8.12204 22.7074 9.10967 21.916 9.53574C21.7377 9.63171 21.5376 9.72468 21.3164 9.82749C20.5788 10.1702 19.6062 10.622 18.4235 11.658C15.5839 14.1453 14.6695 17.8905 15.5754 21.3365C15.7309 21.928 15.5422 22.557 15.0868 22.9649L4.93635 32.0563L11.8468 35.5152L17.6225 30.2491C18.2869 29.6434 19.316 29.6915 19.9211 30.3565C20.5262 31.0216 20.4782 32.0518 19.8138 32.6576L13.213 38.6758C12.7158 39.1291 11.9912 39.2296 11.3897 38.9285L1.33895 33.8979C0.856817 33.6566 0.525408 33.192 0.453871 32.6572C0.382327 32.1225 0.579967 31.5869 0.981668 31.2271L12.207 21.173C11.4258 16.9203 12.7003 12.3424 16.2806 9.20634C17.886 7.80016 19.4516 7.08987 20.1073 6.79248C20.2305 6.73654 20.3216 6.69525 20.3748 6.66662C21.1662 6.24056 22.1528 6.53744 22.5785 7.32974Z" fill="#6161FF"/>
</svg>
