<svg width="51" height="50" viewBox="0 0 51 50" fill="none" xmlns="http://www.w3.org/2000/svg">
<mask id="mask0_1_644" style="mask-type:luminance" maskUnits="userSpaceOnUse" x="0" y="0" width="51" height="50">
<path d="M0.607422 0H50.5554V50H0.607422V0Z" fill="white"/>
</mask>
<g mask="url(#mask0_1_644)">
<path d="M11.952 25.1923C11.7915 24.2618 12.1199 23.314 12.8213 22.6827L28.6144 8.46883C29.562 7.57215 30.08 6.3118 30.0373 5.00721L29.9807 3.2784C29.9535 2.44921 29.2883 1.78329 28.46 1.75614L26.733 1.6995C25.4297 1.65672 24.1707 2.17528 23.2749 3.12372L9.07589 18.9333C8.4452 19.6355 7.49843 19.9641 6.56883 19.8036L4.18177 19.3912L1.58203 21.9936L7.48926 24.2709L9.76413 30.1843L12.364 27.5819L11.952 25.1923Z" stroke="#6161FF" stroke-width="4" stroke-miterlimit="10" stroke-linecap="round" stroke-linejoin="round"/>
<path d="M15.2479 12.0627L4.81641 4.80073L7.18825 2.42661L19.8025 6.99233L15.2479 12.0627Z" stroke="#6161FF" stroke-width="4" stroke-miterlimit="10" stroke-linecap="round" stroke-linejoin="round"/>
<path d="M28.9418 24.2038L26.57 26.578L19.7129 16.4788L24.7491 11.9486L28.9418 24.2038Z" stroke="#6161FF" stroke-width="4" stroke-miterlimit="10" stroke-linecap="round" stroke-linejoin="round"/>
<path d="M49.1015 23.971C47.1145 15.0369 39.1506 8.35785 29.6277 8.35785C29.3195 8.35785 29.0121 8.36468 28.7067 8.37933C28.6766 8.4096 28.6462 8.43988 28.615 8.46917L12.8222 22.6824C12.1209 23.3137 11.7925 24.2614 11.9528 25.1917L12.3647 27.5822L9.76464 30.184L9.75977 30.1713C10.6874 40.3383 19.2283 48.3032 29.6277 48.3032C39.2118 48.3032 47.2167 41.5373 49.1391 32.5172" stroke="#6161FF" stroke-width="4" stroke-miterlimit="10" stroke-linecap="round" stroke-linejoin="round"/>
<path d="M49.1005 23.971C48.2491 20.1424 46.3017 16.7277 43.6025 14.0765H38.235C37.0088 14.0765 36.0146 15.0717 36.0146 16.3001V17.4778C36.0146 18.7055 37.0088 19.7006 38.235 19.7006C39.0097 19.7006 39.712 20.015 40.2193 20.5237C40.7275 21.0316 41.0417 21.7337 41.0417 22.5102V26.2455C41.0417 27.5804 40.512 28.8607 39.5696 29.804L34.0674 35.3118C33.5592 35.8206 33.2734 36.5101 33.2734 37.2299V40.1683C33.2734 40.888 33.5592 41.5776 34.0674 42.0862L38.2984 46.3226C43.7636 43.6787 47.8399 38.6129 49.1388 32.5172" stroke="#6161FF" stroke-width="4" stroke-miterlimit="10" stroke-linecap="round" stroke-linejoin="round"/>
<path d="M27.1353 36.5687L23.8135 39.8929C23.5296 40.1771 23.3706 40.5619 23.3706 40.9633V47.3002C18.2218 45.601 14.0005 41.8578 11.6641 37.0316L14.5313 34.1625C14.8141 33.8783 15.1986 33.7191 15.5994 33.7191H20.8879C21.2888 33.7191 21.6732 33.5599 21.9571 33.2758L22.9015 32.3304C23.4916 31.7396 24.4486 31.7396 25.0388 32.3304L27.1353 34.4291C27.7256 35.0199 27.7256 35.9779 27.1353 36.5687Z" stroke="#6161FF" stroke-width="4" stroke-miterlimit="10" stroke-linecap="round" stroke-linejoin="round"/>
</g>
</svg>
