<svg width="41" height="50" viewBox="0 0 41 50" fill="none" xmlns="http://www.w3.org/2000/svg">
<path d="M31.384 0.3C31.1592 0.1075 30.8695 0 30.5723 0H6.84701C3.4056 0 0.603516 2.8025 0.603516 6.25V43.75C0.603516 47.1975 3.4056 50 6.84701 50H34.3184C37.7598 50 40.5619 47.1975 40.5619 43.75V8.75C40.5619 8.385 40.4021 8.04 40.1249 7.8L31.384 0.3ZM38.0645 43.75C38.0645 45.8175 36.3838 47.5 34.3184 47.5H6.84701C4.78166 47.5 3.10091 45.8175 3.10091 43.75V6.25C3.10091 4.1825 4.78166 2.5 6.84701 2.5H30.1103L38.0645 9.3225V43.75Z" fill="#6161FF"/>
<path d="M21.3499 11.5128C20.8979 11.1603 20.2636 11.1603 19.814 11.5128C18.9974 12.1528 11.8398 17.8803 11.8398 22.5003C11.8398 27.3253 15.7608 31.2503 20.5807 31.2503C25.4007 31.2503 29.3216 27.3253 29.3216 22.5003C29.3216 17.8803 22.1641 12.1528 21.3499 11.5128ZM20.5807 28.7503C17.1393 28.7503 14.3372 25.9478 14.3372 22.5003C14.3372 20.1628 17.896 16.3753 20.5807 14.1128C23.2654 16.3753 26.8242 20.1628 26.8242 22.5003C26.8242 25.9478 24.0222 28.7503 20.5807 28.7503Z" fill="#6161FF"/>
<path d="M28.0729 37.5H13.0885C12.3993 37.5 11.8398 38.06 11.8398 38.75C11.8398 39.44 12.3993 40 13.0885 40H28.0729C28.7622 40 29.3216 39.44 29.3216 38.75C29.3216 38.06 28.7622 37.5 28.0729 37.5Z" fill="#6161FF"/>
</svg>
