<svg width="97" height="97" viewBox="0 0 97 97" fill="none" xmlns="http://www.w3.org/2000/svg">
<path fill-rule="evenodd" clip-rule="evenodd" d="M48.5 0C75.2907 0 97 21.7093 97 48.5C97 75.2907 75.2907 97 48.5 97C21.7093 97 0 75.2907 0 48.5C0 21.7093 21.7093 0 48.5 0Z" fill="#EAEAFF"/>
<path fill-rule="evenodd" clip-rule="evenodd" d="M39.6355 45.8322C44.8863 45.8322 52.071 45.8322 57.4771 45.8322V57.689C57.4771 60.3426 60.0744 61.5001 61.2742 61.7683C79.1864 65.8758 81.5295 72.877 81.6001 83.9433C72.9333 92.0455 61.2883 96.9999 48.4998 96.9999C35.6973 96.9999 24.0663 92.0455 15.3996 83.9433C15.2584 72.4817 17.0934 65.9605 35.3727 61.7683C37.2218 61.3448 39.6355 60.3709 39.6355 57.689V45.8322Z" fill="#EBB484"/>
<path fill-rule="evenodd" clip-rule="evenodd" d="M60.399 61.4859C60.7237 61.6271 61.0342 61.7117 61.2742 61.7682C79.1864 65.8757 81.5295 72.8769 81.6001 83.9433C72.9333 92.0454 61.2883 96.9999 48.4998 96.9999C35.6973 96.9999 24.0663 92.0454 15.3996 83.9433C15.2584 72.4817 17.0934 65.9604 35.3727 61.7682C35.7397 61.6835 36.149 61.5706 36.5442 61.4294C39.2261 63.3632 43.5877 64.6195 48.514 64.6195C53.3837 64.6336 57.7171 63.3915 60.399 61.4859Z" fill="#394761"/>
<path fill-rule="evenodd" clip-rule="evenodd" d="M39.2832 45.7899H57.8165C57.8165 53.1157 52.735 56.4469 48.5005 56.4469C44.2518 56.4469 39.2832 53.0734 39.2832 45.7899Z" fill="#DA9668"/>
<path fill-rule="evenodd" clip-rule="evenodd" d="M61.1899 38.4075C55.2333 44.2089 42.7977 44.3218 36.9681 38.4075C33.3688 34.7517 30.9974 29.8819 30.0799 25.2097C28.5131 17.3052 32.0984 10.0076 38.7467 10.304C51.6339 -0.0565515 68.2758 9.35832 67.4147 25.2097C67.1607 29.7972 65.1422 34.5399 61.1899 38.4075Z" fill="#874342"/>
<path fill-rule="evenodd" clip-rule="evenodd" d="M43.2202 52.8053C40.9053 51.4643 37.5318 46.9051 36.2191 43.9268C34.5817 40.2286 33.8618 35.9799 33.9889 31.8582C34.1583 26.1698 35.0475 20.8342 41.1735 18.9569C47.8642 24.8712 62.5723 18.8158 63.1086 31.7877C63.278 35.8811 62.5017 40.0451 60.7796 43.9409C59.4669 46.9192 56.0934 51.4784 53.7785 52.8194C52.6351 53.4828 50.6166 54.0757 48.5558 54.0898C46.495 54.0757 44.3777 53.4828 43.2202 52.8053Z" fill="#EBB484"/>
<path fill-rule="evenodd" clip-rule="evenodd" d="M47.9636 35.274C47.6813 36.3327 46.4956 39.4522 50.0527 39.9603C47.0179 40.4685 46.2133 38.4641 47.9636 35.274Z" fill="#DA9668"/>
<path fill-rule="evenodd" clip-rule="evenodd" d="M42.2042 31.2512C42.7688 31.2512 43.2347 31.9429 43.2347 32.7898C43.2347 33.6367 42.7688 34.3283 42.2042 34.3283C41.6396 34.3283 41.1738 33.6367 41.1738 32.7898C41.1738 31.9429 41.6396 31.2512 42.2042 31.2512ZM54.908 31.2512C55.4726 31.2512 55.9384 31.9429 55.9384 32.7898C55.9384 33.6367 55.4726 34.3283 54.908 34.3283C54.3434 34.3283 53.8776 33.6367 53.8776 32.7898C53.8776 31.9429 54.3292 31.2512 54.908 31.2512Z" fill="black"/>
<path fill-rule="evenodd" clip-rule="evenodd" d="M59.1421 28.5269C58.0411 28.7668 52.1691 29.7408 52.1127 28.6963C52.028 26.706 57.4765 27.567 59.1421 28.5269ZM37.9551 28.5269C39.0561 28.7668 44.928 29.7408 44.9845 28.6963C45.0692 26.706 39.6207 27.567 37.9551 28.5269Z" fill="#874342"/>
<path fill-rule="evenodd" clip-rule="evenodd" d="M33.2547 32.2958C32.2101 32.6346 31.8573 35.0342 32.5207 37.4055C33.17 39.7769 34.5674 41.4707 35.626 41.1884C36.6847 40.9061 37.0234 38.7606 36.36 36.3892C35.7107 34.0179 35.2449 31.6606 33.2547 32.2958Z" fill="#EBB484"/>
<path fill-rule="evenodd" clip-rule="evenodd" d="M63.9418 32.2958C64.9864 32.6346 65.3393 35.0342 64.6758 37.4055C64.0265 39.7769 62.6291 41.4707 61.5705 41.1884C60.5118 40.9061 60.1731 38.7606 60.8365 36.3892C61.4858 34.0179 61.9657 31.6606 63.9418 32.2958Z" fill="#EBB484"/>
<path fill-rule="evenodd" clip-rule="evenodd" d="M54.2169 43.3619C53.1724 49.248 43.8281 49.248 42.8965 43.3619C46.4676 44.223 50.5187 44.2512 54.2169 43.3619Z" fill="white"/>
</svg>
