<svg width="143" height="20" viewBox="0 0 143 20" fill="none" xmlns="http://www.w3.org/2000/svg">
<path d="M21.8128 9.11016L17.3909 12.755L18.7155 18.1816C18.7856 18.4653 18.7656 18.7622 18.658 19.0352C18.5504 19.3082 18.36 19.5452 18.1106 19.7166C17.8611 19.8879 17.5638 19.986 17.2556 19.9986C16.9475 20.0112 16.6423 19.9377 16.3781 19.7874L11.3669 16.9166L6.36659 19.7874C6.10242 19.9377 5.79719 20.0112 5.48905 19.9986C5.18091 19.986 4.88353 19.8879 4.63411 19.7166C4.38468 19.5452 4.19426 19.3082 4.08667 19.0352C3.97907 18.7622 3.95907 18.4653 4.02917 18.1816L5.35181 12.7606L0.928944 9.11016C0.695014 8.91961 0.525859 8.66806 0.44269 8.38706C0.359521 8.10607 0.366041 7.80814 0.461432 7.53063C0.556823 7.25312 0.73684 7.00839 0.978907 6.82713C1.22097 6.64586 1.51431 6.53614 1.82215 6.5117L7.65197 6.03479L9.92763 0.908257C10.0465 0.639258 10.2469 0.409482 10.5037 0.247861C10.7606 0.08624 11.0623 0 11.3709 0C11.6795 0 11.9812 0.08624 12.238 0.247861C12.4948 0.409482 12.6953 0.639258 12.8141 0.908257L15.0966 6.03479L20.9245 6.5117C21.2323 6.53614 21.5257 6.64586 21.7677 6.82713C22.0098 7.00839 22.1898 7.25312 22.2852 7.53063C22.3806 7.80814 22.3871 8.10607 22.3039 8.38706C22.2208 8.66806 22.0516 8.91961 21.8177 9.11016H21.8128Z" fill="#F9A527"/>
<path d="M51.7815 9.11016L47.3597 12.755L48.6843 18.1816C48.7544 18.4653 48.7344 18.7622 48.6268 19.0352C48.5192 19.3082 48.3287 19.5452 48.0793 19.7166C47.8299 19.8879 47.5325 19.986 47.2244 19.9986C46.9162 20.0112 46.611 19.9377 46.3468 19.7874L41.3357 16.9166L36.3353 19.7874C36.0712 19.9377 35.7659 20.0112 35.4578 19.9986C35.1497 19.986 34.8523 19.8879 34.6029 19.7166C34.3534 19.5452 34.163 19.3082 34.0554 19.0352C33.9478 18.7622 33.9278 18.4653 33.9979 18.1816L35.3206 12.7606L30.8977 9.11016C30.6638 8.91961 30.4946 8.66806 30.4114 8.38706C30.3283 8.10607 30.3348 7.80814 30.4302 7.53063C30.5256 7.25312 30.7056 7.00839 30.9477 6.82713C31.1897 6.64586 31.4831 6.53614 31.7909 6.5117L37.6207 6.03479L39.8964 0.908257C40.0152 0.639258 40.2157 0.409482 40.4725 0.247861C40.7293 0.08624 41.031 0 41.3396 0C41.6482 0 41.9499 0.08624 42.2068 0.247861C42.4636 0.409482 42.664 0.639258 42.7829 0.908257L45.0654 6.03479L50.8932 6.5117C51.2011 6.53614 51.4944 6.64586 51.7365 6.82713C51.9785 7.00839 52.1586 7.25312 52.254 7.53063C52.3493 7.80814 52.3559 8.10607 52.2727 8.38706C52.1895 8.66806 52.0204 8.91961 51.7864 9.11016H51.7815Z" fill="#F9A527"/>
<path d="M81.7503 9.11016L77.3284 12.755L78.653 18.1816C78.7231 18.4653 78.7031 18.7622 78.5955 19.0352C78.4879 19.3082 78.2975 19.5452 78.0481 19.7166C77.7986 19.8879 77.5013 19.986 77.1931 19.9986C76.885 20.0112 76.5798 19.9377 76.3156 19.7874L71.3044 16.9166L66.3041 19.7874C66.0399 19.9377 65.7347 20.0112 65.4265 19.9986C65.1184 19.986 64.821 19.8879 64.5716 19.7166C64.3222 19.5452 64.1318 19.3082 64.0242 19.0352C63.9166 18.7622 63.8966 18.4653 63.9667 18.1816L65.2893 12.7606L60.8664 9.11016C60.6325 8.91961 60.4634 8.66806 60.3802 8.38706C60.297 8.10607 60.3035 7.80814 60.3989 7.53063C60.4943 7.25312 60.6743 7.00839 60.9164 6.82713C61.1585 6.64586 61.4518 6.53614 61.7596 6.5117L67.5895 6.03479L69.8651 0.908257C69.984 0.639258 70.1844 0.409482 70.4412 0.247861C70.6981 0.08624 70.9998 0 71.3084 0C71.617 0 71.9187 0.08624 72.1755 0.247861C72.4323 0.409482 72.6328 0.639258 72.7516 0.908257L75.0341 6.03479L80.862 6.5117C81.1698 6.53614 81.4632 6.64586 81.7052 6.82713C81.9473 7.00839 82.1273 7.25312 82.2227 7.53063C82.3181 7.80814 82.3246 8.10607 82.2414 8.38706C82.1583 8.66806 81.9891 8.91961 81.7552 9.11016H81.7503Z" fill="#F9A527"/>
<path d="M111.719 9.11016L107.297 12.755L108.622 18.1816C108.692 18.4653 108.672 18.7622 108.564 19.0352C108.457 19.3082 108.266 19.5452 108.017 19.7166C107.767 19.8879 107.47 19.986 107.162 19.9986C106.854 20.0112 106.549 19.9377 106.284 19.7874L101.273 16.9166L96.2728 19.7874C96.0087 19.9377 95.7034 20.0112 95.3953 19.9986C95.0872 19.986 94.7898 19.8879 94.5404 19.7166C94.2909 19.5452 94.1005 19.3082 93.9929 19.0352C93.8853 18.7622 93.8653 18.4653 93.9354 18.1816L95.2581 12.7606L90.8352 9.11016C90.6013 8.91961 90.4321 8.66806 90.3489 8.38706C90.2658 8.10607 90.2723 7.80814 90.3677 7.53063C90.4631 7.25312 90.6431 7.00839 90.8852 6.82713C91.1272 6.64586 91.4206 6.53614 91.7284 6.5117L97.5582 6.03479L99.8339 0.908257C99.9527 0.639258 100.153 0.409482 100.41 0.247861C100.667 0.08624 100.969 0 101.277 0C101.586 0 101.887 0.08624 102.144 0.247861C102.401 0.409482 102.602 0.639258 102.72 0.908257L105.003 6.03479L110.831 6.5117C111.139 6.53614 111.432 6.64586 111.674 6.82713C111.916 7.00839 112.096 7.25312 112.191 7.53063C112.287 7.80814 112.293 8.10607 112.21 8.38706C112.127 8.66806 111.958 8.91961 111.724 9.11016H111.719Z" fill="#F9A527"/>
<path d="M141.688 9.11016L137.266 12.755L138.591 18.1816C138.661 18.4653 138.641 18.7622 138.533 19.0352C138.425 19.3082 138.235 19.5452 137.986 19.7166C137.736 19.8879 137.439 19.986 137.131 19.9986C136.822 20.0112 136.517 19.9377 136.253 19.7874L131.242 16.9166L126.242 19.7874C125.977 19.9377 125.672 20.0112 125.364 19.9986C125.056 19.986 124.759 19.8879 124.509 19.7166C124.26 19.5452 124.069 19.3082 123.962 19.0352C123.854 18.7622 123.834 18.4653 123.904 18.1816L125.227 12.7606L120.804 9.11016C120.57 8.91961 120.401 8.66806 120.318 8.38706C120.235 8.10607 120.241 7.80814 120.336 7.53063C120.432 7.25312 120.612 7.00839 120.854 6.82713C121.096 6.64586 121.389 6.53614 121.697 6.5117L127.527 6.03479L129.803 0.908257C129.921 0.639258 130.122 0.409482 130.379 0.247861C130.636 0.08624 130.937 0 131.246 0C131.554 0 131.856 0.08624 132.113 0.247861C132.37 0.409482 132.57 0.639258 132.689 0.908257L134.972 6.03479L140.799 6.5117C141.107 6.53614 141.401 6.64586 141.643 6.82713C141.885 7.00839 142.065 7.25312 142.16 7.53063C142.256 7.80814 142.262 8.10607 142.179 8.38706C142.096 8.66806 141.927 8.91961 141.693 9.11016H141.688Z" fill="#F9A527"/>
</svg>
