<svg width="37" height="17" viewBox="0 0 37 17" fill="none" xmlns="http://www.w3.org/2000/svg">
<g clip-path="url(#clip0_610_1575)">
<path d="M14.048 0.217719L9.20375 12.1413H6.04343L3.65953 2.62516C3.515 2.04045 3.3894 1.82526 2.94959 1.57802C2.2307 1.17509 1.04352 0.798254 0 0.563833L0.0703867 0.217719H5.15846C5.80596 0.217719 6.389 0.662553 6.53729 1.43277L7.79688 8.33313L10.9066 0.217719H14.048ZM18.3203 0.217719L15.8484 12.1413H12.8584L15.3306 0.217719H18.3203ZM26.4309 8.24828C26.4433 5.10194 22.2143 4.92732 22.2419 3.52153C22.252 3.09415 22.6466 2.63918 23.5103 2.52286C23.9381 2.46575 25.1201 2.42026 26.4589 3.05672L26.9827 0.526702C26.2634 0.258281 25.3376 0 24.1861 0C21.2305 0 19.1514 1.61977 19.1348 3.94102C19.1154 5.65802 20.6198 6.61494 21.7512 7.18682C22.9166 7.77079 23.3074 8.14613 23.3021 8.66806C23.2937 9.46811 22.3713 9.82227 21.5138 9.83539C20.0101 9.86 19.1384 9.41606 18.4431 9.08188L17.9003 11.6957C18.5999 12.0265 19.8891 12.3138 21.2244 12.3284C24.3665 12.3284 26.4216 10.7271 26.4309 8.24828ZM34.2355 12.1413H37L34.5849 0.217719H32.0343C31.4591 0.217719 30.9756 0.562193 30.7612 1.09173L26.2749 12.1413H29.4146L30.0374 10.3602H33.8732L34.2355 12.1413ZM30.8983 7.91678L32.4726 3.43907L33.3769 7.91678H30.8982H30.8983ZM22.147 15.4233H20.932V16.5899H22.2909V16.9406H20.5227V13.7044H22.2212V14.0551H20.932V15.0777H22.1468V15.4236L22.147 15.4233ZM22.9186 13.5316H23.3279V16.9405H22.9186V13.5316ZM24.3607 15.8553C24.37 16.4269 24.7192 16.6621 25.1331 16.6621C25.4265 16.6621 25.6079 16.6093 25.7571 16.5422L25.8313 16.8448C25.6871 16.9119 25.4359 16.9934 25.0773 16.9934C24.3842 16.9934 23.9701 16.5182 23.9701 15.817C23.9701 15.1161 24.37 14.5686 25.0263 14.5686C25.7663 14.5686 25.9571 15.2314 25.9571 15.6586C25.9571 15.745 25.9523 15.8073 25.9429 15.8555L24.3607 15.8553ZM25.5614 15.5529C25.5661 15.289 25.4544 14.8711 24.9936 14.8711C24.5748 14.8711 24.3979 15.26 24.3652 15.5529H25.5614ZM28.1852 16.8589C28.0782 16.9119 27.8408 16.9936 27.5384 16.9936C26.859 16.9936 26.4168 16.5182 26.4168 15.8075C26.4168 15.092 26.8913 14.5687 27.6267 14.5687C27.8687 14.5687 28.0827 14.6309 28.1944 14.6935L28.1016 15.0152C28.0035 14.9624 27.85 14.9045 27.6267 14.9045C27.11 14.9045 26.8311 15.3031 26.8311 15.7836C26.8311 16.3212 27.1661 16.6525 27.6128 16.6525C27.8455 16.6525 27.999 16.595 28.1154 16.5422L28.1852 16.8589ZM29.3339 14.0596V14.6166H29.9201V14.9381H29.3339V16.1915C29.3339 16.4799 29.4131 16.6429 29.641 16.6429C29.7526 16.6429 29.818 16.6335 29.8785 16.6139L29.8972 16.936C29.818 16.9647 29.6924 16.9934 29.5341 16.9934C29.3432 16.9934 29.1895 16.9262 29.092 16.816C28.9803 16.6861 28.9337 16.4799 28.9337 16.2061V14.9381H28.5845V14.6166H28.9337V14.1846L29.3341 14.0597L29.3339 14.0596ZM30.492 15.3418C30.492 15.068 30.4871 14.8328 30.4734 14.6166H30.8318L30.8506 15.0774H30.8642C30.9668 14.7655 31.2179 14.5686 31.4923 14.5686C31.5344 14.5686 31.5671 14.5735 31.6044 14.5781V14.9769C31.5624 14.967 31.5207 14.967 31.4645 14.967C31.1763 14.967 30.9712 15.1879 30.9155 15.505C30.9059 15.5702 30.9012 15.636 30.9015 15.7019V16.9408H30.492V15.3418ZM34.1214 15.7593C34.1214 16.6188 33.5395 16.9934 32.9998 16.9934C32.3947 16.9934 31.9202 16.5324 31.9202 15.7979C31.9202 15.0247 32.4181 14.5687 33.0371 14.5687C33.6839 14.5687 34.1214 15.0532 34.1214 15.7593ZM32.3389 15.7835C32.3389 16.2924 32.6181 16.6767 33.0183 16.6767C33.4094 16.6767 33.7024 16.297 33.7024 15.7738C33.7024 15.3801 33.5116 14.8853 33.0276 14.8853C32.5484 14.8853 32.3389 15.3465 32.3389 15.7835ZM34.7489 15.2456C34.7489 15.0009 34.744 14.8086 34.7301 14.6167H35.0932L35.1165 15.0009H35.1257C35.2374 14.7846 35.498 14.5687 35.8703 14.5687C36.182 14.5687 36.6661 14.7608 36.6661 15.5575V16.9406H36.2567V15.6009C36.2567 15.2266 36.1217 14.9142 35.7355 14.9142C35.4701 14.9142 35.2606 15.1112 35.1864 15.3464C35.1676 15.3993 35.1584 15.4712 35.1584 15.5434V16.9406H34.7489V15.2456Z" fill="#1A1F71"/>
</g>
<defs>
<clipPath id="clip0_610_1575">
<rect width="37" height="17" fill="white"/>
</clipPath>
</defs>
</svg>
