<svg width="21" height="21" viewBox="0 0 21 21" fill="none" xmlns="http://www.w3.org/2000/svg">
<path d="M17.7689 3.23294C15.8277 1.29174 13.2467 0.222656 10.5014 0.222656C7.75616 0.222656 5.17511 1.29174 3.23392 3.23294C1.29272 5.17414 0.223633 7.75519 0.223633 10.5004C0.223633 13.2457 1.29272 15.8267 3.23392 17.7679C5.17511 19.7091 7.75616 20.7782 10.5014 20.7782C13.2467 20.7782 15.8277 19.7091 17.7689 17.7679C19.7101 15.8267 20.7792 13.2457 20.7792 10.5004C20.7792 7.75519 19.7101 5.17414 17.7689 3.23294ZM4.68425 17.4579C5.02362 14.5378 7.53425 12.2832 10.5014 12.2832C12.0656 12.2832 13.5365 12.8927 14.6429 13.9989C15.5776 14.9338 16.1671 16.1543 16.3187 17.4577C14.7426 18.7777 12.7133 19.5738 10.5014 19.5738C8.28953 19.5738 6.26035 18.7779 4.68425 17.4579ZM10.5014 11.0427C8.78024 11.0427 7.37978 9.64228 7.37978 7.92111C7.37978 6.19978 8.78024 4.79948 10.5014 4.79948C12.2226 4.79948 13.623 6.19978 13.623 7.92111C13.623 9.64228 12.2226 11.0427 10.5014 11.0427ZM17.3554 16.4396C17.0484 15.2022 16.4084 14.0613 15.4945 13.1474C14.7542 12.4071 13.8785 11.8518 12.9234 11.5038C14.0716 10.7252 14.8275 9.40971 14.8275 7.92111C14.8275 5.53578 12.8867 3.59505 10.5014 3.59505C8.11608 3.59505 6.17535 5.53578 6.17535 7.92111C6.17535 9.41049 6.93188 10.7264 8.08095 11.5049C7.20225 11.8251 6.38911 12.3202 5.6895 12.972C4.67641 13.9155 3.97288 15.1185 3.64668 16.4387C2.2652 14.8461 1.42806 12.7692 1.42806 10.5004C1.42806 5.49736 5.49833 1.42708 10.5014 1.42708C15.5045 1.42708 19.5748 5.49736 19.5748 10.5004C19.5748 12.7697 18.7373 14.847 17.3554 16.4396Z" fill="#6161FF"/>
</svg>
