<svg width="25" height="20" viewBox="0 0 25 20" fill="none" xmlns="http://www.w3.org/2000/svg">
<path d="M23.6006 10.1167C23.6006 5.98898 23.6006 3.92459 22.3178 2.64284C21.036 1.35999 18.9717 1.35999 14.844 1.35999H10.4657C6.33798 1.35999 4.27359 1.35999 2.99184 2.64284C1.70898 3.92459 1.70898 5.98898 1.70898 10.1167C1.70898 14.2443 1.70898 16.3087 2.99184 17.5905C4.27359 18.8733 6.33798 18.8733 10.4657 18.8733H14.844C18.9717 18.8733 21.036 18.8733 22.3178 17.5905C23.0337 16.8757 23.35 15.9179 23.489 14.495M10.4657 14.495H6.08732M14.844 14.495H13.2021M1.70898 7.92748H7.1819M23.6006 7.92748H11.5602" stroke="#4E6AFF" stroke-width="2" stroke-linecap="round"/>
</svg>
