<svg width="25" height="25" viewBox="0 0 25 25" fill="none" xmlns="http://www.w3.org/2000/svg">
<g clip-path="url(#clip0_575_3601)">
<path d="M9.82115 22.0176C9.97551 22.6105 10.3222 23.1354 10.807 23.5101C11.2917 23.8848 11.8871 24.0881 12.4997 24.0881C13.1124 24.0881 13.7077 23.8848 14.1925 23.5101C14.6772 23.1354 15.0239 22.6105 15.1783 22.0176M12.4997 0.892578C14.5315 0.892578 16.48 1.69969 17.9167 3.13635C19.3533 4.57301 20.1604 6.52154 20.1604 8.55329C20.1604 17.0711 23.2676 18.7497 24.1069 18.7497H0.892578C1.74972 18.7497 4.83901 17.0533 4.83901 8.55329C4.83901 6.52154 5.64612 4.57301 7.08278 3.13635C8.51944 1.69969 10.468 0.892578 12.4997 0.892578Z" stroke="#6161FF" stroke-width="1.5" stroke-linecap="round" stroke-linejoin="round"/>
</g>
<defs>
<clipPath id="clip0_575_3601">
<rect width="25" height="25" fill="white"/>
</clipPath>
</defs>
</svg>
