<svg width="20" height="16" viewBox="0 0 20 16" fill="none" xmlns="http://www.w3.org/2000/svg">
<path d="M18.65 8.06C18.65 4.73209 18.65 3.0677 17.6157 2.03429C16.5823 1 14.9179 1 11.59 1H8.06C4.73209 1 3.0677 1 2.03429 2.03429C1 3.0677 1 4.73209 1 8.06C1 11.3879 1 13.0523 2.03429 14.0857C3.0677 15.12 4.73209 15.12 8.06 15.12H11.59C14.9179 15.12 16.5823 15.12 17.6157 14.0857C18.1929 13.5094 18.4479 12.7373 18.56 11.59M8.06 11.59H4.53M11.59 11.59H10.2663M1 6.295H5.4125M18.65 6.295H8.9425" stroke="#4E6AFF" stroke-linecap="round"/>
</svg>
