<?xml version="1.0" encoding="utf-8"?>
<!-- Generator: Adobe Illustrator 26.0.0, SVG Export Plug-In . SVG Version: 6.00 Build 0)  -->
<svg version="1.1" id="Layer_1" xmlns="http://www.w3.org/2000/svg" xmlns:xlink="http://www.w3.org/1999/xlink" x="0px" y="0px"
	 viewBox="0 0 30 28" style="enable-background:new 0 0 30 28;" xml:space="preserve">
<style type="text/css">
	.st0{fill-rule:evenodd;clip-rule:evenodd;fill:#FFFFFF;}
</style>
<path class="st0" d="M29,14.6L29,14.6c0,0.2-0.1,0.4-0.2,0.5L17.2,26.6c-0.2,0.2-0.6,0.2-0.8,0c-0.2-0.2-0.2-0.6,0-0.8l11.4-11.4v-4
	c0-0.3,0.3-0.6,0.6-0.6c0.3,0,0.6,0.3,0.6,0.6L29,14.6C29,14.6,29,14.6,29,14.6z M12.4,27.7C12.4,27.8,12.4,27.8,12.4,27.7
	C12.3,27.9,12.1,28,12,28c-0.2,0-0.3-0.1-0.4-0.2c0,0,0-0.1-0.1-0.1L1.3,17.5c0,0-0.1,0-0.1-0.1C1.1,17.4,1,17.2,1,17
	c0-0.2,0.1-0.3,0.2-0.4c0,0,0.1,0,0.1-0.1L15.1,2.7c0.1-0.1,0.3-0.2,0.5-0.2h0c0,0,0,0,0,0h2.5c0.1-0.9,0.5-1.7,1-2.2l0,0
	C19.2,0.1,19.4,0,19.6,0c0.4,0,0.7,0.3,0.7,0.7c0,0.2-0.1,0.4-0.3,0.5c-0.3,0.3-0.5,0.7-0.6,1.2h2.9c0,0,0,0,0,0h0
	c0.2,0,0.4,0.1,0.5,0.2l3.5,3.5c0.1,0.1,0.2,0.3,0.2,0.5v0c0,0,0,0,0,0v6.7c0,0,0,0,0,0v0c0,0.2-0.1,0.4-0.2,0.5L12.4,27.7z
	 M25.3,6.9l-3.3-3.3h-2.6c0.1,0.3,0.3,0.5,0.4,0.7l0,0c0,0,0.1,0,0.1,0.1l0,0C20.7,5,21.1,5.9,21.1,7c0,0,0,0,0,0.1
	c0.7,0.4,1.2,1.2,1.2,2.1c0,1.3-1.1,2.4-2.4,2.4c-1.3,0-2.4-1.1-2.4-2.4c0-1.3,1-2.4,2.3-2.4c-0.1-0.5-0.3-1-0.6-1.3
	c0,0-0.1,0-0.1-0.1l0,0c-0.5-0.4-0.8-1-0.9-1.7h-2.3L2.4,17l9.5,9.5l13.4-13.4C25.3,13.2,25.3,6.9,25.3,6.9z M19.2,8.5
	c0.2-0.1,0.3-0.3,0.4-0.5c-0.5,0.1-0.9,0.6-0.9,1.2c0,0.7,0.5,1.2,1.2,1.2c0.7,0,1.2-0.5,1.2-1.2c0-0.3-0.1-0.5-0.3-0.8
	C20.4,9.3,20,9.5,20,9.5c-0.1,0.1-0.3,0.2-0.5,0.2c-0.4,0-0.7-0.3-0.7-0.7C18.9,8.8,19,8.6,19.2,8.5z M7.9,16c0.2-0.2,0.6-0.2,0.8,0
	l4.3,4.3c0.2,0.2,0.2,0.6,0,0.8c-0.2,0.2-0.6,0.2-0.8,0l-4.3-4.3C7.6,16.6,7.6,16.2,7.9,16z M10.3,13.6c0.2-0.2,0.6-0.2,0.8,0
	l4.3,4.3c0.2,0.2,0.2,0.6,0,0.8c-0.2,0.2-0.6,0.2-0.8,0l-4.3-4.3C10.1,14.2,10.1,13.8,10.3,13.6z"/>
</svg>
