<svg width="31" height="31" viewBox="0 0 31 31" fill="none" xmlns="http://www.w3.org/2000/svg">
<g clip-path="url(#clip0_1270_1689)">
<path d="M12.1789 27.3019C12.3703 28.0371 12.8002 28.6881 13.4013 29.1527C14.0023 29.6173 14.7406 29.8694 15.5003 29.8694C16.26 29.8694 16.9982 29.6173 17.5993 29.1527C18.2004 28.6881 18.6303 28.0371 18.8217 27.3019M15.5003 1.10693C18.0196 1.10693 20.4358 2.10775 22.2173 3.88921C23.9988 5.67067 24.9996 8.08685 24.9996 10.6062C24.9996 21.1684 28.8524 23.2498 29.8931 23.2498H1.10742C2.17028 23.2498 6.00099 21.1462 6.00099 10.6062C6.00099 8.08685 7.00181 5.67067 8.78327 3.88921C10.5647 2.10775 12.9809 1.10693 15.5003 1.10693Z" stroke="#EAEAFF" stroke-width="1.5" stroke-linecap="round" stroke-linejoin="round"/>
</g>
<defs>
<clipPath id="clip0_1270_1689">
<rect width="31" height="31" fill="white"/>
</clipPath>
</defs>
</svg>
