<?xml version="1.0" encoding="utf-8"?>
<!-- Generator: Adobe Illustrator 26.0.0, SVG Export Plug-In . SVG Version: 6.00 Build 0)  -->
<svg version="1.1" id="Layer_1" xmlns="http://www.w3.org/2000/svg" xmlns:xlink="http://www.w3.org/1999/xlink" x="0px" y="0px"
	 viewBox="0 0 30 28" style="enable-background:new 0 0 30 28;" xml:space="preserve">
<style type="text/css">
	.st0{fill:none;stroke:#FFFFFF;stroke-width:2.5;stroke-linecap:round;}
	.st1{fill:none;stroke:#FFFFFF;stroke-width:2.5;}
</style>
<path class="st0" d="M12.3,20H7 M9.7,16H7"/>
<path class="st1" d="M17.7,18c0-1.3,0-1.9,0.4-2.3c0.4-0.4,1-0.4,2.3-0.4c1.3,0,1.9,0,2.3,0.4c0.4,0.4,0.4,1,0.4,2.3s0,1.9-0.4,2.3
	c-0.4,0.4-1,0.4-2.3,0.4c-1.3,0-1.9,0-2.3-0.4C17.7,19.9,17.7,19.3,17.7,18z"/>
<path class="st0" d="M28.4,14c0-5,0-7.6-1.6-9.1c-1.6-1.6-4.1-1.6-9.1-1.6h-5.4c-5,0-7.6,0-9.1,1.6C1.6,6.4,1.6,9,1.6,14
	s0,7.6,1.6,9.1c1.6,1.6,4.1,1.6,9.1,1.6h5.4c5,0,7.6,0,9.1-1.6c0.9-0.9,1.3-2,1.4-3.8 M1.6,11.3h6.7 M28.4,11.3H13.7"/>
</svg>
