<svg width="21" height="19" viewBox="0 0 21 19" fill="none" xmlns="http://www.w3.org/2000/svg">
<path d="M10.3611 13.1695C11.9121 13.1695 13.1694 11.9122 13.1694 10.3612C13.1694 8.81019 11.9121 7.55286 10.3611 7.55286C8.81007 7.55286 7.55273 8.81019 7.55273 10.3612C7.55273 11.9122 8.81007 13.1695 10.3611 13.1695Z" stroke="#6161FF" stroke-width="1.5"/>
<path d="M8.28108 17.85H12.4412C15.3628 17.85 16.824 17.85 17.8734 17.162C18.3262 16.8652 18.7162 16.4822 19.0211 16.0349C19.7222 15.0052 19.7222 13.5701 19.7222 10.7018C19.7222 7.83266 19.7222 6.39854 19.0211 5.36882C18.7162 4.92146 18.3262 4.53849 17.8734 4.24174C17.1994 3.79896 16.355 3.64075 15.0623 3.58459C14.4454 3.58459 13.9146 3.12589 13.7938 2.53146C13.7016 2.09605 13.4618 1.70584 13.115 1.4268C12.7683 1.14776 12.3358 0.996995 11.8907 0.999983H8.83151C7.90663 0.999983 7.11 1.64122 6.9284 2.53146C6.80764 3.12589 6.27686 3.58459 5.65997 3.58459C4.36813 3.64075 3.52376 3.79989 2.84882 4.24174C2.39632 4.53855 2.00667 4.92152 1.70208 5.36882C1 6.39854 1 7.83266 1 10.7018C1 13.5701 1 15.0042 1.70115 16.0349C2.00445 16.4805 2.39387 16.8633 2.84882 17.162C3.8982 17.85 5.35947 17.85 8.28108 17.85Z" stroke="#6161FF" stroke-width="1.5"/>
<path d="M16.9127 7.55286H15.9766" stroke="#6161FF" stroke-width="1.5" stroke-linecap="round"/>
</svg>
