<svg width="97" height="97" viewBox="0 0 97 97" fill="none" xmlns="http://www.w3.org/2000/svg">
<path d="M68.2103 6.39787H87.4039C88.252 6.39889 89.0651 6.73624 89.6648 7.33594C90.2645 7.93564 90.6018 8.74871 90.6028 9.59681V28.7904C90.6028 29.6388 90.9399 30.4525 91.5398 31.0524C92.1397 31.6523 92.9534 31.9894 93.8018 31.9894C94.6502 31.9894 95.4639 31.6523 96.0638 31.0524C96.6637 30.4525 97.0007 29.6388 97.0007 28.7904V9.59681C96.9978 7.05246 95.9858 4.61315 94.1867 2.81402C92.3876 1.01489 89.9483 0.0028787 87.4039 0H68.2103C67.3619 0 66.5482 0.33703 65.9483 0.936947C65.3484 1.53686 65.0114 2.35053 65.0114 3.19894C65.0114 4.04735 65.3484 4.86101 65.9483 5.46093C66.5482 6.06084 67.3619 6.39787 68.2103 6.39787Z" fill="#6161FF"/>
<path d="M93.8018 65.0112C92.9534 65.0112 92.1397 65.3483 91.5398 65.9482C90.9399 66.5481 90.6028 67.3618 90.6028 68.2102V87.4038C90.6018 88.2519 90.2645 89.065 89.6648 89.6647C89.0651 90.2644 88.252 90.6017 87.4039 90.6027H68.2103C67.3619 90.6027 66.5482 90.9397 65.9483 91.5397C65.3484 92.1396 65.0114 92.9532 65.0114 93.8017C65.0114 94.6501 65.3484 95.4637 65.9483 96.0636C66.5482 96.6636 67.3619 97.0006 68.2103 97.0006H87.4039C89.9483 96.9977 92.3876 95.9857 94.1867 94.1866C95.9858 92.3874 96.9978 89.9481 97.0007 87.4038V68.2102C97.0007 67.3618 96.6637 66.5481 96.0638 65.9482C95.4639 65.3483 94.6502 65.0112 93.8018 65.0112Z" fill="#6161FF"/>
<path d="M9.59681 97.0006H28.7904C29.6388 97.0006 30.4525 96.6636 31.0524 96.0636C31.6523 95.4637 31.9894 94.6501 31.9894 93.8017C31.9894 92.9532 31.6523 92.1396 31.0524 91.5397C30.4525 90.9397 29.6388 90.6027 28.7904 90.6027H9.59681C8.74871 90.6017 7.93564 90.2644 7.33594 89.6647C6.73624 89.065 6.39889 88.2519 6.39787 87.4038V68.2102C6.39787 67.3618 6.06084 66.5481 5.46093 65.9482C4.86101 65.3483 4.04735 65.0112 3.19894 65.0112C2.35053 65.0112 1.53686 65.3483 0.936947 65.9482C0.33703 66.5481 0 67.3618 0 68.2102V87.4038C0.0028787 89.9481 1.01489 92.3874 2.81402 94.1866C4.61315 95.9857 7.05246 96.9977 9.59681 97.0006Z" fill="#6161FF"/>
<path d="M3.19894 31.9894C4.04735 31.9894 4.86101 31.6523 5.46093 31.0524C6.06084 30.4525 6.39787 29.6388 6.39787 28.7904V9.59681C6.39889 8.74871 6.73624 7.93564 7.33594 7.33594C7.93564 6.73624 8.74871 6.39889 9.59681 6.39787H28.7904C29.6388 6.39787 30.4525 6.06084 31.0524 5.46093C31.6523 4.86101 31.9894 4.04735 31.9894 3.19894C31.9894 2.35053 31.6523 1.53686 31.0524 0.936947C30.4525 0.33703 29.6388 0 28.7904 0H9.59681C7.05246 0.0028787 4.61315 1.01489 2.81402 2.81402C1.01489 4.61315 0.0028787 7.05246 0 9.59681V28.7904C0 29.6388 0.33703 30.4525 0.936947 31.0524C1.53686 31.6523 2.35053 31.9894 3.19894 31.9894Z" fill="#6161FF"/>
<path d="M48.4999 71.2021C52.9899 71.2021 57.3791 69.8707 61.1125 67.3761C64.8458 64.8816 67.7556 61.336 69.4739 57.1877C71.1922 53.0394 71.6417 48.4748 70.7658 44.071C69.8898 39.6672 67.7276 35.6221 64.5527 32.4472C61.3777 29.2722 57.3326 27.11 52.9288 26.2341C48.525 25.3581 43.9604 25.8077 39.8121 27.526C35.6639 29.2442 32.1183 32.154 29.6237 35.8874C27.1292 39.6207 25.7977 44.0099 25.7977 48.5C25.8049 54.5187 28.1991 60.2889 32.455 64.5448C36.7109 68.8008 42.4811 71.1949 48.4999 71.2021ZM48.4999 32.2842C51.707 32.2842 54.8422 33.2352 57.5089 35.017C60.1755 36.7989 62.254 39.3314 63.4813 42.2945C64.7086 45.2575 65.0298 48.518 64.4041 51.6635C63.7784 54.8091 62.234 57.6985 59.9662 59.9663C57.6983 62.2341 54.809 63.7785 51.6634 64.4042C48.5178 65.0299 45.2574 64.7088 42.2943 63.4814C39.3313 62.2541 36.7987 60.1757 35.0169 57.509C33.2351 54.8423 32.284 51.7072 32.284 48.5C32.2885 44.2007 33.9984 40.0787 37.0385 37.0386C40.0786 33.9985 44.2005 32.2886 48.4999 32.2842Z" fill="#6161FF"/>
</svg>
