<svg width="33" height="33" viewBox="0 0 33 33" fill="none" xmlns="http://www.w3.org/2000/svg">
<path d="M7.43249 12.2449C7.20429 12.0167 6.83332 12.0167 6.60518 12.2449C6.3764 12.4737 6.3764 12.844 6.60518 13.0722C6.83338 13.301 7.20435 13.301 7.43249 13.0722C7.66122 12.844 7.66122 12.4737 7.43249 12.2449Z" fill="#EAEAFF"/>
<path d="M3.18947 26.4591L3.18948 26.4591C3.34103 26.3075 3.54242 26.2241 3.75714 26.2241H13.7039C14.1465 26.2241 14.5066 26.5843 14.5066 27.0268C14.5066 27.2415 14.4232 27.4429 14.2715 27.5945L14.2715 27.5945C14.12 27.7461 13.9186 27.8295 13.7039 27.8295H3.75714C3.3146 27.8295 2.95451 27.4693 2.95451 27.0268C2.95451 26.8121 3.03785 26.6107 3.18947 26.4591ZM15.4643 28.2144C15.7001 27.8665 15.8268 27.4563 15.8268 27.0269C15.8268 25.8563 14.8746 24.904 13.7039 24.904H3.75714C3.19 24.904 2.65665 25.1249 2.25598 25.5257C1.85514 25.9264 1.63426 26.4597 1.63426 27.0269C1.63426 27.4662 1.76868 27.8747 1.99813 28.2137C1.0838 28.7281 0.464062 29.7076 0.464062 30.83V31.4152C0.464062 31.7797 0.759665 32.0753 1.12419 32.0753H16.3369C16.7014 32.0753 16.997 31.7797 16.997 31.4152V30.83C16.997 29.7082 16.3779 28.7291 15.4643 28.2144ZM1.78591 30.755C1.82528 29.8632 2.56327 29.1497 3.46457 29.1497H3.75714H13.7039H13.9965C14.8978 29.1497 15.6358 29.8632 15.6751 30.755H1.78591Z" fill="#EAEAFF" stroke="#EAEAFF" stroke-width="0.15"/>
<mask id="path-3-outside-1_1270_1676" maskUnits="userSpaceOnUse" x="1.04297" y="-0.459961" width="32" height="32" fill="black">
<rect fill="white" x="1.04297" y="-0.459961" width="32" height="32"/>
<path d="M31.4556 25.1225C31.2569 24.8146 31.0198 24.5422 30.7508 24.3131L28.0168 21.9285C27.9955 21.8965 27.9708 21.8661 27.9426 21.8378C27.895 21.7903 27.8412 21.7533 27.784 21.7256L26.1306 20.2835L18.4777 13.6078C18.791 13.2803 18.9635 12.852 18.9635 12.3966C18.9635 11.9275 18.7809 11.4866 18.449 11.1547C18.3042 11.0101 18.1397 10.8964 17.9638 10.8131L18.6718 10.1051C18.8697 10.1577 19.0731 10.1847 19.2766 10.1847C19.8758 10.1846 20.4751 9.95652 20.9312 9.50036C21.3735 9.05818 21.617 8.47042 21.617 7.84533C21.617 7.22024 21.3735 6.63248 20.9313 6.19031L15.9666 1.22575C15.5244 0.783568 14.9366 0.540039 14.3114 0.540039C13.6864 0.540039 13.0987 0.783568 12.6566 1.22575C12.0455 1.83685 11.8444 2.70454 12.0518 3.48521L4.98791 10.5491C4.79271 10.4972 4.58961 10.4698 4.38213 10.4698C3.75674 10.4698 3.16922 10.7132 2.72739 11.1549C1.81483 12.0675 1.81483 13.5524 2.72739 14.465L7.69201 19.4297C8.14834 19.8859 8.74769 20.1141 9.34703 20.1141C9.94644 20.1141 10.5458 19.8859 11.0021 19.4297C11.6132 18.8185 11.8144 17.9509 11.6069 17.1702L12.3134 16.4636C12.3983 16.6409 12.5136 16.8045 12.6567 16.9475C12.9882 17.2791 13.429 17.4617 13.898 17.4617C14.353 17.4617 14.781 17.2895 15.109 16.9766L23.2602 26.3417C23.2826 26.3768 23.3088 26.4103 23.3395 26.4409C23.35 26.4514 23.3611 26.4609 23.3721 26.4704L25.8011 29.2611C25.8614 29.3324 25.926 29.4025 25.993 29.4695C26.6601 30.1363 27.5412 30.4982 28.4663 30.4982C28.6294 30.4982 28.794 30.487 28.9588 30.4642C30.0605 30.3117 31.0127 29.6526 31.571 28.6557C32.1827 27.5631 32.1371 26.1759 31.4556 25.1225ZM13.4842 2.05323C13.7053 1.83211 13.9991 1.71029 14.3114 1.71029C14.6241 1.71029 14.9181 1.83211 15.1392 2.05323L20.1039 7.01785C20.325 7.23897 20.4468 7.53288 20.4468 7.84539C20.4468 8.15791 20.325 8.45181 20.1038 8.67293C19.6477 9.12916 18.9054 9.12916 18.4493 8.67293L13.4845 3.70809C13.0282 3.25192 13.0279 2.5094 13.4842 2.05323ZM10.1746 18.6022C9.71835 19.0584 8.97577 19.0585 8.51949 18.6022L3.55487 13.6376C3.09854 13.1812 3.09854 12.4388 3.55487 11.9824C3.77558 11.7616 4.06943 11.64 4.38213 11.64C4.69476 11.64 4.98843 11.7616 5.20908 11.9822L10.1746 16.9477C10.6309 17.4038 10.6309 18.1461 10.1746 18.6022ZM12.6381 14.4841L11.0021 16.1202L6.03692 11.155L12.6566 4.53522L17.6217 9.50036L15.9827 11.1395C15.9773 11.1445 15.9721 11.1494 15.9665 11.155L12.6583 14.4632C12.6515 14.47 12.6449 14.477 12.6381 14.4841ZM14.7274 15.7047L14.7239 15.7081L14.3119 16.1202C14.2014 16.2307 14.0544 16.2915 13.898 16.2915C13.7416 16.2915 13.5946 16.2307 13.4841 16.1201C13.3735 16.0095 13.3125 15.8624 13.3125 15.7059C13.3125 15.5527 13.371 15.4086 13.4771 15.2999L16.8007 11.9763C17.0284 11.7548 17.3967 11.7575 17.6218 11.9824C17.7324 12.093 17.7933 12.2401 17.7933 12.3966C17.7933 12.553 17.7326 12.6997 17.6218 12.8102L17.2121 13.2199C17.2093 13.2226 17.2065 13.2254 17.2037 13.2283L14.7274 15.7047ZM15.9391 16.1479L17.6491 14.4378L24.8896 20.7534L22.2475 23.3955L15.9391 16.1479ZM23.0176 24.2803L25.7735 21.5244L26.6574 22.2954L23.7877 25.1652L23.0176 24.2803ZM30.5501 28.084C30.1724 28.7583 29.534 29.2032 28.7984 29.3051C28.0646 29.4066 27.3435 29.1649 26.8203 28.6419C26.7753 28.597 26.7322 28.5501 26.6921 28.5026L26.6864 28.496L24.5577 26.0501L27.5413 23.0664L29.9842 25.1972L29.9899 25.2021C30.1727 25.3576 30.335 25.5443 30.4726 25.7576C30.9151 26.4413 30.9461 27.3764 30.5501 28.084Z"/>
</mask>
<path d="M31.4556 25.1225C31.2569 24.8146 31.0198 24.5422 30.7508 24.3131L28.0168 21.9285C27.9955 21.8965 27.9708 21.8661 27.9426 21.8378C27.895 21.7903 27.8412 21.7533 27.784 21.7256L26.1306 20.2835L18.4777 13.6078C18.791 13.2803 18.9635 12.852 18.9635 12.3966C18.9635 11.9275 18.7809 11.4866 18.449 11.1547C18.3042 11.0101 18.1397 10.8964 17.9638 10.8131L18.6718 10.1051C18.8697 10.1577 19.0731 10.1847 19.2766 10.1847C19.8758 10.1846 20.4751 9.95652 20.9312 9.50036C21.3735 9.05818 21.617 8.47042 21.617 7.84533C21.617 7.22024 21.3735 6.63248 20.9313 6.19031L15.9666 1.22575C15.5244 0.783568 14.9366 0.540039 14.3114 0.540039C13.6864 0.540039 13.0987 0.783568 12.6566 1.22575C12.0455 1.83685 11.8444 2.70454 12.0518 3.48521L4.98791 10.5491C4.79271 10.4972 4.58961 10.4698 4.38213 10.4698C3.75674 10.4698 3.16922 10.7132 2.72739 11.1549C1.81483 12.0675 1.81483 13.5524 2.72739 14.465L7.69201 19.4297C8.14834 19.8859 8.74769 20.1141 9.34703 20.1141C9.94644 20.1141 10.5458 19.8859 11.0021 19.4297C11.6132 18.8185 11.8144 17.9509 11.6069 17.1702L12.3134 16.4636C12.3983 16.6409 12.5136 16.8045 12.6567 16.9475C12.9882 17.2791 13.429 17.4617 13.898 17.4617C14.353 17.4617 14.781 17.2895 15.109 16.9766L23.2602 26.3417C23.2826 26.3768 23.3088 26.4103 23.3395 26.4409C23.35 26.4514 23.3611 26.4609 23.3721 26.4704L25.8011 29.2611C25.8614 29.3324 25.926 29.4025 25.993 29.4695C26.6601 30.1363 27.5412 30.4982 28.4663 30.4982C28.6294 30.4982 28.794 30.487 28.9588 30.4642C30.0605 30.3117 31.0127 29.6526 31.571 28.6557C32.1827 27.5631 32.1371 26.1759 31.4556 25.1225ZM13.4842 2.05323C13.7053 1.83211 13.9991 1.71029 14.3114 1.71029C14.6241 1.71029 14.9181 1.83211 15.1392 2.05323L20.1039 7.01785C20.325 7.23897 20.4468 7.53288 20.4468 7.84539C20.4468 8.15791 20.325 8.45181 20.1038 8.67293C19.6477 9.12916 18.9054 9.12916 18.4493 8.67293L13.4845 3.70809C13.0282 3.25192 13.0279 2.5094 13.4842 2.05323ZM10.1746 18.6022C9.71835 19.0584 8.97577 19.0585 8.51949 18.6022L3.55487 13.6376C3.09854 13.1812 3.09854 12.4388 3.55487 11.9824C3.77558 11.7616 4.06943 11.64 4.38213 11.64C4.69476 11.64 4.98843 11.7616 5.20908 11.9822L10.1746 16.9477C10.6309 17.4038 10.6309 18.1461 10.1746 18.6022ZM12.6381 14.4841L11.0021 16.1202L6.03692 11.155L12.6566 4.53522L17.6217 9.50036L15.9827 11.1395C15.9773 11.1445 15.9721 11.1494 15.9665 11.155L12.6583 14.4632C12.6515 14.47 12.6449 14.477 12.6381 14.4841ZM14.7274 15.7047L14.7239 15.7081L14.3119 16.1202C14.2014 16.2307 14.0544 16.2915 13.898 16.2915C13.7416 16.2915 13.5946 16.2307 13.4841 16.1201C13.3735 16.0095 13.3125 15.8624 13.3125 15.7059C13.3125 15.5527 13.371 15.4086 13.4771 15.2999L16.8007 11.9763C17.0284 11.7548 17.3967 11.7575 17.6218 11.9824C17.7324 12.093 17.7933 12.2401 17.7933 12.3966C17.7933 12.553 17.7326 12.6997 17.6218 12.8102L17.2121 13.2199C17.2093 13.2226 17.2065 13.2254 17.2037 13.2283L14.7274 15.7047ZM15.9391 16.1479L17.6491 14.4378L24.8896 20.7534L22.2475 23.3955L15.9391 16.1479ZM23.0176 24.2803L25.7735 21.5244L26.6574 22.2954L23.7877 25.1652L23.0176 24.2803ZM30.5501 28.084C30.1724 28.7583 29.534 29.2032 28.7984 29.3051C28.0646 29.4066 27.3435 29.1649 26.8203 28.6419C26.7753 28.597 26.7322 28.5501 26.6921 28.5026L26.6864 28.496L24.5577 26.0501L27.5413 23.0664L29.9842 25.1972L29.9899 25.2021C30.1727 25.3576 30.335 25.5443 30.4726 25.7576C30.9151 26.4413 30.9461 27.3764 30.5501 28.084Z" fill="#EAEAFF"/>
<path d="M31.4556 25.1225L31.3296 25.2038L31.3297 25.204L31.4556 25.1225ZM30.7508 24.3131L30.6522 24.4262L30.6535 24.4273L30.7508 24.3131ZM28.0168 21.9285L27.8919 22.0115L27.903 22.0283L27.9182 22.0416L28.0168 21.9285ZM27.9426 21.8378L28.0486 21.7317L28.0486 21.7317L27.9426 21.8378ZM27.784 21.7256L27.6854 21.8386L27.7005 21.8518L27.7186 21.8605L27.784 21.7256ZM26.1306 20.2835L26.032 20.3966L26.032 20.3966L26.1306 20.2835ZM18.4777 13.6078L18.3694 13.5041L18.2608 13.6176L18.3791 13.7208L18.4777 13.6078ZM18.449 11.1547L18.555 11.0486L18.555 11.0486L18.449 11.1547ZM17.9638 10.8131L17.8578 10.7071L17.7072 10.8576L17.8996 10.9487L17.9638 10.8131ZM18.6718 10.1051L18.7104 9.96018L18.6269 9.93798L18.5658 9.99908L18.6718 10.1051ZM19.2766 10.1847L19.2766 10.3347L19.2766 10.3347L19.2766 10.1847ZM20.9312 9.50036L20.8252 9.39429L20.8252 9.39429L20.9312 9.50036ZM20.9313 6.19031L21.0374 6.08424L21.0374 6.08424L20.9313 6.19031ZM15.9666 1.22575L15.8606 1.33181L15.8606 1.33182L15.9666 1.22575ZM12.6566 1.22575L12.7627 1.33181L12.7627 1.33181L12.6566 1.22575ZM12.0518 3.48521L12.1579 3.59128L12.219 3.53018L12.1968 3.44668L12.0518 3.48521ZM4.98791 10.5491L4.94936 10.694L5.03287 10.7162L5.09397 10.6551L4.98791 10.5491ZM2.72739 11.1549L2.62133 11.0488L2.62132 11.0489L2.72739 11.1549ZM2.72739 14.465L2.62132 14.571L2.62132 14.571L2.72739 14.465ZM7.69201 19.4297L7.58594 19.5357L7.58595 19.5357L7.69201 19.4297ZM11.0021 19.4297L11.1082 19.5357L11.1082 19.5357L11.0021 19.4297ZM11.6069 17.1702L11.5008 17.0641L11.4397 17.1252L11.4619 17.2087L11.6069 17.1702ZM12.3134 16.4636L12.4487 16.3988L12.3572 16.2077L12.2074 16.3575L12.3134 16.4636ZM12.6567 16.9475L12.7627 16.8415L12.7627 16.8415L12.6567 16.9475ZM15.109 16.9766L15.2221 16.8781L15.1191 16.7596L15.0055 16.868L15.109 16.9766ZM23.2602 26.3417L23.3865 26.2609L23.3805 26.2516L23.3733 26.2433L23.2602 26.3417ZM23.3395 26.4409L23.4456 26.3349L23.4456 26.3349L23.3395 26.4409ZM23.3721 26.4704L23.4853 26.3719L23.4781 26.3637L23.4698 26.3565L23.3721 26.4704ZM25.8011 29.2611L25.9155 29.1641L25.9142 29.1626L25.8011 29.2611ZM25.993 29.4695L25.8869 29.5755L25.8869 29.5756L25.993 29.4695ZM28.9588 30.4642L28.9382 30.3156L28.9382 30.3156L28.9588 30.4642ZM31.571 28.6557L31.7019 28.729L31.7019 28.7289L31.571 28.6557ZM13.4842 2.05323L13.5902 2.15931L13.5902 2.1593L13.4842 2.05323ZM15.1392 2.05323L15.0331 2.15928L15.0331 2.1593L15.1392 2.05323ZM20.1039 7.01785L20.2099 6.91178L20.2099 6.91178L20.1039 7.01785ZM20.1038 8.67293L19.9978 8.56685L19.9977 8.56688L20.1038 8.67293ZM18.4493 8.67293L18.5554 8.56688L18.5554 8.56687L18.4493 8.67293ZM13.4845 3.70809L13.5905 3.60202L13.5905 3.60201L13.4845 3.70809ZM10.1746 18.6022L10.0686 18.4961L10.0686 18.4961L10.1746 18.6022ZM8.51949 18.6022L8.62556 18.4961L8.62556 18.4961L8.51949 18.6022ZM3.55487 13.6376L3.66094 13.5315L3.55487 13.6376ZM3.55487 11.9824L3.66095 12.0885L3.66096 12.0885L3.55487 11.9824ZM5.20908 11.9822L5.31515 11.8761L5.31514 11.8761L5.20908 11.9822ZM10.1746 16.9477L10.0685 17.0537L10.0685 17.0538L10.1746 16.9477ZM12.6381 14.4841L12.7442 14.5902L12.7469 14.5874L12.6381 14.4841ZM11.0021 16.1202L10.896 16.2262L11.0021 16.3323L11.1081 16.2262L11.0021 16.1202ZM6.03692 11.155L5.93085 11.049L5.82479 11.155L5.93085 11.2611L6.03692 11.155ZM12.6566 4.53522L12.7627 4.42915L12.6566 4.32309L12.5506 4.42915L12.6566 4.53522ZM17.6217 9.50036L17.7278 9.60643L17.8338 9.50036L17.7278 9.3943L17.6217 9.50036ZM15.9827 11.1395L16.0857 11.2485L16.0887 11.2455L15.9827 11.1395ZM15.9665 11.155L15.861 11.0484L15.8604 11.0489L15.9665 11.155ZM12.6583 14.4632L12.7635 14.5702L12.7644 14.5693L12.6583 14.4632ZM14.7274 15.7047L14.8334 15.8107L14.8334 15.8107L14.7274 15.7047ZM14.3119 16.1202L14.4179 16.2263L14.4179 16.2262L14.3119 16.1202ZM13.4841 16.1201L13.5902 16.0141L13.5901 16.014L13.4841 16.1201ZM13.4771 15.2999L13.371 15.1938L13.3697 15.1951L13.4771 15.2999ZM16.8007 11.9763L16.6961 11.8688L16.6946 11.8703L16.8007 11.9763ZM17.6218 11.9824L17.7279 11.8763L17.7278 11.8763L17.6218 11.9824ZM17.6218 12.8102L17.5158 12.704L17.5157 12.7042L17.6218 12.8102ZM17.2121 13.2199L17.3171 13.3271L17.3182 13.326L17.2121 13.2199ZM17.2037 13.2283L17.3098 13.3343L17.3109 13.3332L17.2037 13.2283ZM15.9391 16.1479L15.833 16.0418L15.734 16.1408L15.8259 16.2464L15.9391 16.1479ZM17.6491 14.4378L17.7477 14.3248L17.6422 14.2327L17.5431 14.3318L17.6491 14.4378ZM24.8896 20.7534L24.9957 20.8594L25.1092 20.7459L24.9882 20.6403L24.8896 20.7534ZM22.2475 23.3955L22.1344 23.494L22.2399 23.6153L22.3536 23.5016L22.2475 23.3955ZM23.0176 24.2803L22.9115 24.1743L22.8126 24.2732L22.9045 24.3788L23.0176 24.2803ZM25.7735 21.5244L25.8721 21.4114L25.7665 21.3193L25.6674 21.4183L25.7735 21.5244ZM26.6574 22.2954L26.7635 22.4015L26.8771 22.2879L26.756 22.1824L26.6574 22.2954ZM23.7877 25.1652L23.6745 25.2637L23.7801 25.385L23.8938 25.2713L23.7877 25.1652ZM30.5501 28.084L30.6809 28.1573L30.6809 28.1573L30.5501 28.084ZM28.7984 29.3051L28.7779 29.1565L28.7779 29.1565L28.7984 29.3051ZM26.8203 28.6419L26.9263 28.5358L26.9263 28.5358L26.8203 28.6419ZM26.6921 28.5026L26.8067 28.4058L26.8059 28.4049L26.6921 28.5026ZM26.6864 28.496L26.8002 28.3983L26.7996 28.3975L26.6864 28.496ZM24.5577 26.0501L24.4517 25.944L24.3527 26.043L24.4446 26.1485L24.5577 26.0501ZM27.5413 23.0664L27.6399 22.9533L27.5343 22.8612L27.4353 22.9603L27.5413 23.0664ZM29.9842 25.1972L29.8856 25.3103L29.8862 25.3107L29.9842 25.1972ZM29.9899 25.2021L29.8918 25.3156L29.8927 25.3164L29.9899 25.2021ZM30.4726 25.7576L30.3466 25.8389L30.3467 25.8391L30.4726 25.7576ZM31.5816 25.0412C31.3753 24.7214 31.1286 24.4379 30.8481 24.1989L30.6535 24.4273C30.911 24.6466 31.1385 24.9077 31.3296 25.2038L31.5816 25.0412ZM30.8494 24.2001L28.1154 21.8155L27.9182 22.0416L30.6522 24.4262L30.8494 24.2001ZM28.1418 21.8456C28.1151 21.8054 28.0841 21.7672 28.0486 21.7317L27.8365 21.9439C27.8576 21.9649 27.876 21.9876 27.8919 22.0115L28.1418 21.8456ZM28.0486 21.7317C27.9885 21.6716 27.9207 21.6251 27.8494 21.5906L27.7186 21.8605C27.7618 21.8815 27.8016 21.9091 27.8366 21.9439L28.0486 21.7317ZM27.8826 21.6125L26.2292 20.1705L26.032 20.3966L27.6854 21.8386L27.8826 21.6125ZM26.2292 20.1705L18.5763 13.4947L18.3791 13.7208L26.032 20.3966L26.2292 20.1705ZM18.5861 13.7115C18.9261 13.3561 19.1135 12.8907 19.1135 12.3966H18.8135C18.8135 12.8133 18.656 13.2045 18.3694 13.5041L18.5861 13.7115ZM19.1135 12.3966C19.1135 11.8877 18.9151 11.4086 18.555 11.0486L18.3429 11.2608C18.6467 11.5645 18.8135 11.9673 18.8135 12.3966H19.1135ZM18.555 11.0486C18.3977 10.8915 18.2189 10.768 18.028 10.6776L17.8996 10.9487C18.0604 11.0248 18.2107 11.1287 18.343 11.2608L18.555 11.0486ZM18.0699 10.9192L18.7779 10.2112L18.5658 9.99908L17.8578 10.7071L18.0699 10.9192ZM18.6333 10.2501C18.8435 10.306 19.0598 10.3347 19.2766 10.3347V10.0347C19.0863 10.0347 18.8959 10.0095 18.7104 9.96018L18.6333 10.2501ZM19.2766 10.3347C19.9138 10.3346 20.5518 10.0919 21.0373 9.60643L20.8252 9.39429C20.3984 9.8211 19.8378 10.0346 19.2765 10.0347L19.2766 10.3347ZM21.0373 9.60643C21.5077 9.13614 21.767 8.51023 21.767 7.84533H21.467C21.467 8.43062 21.2393 8.98023 20.8252 9.39429L21.0373 9.60643ZM21.767 7.84533C21.767 7.18044 21.5077 6.55453 21.0374 6.08424L20.8252 6.29637C21.2393 6.71043 21.467 7.26005 21.467 7.84533H21.767ZM21.0374 6.08424L16.0727 1.11968L15.8606 1.33182L20.8252 6.29637L21.0374 6.08424ZM16.0727 1.11968C15.6024 0.649379 14.9764 0.390039 14.3114 0.390039V0.690039C14.8968 0.690039 15.4465 0.917758 15.8606 1.33181L16.0727 1.11968ZM14.3114 0.390039C13.6466 0.390039 13.0208 0.649394 12.5505 1.11969L12.7627 1.33181C13.1767 0.917743 13.7262 0.690039 14.3114 0.690039V0.390039ZM12.5506 1.11968C11.8999 1.77031 11.6863 2.69376 11.9069 3.52374L12.1968 3.44668C12.0024 2.71531 12.1911 1.90339 12.7627 1.33181L12.5506 1.11968ZM11.9458 3.37914L4.88184 10.443L5.09397 10.6551L12.1579 3.59128L11.9458 3.37914ZM5.02645 10.4041C4.81891 10.3489 4.60286 10.3198 4.38213 10.3198V10.6198C4.57636 10.6198 4.76651 10.6454 4.94936 10.694L5.02645 10.4041ZM4.38213 10.3198C3.71698 10.3198 3.0913 10.5789 2.62133 11.0488L2.83345 11.261C3.24714 10.8474 3.7965 10.6198 4.38213 10.6198V10.3198ZM2.62132 11.0489C1.65018 12.02 1.65019 13.5998 2.62132 14.571L2.83346 14.3589C1.97947 13.5049 1.97947 12.115 2.83346 11.261L2.62132 11.0489ZM2.62132 14.571L7.58594 19.5357L7.79807 19.3236L2.83346 14.3589L2.62132 14.571ZM7.58595 19.5357C8.07163 20.0213 8.70967 20.2641 9.34703 20.2641V19.9641C8.78571 19.9641 8.22506 19.7505 7.79806 19.3236L7.58595 19.5357ZM9.34703 20.2641C9.98446 20.2641 10.6225 20.0213 11.1082 19.5357L10.8961 19.3236C10.4691 19.7505 9.90841 19.9641 9.34703 19.9641V20.2641ZM11.1082 19.5357C11.7588 18.885 11.9725 17.9616 11.7519 17.1317L11.4619 17.2087C11.6563 17.9401 11.4676 18.7519 10.896 19.3236L11.1082 19.5357ZM11.713 17.2762L12.4195 16.5697L12.2074 16.3575L11.5008 17.0641L11.713 17.2762ZM12.1782 16.5284C12.2704 16.721 12.3955 16.8986 12.5506 17.0536L12.7627 16.8415C12.6316 16.7104 12.5263 16.5608 12.4487 16.3988L12.1782 16.5284ZM12.5506 17.0536C12.9103 17.4133 13.3892 17.6117 13.898 17.6117V17.3117C13.4688 17.3117 13.0661 17.1449 12.7627 16.8415L12.5506 17.0536ZM13.898 17.6117C14.3916 17.6117 14.8568 17.4246 15.2125 17.0851L15.0055 16.868C14.7053 17.1544 14.3143 17.3117 13.898 17.3117V17.6117ZM14.9959 17.075L23.147 26.4402L23.3733 26.2433L15.2221 16.8781L14.9959 17.075ZM23.1338 26.4226C23.1616 26.4659 23.1944 26.508 23.2334 26.547L23.4456 26.3349C23.4232 26.3125 23.4037 26.2877 23.3865 26.2609L23.1338 26.4226ZM23.2334 26.547C23.2486 26.5622 23.2641 26.5754 23.2745 26.5843L23.4698 26.3565C23.458 26.3465 23.4513 26.3406 23.4456 26.3349L23.2334 26.547ZM23.259 26.5689L25.6879 29.3596L25.9142 29.1626L23.4853 26.3719L23.259 26.5689ZM25.6866 29.3581C25.7497 29.4325 25.817 29.5056 25.8869 29.5755L26.099 29.3634C26.0349 29.2993 25.9732 29.2322 25.9155 29.1641L25.6866 29.3581ZM25.8869 29.5756C26.5821 30.2705 27.5014 30.6482 28.4663 30.6482V30.3482C27.5811 30.3482 26.7381 30.0022 26.099 29.3634L25.8869 29.5756ZM28.4663 30.6482C28.6363 30.6482 28.8077 30.6365 28.9794 30.6128L28.9382 30.3156C28.7802 30.3375 28.6225 30.3482 28.4663 30.3482V30.6482ZM28.9794 30.6128C30.1291 30.4536 31.1214 29.7656 31.7019 28.729L31.4402 28.5824C30.9041 29.5396 29.992 30.1698 28.9382 30.3156L28.9794 30.6128ZM31.7019 28.7289C32.3408 27.5877 32.2932 26.141 31.5815 25.041L31.3297 25.204C31.9811 26.2109 32.0245 27.5385 31.4402 28.5824L31.7019 28.7289ZM13.5902 2.1593C13.7833 1.96626 14.039 1.86029 14.3114 1.86029V1.56029C13.9593 1.56029 13.6273 1.69796 13.3781 1.94717L13.5902 2.1593ZM14.3114 1.86029C14.5843 1.86029 14.8402 1.9663 15.0331 2.15928L15.2453 1.94718C14.9961 1.69792 14.6639 1.56029 14.3114 1.56029V1.86029ZM15.0331 2.1593L19.9978 7.12391L20.2099 6.91178L15.2453 1.94717L15.0331 2.1593ZM19.9978 7.12391C20.1908 7.31692 20.2968 7.57268 20.2968 7.84539H20.5968C20.5968 7.49307 20.4592 7.16102 20.2099 6.91178L19.9978 7.12391ZM20.2968 7.84539C20.2968 8.1181 20.1908 8.37385 19.9978 8.56685L20.2099 8.77901C20.4592 8.52978 20.5968 8.19771 20.5968 7.84539H20.2968ZM19.9977 8.56688C19.6002 8.96451 18.9529 8.96451 18.5554 8.56688L18.3432 8.77899C18.8579 9.29381 19.6952 9.29381 20.2099 8.77899L19.9977 8.56688ZM18.5554 8.56687L13.5905 3.60202L13.3784 3.81415L18.3432 8.779L18.5554 8.56687ZM13.5905 3.60201C13.1928 3.20438 13.1926 2.55684 13.5902 2.15931L13.3781 1.94716C12.8632 2.46195 12.8636 3.29946 13.3784 3.81416L13.5905 3.60201ZM10.0686 18.4961C9.67086 18.8938 9.02325 18.8938 8.62556 18.4961L8.41342 18.7082C8.92829 19.2232 9.76585 19.2231 10.2807 18.7082L10.0686 18.4961ZM8.62556 18.4961L3.66094 13.5315L3.44881 13.7436L8.41342 18.7082L8.62556 18.4961ZM3.66094 13.5315C3.26318 13.1337 3.26317 12.4863 3.66095 12.0885L3.4488 11.8763C2.9339 12.3913 2.93389 13.2287 3.44881 13.7436L3.66094 13.5315ZM3.66096 12.0885C3.85347 11.8959 4.10914 11.79 4.38213 11.79V11.49C4.02973 11.49 3.6977 11.6274 3.44879 11.8764L3.66096 12.0885ZM4.38213 11.79C4.65506 11.79 4.91056 11.8958 5.10303 12.0883L5.31514 11.8761C5.0663 11.6273 4.73446 11.49 4.38213 11.49V11.79ZM5.10302 12.0882L10.0685 17.0537L10.2806 16.8416L5.31515 11.8761L5.10302 12.0882ZM10.0685 17.0538C10.4662 17.4513 10.4662 18.0986 10.0686 18.4961L10.2807 18.7082C10.7955 18.1936 10.7955 17.3563 10.2806 16.8416L10.0685 17.0538ZM12.5321 14.378L10.896 16.0141L11.1081 16.2262L12.7442 14.5901L12.5321 14.378ZM11.1081 16.0141L6.14299 11.049L5.93085 11.2611L10.896 16.2262L11.1081 16.0141ZM6.14299 11.2611L12.7627 4.64128L12.5506 4.42915L5.93085 11.049L6.14299 11.2611ZM12.5506 4.64128L17.5156 9.60643L17.7278 9.3943L12.7627 4.42915L12.5506 4.64128ZM17.5156 9.3943L15.8766 11.0334L16.0887 11.2455L17.7278 9.60643L17.5156 9.3943ZM15.8796 11.0305C15.8745 11.0353 15.868 11.0414 15.861 11.0484L16.072 11.2616C16.0762 11.2575 16.0802 11.2537 16.0857 11.2485L15.8796 11.0305ZM15.8604 11.0489L12.5523 14.3572L12.7644 14.5693L16.0726 11.261L15.8604 11.0489ZM12.5532 14.3562C12.5441 14.3652 12.5353 14.3745 12.5294 14.3807L12.7469 14.5874C12.7544 14.5795 12.7589 14.5747 12.7635 14.5702L12.5532 14.3562ZM14.6213 15.5986L14.6179 15.6021L14.83 15.8142L14.8334 15.8107L14.6213 15.5986ZM14.6179 15.6021L14.2058 16.0141L14.4179 16.2262L14.83 15.8142L14.6179 15.6021ZM14.2058 16.0141C14.1235 16.0964 14.0147 16.1415 13.898 16.1415V16.4415C14.0942 16.4415 14.2793 16.3649 14.4179 16.2263L14.2058 16.0141ZM13.898 16.1415C13.7813 16.1415 13.6725 16.0964 13.5902 16.0141L13.378 16.2262C13.5167 16.3649 13.7018 16.4415 13.898 16.4415V16.1415ZM13.5901 16.014C13.5077 15.9316 13.4625 15.8227 13.4625 15.7059H13.1625C13.1625 15.9022 13.2392 16.0875 13.3781 16.2262L13.5901 16.014ZM13.4625 15.7059C13.4625 15.5916 13.5059 15.4851 13.5844 15.4046L13.3697 15.1951C13.2361 15.3321 13.1625 15.5139 13.1625 15.7059H13.4625ZM13.5832 15.406L16.9067 12.0824L16.6946 11.8703L13.371 15.1938L13.5832 15.406ZM16.9052 12.0839C17.0741 11.9196 17.3486 11.9215 17.5158 12.0885L17.7278 11.8763C17.4449 11.5936 16.9828 11.5899 16.6961 11.8688L16.9052 12.0839ZM17.5158 12.0885C17.5982 12.1709 17.6433 12.2798 17.6433 12.3966H17.9433C17.9433 12.2003 17.8666 12.0151 17.7279 11.8763L17.5158 12.0885ZM17.6433 12.3966C17.6433 12.5132 17.5984 12.6217 17.5158 12.704L17.7277 12.9164C17.8668 12.7777 17.9433 12.5928 17.9433 12.3966H17.6433ZM17.5157 12.7042L17.1061 13.1138L17.3182 13.326L17.7278 12.9163L17.5157 12.7042ZM17.1072 13.1127C17.1036 13.1162 17.1001 13.1197 17.0966 13.1233L17.3109 13.3332C17.3129 13.3312 17.315 13.3291 17.3171 13.3271L17.1072 13.1127ZM17.0977 13.1222L14.6213 15.5986L14.8334 15.8107L17.3098 13.3343L17.0977 13.1222ZM16.0451 16.254L17.7552 14.5439L17.5431 14.3318L15.833 16.0418L16.0451 16.254ZM17.5505 14.5509L24.791 20.8664L24.9882 20.6403L17.7477 14.3248L17.5505 14.5509ZM24.7835 20.6473L22.1415 23.2895L22.3536 23.5016L24.9957 20.8594L24.7835 20.6473ZM22.3607 23.297L16.0522 16.0494L15.8259 16.2464L22.1344 23.494L22.3607 23.297ZM23.1237 24.3864L25.8796 21.6305L25.6674 21.4183L22.9115 24.1743L23.1237 24.3864ZM25.6749 21.6374L26.5588 22.4085L26.756 22.1824L25.8721 21.4114L25.6749 21.6374ZM26.5514 22.1894L23.6816 25.0592L23.8938 25.2713L26.7635 22.4015L26.5514 22.1894ZM23.9009 25.0668L23.1308 24.1819L22.9045 24.3788L23.6745 25.2637L23.9009 25.0668ZM30.4192 28.0107C30.0634 28.6459 29.4647 29.0614 28.7779 29.1565L28.819 29.4536C29.6032 29.3451 30.2814 28.8706 30.6809 28.1573L30.4192 28.0107ZM28.7779 29.1565C28.0904 29.2516 27.4163 29.0256 26.9263 28.5358L26.7142 28.748C27.2707 29.3043 28.0387 29.5616 28.819 29.4536L28.7779 29.1565ZM26.9263 28.5358C26.8843 28.4939 26.8441 28.4501 26.8067 28.4058L26.5775 28.5994C26.6204 28.6501 26.6663 28.7001 26.7143 28.7481L26.9263 28.5358ZM26.8059 28.4049L26.8002 28.3983L26.5726 28.5937L26.5783 28.6003L26.8059 28.4049ZM26.7996 28.3975L24.6709 25.9516L24.4446 26.1485L26.5733 28.5945L26.7996 28.3975ZM24.6638 26.1561L27.6474 23.1724L27.4353 22.9603L24.4517 25.944L24.6638 26.1561ZM27.4427 23.1794L29.8856 25.3103L30.0828 25.0842L27.6399 22.9533L27.4427 23.1794ZM29.8862 25.3107L29.8918 25.3156L30.0879 25.0886L30.0823 25.0837L29.8862 25.3107ZM29.8927 25.3164C30.0637 25.4618 30.2164 25.6372 30.3466 25.8389L30.5987 25.6763C30.4535 25.4513 30.2817 25.2533 30.087 25.0878L29.8927 25.3164ZM30.3467 25.8391C30.7591 26.4764 30.7879 27.3519 30.4192 28.0107L30.6809 28.1573C31.1043 27.4009 31.0711 26.4063 30.5986 25.6761L30.3467 25.8391Z" fill="#EAEAFF" mask="url(#path-3-outside-1_1270_1676)"/>
<path d="M11.6204 8.05389L11.6204 8.05388L8.25731 11.4169L8.20427 11.4699C8.20428 11.4699 8.20428 11.47 8.20428 11.47C8.33318 11.5989 8.50224 11.6633 8.67105 11.6633C8.83988 11.6633 9.00892 11.5988 9.13781 11.47L9.13782 11.4699L11.6204 8.98738C11.6204 8.98738 11.6204 8.98738 11.6204 8.98737C11.8782 8.72964 11.8782 8.31172 11.6204 8.05389Z" fill="#EAEAFF" stroke="#EAEAFF" stroke-width="0.15"/>
</svg>
