<?xml version="1.0" encoding="utf-8"?>
<!-- Generator: Adobe Illustrator 26.0.0, SVG Export Plug-In . SVG Version: 6.00 Build 0)  -->
<svg version="1.1" id="Layer_1" xmlns="http://www.w3.org/2000/svg" xmlns:xlink="http://www.w3.org/1999/xlink" x="0px" y="0px"
	 viewBox="0 0 30 28" style="enable-background:new 0 0 30 28;" xml:space="preserve">
<style type="text/css">
	.st0{fill:#FFFFFF;}
</style>
<g id="lock">
	<g>
		<path class="st0" d="M24.3,11.7h-1.7V7.5C22.5,3.4,19.1,0,15,0c-4.1,0-7.5,3.4-7.5,7.5v4.1H5.8c-0.6,0-1.1,0.5-1.1,1.1v12.5
			c0,1.5,1.2,2.7,2.7,2.7h15.3c1.5,0,2.7-1.2,2.7-2.7V12.7C25.3,12.1,24.9,11.7,24.3,11.7z M9.6,7.5c0-3,2.4-5.4,5.4-5.4
			c3,0,5.4,2.4,5.4,5.4v4.2H9.6V7.5z M23.2,25.3c0,0.3-0.2,0.5-0.5,0.5H7.4c-0.3,0-0.6-0.2-0.6-0.5V13.8h16.3V25.3z"/>
		<path class="st0" d="M15,23.1c0.6,0,1.1-0.5,1.1-1.1v-3.9c0-0.6-0.5-1.1-1.1-1.1s-1.1,0.5-1.1,1.1V22C13.9,22.6,14.4,23.1,15,23.1
			z"/>
	</g>
</g>
</svg>
