<svg width="103" height="103" viewBox="0 0 103 103" fill="none" xmlns="http://www.w3.org/2000/svg">
<rect x="1.5" y="1.5" width="100" height="100" rx="8.5" stroke="#6161FF" stroke-width="3"/>
<path d="M28.4766 41.1995C36.1728 41.1995 42.4118 34.6892 42.4118 26.6584C42.4118 18.6275 36.1728 12.1172 28.4766 12.1172C20.7803 12.1172 14.5413 18.6275 14.5413 26.6584C14.5413 34.6892 20.7803 41.1995 28.4766 41.1995Z" fill="#6161FF"/>
<path d="M33.9293 25.6566L28.4764 20.5996M28.4764 20.5996L23.0234 25.6566M28.4764 20.5996V35.1408" stroke="white" stroke-miterlimit="10"/>
<path d="M86.086 68.4141H18.1259C16.1461 68.4141 14.5413 69.7215 14.5413 71.3343C14.5413 72.9472 16.1461 74.2546 18.1259 74.2546H86.086C88.0658 74.2546 89.6707 72.9472 89.6707 71.3343C89.6707 69.7215 88.0655 68.4141 86.086 68.4141Z" fill="#6161FF"/>
<path d="M53.8241 50.8926H18.1259C16.1461 50.8926 14.5413 52.2 14.5413 53.8128C14.5413 55.4257 16.1461 56.7331 18.1259 56.7331H53.8241C55.8039 56.7331 57.4087 55.4257 57.4087 53.8128C57.4087 52.2 55.8035 50.8926 53.8241 50.8926Z" fill="#6161FF"/>
<path d="M86.086 85.9355H18.1259C16.1461 85.9355 14.5413 87.243 14.5413 88.8558C14.5413 90.4687 16.1461 91.7761 18.1259 91.7761H86.086C88.0658 91.7761 89.6707 90.4687 89.6707 88.8558C89.6707 87.243 88.0655 85.9355 86.086 85.9355Z" fill="#6161FF"/>
</svg>
