<svg width="66" height="53" viewBox="0 0 66 53" fill="none" xmlns="http://www.w3.org/2000/svg">
<path d="M2 26.5002C2 14.8101 2 8.9635 5.6332 5.3334C9.2633 1.70019 15.1099 1.7002 26.8 1.7002H39.2C50.8901 1.7002 56.7367 1.70019 60.3668 5.3334C64 8.9635 64 14.8101 64 26.5002C64 38.1903 64 44.0369 60.3668 47.667C56.7367 51.3002 50.8901 51.3002 39.2 51.3002H26.8C15.1099 51.3002 9.2633 51.3002 5.6332 47.667C2 44.0369 2 38.1903 2 26.5002Z" stroke="#6161FF" stroke-width="2.5"/>
<path d="M26.8 38.8998H14.4M39.2 38.8998H34.55M2 20.2998H64" stroke="#6161FF" stroke-width="2.5" stroke-linecap="round"/>
</svg>
