<svg width="56" height="56" viewBox="0 0 56 56" fill="none" xmlns="http://www.w3.org/2000/svg">
<path d="M41 20.2646C46.655 20.2958 49.7178 20.548 51.7146 22.5448C54 24.8302 54 28.5066 54 35.8594V38.4594C54 45.8148 54 49.4912 51.7146 51.7766C49.4318 54.0594 45.7528 54.0594 38.4 54.0594H17.6C10.2472 54.0594 6.5682 54.0594 4.2854 51.7766C2 49.4886 2 45.8148 2 38.4594V35.8594C2 28.5066 2 24.8302 4.2854 22.5448C6.2822 20.548 9.345 20.2958 15 20.2646" stroke="#6161FF" stroke-width="2.5" stroke-linecap="round"/>
<path d="M28.0012 35.8596V2.05957M28.0012 2.05957L35.8012 11.1596M28.0012 2.05957L20.2012 11.1596" stroke="#6161FF" stroke-width="2.5" stroke-linecap="round" stroke-linejoin="round"/>
</svg>
