<svg width="79" height="103" viewBox="0 0 79 103" fill="none" xmlns="http://www.w3.org/2000/svg">
<path d="M75.7482 2.66177C74.0255 1.86842 71.9961 2.17689 70.587 3.44596L63.8985 9.36837L54.7986 1.22834C52.9704 -0.409448 50.2026 -0.409448 48.3745 1.22834L39.282 9.36066L30.1874 1.22834C28.3588 -0.409448 25.5907 -0.409448 23.7621 1.22834L14.6597 9.36837L7.96494 3.4462C5.98952 1.69033 2.96457 1.86842 1.2087 3.84384C0.422576 4.72829 -0.00807896 5.87276 0.000114808 7.05604V95.8621C-0.0155498 98.5089 2.11748 100.667 4.76431 100.683C5.94783 100.69 7.09231 100.258 7.97699 99.4721L14.6655 93.5497L23.7654 101.69C25.5936 103.328 28.3614 103.328 30.1896 101.69L39.282 93.5565L48.3759 101.689C50.2046 103.326 52.9726 103.326 54.8013 101.689L63.9036 93.549L70.5984 99.4712C72.5736 101.228 75.5985 101.05 77.3546 99.075C78.1415 98.1903 78.5721 97.0451 78.5639 95.8611V7.05604C78.5878 5.16015 77.4804 3.43223 75.7482 2.66177ZM67.0869 89.9389C65.2584 88.3192 62.5063 88.3264 60.6866 89.956L51.5869 98.0958L42.4942 89.9635C40.6658 88.3257 37.8978 88.3257 36.0693 89.9635L26.9757 98.0958L17.8722 89.956C16.0594 88.3267 13.3121 88.3192 11.4904 89.9387L4.81998 95.8594V83.0133L4.79588 7.05725L11.4772 12.9782C13.3056 14.5979 16.0577 14.5907 17.8775 12.9611L26.9771 4.82131L36.0698 12.9536C37.8982 14.5914 40.6663 14.5914 42.4947 12.9536L51.5883 4.82131L60.6919 12.9611C62.5046 14.5905 65.2519 14.5979 67.0736 12.9785L73.744 7.05604V68.1025L73.7682 95.8599L67.0869 89.9389Z" fill="#6161FF"/>
<path d="M62.1267 49.0488H16.4378C15.1068 49.0488 14.0278 50.1278 14.0278 51.4588C14.0278 52.7898 15.1068 53.8687 16.4378 53.8687H62.1267C63.4577 53.8687 64.5366 52.7898 64.5366 51.4588C64.5366 50.1278 63.4575 49.0488 62.1267 49.0488Z" fill="#6161FF"/>
<path d="M40.4373 34.5898H16.4378C15.1068 34.5898 14.0278 35.6688 14.0278 36.9998C14.0278 38.3308 15.1068 39.4097 16.4378 39.4097H40.4373C41.7683 39.4097 42.8473 38.3308 42.8473 36.9998C42.8473 35.6688 41.7681 34.5898 40.4373 34.5898Z" fill="#6161FF"/>
<path d="M62.1267 63.5078H16.4378C15.1068 63.5078 14.0278 64.5867 14.0278 65.9177C14.0278 67.2488 15.1068 68.3277 16.4378 68.3277H62.1267C63.4577 68.3277 64.5366 67.2488 64.5366 65.9177C64.5366 64.5867 63.4575 63.5078 62.1267 63.5078Z" fill="#6161FF"/>
</svg>
