<svg width="18" height="23" viewBox="0 0 18 23" fill="none" xmlns="http://www.w3.org/2000/svg">
<path d="M1.87788 7.02757C1.56901 5.0091 3.00718 3.19152 5.20416 2.52459C5.59424 2.40625 6.01517 2.43988 6.3811 2.61861C6.74703 2.79734 7.03037 3.10772 7.17333 3.48641L7.87782 5.3506C7.99109 5.65047 8.0114 5.97704 7.93614 6.28843C7.86089 6.59982 7.6935 6.88182 7.45545 7.09828L5.35981 9.00345C5.25646 9.09757 5.17944 9.21659 5.13625 9.34895C5.09307 9.48131 5.08518 9.62249 5.11336 9.75877L5.132 9.84234L5.18389 10.0521C5.2301 10.2288 5.29982 10.4779 5.39791 10.7752C5.59248 11.3658 5.90297 12.1597 6.36507 12.9528C6.82716 13.7459 7.36546 14.4096 7.78378 14.8716C8.00165 15.1122 8.22937 15.3438 8.46638 15.5659L8.53124 15.6253C8.63606 15.7174 8.76314 15.7809 8.9001 15.8098C9.03706 15.8386 9.17922 15.8318 9.31275 15.7901L12.0253 14.944C12.3335 14.8479 12.6636 14.8453 12.9733 14.9365C13.283 15.0277 13.5582 15.2086 13.7635 15.4558L15.0468 17.0002C15.5818 17.643 15.5186 18.588 14.9033 19.1561C13.2219 20.7093 10.9098 21.0283 9.3014 19.7458C7.32991 18.1698 5.66788 16.2476 4.39833 14.0753C3.11829 11.9045 2.26317 9.51283 1.87788 7.02757ZM6.81176 9.86403L8.55151 8.28269C9.02761 7.84977 9.36238 7.28576 9.51289 6.66298C9.6634 6.04021 9.62278 5.38707 9.39625 4.78733L8.69095 2.92314C8.40321 2.16149 7.83324 1.53729 7.09723 1.17776C6.36123 0.818232 5.51459 0.750453 4.7299 0.988238C2.00192 1.81587 -0.188574 4.24012 0.275143 7.26863C0.691027 9.95404 1.61434 12.5376 2.99664 14.8837C4.36596 17.2263 6.15853 19.2991 8.28479 20.9986C10.6966 22.919 13.9183 22.2641 16.0091 20.3316C16.6073 19.779 16.9703 19.0209 17.0241 18.2121C17.0779 17.4033 16.8184 16.6046 16.2985 15.9789L15.0152 14.4345C14.6045 13.9399 14.0541 13.5781 13.4345 13.3957C12.815 13.2133 12.1546 13.2186 11.5381 13.4108L9.28681 14.1131C9.18603 14.0104 9.08738 13.9056 8.9909 13.7989C8.52823 13.2916 8.11888 12.7388 7.76919 12.1493C7.42877 11.5542 7.15035 10.9264 6.93823 10.2754C6.89325 10.1392 6.85108 10.002 6.81176 9.86403Z" fill="#6161FF"/>
</svg>
