<svg width="20" height="22" viewBox="0 0 20 22" fill="none" xmlns="http://www.w3.org/2000/svg">
<path d="M9.96123 21.7169C9.62114 21.7173 9.28562 21.6386 8.98114 21.4871L5.17399 19.5835C3.75437 18.8798 2.56034 17.7923 1.72731 16.4444C0.894286 15.0966 0.455594 13.5423 0.460987 11.9578V6.41077C0.459841 5.79302 0.672918 5.19398 1.06392 4.71571C1.45491 4.23743 1.99964 3.90952 2.60529 3.78784C3.52592 3.6073 4.4241 3.32684 5.28388 2.95143C6.36868 2.47715 7.38278 1.8553 8.29742 1.10353C8.76679 0.71955 9.35454 0.509766 9.96096 0.509766C10.5674 0.509766 11.1551 0.71955 11.6245 1.10353C12.5397 1.85521 13.554 2.47719 14.639 2.95194C15.4988 3.32718 16.397 3.60748 17.3176 3.78787C17.9231 3.9098 18.4676 4.23778 18.8585 4.71601C19.2494 5.19423 19.4625 5.79313 19.4615 6.41077V11.9578C19.4668 13.5423 19.0281 15.0966 18.1951 16.4444C17.362 17.7922 16.1681 18.8797 14.7485 19.5835L10.9413 21.4871C10.6369 21.6387 10.3013 21.7173 9.96123 21.7169ZM9.96123 1.97039C9.69273 1.97001 9.43242 2.06283 9.22473 2.23302C8.20615 3.06999 7.07696 3.76242 5.8691 4.29073C4.91161 4.70881 3.91131 5.02103 2.886 5.22182C2.61273 5.27807 2.36738 5.42728 2.19172 5.64406C2.01607 5.86083 1.92095 6.13177 1.92256 6.41077V11.9578C1.91804 13.2707 2.28152 14.5585 2.97176 15.6753C3.66201 16.7921 4.6514 17.6931 5.82771 18.2761L9.63437 20.1797C9.73609 20.2299 9.84802 20.256 9.96147 20.256C10.0749 20.256 10.1868 20.2299 10.2886 20.1797L14.0957 18.2761C15.2718 17.6929 16.2609 16.7918 16.951 15.6751C17.6411 14.5583 18.0044 13.2706 17.9999 11.9578V6.41077C18.0015 6.1317 17.9063 5.8607 17.7306 5.64392C17.5548 5.42713 17.3094 5.27797 17.036 5.22182C16.0111 5.02096 15.0111 4.7089 14.0538 4.29118C12.8457 3.76264 11.7162 3.07006 10.6973 2.23299C10.4898 2.06276 10.2296 1.96993 9.96123 1.97039Z" fill="#6161FF"/>
<path d="M10.9354 15.2947H9.96103C9.76723 15.2946 9.58138 15.2176 9.44434 15.0806C9.3073 14.9435 9.23029 14.7577 9.23024 14.5639V11.3971H8.98665C8.79283 11.3971 8.60695 11.3201 8.4699 11.1831C8.33285 11.046 8.25586 10.8602 8.25586 10.6663C8.25586 10.4725 8.33285 10.2866 8.4699 10.1496C8.60695 10.0125 8.79283 9.93555 8.98665 9.93555H9.96103C10.1548 9.9356 10.3407 10.0126 10.4777 10.1496C10.6148 10.2867 10.6918 10.4725 10.6918 10.6663V13.8331H10.9354C11.1292 13.8331 11.3151 13.9101 11.4522 14.0471C11.5892 14.1842 11.6662 14.3701 11.6662 14.5639C11.6662 14.7577 11.5892 14.9436 11.4522 15.0806C11.3151 15.2177 11.1292 15.2947 10.9354 15.2947Z" fill="#6161FF"/>
<path d="M9.96142 8.47361C10.5668 8.47361 11.0576 7.98284 11.0576 7.37743C11.0576 6.77203 10.5668 6.28125 9.96142 6.28125C9.35601 6.28125 8.86523 6.77203 8.86523 7.37743C8.86523 7.98284 9.35601 8.47361 9.96142 8.47361Z" fill="#6161FF"/>
</svg>
