<?xml version="1.0" encoding="utf-8"?>
<!-- Generator: Adobe Illustrator 26.0.0, SVG Export Plug-In . SVG Version: 6.00 Build 0)  -->
<svg version="1.1" id="Layer_1" xmlns="http://www.w3.org/2000/svg" xmlns:xlink="http://www.w3.org/1999/xlink" x="0px" y="0px"
	 viewBox="0 0 30 28" style="enable-background:new 0 0 30 28;" xml:space="preserve">
<style type="text/css">
	.st0{fill:#FFFFFF;}
</style>
<g>
	<path class="st0" d="M15,13.5c-3.8,0-6.9-3-6.9-6.8S11.2,0,15,0c3.8,0,6.9,3,6.9,6.8c0,0,0,0,0,0C21.9,10.5,18.8,13.5,15,13.5z
		 M15,1.9c-2.7,0-4.9,2.2-4.9,4.8c0,2.7,2.2,4.8,4.9,4.8c2.7,0,4.9-2.2,4.9-4.8c0,0,0,0,0,0C19.9,4.1,17.7,2,15,1.9z"/>
	<path class="st0" d="M26,28H4l-1-1c0-6.5,5.4-11.8,12-11.8S27,20.5,27,27L26,28z M5,26.1H25c-0.5-5.4-5.4-9.3-10.9-8.8
		C9.3,17.7,5.5,21.4,5,26.1z"/>
</g>
</svg>
