<?xml version="1.0" encoding="utf-8"?>
<!-- Generator: Adobe Illustrator 26.0.0, SVG Export Plug-In . SVG Version: 6.00 Build 0)  -->
<svg version="1.1" id="Layer_1" xmlns="http://www.w3.org/2000/svg" xmlns:xlink="http://www.w3.org/1999/xlink" x="0px" y="0px"
	 viewBox="0 0 40 40" style="enable-background:new 0 0 40 40;" xml:space="preserve">
<style type="text/css">
	.st0{fill:#6161FF;}
</style>
<g id="Layer_23">
	<path class="st0" d="M17.1,26.3H4.5c-1.6,0-2.9-1.3-2.9-2.9v-5.8c0-1.6,1.3-2.9,2.9-2.9h12.6c1.6,0,2.9,1.3,2.9,2.9v5.8
		C20,25,18.7,26.3,17.1,26.3z M4.5,16.6c-0.5,0-1,0.4-1,1v5.8c0,0.5,0.4,1,1,1h12.6c0.5,0,1-0.4,1-1v-5.8c0-0.5-0.4-1-1-1H4.5z"/>
	<path class="st0" d="M21,11.8h-9.7c-0.4,0-0.7-0.2-0.9-0.6c-0.2-0.4-0.1-0.8,0.2-1.1l9.7-9.7C20.6,0.1,21,0,21.3,0.2
		c0.4,0.1,0.6,0.5,0.6,0.9v9.7C21.9,11.3,21.5,11.8,21,11.8z M13.6,9.8H20V3.4L13.6,9.8z"/>
	<path class="st0" d="M6.7,17.9c0.4,0,0.9,0.2,1.2,0.5c0.3,0.3,0.5,0.7,0.5,1.1c0,0.4-0.2,0.8-0.5,1.1c-0.3,0.3-0.7,0.5-1.2,0.5H5.9
		v1.6h-1v-4.8H6.7z M6.7,20.2c0.2,0,0.4-0.1,0.5-0.2c0.1-0.1,0.2-0.3,0.2-0.5c0-0.2-0.1-0.4-0.2-0.5c-0.1-0.1-0.3-0.2-0.5-0.2H5.9
		v1.4H6.7z"/>
	<path class="st0" d="M10.8,17.9c0.6,0,1.2,0.2,1.6,0.7c0.9,1,0.9,2.4,0,3.4c-0.4,0.5-1,0.7-1.6,0.7H8.9v-4.8L10.8,17.9z M10.8,21.7
		c0.4,0,0.7-0.1,1-0.4c0.5-0.6,0.5-1.5,0-2.1c-0.3-0.3-0.6-0.4-1-0.4h-1v3L10.8,21.7z"/>
	<path class="st0" d="M16.6,18.8h-1.9v1.1h1.9v0.9h-1.8v1.8h-1v-4.8h2.9V18.8z"/>
	<path class="st0" d="M35.5,38h-6.4c-0.5,0-1-0.4-1-1s0.4-1,1-1h6.4c0.5,0,1-0.4,1-1V3c0-0.5-0.4-1-1-1H21.4l-9.1,9.1v4.5
		c0,0.5-0.4,1-1,1c-0.5,0-1-0.4-1-1v-4.9c0-0.3,0.1-0.5,0.3-0.7l9.7-9.7c0.2-0.2,0.4-0.3,0.7-0.3h14.6c1.6,0,2.9,1.3,2.9,2.9v32
		C38.4,36.6,37.1,38,35.5,38z"/>
	<path class="st0" d="M26.4,38H13.2c-1.6,0-2.9-1.3-2.9-2.9v-9.7c0-0.5,0.4-1,1-1c0.5,0,1,0.4,1,1V35c0,0.5,0.4,1,1,1h13.2
		c0.5,0,1,0.4,1,1S26.9,38,26.4,38z"/>
	<path class="st0" d="M27.8,39.9c-0.3,0-0.6-0.2-0.8-0.4l-4.9-6.8c-0.3-0.4-0.2-1,0.2-1.4c0.2-0.1,0.4-0.2,0.6-0.2h1v-4.9
		c0-0.5,0.4-1,1-1h5.8c0.5,0,1,0.4,1,1v4.9h1c0.5,0,1,0.4,1,1c0,0.2-0.1,0.4-0.2,0.6l-4.9,6.8C28.4,39.7,28.1,39.9,27.8,39.9z
		 M24.8,33.1l3,4.2l3-4.2h-0.1c-0.5,0-1-0.4-1-1v-4.9h-3.9v4.9C25.8,32.7,25.4,33.1,24.8,33.1L24.8,33.1z"/>
</g>
</svg>
