<svg width="16" height="18" viewBox="0 0 16 18" fill="none" xmlns="http://www.w3.org/2000/svg">
<path d="M15.7873 3.66404L12.1509 0.2025C12.0833 0.13823 12.0031 0.0872668 11.9148 0.0525212C11.8265 0.0177756 11.7319 -7.12979e-05 11.6364 2.1406e-07H4.36364C3.97787 2.1406e-07 3.6079 0.145879 3.33512 0.405545C3.06234 0.66521 2.90909 1.01739 2.90909 1.38462V2.76923H1.45455C1.06878 2.76923 0.698807 2.91511 0.426026 3.17478C0.153246 3.43444 0 3.78662 0 4.15385V16.6154C0 16.9826 0.153246 17.3348 0.426026 17.5945C0.698807 17.8541 1.06878 18 1.45455 18H11.6364C12.0221 18 12.3921 17.8541 12.6649 17.5945C12.9377 17.3348 13.0909 16.9826 13.0909 16.6154V15.2308H14.5455C14.9312 15.2308 15.3012 15.0849 15.574 14.8252C15.8468 14.5656 16 14.2134 16 13.8462V4.15385C16.0001 4.0629 15.9813 3.97284 15.9448 3.8888C15.9083 3.80475 15.8548 3.72838 15.7873 3.66404ZM11.6364 16.6154H1.45455V4.15385H8.42636L11.6364 7.20952V16.6154ZM14.5455 13.8462H13.0909V6.92308C13.091 6.83214 13.0722 6.74207 13.0357 6.65803C12.9992 6.57398 12.9457 6.49761 12.8782 6.43327L9.24182 2.97173C9.17423 2.90746 9.094 2.8565 9.00571 2.82175C8.91742 2.78701 8.82281 2.76916 8.72727 2.76923H4.36364V1.38462H11.3355L14.5455 4.44029V13.8462ZM9.45455 11.0769C9.45455 11.2605 9.37792 11.4366 9.24153 11.5665C9.10514 11.6963 8.92016 11.7692 8.72727 11.7692H4.36364C4.17075 11.7692 3.98577 11.6963 3.84938 11.5665C3.71299 11.4366 3.63636 11.2605 3.63636 11.0769C3.63636 10.8933 3.71299 10.7172 3.84938 10.5874C3.98577 10.4576 4.17075 10.3846 4.36364 10.3846H8.72727C8.92016 10.3846 9.10514 10.4576 9.24153 10.5874C9.37792 10.7172 9.45455 10.8933 9.45455 11.0769ZM9.45455 13.8462C9.45455 14.0298 9.37792 14.2059 9.24153 14.3357C9.10514 14.4655 8.92016 14.5385 8.72727 14.5385H4.36364C4.17075 14.5385 3.98577 14.4655 3.84938 14.3357C3.71299 14.2059 3.63636 14.0298 3.63636 13.8462C3.63636 13.6625 3.71299 13.4865 3.84938 13.3566C3.98577 13.2268 4.17075 13.1538 4.36364 13.1538H8.72727C8.92016 13.1538 9.10514 13.2268 9.24153 13.3566C9.37792 13.4865 9.45455 13.6625 9.45455 13.8462Z" fill="#6161FF"/>
</svg>
