<svg width="16" height="18" viewBox="0 0 16 18" fill="none" xmlns="http://www.w3.org/2000/svg">
<path d="M8.24893 17.3698C8.01216 17.3696 7.77938 17.3088 7.57275 17.1932L4.89364 15.705C3.56181 14.9644 2.45207 13.8814 1.67926 12.568C0.906449 11.2546 0.498645 9.75858 0.498047 8.2347V4.10425C0.497818 3.76037 0.625201 3.42863 0.85553 3.17327C1.08586 2.91792 1.40275 2.75711 1.74484 2.722C2.81064 2.60909 3.85959 2.372 4.87034 2.01556C5.79711 1.68803 6.68615 1.26224 7.52229 0.74548C7.74107 0.611703 7.99255 0.540947 8.24899 0.541016C8.50543 0.541084 8.75687 0.611975 8.97558 0.74587C9.81181 1.26235 10.7008 1.688 11.6275 2.01556C12.6383 2.37201 13.6872 2.6091 14.753 2.72202C15.0951 2.75714 15.412 2.91794 15.6423 3.17329C15.8727 3.42864 16 3.76037 15.9998 4.10425V8.23472C15.9992 9.7586 15.5914 11.2546 14.8186 12.568C14.0458 13.8814 12.9361 14.9644 11.6042 15.705L8.92434 17.1936C8.71793 17.309 8.48542 17.3697 8.24893 17.3698ZM8.24893 1.73217C8.2139 1.73201 8.17951 1.74155 8.14956 1.75973C7.24085 2.32088 6.27479 2.78373 5.26782 3.13964C4.16927 3.5273 3.0291 3.78499 1.8706 3.90743C1.82138 3.9117 1.77555 3.9343 1.7422 3.97075C1.70884 4.0072 1.69039 4.05485 1.69049 4.10425V8.23472C1.69096 9.54594 2.04185 10.8332 2.70684 11.9633C3.37183 13.0934 4.32675 14.0252 5.47277 14.6624L8.15267 16.151C8.18193 16.1674 8.21492 16.1761 8.2485 16.1762C8.28207 16.1763 8.3151 16.1677 8.34443 16.1514L11.0251 14.6624C12.1711 14.0253 13.1261 13.0934 13.791 11.9633C14.456 10.8332 14.8069 9.54595 14.8074 8.23472V4.10425C14.8075 4.05485 14.789 4.00721 14.7557 3.97076C14.7223 3.93432 14.6765 3.91172 14.6273 3.90745C13.4688 3.785 12.3286 3.52731 11.23 3.13964C10.2231 2.78373 9.25702 2.32126 8.34831 1.7601C8.31847 1.74163 8.28403 1.73195 8.24893 1.73217Z" fill="#4E6AFF"/>
<path d="M7.85216 10.7269C7.70616 10.7271 7.5652 10.6735 7.45627 10.5763L5.6676 8.98636C5.54996 8.88121 5.4788 8.7337 5.46974 8.57617C5.46067 8.41864 5.51443 8.26394 5.61924 8.14598C5.72404 8.02803 5.87134 7.95643 6.02884 7.9469C6.18634 7.93737 6.3412 7.99067 6.45947 8.09513L7.81416 9.29922L10.3986 6.54286C10.4519 6.48473 10.5162 6.43775 10.5878 6.40465C10.6594 6.37155 10.7368 6.35299 10.8157 6.35003C10.8945 6.34707 10.9731 6.35978 11.047 6.38742C11.1208 6.41506 11.1885 6.45709 11.246 6.51106C11.3035 6.56503 11.3497 6.62988 11.382 6.70184C11.4143 6.77381 11.432 6.85146 11.434 6.93031C11.4361 7.00915 11.4225 7.08762 11.394 7.16117C11.3655 7.23472 11.3227 7.30189 11.2681 7.35878L8.28697 10.5386C8.23129 10.5982 8.16395 10.6456 8.08915 10.678C8.01434 10.7104 7.93368 10.727 7.85216 10.7269Z" fill="#4E6AFF"/>
</svg>
