<svg width="123" height="103" viewBox="0 0 123 103" fill="none" xmlns="http://www.w3.org/2000/svg">
<path d="M31.6468 79.9387C33.1006 79.9387 34.2792 78.7601 34.2792 77.3063C34.2792 75.8524 33.1006 74.6738 31.6468 74.6738C30.1929 74.6738 29.0143 75.8524 29.0143 77.3063C29.0143 78.7601 30.1929 79.9387 31.6468 79.9387Z" fill="#6161FF"/>
<path d="M40.4362 79.9367C41.8901 79.9367 43.0686 78.7582 43.0686 77.3043C43.0686 75.8505 41.8901 74.6719 40.4362 74.6719C38.9824 74.6719 37.8038 75.8505 37.8038 77.3043C37.8038 78.7582 38.9824 79.9367 40.4362 79.9367Z" fill="#6161FF"/>
<path d="M45.6969 14.0039H29.9058C28.452 14.0039 27.2734 15.1825 27.2734 16.6363C27.2734 18.0902 28.452 19.2688 29.9058 19.2688H45.6969C47.1507 19.2688 48.3293 18.0902 48.3293 16.6363C48.3293 15.1825 47.1507 14.0039 45.6969 14.0039Z" fill="#6161FF"/>
<path d="M38.6743 23.0352H29.9065C28.4527 23.0352 27.2741 24.2137 27.2741 25.6676C27.2741 27.1214 28.4527 28.3 29.9065 28.3H38.6743C40.1281 28.3 41.3067 27.1214 41.3067 25.6676C41.3067 24.2137 40.1281 23.0352 38.6743 23.0352Z" fill="#6161FF"/>
<path d="M76.1664 102.997C75.2292 102.997 74.2886 102.783 73.4251 102.351L63.0218 97.1493C62.741 97.0089 62.404 97.03 62.1408 97.2055L55.2473 101.803C53.1835 103.179 50.4949 103.179 48.4311 101.803L41.5376 97.2055C41.2779 97.03 40.9445 97.0124 40.6637 97.1493L30.2603 102.351C28.2877 103.337 25.9326 103.19 24.0969 101.965L16.8419 97.1177C15.1361 95.977 14.1112 94.0606 14.1112 92.0073V24.2871H19.3761V92.0073L19.7657 92.7373L27.0242 97.5845C27.2874 97.76 27.6208 97.7811 27.9051 97.6407L38.3085 92.439C40.2811 91.4527 42.6257 91.6001 44.4614 92.8216L51.3513 97.416C51.6462 97.6126 52.0323 97.6126 52.3271 97.416L59.217 92.8216C61.0527 91.5966 63.4008 91.4527 65.3734 92.439L75.7733 97.6372C76.0541 97.7776 76.391 97.7565 76.6543 97.581L83.9128 92.7338L84.3023 92.0038V87.469C84.3023 86.0159 85.4817 84.8365 86.9348 84.8365C88.3879 84.8365 89.5672 86.0159 89.5672 87.469V92.0038C89.5672 94.0571 88.5423 95.9735 86.8365 97.1142L79.5815 101.961C78.5531 102.646 77.3598 102.993 76.1629 102.993L76.1664 102.997Z" fill="#6161FF"/>
<path d="M86.9389 19.2694C85.4858 19.2694 84.3064 18.0901 84.3064 16.637V13.1622C84.3064 8.79934 80.772 5.26486 76.4091 5.26486H9.72089V0H76.4091C83.6782 0 89.5713 5.89314 89.5713 13.1622V16.637C89.5713 18.0901 88.392 19.2694 86.9389 19.2694Z" fill="#6161FF"/>
<path d="M19.3726 54.4036H9.72036C4.39583 54.4036 0.0681152 50.0759 0.0681152 44.7513V9.65225C0.0681152 4.32772 4.39583 0 9.72036 0C15.0449 0 19.3726 4.32772 19.3726 9.65225V54.4036ZM9.72036 5.26486C7.30203 5.26486 5.33298 7.23392 5.33298 9.65225V44.7513C5.33298 47.1697 7.30203 49.1387 9.72036 49.1387H14.1077V9.65225C14.1077 7.23392 12.1387 5.26486 9.72036 5.26486Z" fill="#6161FF"/>
<path d="M114.747 30.7109H62.6469C58.6251 30.7109 55.3529 33.9831 55.3529 38.005V69.2651C55.3529 73.287 58.6251 76.5591 62.6469 76.5591H114.747C118.769 76.5591 122.041 73.287 122.041 69.2651V38.005C122.041 33.9831 118.769 30.7109 114.747 30.7109ZM62.6469 34.879H114.747C116.471 34.879 117.873 36.2814 117.873 38.005V42.173H59.5209V38.005C59.5209 36.2814 60.9233 34.879 62.6469 34.879ZM114.747 72.3911H62.6469C60.9233 72.3911 59.5209 70.9887 59.5209 69.2651V46.341H117.873V69.2651C117.873 70.9887 116.471 72.3911 114.747 72.3911Z" fill="#6161FF"/>
<path d="M69.9413 66.1387H67.8573C66.7064 66.1387 65.7733 65.2056 65.7733 64.0547V61.9707C65.7733 60.8198 66.7064 59.8867 67.8573 59.8867H69.9413C71.0922 59.8867 72.0253 60.8198 72.0253 61.9707V64.0547C72.0253 65.2056 71.0922 66.1387 69.9413 66.1387Z" fill="#6161FF"/>
</svg>
