<svg width="42" height="42" viewBox="0 0 42 42" fill="none" xmlns="http://www.w3.org/2000/svg">
<path d="M40 40L30.8315 30.8315M30.8315 30.8315C32.3998 29.2632 33.6439 27.4014 34.4926 25.3523C35.3414 23.3032 35.7783 21.107 35.7783 18.8891C35.7783 16.6712 35.3414 14.475 34.4927 12.4259C33.6439 10.3769 32.3998 8.51501 30.8315 6.94671C29.2632 5.37841 27.4014 4.13437 25.3523 3.28561C23.3032 2.43685 21.107 2 18.8891 2C16.6712 2 14.475 2.43685 12.4259 3.28561C10.3769 4.13437 8.51501 5.37841 6.94671 6.94671C3.77939 10.114 2 14.4099 2 18.8891C2 23.3684 3.77939 27.6642 6.94671 30.8315C10.114 33.9989 14.4099 35.7783 18.8891 35.7783C23.3684 35.7783 27.6642 33.9989 30.8315 30.8315Z" stroke="black" stroke-width="2.5" stroke-linecap="round" stroke-linejoin="round"/>
</svg>
