<svg width="31" height="31" viewBox="0 0 31 31" fill="none" xmlns="http://www.w3.org/2000/svg">
<path d="M15.0811 8.37873C15.5255 8.37873 15.9517 8.20219 16.266 7.88794C16.5802 7.57369 16.7568 7.14747 16.7568 6.70306C16.7568 6.25864 16.5802 5.83242 16.266 5.51817C15.9517 5.20392 15.5255 5.02738 15.0811 5.02738C14.6367 5.02738 14.2104 5.20392 13.8962 5.51817C13.5819 5.83242 13.4054 6.25864 13.4054 6.70306C13.4054 7.14747 13.5819 7.57369 13.8962 7.88794C14.2104 8.20219 14.6367 8.37873 15.0811 8.37873ZM16.2088 0.374031C15.8831 0.13088 15.4875 -0.000488281 15.0811 -0.000488281C14.6746 -0.000488281 14.279 0.13088 13.9533 0.374031L0.594865 10.346C-0.536216 11.1897 0.0611622 12.9868 1.47124 12.9868H2.51351V23.0451C1.76137 23.4018 1.12591 23.9647 0.680981 24.6683C0.236048 25.3719 -9.24947e-05 26.1873 2.71777e-08 27.0198V29.9522C2.71777e-08 30.5303 0.469189 30.9995 1.0473 30.9995H29.1149C29.693 30.9995 30.1622 30.5303 30.1622 29.9522V27.0198C30.1622 26.1873 29.9261 25.3719 29.4812 24.6683C29.0362 23.9647 28.4008 23.4018 27.6486 23.0451V12.986H28.6909C30.1018 12.986 30.6984 11.1888 29.5681 10.3451L16.2088 0.374031ZM25.554 22.6211H21.7838V12.986H25.554V22.6211ZM19.6892 22.6211H16.1284V12.986H19.6892V22.6211ZM14.0338 22.6211H10.473V12.986H14.0338V22.6211ZM8.37838 22.6211H4.60811V12.986H8.37838V22.6211ZM3.36308 10.8922L15.0811 2.14522L26.7982 10.8922H3.36308ZM2.09459 27.0206C2.09459 26.4095 2.33734 25.8235 2.76944 25.3914C3.20153 24.9593 3.78757 24.7166 4.39865 24.7166H25.7635C26.3746 24.7166 26.9606 24.9593 27.3927 25.3914C27.8248 25.8235 28.0676 26.4095 28.0676 27.0206V28.9057H2.09459V27.0206Z" fill="white"/>
</svg>
