<svg width="22" height="29" viewBox="0 0 22 29" fill="none" xmlns="http://www.w3.org/2000/svg">
<path d="M2.73281 9.49979H15.0305V6.83701C15.0305 5.72752 14.6319 4.78445 13.8349 4.0078C13.0378 3.23116 12.0699 2.84284 10.9312 2.84284C9.79258 2.84284 8.82471 3.23116 8.02764 4.0078C7.23057 4.78445 6.83203 5.72752 6.83203 6.83701H4.09922C4.09922 4.99525 4.76557 3.4251 6.09827 2.12655C7.43097 0.827998 9.04197 0.179167 10.9312 0.180055C12.8214 0.180055 14.4329 0.82933 15.7656 2.12788C17.0983 3.42643 17.7642 4.99614 17.7633 6.83701V9.49979H19.1297C19.8812 9.49979 20.5248 9.76074 21.0604 10.2826C21.596 10.8046 21.8634 11.4312 21.8625 12.1626V25.4765C21.8625 26.2087 21.5947 26.8358 21.059 27.3577C20.5234 27.8796 19.8803 28.1401 19.1297 28.1393H2.73281C1.98129 28.1393 1.33771 27.8783 0.802082 27.3564C0.266451 26.8345 -0.000908617 26.2079 2.31988e-06 25.4765V12.1626C2.31988e-06 11.4303 0.267818 10.8032 0.803449 10.2813C1.33908 9.75941 1.9822 9.4989 2.73281 9.49979ZM2.73281 25.4765H19.1297V12.1626H2.73281V25.4765ZM10.9312 21.4823C11.6828 21.4823 12.3264 21.2214 12.862 20.6994C13.3976 20.1775 13.665 19.5509 13.6641 18.8195C13.6641 18.0873 13.3962 17.4602 12.8606 16.9383C12.325 16.4164 11.6819 16.1559 10.9312 16.1567C10.1797 16.1567 9.53615 16.4177 9.00052 16.9396C8.46489 17.4615 8.19753 18.0881 8.19844 18.8195C8.19844 19.5518 8.46625 20.1789 9.00188 20.7008C9.53752 21.2227 10.1806 21.4832 10.9312 21.4823Z" fill="white"/>
</svg>
