<svg width="14" height="20" viewBox="0 0 14 20" fill="none" xmlns="http://www.w3.org/2000/svg">
<path d="M7.05565 4.95429C7.69233 4.95429 8.30293 5.20721 8.75313 5.65741C9.20333 6.10761 9.45625 6.71821 9.45625 7.35489C9.45625 7.67014 9.39415 7.9823 9.27351 8.27356C9.15287 8.56481 8.97604 8.82945 8.75313 9.05237C8.53021 9.27528 8.26557 9.45211 7.97432 9.57275C7.68306 9.69339 7.3709 9.75548 7.05565 9.75548C6.41897 9.75548 5.80837 9.50256 5.35817 9.05237C4.90797 8.60217 4.65506 7.99157 4.65506 7.35489C4.65506 6.71821 4.90797 6.10761 5.35817 5.65741C5.80837 5.20721 6.41897 4.95429 7.05565 4.95429ZM7.05565 0.633224C8.83835 0.633224 10.548 1.3414 11.8086 2.60195C13.0691 3.86251 13.7773 5.57219 13.7773 7.35489C13.7773 12.3961 7.05565 19.838 7.05565 19.838C7.05565 19.838 0.333984 12.3961 0.333984 7.35489C0.333984 5.57219 1.04216 3.86251 2.30271 2.60195C3.56327 1.3414 5.27295 0.633224 7.05565 0.633224ZM7.05565 2.5537C5.7823 2.5537 4.56109 3.05954 3.6607 3.95994C2.7603 4.86033 2.25446 6.08153 2.25446 7.35489C2.25446 8.31513 2.25446 10.2356 7.05565 16.6788C11.8568 10.2356 11.8568 8.31513 11.8568 7.35489C11.8568 6.08153 11.351 4.86033 10.4506 3.95994C9.55021 3.05954 8.329 2.5537 7.05565 2.5537Z" fill="#6161FF"/>
</svg>
