<?xml version="1.0" encoding="utf-8"?>
<!-- Generator: Adobe Illustrator 26.0.0, SVG Export Plug-In . SVG Version: 6.00 Build 0)  -->
<svg version="1.1" id="Layer_1" xmlns="http://www.w3.org/2000/svg" xmlns:xlink="http://www.w3.org/1999/xlink" x="0px" y="0px"
	 viewBox="0 0 31 31" style="enable-background:new 0 0 31 31;" xml:space="preserve">
<style type="text/css">
	.st0{fill:#3F3F3F;}
	.st1{fill:#FFFFFF;}
	.st2{fill-rule:evenodd;clip-rule:evenodd;fill:#6161FF;}
</style>
<path class="st0" d="M-25,10.4c0.4,0,0.9-0.2,1.2-0.5c0.3-0.3,0.5-0.7,0.5-1.2c0-0.4-0.2-0.9-0.5-1.2c-0.3-0.3-0.7-0.5-1.2-0.5
	s-0.9,0.2-1.2,0.5c-0.3,0.3-0.5,0.7-0.5,1.2c0,0.4,0.2,0.9,0.5,1.2C-25.9,10.3-25.5,10.4-25,10.4z M-23.9,2.4
	c-0.3-0.2-0.7-0.4-1.1-0.4c-0.4,0-0.8,0.1-1.1,0.4l-13.4,10c-1.1,0.8-0.5,2.6,0.9,2.6h1v10.1c-0.8,0.4-1.4,0.9-1.8,1.6
	s-0.7,1.5-0.7,2.4V32c0,0.6,0.5,1,1,1H-11c0.6,0,1-0.5,1-1v-2.9c0-0.8-0.2-1.6-0.7-2.4c-0.4-0.7-1.1-1.3-1.8-1.6V15h1
	c1.4,0,2-1.8,0.9-2.6L-23.9,2.4z M-14.6,24.7h-3.8V15h3.8V24.7z M-20.4,24.7H-24V15h3.6V24.7z M-26.1,24.7h-3.6V15h3.6V24.7z
	 M-31.7,24.7h-3.8V15h3.8V24.7z M-36.7,12.9L-25,4.2l11.7,8.7H-36.7z M-38,29.1c0-0.6,0.2-1.2,0.7-1.6c0.4-0.4,1-0.7,1.6-0.7h21.4
	c0.6,0,1.2,0.2,1.6,0.7s0.7,1,0.7,1.6V31h-26V29.1z"/>
<path class="st1" d="M11.6,14.6c0.3,0,0.6-0.1,0.9-0.4c0.2-0.2,0.4-0.5,0.4-0.9c0-0.3-0.1-0.6-0.4-0.9c-0.2-0.2-0.5-0.4-0.9-0.4
	c-0.3,0-0.6,0.1-0.9,0.4c-0.2,0.2-0.4,0.5-0.4,0.9c0,0.3,0.1,0.6,0.4,0.9C10.9,14.5,11.2,14.6,11.6,14.6z M12.4,8.8
	c-0.2-0.2-0.5-0.3-0.8-0.3c-0.3,0-0.6,0.1-0.8,0.3L1,16.1C0.2,16.7,0.6,18,1.6,18h0.8v7.3c-0.5,0.3-1,0.7-1.3,1.2
	c-0.3,0.5-0.5,1.1-0.5,1.7v2.1c0,0.4,0.3,0.8,0.8,0.8h20.4c0.4,0,0.8-0.3,0.8-0.8v-2.1c0-0.6-0.2-1.2-0.5-1.7
	c-0.3-0.5-0.8-0.9-1.3-1.2V18h0.8c1,0,1.5-1.3,0.6-1.9L12.4,8.8z M19.2,25h-2.7v-7h2.7V25z M14.9,25h-2.6v-7h2.6V25z M10.8,25H8.2
	v-7h2.6V25z M6.7,25H3.9v-7h2.7V25z M3,16.5l8.5-6.4l8.5,6.4H3z M2.1,28.2c0-0.4,0.2-0.9,0.5-1.2c0.3-0.3,0.7-0.5,1.2-0.5h15.6
	c0.4,0,0.9,0.2,1.2,0.5s0.5,0.7,0.5,1.2v1.4H2.1V28.2z"/>
<g>
	<circle class="st2" cx="19.9" cy="11" r="10.8"/>
</g>
<path class="st1" d="M26,4.3l-1.5,1.5c-1.2-1.1-2.8-1.8-4.5-1.8c-2.9,0-5.5,1.9-6.4,4.7c-0.2,0.5,0.1,1.1,0.6,1.3
	c0.5,0.2,1.1-0.1,1.3-0.6c0.6-2,2.4-3.3,4.5-3.3c1.2,0,2.3,0.4,3.1,1.2l-1.4,1.4c-0.5,0.5-0.1,1.4,0.6,1.4h4.6
	c0.3,0,0.6-0.3,0.6-0.6V4.9C27.4,4.2,26.5,3.8,26,4.3z M25.7,12.1c-0.5-0.2-1.1,0.1-1.3,0.6c-0.6,2-2.4,3.3-4.5,3.3
	c-1.2,0-2.3-0.4-3.1-1.2l1.4-1.4c0.5-0.5,0.2-1.4-0.6-1.4h-4.6c-0.3,0-0.6,0.3-0.6,0.6v4.5c0,0.7,0.9,1.1,1.4,0.6l1.5-1.5
	c1.2,1.1,2.8,1.8,4.5,1.8c2.9,0,5.5-1.9,6.4-4.7C26.5,12.8,26.2,12.2,25.7,12.1z"/>
</svg>
