<svg width="21" height="21" viewBox="0 0 21 21" fill="none" xmlns="http://www.w3.org/2000/svg">
<path d="M5.12325 7.32377C4.9715 7.17202 4.7248 7.17202 4.57309 7.32377C4.42095 7.47592 4.42095 7.72222 4.57309 7.87397C4.72484 8.02611 4.97154 8.02611 5.12325 7.87397C5.27535 7.72222 5.27535 7.47592 5.12325 7.32377Z" fill="#6161FF"/>
<path d="M10.3912 17.9605C10.5628 17.7281 10.6555 17.4482 10.6555 17.1538C10.6555 16.4029 10.0446 15.792 9.29366 15.792H2.67907C2.31514 15.792 1.97315 15.9336 1.71607 16.1908C1.45887 16.4479 1.31724 16.7899 1.31724 17.1538C1.31724 17.4553 1.41591 17.7342 1.58241 17.9601C0.962839 18.2858 0.539062 18.9356 0.539062 19.6829V20.072C0.539062 20.2869 0.713305 20.4611 0.928169 20.4611H11.0446C11.2594 20.4611 11.4337 20.2869 11.4337 20.072V19.6829C11.4337 18.936 11.0103 18.2864 10.3912 17.9605ZM2.26631 16.741C2.37646 16.6308 2.52308 16.5701 2.67907 16.5701H9.29366C9.61549 16.5701 9.87728 16.832 9.87728 17.1537C9.87728 17.3098 9.81658 17.4564 9.70638 17.5666C9.59623 17.6767 9.44961 17.7374 9.29362 17.7374H2.67907C2.35724 17.7374 2.09545 17.4756 2.09545 17.1538C2.09545 16.9978 2.15611 16.8512 2.26631 16.741ZM1.31724 19.6829C1.31724 19.0393 1.8409 18.5156 2.48452 18.5156H2.67907H9.29366H9.48821C10.1318 18.5156 10.6555 19.0393 10.6555 19.6829H1.31724Z" fill="#6161FF"/>
<path d="M20.0984 16.8873C19.9662 16.6825 19.8086 16.5014 19.6297 16.3491L17.8116 14.7633C17.7974 14.742 17.781 14.7218 17.7622 14.703C17.7306 14.6714 17.6948 14.6468 17.6568 14.6284L16.5573 13.6694L11.4681 9.23004C11.6765 9.01226 11.7912 8.72747 11.7912 8.42463C11.7912 8.11264 11.6697 7.81945 11.449 7.59875C11.3527 7.5026 11.2433 7.427 11.1264 7.37163L11.5972 6.90081C11.7288 6.93579 11.864 6.95369 11.9993 6.95369C12.3978 6.95365 12.7964 6.80198 13.0997 6.49863C13.3938 6.20458 13.5557 5.81372 13.5557 5.39804C13.5557 4.98236 13.3938 4.5915 13.0997 4.29745L9.79825 0.996033C9.5042 0.701985 9.1133 0.540039 8.6975 0.540039C8.2819 0.540039 7.89112 0.701985 7.59711 0.996033C7.19073 1.40242 7.05695 1.97942 7.19493 2.49857L2.49744 7.19602C2.36763 7.16151 2.23257 7.1433 2.09459 7.1433C1.67872 7.1433 1.28802 7.30513 0.994201 7.59891C0.38735 8.20576 0.38735 9.19319 0.994201 9.80008L4.29566 13.1016C4.59912 13.405 4.99768 13.5567 5.39624 13.5567C5.79485 13.5567 6.19341 13.405 6.49687 13.1016C6.90326 12.6952 7.03703 12.1182 6.89905 11.599L7.3689 11.1292C7.42536 11.2471 7.50197 11.3559 7.59715 11.451C7.81762 11.6715 8.11073 11.7929 8.42264 11.7929C8.72517 11.7929 9.00984 11.6784 9.22794 11.4703L14.6484 17.6981C14.6634 17.7214 14.6808 17.7437 14.7012 17.7641C14.7082 17.771 14.7155 17.7774 14.7229 17.7837L16.3381 19.6395C16.3783 19.6869 16.4212 19.7335 16.4658 19.778C16.9094 20.2215 17.4953 20.4622 18.1105 20.4622C18.219 20.4622 18.3284 20.4547 18.438 20.4395C19.1707 20.3381 19.8039 19.8998 20.1751 19.2369C20.5819 18.5103 20.5516 17.5878 20.0984 16.8873ZM8.14742 1.54631C8.29447 1.39926 8.48988 1.31825 8.69754 1.31825C8.90548 1.31825 9.10101 1.39926 9.24801 1.54631L12.5495 4.84776C12.6966 4.99481 12.7775 5.19026 12.7775 5.39808C12.7775 5.6059 12.6966 5.80135 12.5495 5.94839C12.2462 6.25178 11.7525 6.25178 11.4492 5.94839L8.14762 2.64678C7.84423 2.34343 7.84404 1.84966 8.14742 1.54631ZM5.9466 12.5513C5.64317 12.8547 5.14936 12.8548 4.84593 12.5513L1.54448 9.24985C1.24101 8.94638 1.24101 8.45268 1.54448 8.14918C1.69125 8.00237 1.88666 7.92151 2.09459 7.92151C2.30249 7.92151 2.49779 8.00233 2.64452 8.14902L5.94656 11.4511C6.24998 11.7544 6.24998 12.248 5.9466 12.5513ZM7.58481 9.81277L6.49683 10.9008L3.19503 7.59898L7.59711 3.19682L10.8989 6.49863L9.80891 7.58863C9.80537 7.59198 9.80191 7.59525 9.79817 7.59894L7.59824 9.79892C7.59369 9.80339 7.58929 9.80806 7.58481 9.81277ZM8.97416 10.6245L8.97186 10.6268L8.69786 10.9008C8.62435 10.9743 8.52665 11.0147 8.4226 11.0147C8.31859 11.0147 8.22085 10.9743 8.14739 10.9008C8.07381 10.8272 8.0333 10.7294 8.0333 10.6253C8.0333 10.5234 8.07217 10.4276 8.14272 10.3553L10.3529 8.14513C10.5044 7.99782 10.7493 7.99965 10.899 8.14918C10.9725 8.22272 11.013 8.32054 11.013 8.42463C11.013 8.52864 10.9726 8.62619 10.8989 8.69969L10.6265 8.9721C10.6246 8.97393 10.6228 8.9758 10.6209 8.97767L8.97416 10.6245ZM9.77992 10.9192L10.9171 9.78203L15.732 13.9819L13.975 15.7389L9.77992 10.9192ZM14.4871 16.3273L16.3198 14.4946L16.9076 15.0073L14.9992 16.9157L14.4871 16.3273ZM19.4962 18.8567C19.2451 19.3051 18.8205 19.601 18.3314 19.6687C17.8433 19.7362 17.3638 19.5755 17.0159 19.2277C16.986 19.1978 16.9573 19.1667 16.9307 19.1351L16.9269 19.1307L15.5113 17.5041L17.4954 15.52L19.1199 16.937L19.1237 16.9402C19.2453 17.0436 19.3532 17.1678 19.4447 17.3097C19.739 17.7643 19.7596 18.3861 19.4962 18.8567Z" fill="#6161FF"/>
<path d="M7.87373 4.57197C7.72175 4.42002 7.47544 4.42002 7.32346 4.57197L5.67255 6.22287C5.52061 6.37482 5.52061 6.6212 5.67255 6.77311C5.74855 6.8491 5.84812 6.88708 5.94769 6.88708C6.04726 6.88708 6.14684 6.84906 6.22283 6.77311L7.87373 5.1222C8.02568 4.9703 8.02568 4.72395 7.87373 4.57197Z" fill="#6161FF"/>
</svg>
