<svg width="57" height="65" viewBox="0 0 57 65" fill="none" xmlns="http://www.w3.org/2000/svg">
<path d="M28.7712 35.0254C28.6541 35 28.5339 34.9954 28.4152 35.0132C27.2258 34.8744 26.3286 33.866 26.3266 32.6664C26.3266 32.0916 25.8615 31.6255 25.2879 31.6255C24.7142 31.6255 24.2491 32.0916 24.2491 32.6664C24.2522 34.6696 25.5891 36.4242 27.5164 36.9543V37.9953C27.5164 38.5702 27.9815 39.0362 28.5552 39.0362C29.1288 39.0362 29.5939 38.5702 29.5939 37.9953V37.0173C31.8184 36.5507 33.3304 34.4744 33.0965 32.209C32.8622 29.9435 30.9577 28.222 28.685 28.2215C27.3825 28.2215 26.3266 27.1632 26.3266 25.858C26.3266 24.5527 27.3825 23.4944 28.685 23.4944C29.9875 23.4944 31.0434 24.5527 31.0434 25.858C31.0434 26.4328 31.5085 26.8989 32.0822 26.8989C32.6558 26.8989 33.1209 26.4328 33.1209 25.858C33.1179 23.7547 31.6475 21.9406 29.5939 21.5065V20.5591C29.5939 19.9842 29.1288 19.5181 28.5552 19.5181C27.9815 19.5181 27.5164 19.9842 27.5164 20.5591V21.5701C25.3731 22.1566 23.9935 24.2421 24.2887 26.4491C24.5839 28.6561 26.463 30.3034 28.685 30.3029C29.9702 30.3029 31.0186 31.3342 31.0419 32.6217C31.0658 33.9092 30.0554 34.9786 28.7712 35.0254Z" fill="#6161FF"/>
<path d="M13.6035 29.5729C13.6035 38.066 20.4883 44.9508 28.9814 44.9508C37.4745 44.9508 44.3593 38.066 44.3593 29.5729C44.3593 21.0797 37.4745 14.1949 28.9814 14.1949C20.4925 14.2043 13.6134 21.0839 13.6035 29.5729ZM28.9814 16.3159C36.3033 16.3159 42.2384 22.251 42.2384 29.5729C42.2384 36.8947 36.3033 42.8298 28.9814 42.8298C21.6596 42.8298 15.7245 36.8947 15.7245 29.5729C15.7327 22.2547 21.6632 16.3242 28.9814 16.3159Z" fill="#6161FF"/>
<path d="M49.5911 47.3823L41.3101 51.2894C40.1667 49.1657 37.9735 47.8142 35.5599 47.7462L27.9153 47.5364C26.7048 47.5019 25.5171 47.1957 24.4409 46.6405L23.663 46.238C19.6802 44.1648 14.9329 44.17 10.9542 46.2514L11.0027 44.4916C11.0187 43.9087 10.5588 43.4231 9.97501 43.4071L1.5923 43.1767C1.0085 43.1608 0.522777 43.62 0.506775 44.203L0.000405192 62.5725C-0.0155962 63.1555 0.444318 63.641 1.02811 63.657L9.41083 63.8874H9.43974C10.0127 63.8874 10.4814 63.4323 10.4969 62.8606L10.5211 61.9818L12.6989 60.8174C13.5537 60.3581 14.553 60.2489 15.4868 60.5128L28.4913 64.1575C28.514 64.1642 28.5367 64.1693 28.56 64.1745C29.4999 64.3709 30.458 64.4693 31.418 64.4688C33.4518 64.4699 35.4618 64.0322 37.3102 63.1848C37.3556 63.1642 37.3995 63.14 37.4413 63.1127L56.2968 50.9337C56.7665 50.6301 56.9182 50.0141 56.6431 49.5276C55.2432 47.0472 52.1384 46.1024 49.5911 47.3823ZM2.14306 61.5756L2.5911 45.3164L8.86007 45.4885L8.41203 61.7483L2.14306 61.5756ZM36.3579 61.2993C34.0614 62.3344 31.4965 62.6199 29.0281 62.1163L16.0587 58.4809C14.5989 58.069 13.0365 58.2396 11.7011 58.9566L10.5882 59.552L10.8861 48.7415C14.4126 46.3993 18.9353 46.1586 22.691 48.1127L23.4689 48.5152C24.8285 49.2162 26.328 49.6028 27.8575 49.6471L35.5026 49.8569C37.6499 49.9188 39.4735 51.4455 39.9092 53.5465L28.5218 53.2326C27.938 53.2166 27.4523 53.6764 27.4357 54.2588C27.4197 54.8418 27.8802 55.3274 28.4634 55.3433L41.0303 55.6887H41.0597C41.6322 55.6882 42.1003 55.233 42.1158 54.6619C42.1287 54.2032 42.0947 53.7439 42.0136 53.2924L50.5073 49.2848C50.5156 49.2812 50.5238 49.2771 50.5321 49.2729C51.7368 48.6642 53.1935 48.8678 54.1846 49.7837L36.3579 61.2993Z" fill="#6161FF"/>
<path d="M29.5742 11.3406V1.08005C29.5742 0.483598 29.1769 0 28.687 0C28.197 0 27.7998 0.483598 27.7998 1.08005V11.3406C27.7998 11.937 28.197 12.4206 28.687 12.4206C29.1769 12.4206 29.5742 11.937 29.5742 11.3406Z" fill="#6161FF"/>
<path d="M37.8531 11.3286V6.41498C37.8531 5.81197 37.3235 5.32306 36.6702 5.32306C36.017 5.32306 35.4873 5.81197 35.4873 6.41498V11.3286C35.4873 11.9316 36.017 12.4206 36.6702 12.4206C37.3235 12.4206 37.8531 11.9316 37.8531 11.3286Z" fill="#6161FF"/>
<path d="M21.8847 11.3286V6.41498C21.8847 5.81197 21.4875 5.32306 20.9975 5.32306C20.5076 5.32306 20.1104 5.81197 20.1104 6.41498V11.3286C20.1104 11.9316 20.5076 12.4206 20.9975 12.4206C21.4875 12.4206 21.8847 11.9316 21.8847 11.3286Z" fill="#6161FF"/>
</svg>
