<svg width="24" height="18" viewBox="0 0 24 18" fill="none" xmlns="http://www.w3.org/2000/svg">
<path d="M21.0571 17.7504H2.6142C1.2766 17.7504 0.1875 16.6613 0.1875 15.3237V2.70483C0.1875 1.36724 1.2766 0.278137 2.6142 0.278137H21.0571C22.3947 0.278137 23.4838 1.36724 23.4838 2.70483V15.3237C23.4838 16.6613 22.3947 17.7504 21.0571 17.7504ZM2.6142 1.24882C1.81145 1.24882 1.15818 1.90208 1.15818 2.70483V15.3237C1.15818 16.1264 1.81145 16.7797 2.6142 16.7797H21.0571C21.8599 16.7797 22.5131 16.1264 22.5131 15.3237V2.70483C22.5131 1.90208 21.8599 1.24882 21.0571 1.24882H2.6142Z" fill="#6161FF"/>
<path d="M7.47064 9.01435C6.13305 9.01435 5.04395 7.92524 5.04395 6.58765C5.04395 5.25005 6.13305 4.16095 7.47064 4.16095C8.80824 4.16095 9.89734 5.25005 9.89734 6.58765C9.89734 7.92524 8.80824 9.01435 7.47064 9.01435ZM7.47064 5.13163C6.66789 5.13163 6.01462 5.7849 6.01462 6.58765C6.01462 7.3904 6.66789 8.04367 7.47064 8.04367C8.27339 8.04367 8.92666 7.3904 8.92666 6.58765C8.92666 5.7849 8.27339 5.13163 7.47064 5.13163Z" fill="#6161FF"/>
<path d="M11.3572 13.8669C11.0893 13.8669 10.8719 13.6495 10.8719 13.3816V12.4109C10.8719 11.6081 10.2186 10.9549 9.41586 10.9549H5.53314C4.73039 10.9549 4.07712 11.6081 4.07712 12.4109V13.3816C4.07712 13.6495 3.85969 13.8669 3.59178 13.8669C3.32388 13.8669 3.10645 13.6495 3.10645 13.3816V12.4109C3.10645 11.0733 4.19555 9.98419 5.53314 9.98419H9.41586C10.7535 9.98419 11.8426 11.0733 11.8426 12.4109V13.3816C11.8426 13.6495 11.6251 13.8669 11.3572 13.8669Z" fill="#6161FF"/>
<path d="M20.0916 6.10233H14.2676C13.9997 6.10233 13.7822 5.8849 13.7822 5.61699C13.7822 5.34908 13.9997 5.13165 14.2676 5.13165H20.0916C20.3595 5.13165 20.577 5.34908 20.577 5.61699C20.577 5.8849 20.3595 6.10233 20.0916 6.10233Z" fill="#6161FF"/>
<path d="M20.0916 9.98514H14.2676C13.9997 9.98514 13.7822 9.76771 13.7822 9.4998C13.7822 9.2319 13.9997 9.01447 14.2676 9.01447H20.0916C20.3595 9.01447 20.577 9.2319 20.577 9.4998C20.577 9.76771 20.3595 9.98514 20.0916 9.98514Z" fill="#6161FF"/>
<path d="M20.0916 13.868H14.2676C13.9997 13.868 13.7822 13.6505 13.7822 13.3826C13.7822 13.1147 13.9997 12.8973 14.2676 12.8973H20.0916C20.3595 12.8973 20.577 13.1147 20.577 13.3826C20.577 13.6505 20.3595 13.868 20.0916 13.868Z" fill="#6161FF"/>
</svg>
