<svg width="18" height="20" viewBox="0 0 18 20" fill="none" xmlns="http://www.w3.org/2000/svg">
<path d="M10.5395 18.1064H3.82383C2.70278 18.1064 1.79086 17.1944 1.79086 16.0734V3.87558C1.79086 2.75454 2.70278 1.84262 3.82383 1.84262H13.311C14.432 1.84262 15.344 2.75454 15.344 3.87558V13.5659C15.344 13.7471 15.4173 13.9096 15.5329 14.0312C15.6563 14.1609 15.8282 14.2436 16.0216 14.2436C16.3962 14.2436 16.6993 13.9405 16.6993 13.5659V3.87558C16.6993 2.0074 15.1792 0.487305 13.311 0.487305H3.82383C1.95564 0.487305 0.435547 2.0074 0.435547 3.87558V16.0734C0.435547 17.9416 1.95564 19.4617 3.82383 19.4617H10.5395C10.9141 19.4617 11.2172 19.1586 11.2172 18.784C11.2172 18.6028 11.1439 18.4402 11.0282 18.3187C10.9048 18.189 10.7328 18.1064 10.5395 18.1064Z" fill="#6161FF"/>
<path d="M12.6337 9.29688H4.50187C4.12731 9.29688 3.82422 9.6003 3.82422 9.97453C3.82422 10.3488 4.12731 10.6522 4.50187 10.6522H12.6337C13.0083 10.6522 13.3114 10.3488 13.3114 9.97453C13.3114 9.6003 13.0083 9.29688 12.6337 9.29688Z" fill="#6161FF"/>
<path d="M12.6337 5.90918H4.50187C4.12731 5.90918 3.82422 6.2126 3.82422 6.58684C3.82422 6.96107 4.12731 7.26449 4.50187 7.26449H12.6337C13.0083 7.26449 13.3114 6.96107 13.3114 6.58684C13.3114 6.2126 13.0083 5.90918 12.6337 5.90918Z" fill="#6161FF"/>
<path d="M12.6337 12.6855H4.50187C4.12731 12.6855 3.82422 12.9886 3.82422 13.3632C3.82422 13.7378 4.12731 14.0409 4.50187 14.0409H12.6337C13.0083 14.0409 13.3114 13.7378 13.3114 13.3632C13.3114 12.9886 13.0083 12.6855 12.6337 12.6855Z" fill="#6161FF"/>
<path d="M12.2944 16.7838C12.1532 16.925 12.0931 17.1121 12.1025 17.2969C12.1108 17.4586 12.1709 17.6185 12.2944 17.742L13.6676 19.1145C13.8 19.2469 13.9734 19.3131 14.1467 19.3131C14.3201 19.3131 14.4935 19.2469 14.6259 19.1145L17.0387 16.7017C17.3034 16.437 17.3034 16.0082 17.0387 15.7435C16.774 15.4787 16.3451 15.4787 16.0804 15.7435L14.1467 17.6772L13.2527 16.7838C13.1369 16.668 12.9884 16.6121 12.8373 16.5976C12.6429 16.579 12.4433 16.6349 12.2944 16.7838Z" fill="#6161FF"/>
</svg>
