<?xml version="1.0" encoding="utf-8"?>
<!-- Generator: Adobe Illustrator 26.0.0, SVG Export Plug-In . SVG Version: 6.00 Build 0)  -->
<svg version="1.1" id="Layer_1" xmlns="http://www.w3.org/2000/svg" xmlns:xlink="http://www.w3.org/1999/xlink" x="0px" y="0px"
	 viewBox="0 0 30 28" style="enable-background:new 0 0 30 28;" xml:space="preserve">
<style type="text/css">
	.st0{fill:none;stroke:#FFFFFF;stroke-width:2.5;stroke-linecap:round;}
	.st1{fill:none;stroke:#FFFFFF;stroke-width:2.5;stroke-linecap:round;stroke-linejoin:round;}
</style>
<path class="st0" d="M21.3,10.3c2.7,0,4.2,0.1,5.2,1.1c1.1,1.1,1.1,2.9,1.1,6.4V19c0,3.5,0,5.3-1.1,6.4c-1.1,1.1-2.9,1.1-6.4,1.1H10
	c-3.5,0-5.3,0-6.4-1.1c-1.1-1.1-1.1-2.9-1.1-6.4v-1.2c0-3.5,0-5.3,1.1-6.4c1-1,2.4-1.1,5.2-1.1"/>
<path class="st1" d="M15,17.8V1.5 M15,1.5l3.8,4.4 M15,1.5l-3.7,4.4"/>
</svg>
