<svg width="58" height="47" viewBox="0 0 58 47" fill="none" xmlns="http://www.w3.org/2000/svg">
<path d="M23.6008 35.5443H12.8008M18.2008 27.4443H12.8008" stroke="#6161FF" stroke-width="2.5" stroke-linecap="round"/>
<path d="M34.4004 31.4942C34.4004 28.9481 34.4004 27.6764 35.1915 26.8853C35.9826 26.0942 37.2543 26.0942 39.8004 26.0942C42.3465 26.0942 43.6182 26.0942 44.4093 26.8853C45.2004 27.6764 45.2004 28.9481 45.2004 31.4942C45.2004 34.0403 45.2004 35.312 44.4093 36.1031C43.6182 36.8942 42.3465 36.8942 39.8004 36.8942C37.2543 36.8942 35.9826 36.8942 35.1915 36.1031C34.4004 35.312 34.4004 34.0403 34.4004 31.4942Z" stroke="#6161FF" stroke-width="2.5"/>
<path d="M56 23.3944C56 13.2127 56 8.12053 52.8356 4.95883C49.6739 1.79443 44.5817 1.79443 34.4 1.79443H23.6C13.4183 1.79443 8.3261 1.79443 5.1644 4.95883C2 8.12053 2 13.2127 2 23.3944C2 33.5761 2 38.6683 5.1644 41.83C8.3261 44.9944 13.4183 44.9944 23.6 44.9944H34.4C44.5817 44.9944 49.6739 44.9944 52.8356 41.83C54.6014 40.0669 55.3817 37.7044 55.7246 34.1944M2 17.9944H15.5M56 17.9944H26.3" stroke="#6161FF" stroke-width="2.5" stroke-linecap="round"/>
</svg>
