<svg width="22" height="14" viewBox="0 0 22 14" fill="none" xmlns="http://www.w3.org/2000/svg">
<path d="M19.1104 0.0136719H3.21428C2.55107 0.0142102 1.91518 0.280683 1.4462 0.75459C0.977218 1.2285 0.713483 1.87111 0.712891 2.54134V11.2938C0.713364 11.9641 0.977047 12.6068 1.44604 13.0808C1.91503 13.5548 2.55099 13.8214 3.21428 13.8219H19.1104C19.7737 13.8214 20.4097 13.5548 20.8787 13.0808C21.3477 12.6068 21.6113 11.9641 21.6118 11.2938V2.54134C21.6112 1.87111 21.3475 1.2285 20.8785 0.75459C20.4095 0.280683 19.7736 0.0142102 19.1104 0.0136719ZM20.8295 11.2938C20.829 11.7544 20.6478 12.196 20.3255 12.5218C20.0032 12.8475 19.5662 13.0307 19.1104 13.0313H3.21428C2.75848 13.0307 2.3215 12.8475 1.99922 12.5218C1.67694 12.196 1.49568 11.7544 1.4952 11.2938V2.54134C1.49579 2.08079 1.67711 1.63927 1.99938 1.31363C2.32164 0.98799 2.75855 0.804813 3.21428 0.804275H19.1104C19.5662 0.804813 20.0031 0.98799 20.3253 1.31363C20.6476 1.63927 20.8289 2.08079 20.8295 2.54134V11.2938Z" fill="#6161FF"/>
<path d="M7.24207 2.99939C6.41841 2.99952 5.61573 3.25918 4.94806 3.7415C4.2804 4.22381 3.7817 4.90424 3.52281 5.68614C3.26392 6.46803 3.25801 7.31162 3.50592 8.09706C3.75382 8.8825 4.24294 9.56986 4.90378 10.0615L4.91587 10.0698L4.92136 10.0736C5.55317 10.5416 6.31249 10.8063 7.09836 10.8323C7.1456 10.836 7.19285 10.8365 7.24207 10.8365C7.29129 10.8365 7.33832 10.8365 7.38556 10.8323C8.17171 10.8064 8.93137 10.5419 9.56366 10.074L9.57047 10.0694C9.57399 10.0665 9.57794 10.0643 9.58146 10.0617C10.2425 9.57005 10.7317 8.88258 10.9796 8.09699C11.2276 7.3114 11.2216 6.46765 10.9626 5.68565C10.7035 4.90365 10.2046 4.22318 9.5367 3.74094C8.86879 3.2587 8.06588 2.99922 7.24207 2.99939ZM7.3504 10.0641C7.34293 10.0641 7.33502 10.0641 7.32843 10.0657C7.30008 10.0679 7.27196 10.0672 7.24295 10.0674C7.21394 10.0676 7.18538 10.0674 7.15725 10.0657C7.14978 10.0657 7.14209 10.0643 7.13528 10.0641C6.55985 10.0461 6.00072 9.86871 5.52016 9.55169V9.44182C5.52051 9.08731 5.6615 8.74742 5.91219 8.49674C6.16287 8.24606 6.50278 8.10508 6.8573 8.10473H7.63014C7.98481 8.10514 8.32486 8.24608 8.57581 8.4967C8.82676 8.74731 8.96816 9.08717 8.96903 9.44182V9.55169C8.48734 9.86907 7.92699 10.0465 7.3504 10.0641ZM7.24471 7.33478H7.24053C6.97548 7.33422 6.72149 7.22848 6.53437 7.04077C6.34725 6.85307 6.24229 6.59876 6.24257 6.33372C6.24285 6.06868 6.34833 5.81459 6.53585 5.62727C6.72336 5.43996 6.97757 5.33474 7.24262 5.33474C7.50767 5.33474 7.76188 5.43996 7.94939 5.62727C8.13691 5.81459 8.24239 6.06868 8.24267 6.33372C8.24295 6.59876 8.13799 6.85307 7.95087 7.04077C7.76375 7.22848 7.50976 7.33422 7.24471 7.33478ZM9.67001 8.9261C9.59367 8.62621 9.45234 8.34675 9.25601 8.10753C9.05969 7.86831 8.81319 7.67516 8.53394 7.54177C8.76978 7.28996 8.92686 6.97469 8.98584 6.63476C9.04482 6.29484 9.00312 5.94509 8.86589 5.62855C8.72866 5.31201 8.50187 5.0425 8.21344 4.85318C7.92501 4.66386 7.58753 4.563 7.24251 4.563C6.89749 4.563 6.56001 4.66386 6.27158 4.85318C5.98315 5.0425 5.75636 5.31201 5.61913 5.62855C5.4819 5.94509 5.4402 6.29484 5.49918 6.63476C5.55816 6.97469 5.71524 7.28996 5.95108 7.54177C5.67192 7.67523 5.42551 7.8684 5.22927 8.10762C5.03303 8.34683 4.89176 8.62625 4.81545 8.9261C4.34626 8.36271 4.09067 7.65198 4.09359 6.91882C4.09359 6.50522 4.17506 6.09568 4.33334 5.71357C4.49162 5.33145 4.72361 4.98426 5.01608 4.6918C5.30855 4.39935 5.65575 4.16736 6.03788 4.00908C6.42 3.85081 6.82956 3.76934 7.24317 3.76934C7.65678 3.76934 8.06634 3.85081 8.44846 4.00908C8.83059 4.16736 9.17779 4.39935 9.47026 4.6918C9.76272 4.98426 9.99472 5.33145 10.153 5.71357C10.3113 6.09568 10.3927 6.50522 10.3927 6.91882C10.3955 7.6521 10.1396 8.36288 9.67001 8.9261Z" fill="#6161FF"/>
<path d="M18.6215 4.11861H13.7772C13.6772 4.11861 13.5814 4.15792 13.5107 4.22791C13.4401 4.2979 13.4004 4.39282 13.4004 4.4918C13.4004 4.59078 13.4401 4.6857 13.5107 4.75569C13.5814 4.82568 13.6772 4.865 13.7772 4.865H18.6215C18.7215 4.865 18.8173 4.82568 18.888 4.75569C18.9586 4.6857 18.9983 4.59078 18.9983 4.4918C18.9983 4.39282 18.9586 4.2979 18.888 4.22791C18.8173 4.15792 18.7215 4.11861 18.6215 4.11861Z" fill="#6161FF"/>
<path d="M18.6215 6.73125H13.7772C13.6772 6.73125 13.5814 6.77057 13.5107 6.84055C13.4401 6.91054 13.4004 7.00546 13.4004 7.10444C13.4004 7.20342 13.4401 7.29834 13.5107 7.36833C13.5814 7.43832 13.6772 7.47764 13.7772 7.47764H18.6215C18.7215 7.47764 18.8173 7.43832 18.888 7.36833C18.9586 7.29834 18.9983 7.20342 18.9983 7.10444C18.9983 7.00546 18.9586 6.91054 18.888 6.84055C18.8173 6.77057 18.7215 6.73125 18.6215 6.73125Z" fill="#6161FF"/>
<path d="M18.6215 8.97025H13.7772C13.6772 8.97025 13.5814 9.00956 13.5107 9.07955C13.4401 9.14954 13.4004 9.24446 13.4004 9.34344C13.4004 9.44242 13.4401 9.53734 13.5107 9.60733C13.5814 9.67732 13.6772 9.71664 13.7772 9.71664H18.6215C18.7215 9.71664 18.8173 9.67732 18.888 9.60733C18.9586 9.53734 18.9983 9.44242 18.9983 9.34344C18.9983 9.24446 18.9586 9.14954 18.888 9.07955C18.8173 9.00956 18.7215 8.97025 18.6215 8.97025Z" fill="#6161FF"/>
</svg>
