<?xml version="1.0" encoding="utf-8"?>
<!-- Generator: Adobe Illustrator 26.0.0, SVG Export Plug-In . SVG Version: 6.00 Build 0)  -->
<svg version="1.1" id="Layer_1" xmlns="http://www.w3.org/2000/svg" xmlns:xlink="http://www.w3.org/1999/xlink" x="0px" y="0px"
	 viewBox="0 0 22 20" style="enable-background:new 0 0 22 20;" xml:space="preserve">
<style type="text/css">
	.st0{fill:#6161FF;}
</style>
<path class="st0" d="M11,0.4c-4,0-7.3,3.3-7.3,7.3c0,6.4,6.5,11.5,6.8,11.7l0.4,0.3l0.4-0.3c0.3-0.2,6.8-5.3,6.8-11.7
	C18.3,3.7,15,0.4,11,0.4z M11,17.9c-1.4-1.2-5.8-5.4-5.8-10.2c0-3.2,2.6-5.8,5.8-5.8c3.2,0,5.8,2.6,5.8,5.8
	C16.8,12.5,12.4,16.6,11,17.9z"/>
<path class="st0" d="M10.9,4.7c-1.6,0-2.8,1.3-2.8,2.8c0,1.6,1.3,2.8,2.8,2.8c1.6,0,2.8-1.3,2.8-2.8C13.7,5.9,12.4,4.7,10.9,4.7z"/>
</svg>
