<svg width="27" height="33" viewBox="0 0 27 33" fill="none" xmlns="http://www.w3.org/2000/svg">
<path d="M7.88694 4.44434H4.44249C3.52897 4.44434 2.65286 4.80723 2.0069 5.45319C1.36094 6.09915 0.998047 6.97526 0.998047 7.88878V28.5554C0.998047 29.469 1.36094 30.3451 2.0069 30.991C2.65286 31.637 3.52897 31.9999 4.44249 31.9999H21.6647C22.5782 31.9999 23.4543 31.637 24.1003 30.991C24.7463 30.3451 25.1092 29.469 25.1092 28.5554V7.88878C25.1092 6.97526 24.7463 6.09915 24.1003 5.45319C23.4543 4.80723 22.5782 4.44434 21.6647 4.44434H18.2203" stroke="white" stroke-width="2" stroke-linecap="round" stroke-linejoin="round"/>
<path d="M16.4978 14.7778H12.1923C11.5071 14.7778 10.8501 15.0499 10.3656 15.5344C9.88111 16.0189 9.60894 16.676 9.60894 17.3611C9.60894 18.0463 9.88111 18.7033 10.3656 19.1878C10.8501 19.6723 11.5071 19.9444 12.1923 19.9444H13.9145C14.5996 19.9444 15.2567 20.2166 15.7412 20.7011C16.2257 21.1856 16.4978 21.8426 16.4978 22.5278C16.4978 23.2129 16.2257 23.87 15.7412 24.3545C15.2567 24.8389 14.5996 25.1111 13.9145 25.1111H9.60894M13.0534 25.1111V26.8333M13.0534 13.0556V14.7778M7.88672 4.44444C7.88672 3.53092 8.24962 2.65481 8.89557 2.00885C9.54153 1.3629 10.4176 1 11.3312 1H14.7756C15.6891 1 16.5652 1.3629 17.2112 2.00885C17.8572 2.65481 18.2201 3.53092 18.2201 4.44444C18.2201 5.35797 17.8572 6.23408 17.2112 6.88003C16.5652 7.52599 15.6891 7.88889 14.7756 7.88889H11.3312C10.4176 7.88889 9.54153 7.52599 8.89557 6.88003C8.24962 6.23408 7.88672 5.35797 7.88672 4.44444Z" stroke="white" stroke-width="2" stroke-linecap="round" stroke-linejoin="round"/>
</svg>
