<svg width="33" height="37" viewBox="0 0 33 37" fill="none" xmlns="http://www.w3.org/2000/svg">
<path d="M31.8196 23.3774L28.4689 19.9858V15.4929C28.4651 12.388 27.324 9.39479 25.2663 7.09212C23.2086 4.78944 20.3805 3.34086 17.3289 3.02646V0.458008H14.8533V3.02646C11.8017 3.34086 8.9736 4.78944 6.91592 7.09212C4.85825 9.39479 3.71717 12.388 3.71334 15.4929V19.9858L0.362669 23.3774C0.130524 23.6123 7.01046e-05 23.9309 0 24.2632V28.0219C0 28.3542 0.130408 28.6729 0.362537 28.9079C0.594665 29.1428 0.909499 29.2748 1.23778 29.2748H9.90223V30.2483C9.8753 31.8378 10.4288 33.3814 11.4566 34.5834C12.4844 35.7854 13.9143 36.5612 15.4722 36.7622C16.3327 36.8485 17.2015 36.7517 18.0228 36.4778C18.844 36.2039 19.5996 35.759 20.2408 35.1718C20.882 34.5846 21.3947 33.868 21.7459 33.0682C22.0971 32.2684 22.279 31.403 22.28 30.5277V29.2748H30.9445C31.2727 29.2748 31.5876 29.1428 31.8197 28.9079C32.0518 28.6729 32.1822 28.3542 32.1822 28.0219V24.2632C32.1822 23.9309 32.0517 23.6123 31.8196 23.3774ZM19.8045 30.5277C19.8045 31.5246 19.4132 32.4806 18.7168 33.1855C18.0205 33.8904 17.076 34.2864 16.0911 34.2864C15.1063 34.2864 14.1618 33.8904 13.4654 33.1855C12.769 32.4806 12.3778 31.5246 12.3778 30.5277V29.2748H19.8045V30.5277ZM29.7067 26.769H2.47556V24.7819L5.82622 21.3903C6.05837 21.1554 6.18882 20.8367 6.18889 20.5045V15.4929C6.18889 12.8345 7.23216 10.2851 9.08919 8.40537C10.9462 6.52564 13.4649 5.46963 16.0911 5.46963C18.7174 5.46963 21.236 6.52564 23.0931 8.40537C24.9501 10.2851 25.9933 12.8345 25.9933 15.4929V20.5045C25.9934 20.8367 26.1239 21.1554 26.356 21.3903L29.7067 24.7819V26.769Z" fill="#2D3353"/>
</svg>
