<svg width="50" height="50" viewBox="0 0 50 50" fill="none" xmlns="http://www.w3.org/2000/svg">
<path d="M22.5727 50.002C34.9978 50.002 45.1201 39.8797 45.1201 27.4293C45.1201 26.746 44.5634 26.164 43.8549 26.164H23.838V6.14712C23.838 5.43856 23.256 4.88184 22.5727 4.88184C10.1223 4.88184 0 15.0041 0 27.4293C0 39.8797 10.1223 50.002 22.5727 50.002ZM21.3074 7.43772V27.4293C21.3074 28.1378 21.8642 28.6945 22.5727 28.6945H42.5643C41.9063 39.1458 33.1758 47.4714 22.5727 47.4714C11.5141 47.4714 2.53057 38.4879 2.53057 27.4293C2.53057 16.8261 10.8562 8.09566 21.3074 7.43772Z" fill="#6161FF"/>
<path d="M27.4274 23.8361H48.7348C49.4181 23.8361 50.0001 23.254 50.0001 22.5708C50.0001 10.1203 39.8778 -0.00195312 27.4274 -0.00195312C26.7441 -0.00195312 26.1621 0.580079 26.1621 1.26333V22.5708C26.1621 23.254 26.7441 23.8361 27.4274 23.8361ZM28.6927 2.57923C38.7391 3.21188 46.7863 11.2591 47.4189 21.3055H28.6927V2.57923Z" fill="#6161FF"/>
</svg>
