<svg width="30" height="28" viewBox="0 0 30 28" fill="none" xmlns="http://www.w3.org/2000/svg">
<path d="M19.3085 24.296C20.5332 24.6537 21.8023 24.8346 23.0776 24.8333C25.1285 24.8363 27.1529 24.3659 28.9947 23.4582C29.0492 22.1635 28.6826 20.8863 27.9505 19.8201C27.2185 18.7539 26.1609 17.9568 24.938 17.5497C23.7151 17.1426 22.3937 17.1476 21.1739 17.564C19.9541 17.9804 18.9025 18.7855 18.1785 19.8572M19.3085 24.296V24.2916C19.3085 22.684 18.8978 21.1716 18.1785 19.8572M19.3085 24.296V24.4491C16.5452 26.1233 13.3793 27.0055 10.1535 27C6.80656 27 3.67498 26.0683 1.00144 24.4491L1 24.2916C0.9989 22.247 1.67429 20.2601 2.9197 18.6443C4.16511 17.0284 5.9097 15.8755 7.87841 15.3673C9.84712 14.8591 11.928 15.0245 13.7929 15.8375C15.6578 16.6504 17.2008 18.0646 18.1785 19.8572M15.0009 5.875C15.0009 7.16792 14.4904 8.4079 13.5816 9.32214C12.6728 10.2364 11.4402 10.75 10.155 10.75C8.86972 10.75 7.63713 10.2364 6.72833 9.32214C5.81953 8.4079 5.30898 7.16792 5.30898 5.875C5.30898 4.58207 5.81953 3.34209 6.72833 2.42785C7.63713 1.51361 8.86972 1 10.155 1C11.4402 1 12.6728 1.51361 13.5816 2.42785C14.4904 3.34209 15.0009 4.58207 15.0009 5.875ZM26.8467 9.12499C26.8467 10.1306 26.4496 11.095 25.7427 11.8061C25.0359 12.5172 24.0772 12.9167 23.0776 12.9167C22.078 12.9167 21.1193 12.5172 20.4124 11.8061C19.7056 11.095 19.3085 10.1306 19.3085 9.12499C19.3085 8.11938 19.7056 7.15496 20.4124 6.44388C21.1193 5.73281 22.078 5.33333 23.0776 5.33333C24.0772 5.33333 25.0359 5.73281 25.7427 6.44388C26.4496 7.15496 26.8467 8.11938 26.8467 9.12499Z" stroke="white" stroke-width="2" stroke-linecap="round" stroke-linejoin="round"/>
</svg>
