<svg width="26" height="30" viewBox="0 0 26 30" fill="none" xmlns="http://www.w3.org/2000/svg">
<path fill-rule="evenodd" clip-rule="evenodd" d="M3.21281 0C2.36113 0 1.54427 0.339065 0.941668 0.941668C0.339601 1.54374 0 2.36488 0 3.2171V26.7829C0 27.6351 0.339601 28.4563 0.941668 29.0583C1.54427 29.6609 2.36113 30 3.21281 30H22.4983C23.3505 30 24.1716 29.6609 24.7737 29.0583C25.3763 28.4563 25.7111 27.6351 25.7111 26.7829V3.2171C25.7111 2.36488 25.3763 1.54374 24.7737 0.941668C24.1716 0.339065 23.3505 0 22.4983 0H3.21281ZM3.21281 2.14473H22.4983C22.7843 2.14473 23.0553 2.25722 23.2567 2.45862C23.4576 2.65949 23.5706 2.93053 23.5706 3.2171V26.7829C23.5706 27.0695 23.4576 27.3405 23.2567 27.5414C23.0559 27.7428 22.7843 27.8553 22.4983 27.8553H3.21281C2.92678 27.8553 2.66002 27.7428 2.45862 27.5414C2.25775 27.3405 2.14473 27.0695 2.14473 26.7829V3.2171C2.14473 2.93053 2.25775 2.65949 2.45862 2.45862C2.66002 2.25722 2.92678 2.14473 3.21281 2.14473Z" fill="white"/>
<path fill-rule="evenodd" clip-rule="evenodd" d="M9.10947 7.50244C8.52294 7.50191 8.03925 7.98345 8.03711 8.57052C8.03711 9.15866 8.5208 9.64289 9.1084 9.64289H16.6085C17.1961 9.64289 17.6798 9.1592 17.6798 8.57106C17.6782 7.98399 17.1945 7.50191 16.6075 7.50244H9.10947Z" fill="white"/>
<path fill-rule="evenodd" clip-rule="evenodd" d="M9.10947 13.9277H9.1084C8.5208 13.9277 8.03711 14.4114 8.03711 14.999V15.0012C8.03711 15.5893 8.5208 16.0725 9.1084 16.0725H16.6085C17.1961 16.0725 17.6798 15.5893 17.6798 15.0012V14.999C17.6798 14.4114 17.1961 13.9277 16.6085 13.9277H16.6075H9.10947Z" fill="white"/>
<path fill-rule="evenodd" clip-rule="evenodd" d="M9.10947 20.3564H9.1084C8.5208 20.3564 8.03711 20.8401 8.03711 21.4277V21.4288C8.03925 22.0159 8.52294 22.4974 9.10947 22.4969H16.6075C17.1945 22.4974 17.6782 22.0159 17.6798 21.4288V21.4277C17.6798 20.8401 17.1961 20.3564 16.6085 20.3564H16.6075H9.10947Z" fill="white"/>
</svg>
