<svg width="18" height="17" viewBox="0 0 18 17" fill="none" xmlns="http://www.w3.org/2000/svg">
<path d="M16.1269 6.38344C15.8228 6.06933 15.6828 5.64119 15.7448 5.20704L15.8008 4.81091C15.9689 3.62451 15.1766 2.53214 13.9962 2.32607L13.6021 2.25605C13.1719 2.18003 12.8058 1.91594 12.6017 1.52981L12.4137 1.17769C11.8515 0.119331 10.5691 -0.29881 9.4927 0.229368L9.13258 0.403427C8.74044 0.595492 8.28829 0.595492 7.89616 0.403427L7.53804 0.227368C6.46168 -0.29881 5.17924 0.11733 4.61706 1.17569L4.42899 1.52781C4.22292 1.91394 3.8588 2.18003 3.42866 2.25405L3.03452 2.32407C1.85412 2.53014 1.06186 3.62251 1.22991 4.80891L1.28593 5.20504C1.34795 5.63919 1.20791 6.06733 0.903805 6.38144L0.625711 6.66754C-0.20857 7.52783 -0.20857 8.87828 0.625711 9.73857L0.903805 10.0267C1.20791 10.3408 1.34795 10.7689 1.28593 11.2031L1.22991 11.5992C1.06186 12.7856 1.85412 13.878 3.03452 14.084L3.42866 14.1541C3.8588 14.2301 4.22492 14.4942 4.42899 14.8803L4.61706 15.2324C5.01519 15.9807 5.77144 16.4088 6.56371 16.4088C6.88982 16.4088 7.22393 16.3348 7.53804 16.1807L7.89616 16.0087C8.28829 15.8166 8.74044 15.8166 9.13258 16.0087L9.4907 16.1847C10.5671 16.7109 11.8495 16.2948 12.4117 15.2364L12.5997 14.8843C12.8058 14.4982 13.1699 14.2321 13.6001 14.1581L13.9942 14.088C15.1746 13.882 15.9669 12.7896 15.7988 11.6032L15.7428 11.2071C15.6808 10.7729 15.8208 10.3448 16.1249 10.0307L16.403 9.74457C17.2373 8.88428 17.2373 7.53383 16.403 6.67354L16.1269 6.38344ZM15.8288 9.18639L15.5507 9.47248C15.0746 9.96465 14.8545 10.6389 14.9505 11.3171L15.0066 11.7132C15.1146 12.4695 14.6084 13.1657 13.8562 13.2978L13.462 13.3678C12.7858 13.4858 12.2136 13.902 11.8935 14.5082L11.7054 14.8603C11.3473 15.5345 10.529 15.8026 9.84282 15.4665L9.48469 15.2904C8.86849 14.9883 8.16025 14.9883 7.54404 15.2904L7.18592 15.4665C6.49969 15.8026 5.68141 15.5365 5.32329 14.8603L5.13523 14.5082C4.81312 13.902 4.24093 13.4858 3.5667 13.3678L3.17257 13.2978C2.42032 13.1657 1.91414 12.4695 2.02218 11.7132L2.0782 11.3171C2.17423 10.6369 1.95616 9.96465 1.478 9.47248L1.1999 9.18438C0.667725 8.6342 0.667725 7.77591 1.1999 7.22572L1.478 6.93963C1.95416 6.44746 2.17423 5.77324 2.0782 5.09501L2.02218 4.69887C1.91414 3.94262 2.42032 3.24638 3.17257 3.11434L3.5667 3.04432C4.24293 2.92628 4.81512 2.51014 5.13523 1.90393L5.32329 1.55181C5.57738 1.07365 6.05954 0.801561 6.56371 0.801561C6.77178 0.801561 6.98385 0.847576 7.18592 0.945609L7.54404 1.12167C8.16025 1.42377 8.86849 1.42377 9.48469 1.12167L9.84282 0.945609C10.529 0.609496 11.3473 0.875586 11.7054 1.55181L11.8935 1.90393C12.2156 2.51014 12.7878 2.92628 13.462 3.04432L13.8562 3.11434C14.6084 3.24638 15.1146 3.94262 15.0066 4.69887L14.9505 5.09501C14.8545 5.77524 15.0726 6.44746 15.5507 6.93963L15.8288 7.22773C16.361 7.77591 16.361 8.6362 15.8288 9.18639Z" fill="#6161FF"/>
<path d="M11.6979 5.02341C11.5419 4.86736 11.2878 4.86736 11.1317 5.02341L5.33176 10.8234C5.17571 10.9794 5.17571 11.2335 5.33176 11.3896C5.40979 11.4676 5.51182 11.5076 5.61386 11.5076C5.71589 11.5076 5.81792 11.4676 5.89595 11.3896L11.6959 5.5896C11.854 5.43355 11.854 5.17946 11.6979 5.02341Z" fill="#6161FF"/>
<path d="M6.88807 7.14769C7.32422 7.14769 7.75837 6.98164 8.09048 6.64952C8.7527 5.9873 8.7527 4.90694 8.09048 4.24471C7.42826 3.58249 6.34789 3.58249 5.68567 4.24471C5.36356 4.56482 5.1875 4.99297 5.1875 5.44712C5.1875 5.90127 5.36356 6.32942 5.68567 6.64952C6.01778 6.98164 6.45193 7.14769 6.88807 7.14769ZM6.25186 4.8109C6.42792 4.63485 6.658 4.54682 6.88807 4.54682C7.11815 4.54682 7.34823 4.63485 7.52429 4.8109C7.87441 5.16102 7.87441 5.73322 7.52429 6.08333C7.17217 6.43345 6.60198 6.43345 6.25186 6.08333C6.0818 5.91328 5.98777 5.6872 5.98777 5.44712C5.98777 5.20704 6.0818 4.98096 6.25186 4.8109Z" fill="#6161FF"/>
<path d="M8.93807 9.76184C8.27585 10.4241 8.27585 11.5044 8.93807 12.1667C9.27019 12.4988 9.70433 12.6648 10.1405 12.6648C10.5766 12.6648 11.0108 12.4988 11.3429 12.1667C11.665 11.8445 11.8411 11.4184 11.8411 10.9642C11.8411 10.5101 11.665 10.0819 11.3429 9.76184C10.6807 9.09762 9.6023 9.09762 8.93807 9.76184ZM10.7767 11.6005C10.4266 11.9506 9.85438 11.9506 9.50426 11.6005C9.15415 11.2503 9.15415 10.6781 9.50426 10.328C9.68032 10.152 9.9104 10.0639 10.1405 10.0639C10.3706 10.0639 10.6006 10.152 10.7767 10.328C10.9468 10.4981 11.0408 10.7242 11.0408 10.9642C11.0408 11.2043 10.9468 11.4304 10.7767 11.6005Z" fill="#6161FF"/>
</svg>
