<svg width="89" height="41" viewBox="0 0 89 41" fill="none" xmlns="http://www.w3.org/2000/svg">
<path d="M33.5757 0.520365L21.9976 29.0185H14.4442L8.74654 6.27431C8.4011 4.87681 8.10091 4.36251 7.04974 3.77157C5.33152 2.80854 2.49408 1.90788 0 1.3476L0.168229 0.520365H12.3291C13.8767 0.520365 15.2702 1.58355 15.6246 3.42443L18.6351 19.9168L26.0676 0.520365H33.5757ZM43.7869 0.520365L37.8789 29.0185H30.7324L36.6412 0.520365H43.7869ZM63.1716 19.714C63.2013 12.194 53.0938 11.7766 53.1598 8.41672C53.1839 7.39524 54.127 6.30782 56.1913 6.02981C57.2138 5.89331 60.0388 5.7846 63.2387 7.30578L64.4905 1.25885C62.7713 0.617309 60.5587 0 57.8066 0C50.7424 0 45.7732 3.87137 45.7335 9.41931C45.6872 13.5231 49.2829 15.8102 51.987 17.177C54.7723 18.5727 55.7063 19.4698 55.6936 20.7173C55.6735 22.6294 53.4689 23.4759 51.4194 23.5073C47.8255 23.5661 45.7421 22.5051 44.0802 21.7063L42.7831 27.9536C44.455 28.7441 47.5363 29.4309 50.7279 29.4658C58.2377 29.4658 63.1495 25.6386 63.1716 19.714ZM81.8254 29.0185H88.4326L82.6603 0.520365H76.5643C75.1895 0.520365 74.034 1.34368 73.5214 2.60931L62.7989 29.0185H70.3029L71.7914 24.7615H80.9594L81.8254 29.0185ZM73.8492 18.9217L77.6117 8.21962L79.7731 18.9217H73.8488H73.8492ZM52.9328 36.8628H50.029V39.6511H53.2769V40.4894H49.0507V32.7545H53.1104V33.5927H50.029V36.0367H52.9324V36.8636L52.9328 36.8628ZM54.7771 32.3414H55.7554V40.489H54.7771V32.3414ZM58.2239 37.8954C58.246 39.2615 59.0806 39.8236 60.0699 39.8236C60.7712 39.8236 61.2047 39.6974 61.5612 39.537L61.7388 40.2602C61.394 40.4206 60.7936 40.6155 59.9366 40.6155C58.2799 40.6155 57.2902 39.4796 57.2902 37.8038C57.2902 36.1286 58.246 34.8199 59.8147 34.8199C61.5833 34.8199 62.0393 36.4041 62.0393 37.4253C62.0393 37.6316 62.0279 37.7806 62.0054 37.8957L58.2239 37.8954ZM61.0935 37.1726C61.1049 36.5417 60.8378 35.543 59.7366 35.543C58.7355 35.543 58.3127 36.4726 58.2346 37.1726H61.0935ZM67.3646 40.294C67.109 40.4206 66.5414 40.6159 65.8187 40.6159C64.1948 40.6159 63.1381 39.4796 63.1381 37.781C63.1381 36.0709 64.2722 34.8202 66.0298 34.8202C66.6081 34.8202 67.1197 34.9689 67.3867 35.1185L67.1649 35.8873C66.9304 35.7612 66.5635 35.6229 66.0298 35.6229C64.7949 35.6229 64.1282 36.5756 64.1282 37.7239C64.1282 39.0088 64.9289 39.8008 65.9966 39.8008C66.5528 39.8008 66.9197 39.6632 67.1977 39.537L67.3646 40.294ZM70.1101 33.6034V34.9346H71.5112V35.7031H70.1101V38.6987C70.1101 39.388 70.2994 39.7776 70.8442 39.7776C71.1109 39.7776 71.267 39.7551 71.4118 39.7085L71.4563 40.4783C71.267 40.5467 70.9668 40.6155 70.5886 40.6155C70.1322 40.6155 69.7651 40.4548 69.5319 40.1914C69.2649 39.881 69.1536 39.388 69.1536 38.7337V35.7031H68.319V34.9346H69.1536V33.9021L70.1105 33.6038L70.1101 33.6034ZM72.8782 36.6679C72.8782 36.0135 72.8664 35.4514 72.8336 34.9346H73.6903L73.7352 36.036H73.7677C74.0129 35.2907 74.613 34.8199 75.2689 34.8199C75.3695 34.8199 75.4475 34.8316 75.5367 34.8427V35.7957C75.4365 35.7722 75.3366 35.7722 75.2023 35.7722C74.5135 35.7722 74.0233 36.3001 73.8903 37.0582C73.8673 37.2138 73.8561 37.3711 73.8568 37.5286V40.4897H72.8782V36.6679ZM81.5525 37.6658C81.5525 39.7202 80.1618 40.6155 78.8719 40.6155C77.4255 40.6155 76.2914 39.5135 76.2914 37.7582C76.2914 35.9101 77.4815 34.8202 78.961 34.8202C80.5069 34.8202 81.5525 35.9782 81.5525 37.6658ZM77.2922 37.7236C77.2922 38.94 77.9596 39.8585 78.9161 39.8585C79.8509 39.8585 80.5511 38.9511 80.5511 37.7004C80.5511 36.7595 80.0951 35.5769 78.9382 35.5769C77.7931 35.5769 77.2922 36.6793 77.2922 37.7236ZM83.0524 36.438C83.0524 35.8531 83.0406 35.3937 83.0075 34.935H83.8752L83.9309 35.8531H83.953C84.22 35.3363 84.8428 34.8202 85.7327 34.8202C86.4774 34.8202 87.6347 35.2793 87.6347 37.1836V40.4894H86.656V37.2873C86.656 36.3927 86.3334 35.646 85.4104 35.646C84.7761 35.646 84.2753 36.1169 84.098 36.6789C84.0531 36.8055 84.031 36.9773 84.031 37.1498V40.4894H83.0524V36.438Z" fill="#1A1F71"/>
</svg>
