<svg width="20" height="24" viewBox="0 0 20 24" fill="none" xmlns="http://www.w3.org/2000/svg">
<path fill-rule="evenodd" clip-rule="evenodd" d="M10.1172 0.166779C8.78543 0.166779 7.50822 0.712225 6.56652 1.68313C5.62483 2.65403 5.09579 3.97085 5.09579 5.34391C5.09579 6.71697 5.62483 8.03379 6.56652 9.00469C7.50822 9.97559 8.78543 10.521 10.1172 10.521C11.4489 10.521 12.7262 9.97559 13.6678 9.00469C14.6095 8.03379 15.1386 6.71697 15.1386 5.34391C15.1386 3.97085 14.6095 2.65403 13.6678 1.68313C12.7262 0.712225 11.4489 0.166779 10.1172 0.166779ZM6.68149 5.34391C6.68149 4.40445 7.04347 3.50346 7.68779 2.83916C8.3321 2.17486 9.20598 1.80166 10.1172 1.80166C11.0284 1.80166 11.9023 2.17486 12.5466 2.83916C13.1909 3.50346 13.5529 4.40445 13.5529 5.34391C13.5529 6.28337 13.1909 7.18436 12.5466 7.84866C11.9023 8.51296 11.0284 8.88616 10.1172 8.88616C9.20598 8.88616 8.3321 8.51296 7.68779 7.84866C7.04347 7.18436 6.68149 6.28337 6.68149 5.34391ZM10.1172 12.1559C7.67203 12.1559 5.41822 12.7292 3.749 13.6971C2.1041 14.6518 0.867247 16.0971 0.867247 17.878V17.9892C0.866189 19.2557 0.865132 20.8448 2.21721 21.9805C2.88215 22.5385 3.81348 22.9363 5.07148 23.1979C6.33158 23.4617 7.97543 23.6001 10.1172 23.6001C12.2589 23.6001 13.9017 23.4617 15.164 23.1979C16.4219 22.9363 17.3522 22.5385 18.0182 21.9805C19.3703 20.8448 19.3682 19.2557 19.3671 17.9892V17.878C19.3671 16.0971 18.1303 14.6518 16.4864 13.6971C14.8162 12.7292 12.5634 12.1559 10.1172 12.1559ZM2.45295 17.878C2.45295 16.9505 3.11049 15.9434 4.52599 15.1227C5.91718 14.3161 7.89192 13.7908 10.1182 13.7908C12.3425 13.7908 14.3172 14.3161 15.7084 15.1227C17.1249 15.9434 17.7814 16.9505 17.7814 17.878C17.7814 19.3036 17.7391 20.1058 17.0161 20.7118C16.6249 21.041 15.9695 21.3625 14.8489 21.5957C13.7315 21.829 12.204 21.9652 10.1172 21.9652C8.0304 21.9652 6.50178 21.829 5.38545 21.5957C4.26488 21.3625 3.60946 21.041 3.21832 20.7129C2.49524 20.1058 2.45295 19.3036 2.45295 17.878Z" fill="#4E6AFF"/>
</svg>
