<svg width="26" height="25" viewBox="0 0 26 25" fill="none" xmlns="http://www.w3.org/2000/svg">
<path d="M18.2986 9.36032C20.7008 9.37357 22.0019 9.48071 22.8501 10.3289C23.821 11.2998 23.821 12.8615 23.821 15.985V17.0894C23.821 20.214 23.821 21.7757 22.8501 22.7466C21.8804 23.7163 20.3176 23.7163 17.1941 23.7163H8.35831C5.23485 23.7163 3.67201 23.7163 2.70228 22.7466C1.73145 21.7746 1.73145 20.214 1.73145 17.0894V15.985C1.73145 12.8615 1.73145 11.2998 2.70228 10.3289C3.55052 9.48071 4.85159 9.37357 7.25383 9.36032" stroke="#6161FF" stroke-width="2.5" stroke-linecap="round"/>
<path d="M12.7763 15.9851V1.62686M12.7763 1.62686L16.0898 5.49253M12.7763 1.62686L9.46289 5.49253" stroke="#6161FF" stroke-width="2.5" stroke-linecap="round" stroke-linejoin="round"/>
</svg>
