<svg width="18" height="14" viewBox="0 0 18 14" fill="none" xmlns="http://www.w3.org/2000/svg">
<path fill-rule="evenodd" clip-rule="evenodd" d="M7.24577 6.85637C7.24577 7.91555 6.38714 8.77416 5.32796 8.77416C4.26879 8.77416 3.41016 7.91555 3.41016 6.85637C3.41016 5.7972 4.26879 4.93858 5.32796 4.93858C6.38714 4.93858 7.24577 5.7972 7.24577 6.85637ZM6.38276 6.85637C6.38276 7.43891 5.91051 7.91115 5.32796 7.91115C4.74542 7.91115 4.27317 7.43891 4.27317 6.85637C4.27317 6.27384 4.74542 5.8016 5.32796 5.8016C5.91051 5.8016 6.38276 6.27384 6.38276 6.85637Z" fill="#6161FF"/>
<path d="M3.45872 11.8427C3.45872 10.81 4.29588 9.97283 5.32858 9.97283C6.36127 9.97283 7.19844 10.81 7.19844 11.8427H8.06143C8.06143 10.3334 6.83791 9.10982 5.32858 9.10982C3.81925 9.10982 2.5957 10.3334 2.5957 11.8427H3.45872Z" fill="#6161FF"/>
<path fill-rule="evenodd" clip-rule="evenodd" d="M15.1096 5.80197C15.1096 6.04025 14.9164 6.23348 14.6781 6.23348H9.93151C9.69323 6.23348 9.5 6.04025 9.5 5.80197C9.5 5.5637 9.69323 5.37047 9.93151 5.37047H14.6781C14.9164 5.37047 15.1096 5.5637 15.1096 5.80197Z" fill="#6161FF"/>
<path fill-rule="evenodd" clip-rule="evenodd" d="M15.1096 8.39101C15.1096 8.62929 14.9164 8.82252 14.6781 8.82252H9.93151C9.69323 8.82252 9.5 8.62929 9.5 8.39101C9.5 8.15273 9.69323 7.9595 9.93151 7.9595H14.6781C14.9164 7.9595 15.1096 8.15273 15.1096 8.39101Z" fill="#6161FF"/>
<path fill-rule="evenodd" clip-rule="evenodd" d="M15.1096 10.9801C15.1096 11.2183 14.9164 11.4116 14.6781 11.4116H9.93151C9.69323 11.4116 9.5 11.2183 9.5 10.9801C9.5 10.7418 9.69323 10.5485 9.93151 10.5485H14.6781C14.9164 10.5485 15.1096 10.7418 15.1096 10.9801Z" fill="#6161FF"/>
<path fill-rule="evenodd" clip-rule="evenodd" d="M6.4786 0.192383C5.76365 0.192383 5.18408 0.771957 5.18408 1.4869H2.59503C1.40346 1.4869 0.4375 2.45287 0.4375 3.64444V11.8431C0.4375 13.0346 1.40346 14.0006 2.59503 14.0006H15.5402C16.7318 14.0006 17.6978 13.0346 17.6978 11.8431V3.64444C17.6978 2.45287 16.7318 1.4869 15.5402 1.4869H12.9512C12.9512 0.771957 12.3716 0.192383 11.6567 0.192383H6.4786ZM12.9512 2.34992C12.9512 3.06486 12.3716 3.64444 11.6567 3.64444H6.4786C5.76365 3.64444 5.18408 3.06486 5.18408 2.34992H2.59503C1.88009 2.34992 1.30051 2.92949 1.30051 3.64444V11.8431C1.30051 12.558 1.88009 13.1376 2.59503 13.1376H15.5402C16.2552 13.1376 16.8348 12.558 16.8348 11.8431V3.64444C16.8348 2.92949 16.2552 2.34992 15.5402 2.34992H12.9512ZM6.04709 1.4869C6.04709 1.24859 6.24028 1.0554 6.4786 1.0554H11.6567C11.895 1.0554 12.0882 1.24859 12.0882 1.4869V2.34992C12.0882 2.58823 11.895 2.78142 11.6567 2.78142H6.4786C6.24028 2.78142 6.04709 2.58823 6.04709 2.34992V1.4869Z" fill="#6161FF"/>
</svg>
