<svg width="18" height="18" viewBox="0 0 18 18" fill="none" xmlns="http://www.w3.org/2000/svg">
<mask id="mask0_575_3609" style="mask-type:luminance" maskUnits="userSpaceOnUse" x="0" y="0" width="18" height="18">
<path d="M17.4109 0.435547H0.333984V17.5125H17.4109V0.435547Z" fill="#6161FF"/>
</mask>
<g mask="url(#mask0_575_3609)">
<mask id="mask1_575_3609" style="mask-type:luminance" maskUnits="userSpaceOnUse" x="0" y="0" width="18" height="18">
<path d="M0.333984 0.435774H17.4109V17.5127H0.333984V0.435774Z" fill="white"/>
</mask>
<g mask="url(#mask1_575_3609)">
<path d="M11.7064 13.5104V14.8445C11.7064 15.9497 10.8105 16.8457 9.70523 16.8457H3.0012C1.89597 16.8457 1 15.9497 1 14.8445V3.10412C1 1.99889 1.89597 1.10292 3.0012 1.10292H9.70523C10.8105 1.10292 11.7064 1.99889 11.7064 3.10412V4.43825" stroke="#6161FF" stroke-width="2" stroke-miterlimit="10" stroke-linecap="round" stroke-linejoin="round"/>
<path d="M16.5759 9.00781H7.53711" stroke="#6161FF" stroke-width="2" stroke-miterlimit="10" stroke-linecap="round" stroke-linejoin="round"/>
<path d="M14.957 11.209L16.4508 9.71519C16.8416 9.32442 16.8416 8.69091 16.4508 8.30014L14.957 6.80634" stroke="#6161FF" stroke-width="2" stroke-miterlimit="10" stroke-linecap="round" stroke-linejoin="round"/>
</g>
</g>
</svg>
