<svg width="121" height="121" viewBox="0 0 121 121" fill="none" xmlns="http://www.w3.org/2000/svg">
<path d="M111.75 63.4167V105.708C111.75 108.913 110.477 111.986 108.211 114.253C105.945 116.519 102.871 117.792 99.6667 117.792H15.0833C11.8786 117.792 8.80519 116.519 6.53913 114.253C4.27306 111.986 3 108.913 3 105.708V21.125C3 17.9203 4.27306 14.8469 6.53913 12.5808C8.80519 10.3147 11.8786 9.04167 15.0833 9.04167H57.375M81.5417 21.125H117.792M99.6667 3V39.25" stroke="#4E6AFF" stroke-width="6" stroke-linecap="round" stroke-linejoin="round"/>
<path d="M39.2493 57.3749C45.9228 57.3749 51.3327 51.965 51.3327 45.2916C51.3327 38.6181 45.9228 33.2083 39.2493 33.2083C32.5759 33.2083 27.166 38.6181 27.166 45.2916C27.166 51.965 32.5759 57.3749 39.2493 57.3749Z" stroke="#4E6AFF" stroke-width="6" stroke-linecap="round" stroke-linejoin="round"/>
<path d="M111.75 81.5415L93.1054 62.897C90.8395 60.6317 87.7666 59.3591 84.5625 59.3591C81.3584 59.3591 78.2855 60.6317 76.0196 62.897L21.125 117.792" stroke="#4E6AFF" stroke-width="6" stroke-linecap="round" stroke-linejoin="round"/>
</svg>
