<svg width="21" height="22" viewBox="0 0 21 22" fill="none" xmlns="http://www.w3.org/2000/svg">
<path d="M10.4475 17.6C10.815 17.6 11.1258 17.4669 11.3799 17.2007C11.634 16.9345 11.7607 16.6093 11.76 16.225C11.76 15.84 11.6333 15.5144 11.3799 15.2482C11.1265 14.982 10.8157 14.8493 10.4475 14.85C10.08 14.85 9.76955 14.9831 9.51615 15.2493C9.26275 15.5155 9.1357 15.8407 9.135 16.225C9.135 16.61 9.26205 16.9356 9.51615 17.2018C9.77025 17.468 10.0807 17.6007 10.4475 17.6ZM9.5025 13.365H11.445C11.445 12.76 11.5108 12.2833 11.6424 11.935C11.774 11.5867 12.1457 11.11 12.7575 10.505C13.2125 10.0283 13.5712 9.5744 13.8337 9.1432C14.0962 8.712 14.2275 8.19427 14.2275 7.59C14.2275 6.56333 13.8687 5.775 13.1512 5.225C12.4337 4.675 11.585 4.4 10.605 4.4C9.6075 4.4 8.79795 4.675 8.17635 5.225C7.55475 5.775 7.1218 6.435 6.8775 7.205L8.61 7.92C8.6975 7.59 8.89455 7.2325 9.20115 6.8475C9.50775 6.4625 9.9757 6.27 10.605 6.27C11.165 6.27 11.585 6.4306 11.865 6.7518C12.145 7.073 12.285 7.42573 12.285 7.81C12.285 8.17667 12.18 8.5206 11.97 8.8418C11.76 9.163 11.4975 9.46073 11.1825 9.735C10.4125 10.45 9.94 10.9908 9.765 11.3575C9.59 11.7242 9.5025 12.3933 9.5025 13.365ZM10.5 22C9.0475 22 7.6825 21.7111 6.405 21.1332C5.1275 20.5553 4.01625 19.7718 3.07125 18.7825C2.12625 17.7925 1.3783 16.6283 0.8274 15.29C0.2765 13.9517 0.0007 12.5217 0 11C0 9.47833 0.2758 8.04833 0.8274 6.71C1.379 5.37167 2.12695 4.2075 3.07125 3.2175C4.01625 2.2275 5.1275 1.44393 6.405 0.8668C7.6825 0.289667 9.0475 0.000733333 10.5 0C11.9525 0 13.3175 0.288933 14.595 0.8668C15.8725 1.44467 16.9837 2.22823 17.9287 3.2175C18.8738 4.2075 19.622 5.37167 20.1736 6.71C20.7252 8.04833 21.0007 9.47833 21 11C21 12.5217 20.7242 13.9517 20.1726 15.29C19.621 16.6283 18.8731 17.7925 17.9287 18.7825C16.9837 19.7725 15.8725 20.5564 14.595 21.1343C13.3175 21.7122 11.9525 22.0007 10.5 22Z" fill="#6161FF"/>
</svg>
