<svg width="18" height="18" viewBox="0 0 18 18" fill="none" xmlns="http://www.w3.org/2000/svg">
<path d="M9 0C7.21997 0 5.47991 0.527841 3.99987 1.51677C2.51983 2.50571 1.36628 3.91131 0.685088 5.55585C0.00389956 7.20038 -0.17433 9.00998 0.172936 10.7558C0.520203 12.5016 1.37737 14.1053 2.63604 15.364C3.89471 16.6226 5.49836 17.4798 7.24419 17.8271C8.99002 18.1743 10.7996 17.9961 12.4442 17.3149C14.0887 16.6337 15.4943 15.4802 16.4832 14.0001C17.4722 12.5201 18 10.78 18 9C17.9973 6.61387 17.0483 4.32624 15.361 2.63899C13.6738 0.951747 11.3861 0.00267608 9 0ZM9 17.4638C7.32602 17.4638 5.68962 16.9674 4.29775 16.0374C2.90588 15.1074 1.82105 13.7855 1.18044 12.239C0.539838 10.6924 0.372226 8.99061 0.698804 7.34879C1.02538 5.70697 1.83148 4.19886 3.01517 3.01517C4.19886 1.83148 5.70697 1.02538 7.34879 0.6988C8.99061 0.372221 10.6924 0.539834 12.239 1.18044C13.7855 1.82105 15.1074 2.90588 16.0374 4.29775C16.9674 5.68962 17.4638 7.32601 17.4638 9C17.4613 11.244 16.5687 13.3953 14.982 14.982C13.3953 16.5687 11.244 17.4613 9 17.4638Z" fill="#6161FF"/>
<path d="M9.00056 2.29786C7.63624 2.29559 6.30412 2.71225 5.18426 3.49153C5.15203 3.51391 5.12511 3.54309 5.10539 3.57702C5.08568 3.61094 5.07365 3.64878 5.07016 3.68786C5.06666 3.72695 5.07179 3.76632 5.08518 3.8032C5.09857 3.84008 5.11989 3.87358 5.14764 3.90132L14.0992 12.8529C14.1495 12.9031 14.2177 12.9314 14.2887 12.9315C14.2967 12.9315 14.304 12.9315 14.3128 12.9304C14.3518 12.9269 14.3896 12.9148 14.4235 12.8951C14.4574 12.8754 14.4866 12.8485 14.509 12.8163C15.2059 11.8109 15.6142 10.634 15.6898 9.41304C15.7654 8.19211 15.5054 6.97377 14.9379 5.89011C14.3704 4.80645 13.517 3.8988 12.4704 3.26557C11.4238 2.63233 10.2238 2.29767 9.00056 2.29786ZM14.2455 12.2409L5.75964 3.75502C6.94107 3.02467 8.33451 2.71465 9.71415 2.87521C11.0938 3.03576 12.3788 3.65748 13.3609 4.63962C14.3431 5.62176 14.9648 6.90676 15.1253 8.2864C15.2859 9.66604 14.9759 11.0595 14.2455 12.2409Z" fill="#6161FF"/>
<path d="M3.90057 5.14691C3.87283 5.11916 3.83934 5.09784 3.80246 5.08445C3.76558 5.07106 3.7262 5.06593 3.68712 5.06942C3.64804 5.07291 3.6102 5.08494 3.57628 5.10466C3.54235 5.12437 3.51317 5.1513 3.49079 5.18352C2.59648 6.47382 2.1836 8.03716 2.32417 9.60078C2.46474 11.1644 3.14984 12.629 4.25994 13.7391C5.37005 14.8492 6.83468 15.5343 8.39829 15.6749C9.96191 15.8155 11.5252 15.4026 12.8155 14.5083C12.8478 14.4859 12.8747 14.4567 12.8944 14.4228C12.9141 14.3889 12.9262 14.351 12.9296 14.312C12.9331 14.2729 12.928 14.2335 12.9146 14.1966C12.9012 14.1597 12.8799 14.1262 12.8522 14.0985L3.90057 5.14691ZM8.99924 15.1658C7.90124 15.1659 6.82312 14.8728 5.87632 14.3168C4.92952 13.7608 4.14839 12.962 3.61368 12.003C3.07897 11.0439 2.81008 9.95953 2.83479 8.86181C2.85951 7.76408 3.17694 6.69288 3.75428 5.75891L12.2402 14.2448C11.2672 14.8487 10.1444 15.1678 8.99924 15.1658Z" fill="#6161FF"/>
</svg>
