<svg width="26" height="26" viewBox="0 0 26 26" fill="none" xmlns="http://www.w3.org/2000/svg">
<path d="M11.9678 19.3372H14.4678V11.8372H11.9678V19.3372ZM13.2178 9.33716C13.5719 9.33716 13.869 9.21716 14.109 8.97716C14.349 8.73716 14.4686 8.44049 14.4678 8.08716C14.4678 7.73299 14.3478 7.43591 14.1078 7.19591C13.8678 6.95591 13.5711 6.83632 13.2178 6.83716C12.8636 6.83716 12.5665 6.95716 12.3265 7.19716C12.0865 7.43716 11.9669 7.73382 11.9678 8.08716C11.9678 8.44132 12.0878 8.73841 12.3278 8.97841C12.5678 9.21841 12.8644 9.33799 13.2178 9.33716ZM13.2178 25.5872C11.4886 25.5872 9.86361 25.2588 8.34277 24.6022C6.82194 23.9455 5.49902 23.0551 4.37402 21.9309C3.24902 20.8059 2.35861 19.483 1.70277 17.9622C1.04694 16.4413 0.718607 14.8163 0.717773 13.0872C0.717773 11.358 1.04611 9.73299 1.70277 8.21216C2.35944 6.69132 3.24986 5.36841 4.37402 4.24341C5.49902 3.11841 6.82194 2.22799 8.34277 1.57216C9.86361 0.916325 11.4886 0.587992 13.2178 0.587158C14.9469 0.587158 16.5719 0.915492 18.0928 1.57216C19.6136 2.22882 20.9365 3.11924 22.0615 4.24341C23.1865 5.36841 24.0774 6.69132 24.734 8.21216C25.3907 9.73299 25.7186 11.358 25.7178 13.0872C25.7178 14.8163 25.3894 16.4413 24.7328 17.9622C24.0761 19.483 23.1857 20.8059 22.0615 21.9309C20.9365 23.0559 19.6136 23.9467 18.0928 24.6034C16.5719 25.2601 14.9469 25.588 13.2178 25.5872Z" fill="black"/>
</svg>
