<svg width="20" height="20" viewBox="0 0 20 20" fill="none" xmlns="http://www.w3.org/2000/svg">
<path fill-rule="evenodd" clip-rule="evenodd" d="M9.88747 0.222656C7.33146 0.222656 4.88013 1.23803 3.07275 3.04541C1.26537 4.85278 0.25 7.30411 0.25 9.86013C0.25 12.4161 1.26537 14.8675 3.07275 16.6749C4.88013 18.4822 7.33146 19.4976 9.88747 19.4976C12.4435 19.4976 14.8948 18.4822 16.7022 16.6749C18.5096 14.8675 19.5249 12.4161 19.5249 9.86013C19.5249 7.30411 18.5096 4.85278 16.7022 3.04541C14.8948 1.23803 12.4435 0.222656 9.88747 0.222656ZM1.63239 9.86013C1.63239 7.67075 2.50212 5.57103 4.05025 4.02291C5.59838 2.47478 7.69809 1.60505 9.88747 1.60505C12.0769 1.60505 14.1766 2.47478 15.7247 4.02291C17.2728 5.57103 18.1425 7.67075 18.1425 9.86013C18.1425 12.0495 17.2728 14.1492 15.7247 15.6973C14.1766 17.2455 12.0769 18.1152 9.88747 18.1152C7.69809 18.1152 5.59838 17.2455 4.05025 15.6973C2.50212 14.1492 1.63239 12.0495 1.63239 9.86013ZM6.30343 12.3543C6.24969 12.2738 6.18041 12.2048 6.09968 12.1514C6.01894 12.098 5.92836 12.0613 5.83324 12.0433C5.73813 12.0254 5.64039 12.0266 5.54574 12.0469C5.4511 12.0672 5.36146 12.1061 5.28207 12.1615C5.20268 12.2169 5.13514 12.2876 5.0834 12.3694C5.03167 12.4512 4.99677 12.5425 4.98077 12.638C4.96476 12.7334 4.96797 12.8311 4.99019 12.9253C5.01242 13.0195 5.05322 13.1084 5.11021 13.1866C5.64613 13.957 6.36055 14.5862 7.19245 15.0205C8.02436 15.4548 8.94902 15.6814 9.88747 15.6807C11.8665 15.6807 13.6127 14.6927 14.6647 13.1866C14.7705 13.0283 14.8099 12.8348 14.7746 12.6477C14.7393 12.4606 14.6321 12.2948 14.4759 12.1859C14.3197 12.0769 14.1271 12.0336 13.9393 12.065C13.7516 12.0965 13.5836 12.2004 13.4715 12.3543C13.0696 12.9324 12.5337 13.4046 11.9095 13.7305C11.2854 14.0564 10.5916 14.2263 9.88747 14.2256C9.18336 14.2263 8.48956 14.0564 7.8654 13.7305C7.24125 13.4046 6.70531 12.9324 6.30343 12.3543ZM6.79527 8.91428C7.13296 8.91428 7.45682 8.78013 7.6956 8.54135C7.93439 8.30257 8.06853 7.97871 8.06853 7.64102C8.06853 7.30333 7.93439 6.97947 7.6956 6.74069C7.45682 6.50191 7.13296 6.36776 6.79527 6.36776C6.45758 6.36776 6.13373 6.50191 5.89494 6.74069C5.65616 6.97947 5.52202 7.30333 5.52202 7.64102C5.52202 7.97871 5.65616 8.30257 5.89494 8.54135C6.13373 8.78013 6.45758 8.91428 6.79527 8.91428ZM14.2529 7.64102C14.2529 7.97871 14.1188 8.30257 13.88 8.54135C13.6412 8.78013 13.3174 8.91428 12.9797 8.91428C12.642 8.91428 12.3181 8.78013 12.0793 8.54135C11.8406 8.30257 11.7064 7.97871 11.7064 7.64102C11.7064 7.30333 11.8406 6.97947 12.0793 6.74069C12.3181 6.50191 12.642 6.36776 12.9797 6.36776C13.3174 6.36776 13.6412 6.50191 13.88 6.74069C14.1188 6.97947 14.2529 7.30333 14.2529 7.64102Z" fill="#6161FF"/>
</svg>
