<svg width="32" height="32" viewBox="0 0 32 32" fill="none" xmlns="http://www.w3.org/2000/svg">
<g clip-path="url(#clip0_544_6810)">
<path d="M17.4914 32H14.5047C13.4954 32 12.6434 31.244 12.5234 30.24L12.2047 27.7387C11.5687 27.532 10.9554 27.2773 10.3727 26.98L8.38071 28.528C7.57271 29.1533 6.43538 29.0813 5.73405 28.36L3.63405 26.26C2.91805 25.5653 2.84605 24.428 3.47138 23.6213L5.01938 21.628C4.72071 21.0453 4.46605 20.432 4.26071 19.796L1.75405 19.4773C0.754047 19.3547 -0.00195312 18.5027 -0.00195312 17.4933V14.5067C-0.00195312 13.4973 0.754047 12.6453 1.75805 12.5253L4.25938 12.2067C4.46605 11.5707 4.72071 10.9573 5.01805 10.3747L3.47138 8.38267C2.84471 7.57467 2.91805 6.436 3.64071 5.73467L5.74071 3.63467C6.43538 2.91867 7.57405 2.848 8.37938 3.472L10.3714 5.02133C10.954 4.724 11.5674 4.46933 12.2047 4.26267L12.5234 1.756C12.6434 0.756 13.4954 0 14.5047 0H17.4914C18.5007 0 19.3527 0.756 19.4727 1.76L19.7914 4.26133C20.4287 4.468 21.042 4.72267 21.6247 5.02L23.6167 3.472C24.426 2.84667 25.562 2.91867 26.2634 3.64133L28.3634 5.74133C29.0794 6.436 29.1514 7.57333 28.526 8.38L26.978 10.3733C27.2767 10.956 27.5314 11.5693 27.7367 12.2053L30.2434 12.524C31.242 12.6453 31.998 13.4973 31.998 14.5067V17.4933C31.998 18.5027 31.242 19.3547 30.238 19.4747L27.7367 19.7933C27.53 20.4293 27.2754 21.0427 26.978 21.6253L28.526 23.6173C29.1527 24.4253 29.0794 25.5627 28.3567 26.264L26.2567 28.364C25.562 29.08 24.4234 29.1533 23.618 28.5267L21.6247 26.9787C21.042 27.2773 20.4287 27.532 19.7927 27.7373L19.474 30.244C19.3527 31.244 18.5007 32 17.4914 32ZM10.3047 25.52C10.4154 25.52 10.5287 25.548 10.63 25.604C11.3647 26.0147 12.1607 26.3453 12.9954 26.5853C13.2514 26.6587 13.4394 26.8773 13.4727 27.1413L13.846 30.0747C13.886 30.4093 14.1754 30.6667 14.5047 30.6667H17.4914C17.8207 30.6667 18.11 30.4093 18.1487 30.0813L18.5234 27.1427C18.5567 26.8787 18.7447 26.66 19.0007 26.5867C19.8354 26.3467 20.6314 26.016 21.366 25.6053C21.5994 25.4747 21.89 25.4973 22.0994 25.6613L24.4327 27.4747C24.7007 27.6827 25.0767 27.6653 25.306 27.4293L27.4194 25.316C27.6607 25.0813 27.6794 24.7053 27.4714 24.436L25.658 22.1027C25.494 21.892 25.4714 21.6027 25.602 21.3693C26.0127 20.6347 26.3434 19.8387 26.5834 19.004C26.6567 18.748 26.8754 18.56 27.1394 18.5267L30.0727 18.1533C30.4074 18.112 30.6647 17.8227 30.6647 17.4933V14.5067C30.6647 14.1773 30.4074 13.888 30.0794 13.8493L27.1407 13.4747C26.8767 13.4413 26.658 13.2533 26.5847 12.9973C26.3447 12.1627 26.014 11.3667 25.6034 10.632C25.4727 10.3987 25.494 10.1093 25.6594 9.89867L27.4727 7.56533C27.682 7.296 27.6634 6.92 27.4287 6.69333L25.3154 4.58C25.082 4.33733 24.7047 4.31867 24.4354 4.528L22.102 6.34133C21.89 6.50533 21.6007 6.528 21.3674 6.39733C20.6354 5.98667 19.8394 5.65733 19.002 5.416C18.746 5.34267 18.558 5.124 18.5247 4.86L18.1514 1.92667C18.11 1.59067 17.8207 1.33333 17.4914 1.33333H14.5047C14.1754 1.33333 13.886 1.59067 13.8474 1.91867L13.4727 4.85733C13.4394 5.12133 13.2514 5.34 12.9954 5.41467C12.158 5.65467 11.362 5.98533 10.63 6.39467C10.3967 6.52667 10.1074 6.50267 9.89538 6.34L7.56205 4.52667C7.29271 4.31733 6.91805 4.336 6.69005 4.57067L4.57671 6.68533C4.33538 6.92 4.31671 7.296 4.52471 7.56533L6.33805 9.89867C6.50205 10.1093 6.52471 10.3987 6.39405 10.632C5.98205 11.3667 5.65271 12.1627 5.41271 12.9973C5.33938 13.2533 5.12071 13.4413 4.85671 13.4747L1.92338 13.848C1.58871 13.888 1.33138 14.1773 1.33138 14.5067V17.4933C1.33138 17.8227 1.58871 18.112 1.91671 18.1507L4.85538 18.5253C5.11938 18.5587 5.33805 18.7467 5.41138 19.0027C5.65138 19.8373 5.98205 20.6333 6.39271 21.368C6.52338 21.6013 6.50205 21.8907 6.33671 22.1013L4.52338 24.4347C4.31405 24.704 4.33271 25.08 4.56738 25.3067L6.68071 27.42C6.91405 27.6613 7.28871 27.68 7.56071 27.472L9.89405 25.6587C10.0154 25.568 10.1594 25.52 10.3047 25.52Z" fill="white"/>
<path d="M15.9967 22.6663C12.3207 22.6663 9.33008 19.6757 9.33008 15.9997C9.33008 12.3237 12.3207 9.33301 15.9967 9.33301C19.6727 9.33301 22.6634 12.3237 22.6634 15.9997C22.6634 19.6757 19.6727 22.6663 15.9967 22.6663ZM15.9967 10.6663C13.0554 10.6663 10.6634 13.0583 10.6634 15.9997C10.6634 18.941 13.0554 21.333 15.9967 21.333C18.9381 21.333 21.3301 18.941 21.3301 15.9997C21.3301 13.0583 18.9381 10.6663 15.9967 10.6663Z" fill="white"/>
</g>
<defs>
<clipPath id="clip0_544_6810">
<rect width="32" height="32" fill="white"/>
</clipPath>
</defs>
</svg>
