<svg width="21" height="15" viewBox="0 0 21 15" fill="none" xmlns="http://www.w3.org/2000/svg">
<path d="M0.699848 7.5L0.0502379 7.24636C-0.016746 7.40916 -0.016746 7.59084 0.0502379 7.75364L0.699848 7.5ZM20.3002 7.5L20.9498 7.75364C21.0167 7.59084 21.0167 7.40916 20.9498 7.24636L20.3002 7.5ZM10.5 13.6364C7.26035 13.6364 4.98531 12.0655 3.49569 10.4536C2.68172 9.5668 1.99891 8.57356 1.46706 7.50273C1.4281 7.42162 1.39075 7.33979 1.35506 7.25727L1.34946 7.24773L0.699848 7.5L0.0502379 7.75364V7.75636L0.0544379 7.76182C0.0660951 7.79064 0.0782302 7.81928 0.0908385 7.84773L0.20004 8.08364C0.790158 9.27456 1.5489 10.379 2.45408 11.3645C4.1159 13.1618 6.73954 15 10.5 15V13.6364ZM0.699848 7.5L1.34946 7.75364L1.35506 7.74273C1.38922 7.65957 1.42658 7.57769 1.46706 7.49727C1.99891 6.42644 2.68172 5.4332 3.49569 4.54636C4.98391 2.93455 7.26035 1.36364 10.5 1.36364V0C6.73954 0 4.1145 1.83818 2.45408 3.63545C1.54888 4.62103 0.790142 5.72543 0.20004 6.91636C0.149164 7.02262 0.100619 7.12991 0.0544379 7.23818L0.0516379 7.24364V7.245H0.0488378L0.699848 7.5ZM10.5 1.36364C13.7396 1.36364 16.0147 2.93455 17.5043 4.54636C18.3183 5.43323 19.0011 6.42645 19.5329 7.49727C19.572 7.57832 19.6094 7.66016 19.6449 7.74273L19.6505 7.75227L20.3002 7.5L20.9498 7.24636V7.24364L20.9456 7.23818C20.935 7.20895 20.9228 7.18028 20.9092 7.15227C20.7444 6.79266 20.5622 6.4409 20.3632 6.09818C19.8498 5.21617 19.2406 4.3905 18.5459 3.63545C16.8841 1.83818 14.2605 0 10.5 0V1.36364ZM20.3002 7.5C20.0833 7.41622 19.8668 7.33167 19.6505 7.24636L19.6463 7.25727L19.6253 7.305L19.5329 7.50273C19.0011 8.57355 18.3183 9.56677 17.5043 10.4536C16.0161 12.0655 13.7396 13.6364 10.5 13.6364V15C14.2605 15 16.8855 13.1618 18.5459 11.3659C19.4512 10.3799 20.21 9.27506 20.8 8.08364C20.8508 7.97736 20.8993 7.87007 20.9456 7.76182L20.9484 7.75636V7.755L20.9498 7.75364L20.3002 7.5ZM10.5 9.54545C9.94304 9.54545 9.40889 9.32995 9.01505 8.94635C8.62122 8.56276 8.39997 8.04249 8.39997 7.5H6.99995C6.99995 8.40415 7.3687 9.27126 8.02509 9.91059C8.68147 10.5499 9.57173 10.9091 10.5 10.9091V9.54545ZM12.6 7.5C12.6 8.04249 12.3788 8.56276 11.9849 8.94635C11.5911 9.32995 11.057 9.54545 10.5 9.54545V10.9091C11.4283 10.9091 12.3185 10.5499 12.9749 9.91059C13.6313 9.27126 14.0001 8.40415 14.0001 7.5H12.6ZM10.5 5.45455C11.057 5.45455 11.5911 5.67005 11.9849 6.05365C12.3788 6.43724 12.6 6.95751 12.6 7.5H14.0001C14.0001 6.59585 13.6313 5.72874 12.9749 5.08941C12.3185 4.45008 11.4283 4.09091 10.5 4.09091V5.45455ZM10.5 4.09091C9.57173 4.09091 8.68147 4.45008 8.02509 5.08941C7.3687 5.72874 6.99995 6.59585 6.99995 7.5H8.39997C8.39997 6.95751 8.62122 6.43724 9.01505 6.05365C9.40889 5.67005 9.94304 5.45455 10.5 5.45455V4.09091Z" fill="#6161FF"/>
</svg>
