<svg width="20" height="18" viewBox="0 0 20 18" fill="none" xmlns="http://www.w3.org/2000/svg">
<path d="M15.2999 17.4923C15.1966 17.4923 15.0932 17.4527 15.0141 17.3744L10.9764 13.3368C10.8609 13.2213 10.8262 13.0477 10.8892 12.8967C10.9522 12.7456 11.0992 12.6471 11.2623 12.6471H13.2811V8.60947C13.2811 8.16452 13.6429 7.80194 14.0886 7.80194H16.5112C16.957 7.80194 17.3188 8.16452 17.3188 8.60947V12.6471H19.3376C19.5007 12.6471 19.6485 12.7456 19.7107 12.8967C19.7729 13.0477 19.7381 13.2213 19.6235 13.3368L15.5858 17.3744C15.5067 17.4527 15.4033 17.4923 15.2999 17.4923ZM12.237 13.4547L15.2999 16.5176L18.3629 13.4547H16.915C16.6921 13.4547 16.5112 13.2738 16.5112 13.0509V8.60947H14.0886V13.0509C14.0886 13.2738 13.9078 13.4547 13.6849 13.4547H12.237Z" fill="#6161FF"/>
<path d="M9.65185 15.0697H2.38406C1.27048 15.0697 0.365234 14.1637 0.365234 13.0509V2.55301C0.365234 1.44023 1.27048 0.53418 2.38406 0.53418H17.7272C18.8407 0.53418 19.746 1.44023 19.746 2.55301V10.6283C19.746 10.8512 19.5651 11.0321 19.3422 11.0321C19.1193 11.0321 18.9385 10.8512 18.9385 10.6283V2.55301C18.9385 1.88518 18.395 1.34171 17.7272 1.34171H2.38406C1.71623 1.34171 1.17277 1.88518 1.17277 2.55301V13.0509C1.17277 13.7187 1.71623 14.2622 2.38406 14.2622H9.65185C9.87472 14.2622 10.0556 14.4431 10.0556 14.666C10.0556 14.8889 9.87472 15.0697 9.65185 15.0697Z" fill="#6161FF"/>
<path d="M6.42172 11.0315H0.769C0.546121 11.0315 0.365234 10.8507 0.365234 10.6278V4.97505C0.365234 4.75218 0.546121 4.57129 0.769 4.57129H6.42172C7.53531 4.57129 8.44055 5.47734 8.44055 6.59012V9.01271C8.44055 10.1255 7.53531 11.0315 6.42172 11.0315ZM1.17277 10.224H6.42172C7.08955 10.224 7.63302 9.68054 7.63302 9.01271V6.59012C7.63302 5.92229 7.08955 5.37882 6.42172 5.37882H1.17277V10.224Z" fill="#6161FF"/>
<path d="M4.40803 9.41665C3.51732 9.41665 2.79297 8.69229 2.79297 7.80159C2.79297 6.91088 3.51732 6.18652 4.40803 6.18652C5.29874 6.18652 6.02309 6.91088 6.02309 7.80159C6.02309 8.69229 5.29874 9.41665 4.40803 9.41665ZM4.40803 6.99405C3.96227 6.99405 3.6005 7.35664 3.6005 7.80159C3.6005 8.24654 3.96227 8.60912 4.40803 8.60912C4.85379 8.60912 5.21556 8.24654 5.21556 7.80159C5.21556 7.35664 4.85379 6.99405 4.40803 6.99405Z" fill="#6161FF"/>
</svg>
