<svg width="22" height="20" viewBox="0 0 22 20" fill="none" xmlns="http://www.w3.org/2000/svg">
<path d="M13.8951 16.7872C14.7251 17.0222 15.5851 17.141 16.4493 17.1402C17.8391 17.1421 19.2109 16.8331 20.4591 16.237C20.496 15.3866 20.2475 14.5478 19.7515 13.8475C19.2554 13.1472 18.5387 12.6237 17.71 12.3563C16.8813 12.0889 15.9858 12.0922 15.1592 12.3656C14.3326 12.6391 13.62 13.1679 13.1294 13.8718M13.8951 16.7872V16.7844C13.8951 15.7285 13.6168 14.7352 13.1294 13.8718M13.8951 16.7872V16.8878C12.0226 17.9875 9.87719 18.5668 7.69122 18.5632C5.42313 18.5632 3.301 17.9513 1.48926 16.8878L1.48828 16.7844C1.48754 15.4414 1.94522 14.1365 2.78918 13.0752C3.63314 12.0139 4.81537 11.2566 6.14947 10.9228C7.48358 10.589 8.89368 10.6977 10.1575 11.2316C11.4213 11.7656 12.4668 12.6945 13.1294 13.8718M10.9761 4.68825C10.9761 5.53745 10.6301 6.35187 10.0143 6.95235C9.39841 7.55282 8.56314 7.89017 7.69219 7.89017C6.82125 7.89017 5.98597 7.55282 5.37012 6.95235C4.75427 6.35187 4.40828 5.53745 4.40828 4.68825C4.40828 3.83905 4.75427 3.02463 5.37012 2.42415C5.98597 1.82367 6.82125 1.48633 7.69219 1.48633C8.56314 1.48633 9.39841 1.82367 10.0143 2.42415C10.6301 3.02463 10.9761 3.83905 10.9761 4.68825ZM19.0034 6.82286C19.0034 7.48335 18.7343 8.11679 18.2553 8.58383C17.7763 9.05087 17.1267 9.31324 16.4493 9.31324C15.7719 9.31324 15.1222 9.05087 14.6432 8.58383C14.1642 8.11679 13.8951 7.48335 13.8951 6.82286C13.8951 6.16237 14.1642 5.52893 14.6432 5.0619C15.1222 4.59486 15.7719 4.33248 16.4493 4.33248C17.1267 4.33248 17.7763 4.59486 18.2553 5.0619C18.7343 5.52893 19.0034 6.16237 19.0034 6.82286Z" stroke="#6161FF" stroke-width="1.5" stroke-linecap="round" stroke-linejoin="round"/>
</svg>
