<svg width="27" height="27" viewBox="0 0 27 27" fill="none" xmlns="http://www.w3.org/2000/svg">
<path d="M10.4316 17.899V9.10187C10.4318 8.99181 10.4616 8.88382 10.5179 8.78922C10.5741 8.69462 10.6548 8.61689 10.7514 8.56419C10.8481 8.51148 10.9571 8.48573 11.0671 8.48965C11.1771 8.49356 11.284 8.52698 11.3766 8.58642L18.2199 12.9837C18.3066 13.0393 18.3779 13.1157 18.4272 13.206C18.4766 13.2963 18.5025 13.3975 18.5025 13.5004C18.5025 13.6033 18.4766 13.7046 18.4272 13.7949C18.3779 13.8852 18.3066 13.9616 18.2199 14.0171L11.3766 18.4156C11.284 18.4751 11.1771 18.5085 11.0671 18.5124C10.9571 18.5163 10.8481 18.4906 10.7514 18.4379C10.6548 18.3852 10.5741 18.3074 10.5179 18.2128C10.4616 18.1183 10.4318 18.0103 10.4316 17.9002V17.899Z" fill="white"/>
<path d="M0 13.5C0 6.04432 6.04432 0 13.5 0C20.9557 0 27 6.04432 27 13.5C27 20.9557 20.9557 27 13.5 27C6.04432 27 0 20.9557 0 13.5ZM13.5 1.84091C10.4078 1.84091 7.44228 3.06927 5.25578 5.25578C3.06927 7.44228 1.84091 10.4078 1.84091 13.5C1.84091 16.5922 3.06927 19.5577 5.25578 21.7442C7.44228 23.9307 10.4078 25.1591 13.5 25.1591C16.5922 25.1591 19.5577 23.9307 21.7442 21.7442C23.9307 19.5577 25.1591 16.5922 25.1591 13.5C25.1591 10.4078 23.9307 7.44228 21.7442 5.25578C19.5577 3.06927 16.5922 1.84091 13.5 1.84091Z" fill="white"/>
</svg>
