<?xml version="1.0" encoding="utf-8"?>
<!-- Generator: Adobe Illustrator 26.0.0, SVG Export Plug-In . SVG Version: 6.00 Build 0)  -->
<svg version="1.1" id="Layer_1" xmlns="http://www.w3.org/2000/svg" xmlns:xlink="http://www.w3.org/1999/xlink" x="0px" y="0px"
	 viewBox="0 0 26 30" style="enable-background:new 0 0 26 30;" xml:space="preserve">
<style type="text/css">
	.st0{fill-rule:evenodd;clip-rule:evenodd;fill:#FFFFFF;}
	.st1{fill-rule:evenodd;clip-rule:evenodd;fill:#6161FF;}
	.st2{fill:#FFFFFF;}
</style>
<path class="st0" d="M2.7,5.2C2,5.2,1.3,5.5,0.8,6C0.3,6.5,0,7.1,0,7.8v19.5c0,0.7,0.3,1.4,0.8,1.9C1.3,29.7,2,30,2.7,30h16
	c0.7,0,1.4-0.3,1.9-0.8c0.5-0.5,0.8-1.2,0.8-1.9V7.8c0-0.7-0.3-1.4-0.8-1.9c-0.5-0.5-1.2-0.8-1.9-0.8H2.7z M2.7,6.9h16
	c0.2,0,0.5,0.1,0.6,0.3c0.2,0.2,0.3,0.4,0.3,0.6v19.5c0,0.2-0.1,0.5-0.3,0.6c-0.2,0.2-0.4,0.3-0.6,0.3h-16c-0.2,0-0.5-0.1-0.6-0.3
	c-0.2-0.2-0.3-0.4-0.3-0.6V7.8c0-0.2,0.1-0.5,0.3-0.6C2.2,7,2.4,6.9,2.7,6.9z"/>
<path class="st0" d="M9.1,7.5C8.5,7.5,8,8,8,8.6c0,0.6,0.5,1.1,1.1,1.1h7.5c0.6,0,1.1-0.5,1.1-1.1c0-0.6-0.5-1.1-1.1-1.1H9.1z"/>
<path class="st0" d="M9.1,13.9L9.1,13.9C8.5,13.9,8,14.4,8,15v0c0,0.6,0.5,1.1,1.1,1.1h7.5c0.6,0,1.1-0.5,1.1-1.1v0
	c0-0.6-0.5-1.1-1.1-1.1h0H9.1z"/>
<path class="st0" d="M9.1,20.4L9.1,20.4c-0.6,0-1.1,0.5-1.1,1.1v0c0,0.6,0.5,1.1,1.1,1.1h7.5c0.6,0,1.1-0.5,1.1-1.1v0
	c0-0.6-0.5-1.1-1.1-1.1h0H9.1z"/>
<g>
	<circle class="st1" cx="17.5" cy="8.3" r="8"/>
</g>
<path class="st2" d="M18.5,8.3l3.4-3.4c0.3-0.3,0.3-0.7,0-1c-0.3-0.3-0.7-0.3-0.9,0l-3.4,3.4L14.2,4c-0.3-0.3-0.7-0.3-1,0
	c-0.3,0.3-0.3,0.7,0,0.9l3.4,3.4l-3.4,3.4c-0.3,0.3-0.3,0.7,0,1c0.3,0.3,0.7,0.3,0.9,0l3.4-3.4l3.4,3.4c0.3,0.3,0.7,0.3,1,0
	c0.3-0.3,0.3-0.7,0-0.9L18.5,8.3z"/>
</svg>
