<svg width="17" height="17" viewBox="0 0 17 17" fill="none" xmlns="http://www.w3.org/2000/svg">
<path d="M17 13.3167C17 16.0354 14.8632 17 13.0333 17H7.93333C6.10343 17 3.96667 16.0354 3.96667 13.3167C3.99958 11.8729 4.37272 10.4573 5.05574 9.18483C5.08972 9.1178 5.14893 9.06701 5.22036 9.04364C5.29178 9.02026 5.36957 9.02622 5.4366 9.0602C5.50363 9.09417 5.55442 9.15339 5.5778 9.22481C5.60117 9.29624 5.59521 9.37402 5.56124 9.44105C4.91875 10.6342 4.56659 11.962 4.53333 13.3167C4.53333 15.6145 6.28963 16.4333 7.93333 16.4333H13.0333C14.677 16.4333 16.4333 15.6145 16.4333 13.3167C16.4333 9.55807 13.1778 6.19995 12.6354 5.66669H12.5118C12.4366 5.66669 12.3646 5.63684 12.3114 5.58371C12.2583 5.53057 12.2284 5.4585 12.2284 5.38336C12.2284 5.30822 12.2583 5.23615 12.3114 5.18301C12.3646 5.12988 12.4366 5.10003 12.5118 5.10003H13.0333C13.1836 5.10003 13.3278 5.04032 13.434 4.93405C13.5403 4.82778 13.6 4.68365 13.6 4.53336C13.6 4.38307 13.5403 4.23894 13.434 4.13267C13.3278 4.0264 13.1836 3.9667 13.0333 3.9667H12.7508H12.7501H12.7492H12.6508C12.5757 3.9667 12.5036 3.93685 12.4505 3.88371C12.3974 3.83057 12.3675 3.75851 12.3675 3.68336C12.3675 3.60822 12.3974 3.53615 12.4505 3.48302C12.5036 3.42988 12.5757 3.40003 12.6508 3.40003H12.6891C13.057 3.21832 13.3651 2.93488 13.5768 2.58333C13.7885 2.23178 13.8949 1.82689 13.8833 1.4167C13.8833 1.12272 13.7649 0.566704 13.3167 0.566704C13.2177 0.565763 13.1196 0.584881 13.0283 0.622904C12.937 0.660927 12.8543 0.717066 12.7853 0.78793C12.544 1.01006 12.228 1.13336 11.9 1.13336C11.572 1.13336 11.256 1.01006 11.0147 0.78793C10.9451 0.717826 10.8623 0.662187 10.7711 0.624219C10.6799 0.586251 10.5821 0.566704 10.4833 0.566704C10.3845 0.566704 10.2867 0.586251 10.1955 0.624219C10.1043 0.662187 10.0215 0.717826 9.95194 0.78793C9.71064 1.01006 9.39465 1.13336 9.06667 1.13336C8.73869 1.13336 8.42269 1.01006 8.18139 0.78793C8.11236 0.717066 8.02968 0.660927 7.93835 0.622904C7.84702 0.584881 7.74893 0.565763 7.65 0.566704C7.20177 0.566704 7.08333 1.12272 7.08333 1.4167C7.07935 1.76559 7.15611 2.11066 7.30759 2.42497C7.32402 2.45836 7.3337 2.49466 7.3361 2.5318C7.33849 2.56893 7.33355 2.60618 7.32155 2.6414C7.30955 2.67663 7.29073 2.70914 7.26617 2.73709C7.2416 2.76505 7.21177 2.78789 7.17838 2.80431C7.14499 2.82073 7.10869 2.83042 7.07155 2.83281C7.03441 2.83521 6.99717 2.83027 6.96195 2.81827C6.92672 2.80627 6.8942 2.78745 6.86625 2.76288C6.8383 2.73832 6.81546 2.70849 6.79904 2.6751C6.60916 2.28301 6.51252 1.85233 6.51667 1.4167C6.51667 0.712648 6.90597 3.83133e-05 7.65 3.83133e-05C7.97845 -0.0024998 8.29535 0.121153 8.53528 0.345478C8.60488 0.415581 8.68766 0.47122 8.77886 0.509188C8.87007 0.547156 8.96788 0.566703 9.06667 0.566703C9.16545 0.566703 9.26327 0.547156 9.35447 0.509188C9.44567 0.47122 9.52845 0.415581 9.59806 0.345478C9.83936 0.123344 10.1554 4.33797e-05 10.4833 4.33797e-05C10.8113 4.33797e-05 11.1273 0.123344 11.3686 0.345478C11.4382 0.415581 11.521 0.47122 11.6122 0.509188C11.7034 0.547156 11.8012 0.566703 11.9 0.566703C11.9988 0.566703 12.0966 0.547156 12.1878 0.509188C12.279 0.47122 12.3618 0.415581 12.4314 0.345478C12.6713 0.121153 12.9882 -0.0024998 13.3167 3.83133e-05C14.0607 3.83133e-05 14.45 0.712648 14.45 1.4167C14.4604 1.81337 14.3828 2.20741 14.2227 2.57048C14.0625 2.93354 13.824 3.25661 13.524 3.51642C13.7287 3.6137 13.8993 3.77049 14.0134 3.96628C14.1276 4.16208 14.18 4.38777 14.1637 4.61382C14.1475 4.83987 14.0634 5.05577 13.9225 5.23326C13.7816 5.41075 13.5904 5.54157 13.3739 5.60861C14.423 6.71701 17 9.79791 17 13.3167ZM11.3333 4.25003C11.3329 4.62562 11.1835 4.98569 10.9179 5.25127C10.6523 5.51685 10.2923 5.66625 9.91667 5.66669H7.08333C7.00819 5.66669 6.93612 5.69654 6.88299 5.74968C6.82985 5.80281 6.8 5.87488 6.8 5.95003C6.79942 6.47586 6.59027 6.97999 6.21845 7.3518C5.84663 7.72362 5.3425 7.93277 4.81667 7.93335H4.25C4.17486 7.93335 4.10279 7.9632 4.04965 8.01634C3.99652 8.06948 3.96667 8.14154 3.96667 8.21669C3.96667 8.29183 3.99652 8.3639 4.04965 8.41703C4.10279 8.47017 4.17486 8.50002 4.25 8.50002H4.81667C5.4437 8.49923 6.04853 8.26778 6.5159 7.84977C6.98328 7.43176 7.28053 6.85642 7.35103 6.23336H9.91667C10.4425 6.23277 10.9466 6.02363 11.3184 5.65181C11.6903 5.27999 11.8994 4.77586 11.9 4.25003C11.8998 4.02467 11.8101 3.80861 11.6508 3.64926C11.4914 3.48991 11.2754 3.40028 11.05 3.40003H3.4C2.71222 3.3822 2.04173 3.61696 1.5153 4.05994C1.17764 4.3652 0.738517 4.53395 0.283333 4.53336C0.208189 4.53336 0.136122 4.56321 0.0829864 4.61635C0.0298511 4.66948 0 4.74155 0 4.81669C0 4.89184 0.0298511 4.96391 0.0829864 5.01704C0.136122 5.07018 0.208189 5.10003 0.283333 5.10003C0.858184 5.09925 1.41375 4.89263 1.8494 4.51758C2.27943 4.14692 2.83251 3.95043 3.4 3.9667H11.05C11.1251 3.96679 11.1971 3.99668 11.2502 4.04979C11.3034 4.1029 11.3332 4.17491 11.3333 4.25003ZM3.14033 11.8898C2.66412 11.8495 2.21268 11.6603 1.84997 11.3491C1.41422 10.9739 0.858398 10.7672 0.283333 10.7667C0.208189 10.7667 0.136122 10.7965 0.0829864 10.8497C0.0298511 10.9028 0 10.9749 0 11.05C0 11.1252 0.0298511 11.1972 0.0829864 11.2504C0.136122 11.3035 0.208189 11.3333 0.283333 11.3333C0.738711 11.3326 1.17807 11.5013 1.51583 11.8068C1.96204 12.1804 2.51307 12.4066 3.09312 12.4542C3.10108 12.455 3.10907 12.4554 3.11706 12.4553C3.18991 12.4549 3.2598 12.4265 3.31222 12.3759C3.36465 12.3253 3.39557 12.2565 3.39858 12.1837C3.40159 12.1109 3.37645 12.0398 3.32838 11.9851C3.28031 11.9303 3.21289 11.8962 3.14033 11.8898ZM10.4833 7.93335C11.1558 7.93335 11.8131 8.13276 12.3723 8.50636C12.9314 8.87995 13.3672 9.41096 13.6245 10.0322C13.8819 10.6535 13.9492 11.3371 13.818 11.9967C13.6868 12.6562 13.363 13.262 12.8875 13.7375C12.412 14.213 11.8062 14.5368 11.1466 14.668C10.4871 14.7992 9.80348 14.7319 9.18221 14.4745C8.56094 14.2172 8.02993 13.7814 7.65634 13.2223C7.28274 12.6632 7.08333 12.0058 7.08333 11.3333C7.08434 10.4319 7.44287 9.5677 8.08028 8.9303C8.71769 8.29289 9.58191 7.93436 10.4833 7.93335ZM10.4833 8.50002C9.92295 8.50002 9.37516 8.66619 8.90922 8.97752C8.44328 9.28885 8.08012 9.73136 7.86567 10.2491C7.65123 10.7668 7.59512 11.3365 7.70444 11.8861C7.81377 12.4357 8.08362 12.9406 8.47986 13.3368C8.87611 13.7331 9.38096 14.0029 9.93058 14.1122C10.4802 14.2216 11.0499 14.1654 11.5676 13.951C12.0853 13.7366 12.5278 13.3734 12.8392 12.9075C13.1505 12.4415 13.3167 11.8937 13.3167 11.3333C13.3158 10.5822 13.017 9.86199 12.4859 9.33083C11.9547 8.79966 11.2345 8.50087 10.4833 8.50002ZM10.2 9.35002V9.64752C9.95179 9.68261 9.72615 9.8106 9.56867 10.0056C9.41119 10.2007 9.33361 10.4482 9.3516 10.6982C9.36958 10.9483 9.4818 11.1821 9.66558 11.3526C9.84936 11.5231 10.091 11.6175 10.3417 11.6167H10.625C10.7377 11.6167 10.8458 11.6615 10.9255 11.7412C11.0052 11.8209 11.05 11.929 11.05 12.0417C11.05 12.1544 11.0052 12.2625 10.9255 12.3422C10.8458 12.4219 10.7377 12.4667 10.625 12.4667H9.63333C9.55819 12.4667 9.48612 12.4965 9.43299 12.5497C9.37985 12.6028 9.35 12.6749 9.35 12.75C9.35 12.8252 9.37985 12.8972 9.43299 12.9504C9.48612 13.0035 9.55819 13.0333 9.63333 13.0333H10.2V13.3167C10.2 13.3918 10.2299 13.4639 10.283 13.517C10.3361 13.5702 10.4082 13.6 10.4833 13.6C10.5585 13.6 10.6305 13.5702 10.6837 13.517C10.7368 13.4639 10.7667 13.3918 10.7667 13.3167V13.0192C11.0149 12.9841 11.2405 12.8561 11.398 12.6611C11.5555 12.466 11.6331 12.2185 11.6151 11.9685C11.5971 11.7184 11.4849 11.4846 11.3011 11.3141C11.1173 11.1436 10.8757 11.0492 10.625 11.05H10.3417C10.2289 11.05 10.1208 11.0052 10.0411 10.9255C9.96144 10.8458 9.91667 10.7377 9.91667 10.625C9.91667 10.5123 9.96144 10.4042 10.0411 10.3245C10.1208 10.2448 10.2289 10.2 10.3417 10.2H11.3333C11.4085 10.2 11.4805 10.1702 11.5337 10.117C11.5868 10.0639 11.6167 9.99183 11.6167 9.91668C11.6167 9.84154 11.5868 9.76947 11.5337 9.71634C11.4805 9.6632 11.4085 9.63335 11.3333 9.63335H10.7667V9.35002C10.7667 9.27487 10.7368 9.20281 10.6837 9.14967C10.6305 9.09654 10.5585 9.06668 10.4833 9.06668C10.4082 9.06668 10.3361 9.09654 10.283 9.14967C10.2299 9.20281 10.2 9.27487 10.2 9.35002Z" fill="#4E6AFF"/>
</svg>
