<svg width="20" height="20" viewBox="0 0 20 20" fill="none" xmlns="http://www.w3.org/2000/svg">
<mask id="mask0_360_10621" style="mask-type:luminance" maskUnits="userSpaceOnUse" x="0" y="0" width="20" height="20">
<path d="M0.25 0.222221H19.7778V19.75H0.25V0.222221Z" fill="white"/>
</mask>
<g mask="url(#mask0_360_10621)">
<path d="M8.89045 3.7099C8.64239 3.35626 8.11701 2.81807 7.25851 2.91395C6.53141 2.99515 5.98898 2.76181 5.64453 2.53083" stroke="#6161FF" stroke-miterlimit="10" stroke-linecap="round" stroke-linejoin="round"/>
<path d="M8.81919 4.08461C8.81919 4.08461 6.7947 3.93906 6.03979 5.22931" stroke="#6161FF" stroke-miterlimit="10" stroke-linecap="round" stroke-linejoin="round"/>
<path d="M12.5628 4.70431C11.4753 4.97892 10.4011 4.97895 9.31348 4.70431C8.93494 4.60869 8.72036 4.18305 8.8566 3.79611C8.85812 3.7918 8.85965 3.78749 8.86113 3.78318C8.97536 3.45876 9.29929 3.27672 9.61677 3.35643C10.5072 3.57997 11.3688 3.58005 12.2595 3.35643C12.5769 3.27672 12.9009 3.4588 13.0151 3.78318C13.0166 3.78749 13.0181 3.7918 13.0196 3.79615C13.1559 4.18308 12.9413 4.60869 12.5628 4.70431Z" stroke="#6161FF" stroke-miterlimit="10" stroke-linecap="round" stroke-linejoin="round"/>
<path d="M12.5675 3.35754C13.0806 2.61244 13.9397 1.21567 13.5527 0.714581C13.3693 0.477158 13.2129 0.799633 12.8336 0.799633C12.3879 0.799633 12.3879 0.508052 11.9423 0.508052C11.4967 0.508052 11.4967 0.799633 11.0511 0.799633C10.6055 0.799633 10.6055 0.508052 10.1599 0.508052C9.71435 0.508052 9.71435 0.799633 9.26879 0.799633C8.88907 0.799633 8.73331 0.472963 8.54871 0.710538C8.16456 1.20499 8.99323 2.587 9.49962 3.33832" stroke="#6161FF" stroke-miterlimit="10" stroke-linecap="round" stroke-linejoin="round"/>
<path d="M14.1404 5.30835C13.7849 4.99167 13.3978 4.67843 12.9775 4.37022" stroke="#6161FF" stroke-miterlimit="10" stroke-linecap="round" stroke-linejoin="round"/>
<path d="M8.96096 4.46544C5.42399 7.11401 4.3185 10.1289 4.67908 12.4755" stroke="#6161FF" stroke-miterlimit="10" stroke-linecap="round" stroke-linejoin="round"/>
<path d="M16.5734 14.6191C17.9841 12.636 17.9503 9.35566 15.0986 6.24513" stroke="#6161FF" stroke-miterlimit="10" stroke-linecap="round" stroke-linejoin="round"/>
<path d="M12.1427 14.6857L12.1426 14.706L12.156 14.7001C12.1517 14.6952 12.1472 14.6905 12.1427 14.6857Z" fill="#6161FF"/>
<path d="M9.28882 16.3986H12.5238" stroke="#6161FF" stroke-miterlimit="10" stroke-linecap="round" stroke-linejoin="round"/>
<path d="M3.22729 18.0561L6.47745 19.2658C6.82914 19.3967 7.20143 19.4637 7.57673 19.4637H11.8446C12.4418 19.4637 13.0268 19.294 13.5313 18.9743L18.875 15.5882C19.2276 15.2752 19.2929 14.749 19.0277 14.3593C18.7375 13.9328 18.2574 13.8586 17.7291 14.1084L12.5264 16.3992L12.5326 15.5551C12.4637 14.8623 11.9303 14.3062 11.2409 14.2087L8.07259 13.8439C7.34174 13.7405 6.97651 13.4956 6.33938 13.1229C5.46952 12.614 4.47993 12.3458 3.47215 12.3458H3.22729" stroke="#6161FF" stroke-miterlimit="10" stroke-linecap="round" stroke-linejoin="round"/>
<path d="M3.22928 14.7773V18.5496C3.22928 18.8501 2.98572 19.0937 2.68525 19.0937H1.37219C1.07173 19.0937 0.828125 18.8501 0.828125 18.5496V11.8879C0.828125 11.5874 1.07173 11.3439 1.37219 11.3439H2.68525C2.98572 11.3439 3.22928 11.5874 3.22928 11.8879V13.4401" stroke="#6161FF" stroke-miterlimit="10" stroke-linecap="round" stroke-linejoin="round"/>
<path d="M12.0496 7.44846C12.0496 7.44846 11.4789 6.92205 10.5991 7.18705C9.79135 7.43038 9.59074 8.53568 10.1397 8.96621C10.4548 9.2134 10.9291 9.41668 11.5683 9.64263C12.9989 10.1483 12.47 12.1658 11.0149 12.1755C10.4469 12.1792 10.1815 12.1432 9.68262 11.8168" stroke="#6161FF" stroke-miterlimit="10" stroke-linecap="round" stroke-linejoin="round"/>
<path d="M11.012 6.4314V12.9118" stroke="#6161FF" stroke-miterlimit="10" stroke-linecap="round" stroke-linejoin="round"/>
</g>
</svg>
