<svg width="13" height="15" viewBox="0 0 13 15" fill="none" xmlns="http://www.w3.org/2000/svg">
<path d="M9.86239 14.4107H1.48241C1.15557 14.4107 0.890625 14.1457 0.890625 13.8189V1.19432C0.890625 0.867484 1.15557 0.602539 1.48241 0.602539H9.86239C10.5158 0.603195 11.0453 1.13271 11.046 1.78611V13.2271C11.0453 13.8805 10.5158 14.41 9.86239 14.4107ZM1.48241 0.997062C1.37347 0.997062 1.28515 1.08539 1.28515 1.19432V13.8189C1.28515 13.9279 1.37347 14.0162 1.48241 14.0162H9.86239C10.2982 14.0162 10.6514 13.6629 10.6514 13.2271V1.78608C10.6514 1.3503 10.2982 0.997034 9.86239 0.997034H1.48241V0.997062Z" fill="#6161FF"/>
<path d="M9.86239 14.4107H1.48241C1.15557 14.4107 0.890625 14.1457 0.890625 13.8189V1.19432C0.890625 0.867484 1.15557 0.602539 1.48241 0.602539H9.86239C10.5158 0.603195 11.0453 1.13271 11.046 1.78611V13.2271C11.0453 13.8805 10.5158 14.41 9.86239 14.4107ZM1.48241 0.997062C1.37347 0.997062 1.28515 1.08539 1.28515 1.19432V13.8189C1.28515 13.9279 1.37347 14.0162 1.48241 14.0162H9.86239C10.2982 14.0162 10.6514 13.6629 10.6514 13.2271V1.78608C10.6514 1.3503 10.2982 0.997034 9.86239 0.997034H1.48241V0.997062Z" fill="#6161FF"/>
<path d="M11.0468 14.4107H9.86328C9.75434 14.4107 9.66602 14.3224 9.66602 14.2134C9.66602 14.1045 9.75434 14.0162 9.86328 14.0162H11.0468C11.4826 14.0162 11.8359 13.6629 11.8359 13.2271V1.78611C11.8359 1.35033 11.4826 0.997062 11.0468 0.997062H9.86328C9.75434 0.997062 9.66602 0.908738 9.66602 0.799801C9.66602 0.690863 9.75434 0.602539 9.86328 0.602539H11.0468C11.7002 0.603195 12.2298 1.13271 12.2304 1.78611V13.2271C12.2298 13.8805 11.7002 14.41 11.0468 14.4107Z" fill="#6161FF"/>
<path d="M5.96714 9.28492C4.13309 9.28481 2.64637 7.79792 2.64648 5.96386C2.6466 4.12981 4.13349 2.64309 5.96754 2.6432C7.80151 2.64332 9.2882 4.13009 9.2882 5.96406C9.28615 7.79735 7.80043 9.28295 5.96714 9.28492ZM5.96714 3.03773C4.35096 3.03784 3.04089 4.34808 3.04101 5.96426C3.04112 7.58044 4.35136 8.89051 5.96754 8.8904C7.58364 8.89028 8.89368 7.58016 8.89368 5.96406C8.89185 4.34859 7.58264 3.03947 5.96714 3.03773Z" fill="#6161FF"/>
<path d="M5.96999 9.28492C4.96712 9.28492 4.18164 7.8252 4.18164 5.96406C4.18164 4.10292 4.96732 2.6432 5.96999 2.6432C6.97267 2.6432 7.75815 4.10292 7.75815 5.96406C7.75815 7.8252 6.97287 9.28492 5.96999 9.28492ZM5.96999 3.03773C5.2145 3.03773 4.57616 4.3777 4.57616 5.96406C4.57616 7.55042 5.2147 8.8904 5.96999 8.8904C6.72528 8.8904 7.36363 7.55022 7.36363 5.96406C7.36363 4.3779 6.72571 3.03773 5.96999 3.03773Z" fill="#6161FF"/>
<path d="M5.96875 9.28492C5.85981 9.28492 5.77148 9.1966 5.77148 9.08766V2.84047C5.77148 2.73153 5.85981 2.6432 5.96875 2.6432C6.07768 2.6432 6.16601 2.73153 6.16601 2.84047V9.08766C6.16601 9.1966 6.07768 9.28492 5.96875 9.28492Z" fill="#6161FF"/>
<path d="M4.64707 6.21167C2.81256 6.21167 2.75753 6.15722 2.70684 6.10732C2.66861 6.06935 2.64691 6.0178 2.64648 5.96392C2.64643 5.85498 2.73472 5.76663 2.84366 5.76657C2.87246 5.76657 2.90088 5.77284 2.927 5.78499C3.32152 5.84218 6.88836 5.80472 9.0874 5.76666C9.19489 5.76848 9.28264 5.85321 9.2882 5.96055C9.29008 6.06943 9.20336 6.15921 9.0945 6.16118C6.98852 6.19747 5.58502 6.21167 4.64707 6.21167Z" fill="#6161FF"/>
<path d="M9.28784 11.0532H2.64453C2.53559 11.0532 2.44727 10.9649 2.44727 10.8559C2.44727 10.747 2.53559 10.6587 2.64453 10.6587H9.28781C9.39675 10.6587 9.48507 10.747 9.48507 10.8559C9.4851 10.9649 9.39678 11.0532 9.28784 11.0532Z" fill="#6161FF"/>
<path d="M8.33773 12.3702H3.60351C3.49457 12.3702 3.40625 12.2819 3.40625 12.1729C3.40625 12.064 3.49457 11.9757 3.60351 11.9757H8.33773C8.44667 11.9757 8.53499 12.064 8.53499 12.1729C8.53499 12.2819 8.44667 12.3702 8.33773 12.3702Z" fill="#6161FF"/>
<path d="M8.59083 4.46879H3.34375C3.23481 4.46879 3.14648 4.38046 3.14648 4.27153C3.14648 4.16259 3.23481 4.07426 3.34375 4.07426H8.59083C8.69977 4.07426 8.7881 4.16259 8.7881 4.27153C8.7881 4.38046 8.69977 4.46879 8.59083 4.46879Z" fill="#6161FF"/>
<path d="M8.54139 7.93038H3.39648C3.28754 7.93038 3.19922 7.84206 3.19922 7.73312C3.19922 7.62418 3.28754 7.53586 3.39648 7.53586H8.54139C8.65032 7.53586 8.73865 7.62418 8.73865 7.73312C8.73865 7.84206 8.65032 7.93038 8.54139 7.93038Z" fill="#6161FF"/>
</svg>
