<svg width="19" height="14" viewBox="0 0 19 14" fill="none" xmlns="http://www.w3.org/2000/svg">
<path d="M16.9307 13.8082H2.35531C1.29821 13.8082 0.4375 12.9475 0.4375 11.8904V1.91781C0.4375 0.860712 1.29821 0 2.35531 0H16.9307C17.9877 0 18.8485 0.860712 18.8485 1.91781V11.8904C18.8485 12.9475 17.9877 13.8082 16.9307 13.8082ZM2.35531 0.767123C1.7209 0.767123 1.20462 1.2834 1.20462 1.91781V11.8904C1.20462 12.5248 1.7209 13.0411 2.35531 13.0411H16.9307C17.5651 13.0411 18.0813 12.5248 18.0813 11.8904V1.91781C18.0813 1.2834 17.5651 0.767123 16.9307 0.767123H2.35531Z" fill="#6161FF"/>
<path d="M6.18929 6.90387C5.1322 6.90387 4.27148 6.04316 4.27148 4.98606C4.27148 3.92896 5.1322 3.06825 6.18929 3.06825C7.24639 3.06825 8.1071 3.92896 8.1071 4.98606C8.1071 6.04316 7.24639 6.90387 6.18929 6.90387ZM6.18929 3.83538C5.55488 3.83538 5.03861 4.35165 5.03861 4.98606C5.03861 5.62047 5.55488 6.13675 6.18929 6.13675C6.8237 6.13675 7.33998 5.62047 7.33998 4.98606C7.33998 4.35165 6.8237 3.83538 6.18929 3.83538Z" fill="#6161FF"/>
<path d="M9.26078 10.7395C9.04906 10.7395 8.87722 10.5677 8.87722 10.356V9.58886C8.87722 8.95445 8.36095 8.43817 7.72654 8.43817H4.65804C4.02363 8.43817 3.50736 8.95445 3.50736 9.58886V10.356C3.50736 10.5677 3.33552 10.7395 3.1238 10.7395C2.91207 10.7395 2.74023 10.5677 2.74023 10.356V9.58886C2.74023 8.53176 3.60095 7.67105 4.65804 7.67105H7.72654C8.78363 7.67105 9.64434 8.53176 9.64434 9.58886V10.356C9.64434 10.5677 9.47251 10.7395 9.26078 10.7395Z" fill="#6161FF"/>
<path d="M16.1621 4.60279H11.5593C11.3476 4.60279 11.1758 4.43095 11.1758 4.21922C11.1758 4.0075 11.3476 3.83566 11.5593 3.83566H16.1621C16.3738 3.83566 16.5456 4.0075 16.5456 4.21922C16.5456 4.43095 16.3738 4.60279 16.1621 4.60279Z" fill="#6161FF"/>
<path d="M16.1621 7.67104H11.5593C11.3476 7.67104 11.1758 7.4992 11.1758 7.28748C11.1758 7.07575 11.3476 6.90392 11.5593 6.90392H16.1621C16.3738 6.90392 16.5456 7.07575 16.5456 7.28748C16.5456 7.4992 16.3738 7.67104 16.1621 7.67104Z" fill="#6161FF"/>
<path d="M16.1621 10.7393H11.5593C11.3476 10.7393 11.1758 10.5675 11.1758 10.3557C11.1758 10.144 11.3476 9.97217 11.5593 9.97217H16.1621C16.3738 9.97217 16.5456 10.144 16.5456 10.3557C16.5456 10.5675 16.3738 10.7393 16.1621 10.7393Z" fill="#6161FF"/>
</svg>
