<svg width="17" height="17" viewBox="0 0 17 17" fill="none" xmlns="http://www.w3.org/2000/svg">
<path fill-rule="evenodd" clip-rule="evenodd" d="M2.35353 0H2.28815C1.98873 0 1.73115 9.74174e-09 1.50364 0.0536081C1.15144 0.137766 0.829422 0.317787 0.573254 0.573724C0.317087 0.82966 0.136776 1.15152 0.0523005 1.50364C-4.87087e-08 1.73115 0 1.98742 0 2.28815V5.55694C0 5.85636 9.74174e-09 6.11394 0.0536081 6.34145C0.137766 6.69364 0.317787 7.01567 0.573724 7.27183C0.82966 7.528 1.15152 7.70831 1.50364 7.79279C1.73115 7.84509 1.98742 7.84509 2.28815 7.84509H5.55694C5.85636 7.84509 6.11394 7.84509 6.34145 7.79148C6.69364 7.70732 7.01567 7.5273 7.27183 7.27137C7.528 7.01543 7.70831 6.69357 7.79279 6.34145C7.84509 6.11394 7.84509 5.85767 7.84509 5.55694V2.28815C7.84509 1.98873 7.84509 1.73115 7.79148 1.50364C7.70732 1.15144 7.5273 0.829422 7.27137 0.573254C7.01543 0.317087 6.69357 0.136776 6.34145 0.0523005C6.11394 -4.87087e-08 5.85767 0 5.55694 0H2.35353ZM1.80829 1.32582C1.86452 1.31274 1.95212 1.30751 2.35353 1.30751H5.49156C5.89428 1.30751 5.98057 1.31144 6.0368 1.32582C6.15425 1.35391 6.26163 1.41398 6.34702 1.49937C6.43242 1.58477 6.49249 1.69215 6.52058 1.8096C6.53365 1.86452 6.53757 1.95081 6.53757 2.35353V5.49156C6.53757 5.89428 6.53365 5.98057 6.51927 6.0368C6.49118 6.15425 6.43111 6.26163 6.34572 6.34702C6.26032 6.43242 6.15294 6.49249 6.03549 6.52058C5.98188 6.53234 5.89558 6.53757 5.49156 6.53757H2.35353C1.95081 6.53757 1.86452 6.53365 1.80829 6.51927C1.69084 6.49118 1.58346 6.43111 1.49807 6.34572C1.41267 6.26032 1.3526 6.15294 1.32451 6.03549C1.31274 5.98188 1.30751 5.89558 1.30751 5.49156V2.35353C1.30751 1.95081 1.31144 1.86452 1.32582 1.80829C1.35391 1.69084 1.41398 1.58346 1.49937 1.49807C1.58477 1.41267 1.69215 1.3526 1.8096 1.32451L1.80829 1.32582ZM11.5061 0H11.4408C11.1413 0 10.8838 9.74174e-09 10.6562 0.0536081C10.304 0.137766 9.98203 0.317787 9.72586 0.573724C9.46969 0.82966 9.28938 1.15152 9.2049 1.50364C9.1526 1.73115 9.1526 1.98742 9.1526 2.28815V5.55694C9.1526 5.85636 9.1526 6.11394 9.20621 6.34145C9.29037 6.69364 9.47039 7.01567 9.72633 7.27183C9.98226 7.528 10.3041 7.70831 10.6562 7.79279C10.8838 7.84509 11.14 7.84509 11.4408 7.84509H14.7095C15.009 7.84509 15.2665 7.84509 15.4941 7.79148C15.8462 7.70732 16.1683 7.5273 16.4244 7.27137C16.6806 7.01543 16.8609 6.69357 16.9454 6.34145C16.9977 6.11394 16.9977 5.85767 16.9977 5.55694V2.28815C16.9977 1.98873 16.9977 1.73115 16.9441 1.50364C16.8599 1.15144 16.6799 0.829422 16.424 0.573254C16.168 0.317087 15.8462 0.136776 15.4941 0.0523005C15.2665 -4.87087e-08 15.0103 0 14.7095 0H11.5061ZM10.9609 1.32582C11.0171 1.31274 11.1047 1.30751 11.5061 1.30751H14.6442C15.0469 1.30751 15.1332 1.31144 15.1894 1.32582C15.3069 1.35391 15.4142 1.41398 15.4996 1.49937C15.585 1.58477 15.6451 1.69215 15.6732 1.8096C15.6863 1.86452 15.6902 1.95081 15.6902 2.35353V5.49156C15.6902 5.89428 15.6849 5.98057 15.6719 6.0368C15.6438 6.15425 15.5837 6.26163 15.4983 6.34702C15.4129 6.43242 15.3055 6.49249 15.1881 6.52058C15.1332 6.53365 15.0469 6.53757 14.6442 6.53757H11.5061C11.1034 6.53757 11.0171 6.53365 10.9609 6.51927C10.8434 6.49118 10.7361 6.43111 10.6507 6.34572C10.5653 6.26032 10.5052 6.15294 10.4771 6.03549C10.4653 5.98188 10.4601 5.89558 10.4601 5.49156V2.35353C10.4601 1.95081 10.464 1.86452 10.4784 1.80829C10.5065 1.69084 10.5666 1.58346 10.652 1.49807C10.7374 1.41267 10.8447 1.3526 10.9622 1.32451L10.9609 1.32582ZM2.28815 9.1526H5.55694C5.85636 9.1526 6.11394 9.1526 6.34145 9.20621C6.69364 9.29037 7.01567 9.47039 7.27183 9.72633C7.528 9.98226 7.70831 10.3041 7.79279 10.6562C7.84509 10.8838 7.84509 11.14 7.84509 11.4408V14.7095C7.84509 15.009 7.84509 15.2665 7.79148 15.4941C7.70732 15.8462 7.5273 16.1683 7.27137 16.4244C7.01543 16.6806 6.69357 16.8609 6.34145 16.9454C6.11394 16.9977 5.85767 16.9977 5.55694 16.9977H2.28815C1.98873 16.9977 1.73115 16.9977 1.50364 16.9441C1.15144 16.8599 0.829422 16.6799 0.573254 16.424C0.317087 16.168 0.136776 15.8462 0.0523005 15.4941C-4.87087e-08 15.2665 0 15.0103 0 14.7095V11.4408C0 11.1413 9.74174e-09 10.8838 0.0536081 10.6562C0.137766 10.304 0.317787 9.98203 0.573724 9.72586C0.82966 9.46969 1.15152 9.28938 1.50364 9.2049C1.73115 9.1526 1.98742 9.1526 2.28815 9.1526ZM2.35353 10.4601C1.95081 10.4601 1.86452 10.464 1.80829 10.4784C1.69084 10.5065 1.58346 10.5666 1.49807 10.652C1.41267 10.7374 1.3526 10.8447 1.32451 10.9622C1.31274 11.0158 1.30751 11.1021 1.30751 11.5061V14.6442C1.30751 15.0469 1.31144 15.1332 1.32582 15.1894C1.35391 15.3069 1.41398 15.4142 1.49937 15.4996C1.58477 15.585 1.69215 15.6451 1.8096 15.6732C1.86452 15.6863 1.95081 15.6902 2.35353 15.6902H5.49156C5.89428 15.6902 5.98057 15.6849 6.0368 15.6719C6.15425 15.6438 6.26163 15.5837 6.34702 15.4983C6.43242 15.4129 6.49249 15.3055 6.52058 15.1881C6.53365 15.1332 6.53757 15.0469 6.53757 14.6442V11.5061C6.53757 11.1034 6.53365 11.0171 6.51927 10.9609C6.49118 10.8434 6.43111 10.7361 6.34572 10.6507C6.26032 10.5653 6.15294 10.5052 6.03549 10.4771C5.98188 10.4653 5.89558 10.4601 5.49156 10.4601H2.35353ZM11.5061 9.1526H11.4408C11.1413 9.1526 10.8838 9.1526 10.6562 9.20621C10.304 9.29037 9.98203 9.47039 9.72586 9.72633C9.46969 9.98226 9.28938 10.3041 9.2049 10.6562C9.1526 10.8838 9.1526 11.14 9.1526 11.4408V14.7095C9.1526 15.009 9.1526 15.2665 9.20621 15.4941C9.29037 15.8462 9.47039 16.1683 9.72633 16.4244C9.98226 16.6806 10.3041 16.8609 10.6562 16.9454C10.8838 16.999 11.1413 16.999 11.4408 16.999H14.7095C15.009 16.999 15.2665 16.999 15.4941 16.9454C15.846 16.861 16.1678 16.6809 16.4237 16.425C16.6796 16.1691 16.8597 15.8473 16.9441 15.4954C16.9977 15.2678 16.9977 15.0103 16.9977 14.7108V11.4408C16.9977 11.1413 16.9977 10.8838 16.9441 10.6562C16.8599 10.304 16.6799 9.98203 16.424 9.72586C16.168 9.46969 15.8462 9.28938 15.4941 9.2049C15.2665 9.1526 15.0103 9.1526 14.7095 9.1526H11.5061ZM10.9609 10.4784C11.0171 10.4653 11.1047 10.4601 11.5061 10.4601H14.6442C15.0469 10.4601 15.1332 10.464 15.1894 10.4784C15.3069 10.5065 15.4142 10.5666 15.4996 10.652C15.585 10.7374 15.6451 10.8447 15.6732 10.9622C15.6863 11.0171 15.6902 11.1034 15.6902 11.5061V14.6442C15.6902 15.0469 15.6849 15.1332 15.6719 15.1894C15.6438 15.3069 15.5837 15.4142 15.4983 15.4996C15.4129 15.585 15.3055 15.6451 15.1881 15.6732C15.1332 15.6863 15.0469 15.6902 14.6442 15.6902H11.5061C11.1034 15.6902 11.0171 15.6849 10.9609 15.6719C10.8434 15.6438 10.7361 15.5837 10.6507 15.4983C10.5653 15.4129 10.5052 15.3055 10.4771 15.1881C10.4653 15.1345 10.4601 15.0482 10.4601 14.6442V11.5061C10.4601 11.1034 10.464 11.0171 10.4784 10.9609C10.5065 10.8434 10.5666 10.7361 10.652 10.6507C10.7374 10.5653 10.8447 10.5052 10.9622 10.4771L10.9609 10.4784Z" fill="#6161FF"/>
</svg>
