<svg width="357" height="309" viewBox="0 0 357 309" fill="none" xmlns="http://www.w3.org/2000/svg">
<path d="M339.35 134.627C341.384 133.532 343.84 135.048 343.772 137.357L343.308 153.087C343.24 155.396 340.699 156.765 338.734 155.552L325.342 147.285C323.377 146.072 323.462 143.186 325.495 142.091L339.35 134.627Z" fill="#EAEAFF"/>
<path d="M62.1285 120.842C49.7272 63.9222 78.9928 34.6733 134.351 45.9522C180.415 55.3381 198.227 54.4968 248.438 36.1719C316.409 11.3531 347.004 40.7071 335.314 97.2724C325.506 144.688 327.981 174.713 348.242 222.3C373.123 280.732 335.142 319.025 277.243 304.906C209.628 288.409 181.877 287.725 125.386 303.802C66.6178 320.536 20.2773 290.183 50.5302 217.331C65.9727 180.089 69.2771 153.68 62.1285 120.842Z" fill="#EAEAFF"/>
<circle cx="82.5" cy="7.5" r="7.5" fill="#6161FF"/>
<rect x="0.597656" y="147.437" width="17" height="17" rx="3" transform="rotate(-20.0868 0.597656 147.437)" fill="#6161FF"/>
<path d="M298 274.5C298 274.667 242.929 275 175 275C107.071 274.833 52 274.667 52 274.5C52 274.333 107.071 274 175 274C242.929 274 298 274.167 298 274.5Z" fill="#263238"/>
<path d="M243.774 66.971C243.774 66.971 242.513 128.821 241.252 143.948C239.992 159.076 237.077 173.652 230.537 180.192L298.139 190.355C298.139 190.355 305.624 190.434 307.593 167.743C308.539 156.633 313.187 62.3224 313.187 62.3224L310.902 61.3769C309.563 60.8254 308.066 60.8254 306.805 61.4557C304.284 62.7163 300.029 64.6073 298.217 64.0558C295.617 63.3467 290.575 59.8799 288.211 60.983C285.926 62.086 282.302 66.577 278.835 65.3164C275.684 64.2134 271.744 60.983 269.459 61.9285C267.174 62.8739 262.368 67.2074 260.635 66.971C257.562 66.4982 254.016 61.7709 249.998 63.583C245.98 65.3952 243.774 66.971 243.774 66.971Z" fill="white"/>
<path d="M243.774 66.9712C243.774 66.9712 244.168 66.656 244.877 66.1833C245.665 65.7105 246.847 65.0014 248.422 64.2923C249.21 63.8984 250.077 63.4256 251.18 63.1893C252.283 63.0317 253.465 63.268 254.647 63.8196C255.829 64.3711 256.932 65.159 258.192 65.8681C258.823 66.262 259.532 66.5772 260.241 66.8136C260.95 67.0499 261.738 66.656 262.447 66.262C263.865 65.4742 265.283 64.3711 266.78 63.3468C267.568 62.7953 268.356 62.3226 269.223 61.8498C270.168 61.3771 271.271 61.6135 272.138 61.9286C274.029 62.6377 275.841 63.8196 277.811 64.6863C278.284 64.9226 278.835 65.159 279.308 65.2378C279.544 65.3166 279.859 65.3166 280.096 65.3166C280.332 65.3166 280.647 65.3166 280.884 65.2378C281.987 65.0014 282.932 64.4499 283.878 63.7408C284.823 63.1105 285.769 62.3226 286.714 61.6135C287.187 61.2983 287.738 60.9044 288.29 60.668C288.92 60.5104 289.551 60.5104 290.181 60.668C292.623 61.2195 294.908 62.6377 297.351 63.5832C298.533 64.2135 299.872 63.8196 301.133 63.5044C302.393 63.1105 303.654 62.5589 304.915 62.0074C305.545 61.6923 306.175 61.3771 306.806 61.1407C307.436 60.8256 308.224 60.7468 308.933 60.7468C309.642 60.7468 310.43 60.9831 311.06 61.2983C311.69 61.6135 312.4 61.8498 313.03 62.165L313.109 62.2438V62.3226C312.321 78.632 311.375 97.1476 310.351 117.239C309.8 127.324 309.248 137.724 308.696 148.518C308.381 153.876 308.066 159.312 307.751 164.907C307.357 170.422 306.727 176.016 304.993 181.452C304.363 183.343 303.575 185.234 302.472 186.889C302.157 187.283 301.921 187.756 301.605 188.071C301.448 188.228 301.29 188.465 301.133 188.622L300.581 189.174C300.187 189.489 299.793 189.804 299.321 190.04C298.848 190.277 298.375 190.513 297.824 190.513C273.793 186.889 250.944 183.501 230.222 180.349L229.828 180.271L230.064 180.034C231.561 178.537 232.665 176.725 233.689 174.913C234.713 173.101 235.422 171.131 236.131 169.24C237.471 165.379 238.337 161.44 239.047 157.658C240.386 149.937 240.937 142.53 241.253 135.518C241.883 121.494 242.277 109.202 242.513 99.0385C242.828 88.8746 242.986 80.8381 243.144 75.3228C243.222 72.5652 243.301 70.4379 243.301 69.0197C243.301 68.3106 243.301 67.759 243.38 67.3651C243.774 67.1287 243.774 66.9712 243.774 66.9712C243.774 66.9712 243.774 67.1287 243.774 67.5227C243.774 67.9166 243.774 68.4682 243.774 69.1773C243.774 70.5955 243.695 72.7228 243.695 75.4804C243.538 80.9957 243.38 89.0322 243.144 99.1961C242.828 109.36 242.592 121.651 241.962 135.676C241.647 142.688 241.095 150.094 239.756 157.815C239.047 161.676 238.18 165.616 236.84 169.476C236.131 171.446 235.422 173.337 234.398 175.228C233.374 177.04 232.192 178.852 230.695 180.428L230.616 180.113C251.338 183.186 274.187 186.652 298.217 190.198C298.611 190.198 299.084 189.962 299.478 189.804C299.872 189.568 300.266 189.331 300.66 189.016L301.211 188.543C301.369 188.386 301.527 188.149 301.684 187.992C301.999 187.598 302.315 187.204 302.551 186.81C303.575 185.155 304.363 183.343 304.993 181.452C306.727 176.095 307.278 170.501 307.672 164.985C308.066 159.47 308.303 154.034 308.618 148.676C309.169 137.882 309.721 127.482 310.272 117.396C311.297 97.3051 312.242 78.7108 313.109 62.4801L313.187 62.6377C312.557 62.3226 311.848 62.0862 311.218 61.771C310.587 61.4559 309.878 61.2983 309.169 61.2983C308.46 61.2983 307.83 61.3771 307.199 61.6923C306.569 62.0074 305.939 62.3226 305.309 62.5589C304.048 63.1105 302.787 63.662 301.448 64.0559C300.817 64.2135 300.108 64.4499 299.478 64.5287C299.163 64.5287 298.769 64.6075 298.454 64.5287C298.139 64.4499 297.823 64.3711 297.508 64.2135C295.066 63.268 292.86 61.8498 290.417 61.2983C289.787 61.1407 289.235 61.1407 288.684 61.2983C288.132 61.4559 287.66 61.8498 287.187 62.165C286.241 62.8741 285.296 63.662 284.35 64.2923C283.405 64.9226 282.381 65.5529 281.199 65.7893C280.884 65.8681 280.647 65.8681 280.332 65.8681C280.017 65.8681 279.781 65.8681 279.466 65.7893C278.914 65.6317 278.362 65.4742 277.89 65.2378C275.92 64.2923 274.108 63.1893 272.296 62.4801C271.35 62.165 270.326 61.9286 269.538 62.3226C268.671 62.7165 267.883 63.268 267.174 63.7408C265.677 64.765 264.259 65.7893 262.762 66.656C262.368 66.8924 262.053 67.0499 261.659 67.1287C261.265 67.2863 260.792 67.2863 260.477 67.1287C259.689 66.8924 259.059 66.5772 258.35 66.1833C257.089 65.3954 255.986 64.6075 254.804 64.1347C253.701 63.5832 252.441 63.3468 251.416 63.5044C250.392 63.662 249.526 64.2135 248.738 64.5287C247.162 65.3166 245.98 65.9469 245.192 66.4196C244.168 66.656 243.853 66.8924 243.774 66.9712Z" fill="#263238"/>
<g opacity="0.3">
<path d="M236.683 169.083L297.587 173.101C297.587 173.101 292.624 182.713 301.212 188.622C301.212 188.622 299.557 190.592 296.799 190.277C294.042 189.962 234.556 182.24 234.556 182.24L235.58 171.131L236.683 169.083Z" fill="black"/>
</g>
<path d="M224.944 182.871C220.374 180.271 217.616 174.755 218.325 169.555C218.325 169.555 292.939 173.652 292.624 174.204C292.466 174.44 291.836 176.489 291.679 179.089C291.442 183.737 294.042 188.15 298.139 190.356L224.944 182.871Z" fill="#EBEBEB"/>
<path d="M224.943 182.871C224.943 182.871 225.1 182.871 225.337 182.871C225.573 182.871 225.967 182.95 226.44 182.95C227.385 183.028 228.803 183.186 230.616 183.344C234.24 183.737 239.44 184.21 245.98 184.841C259.059 186.18 277.338 187.992 298.217 190.119L298.138 190.513C296.878 189.804 295.696 188.938 294.75 187.835C293.805 186.731 292.938 185.471 292.465 184.053C291.914 182.634 291.599 181.137 291.678 179.64C291.678 178.143 291.914 176.646 292.308 175.149C292.387 174.913 292.465 174.677 292.544 174.44L292.623 174.283C292.623 174.283 292.623 174.204 292.702 174.204C292.702 174.44 292.859 174.44 292.781 174.44C292.702 174.44 292.544 174.362 292.465 174.362C291.993 174.283 291.52 174.283 291.047 174.204C290.102 174.125 289.077 174.046 288.132 173.968C286.241 173.81 284.271 173.731 282.38 173.574C278.598 173.337 274.895 173.101 271.271 172.865C264.022 172.392 257.089 171.998 250.707 171.604C237.864 170.816 226.834 170.186 218.64 169.713L218.797 169.634C218.482 172.077 218.955 174.283 219.585 176.095C220.294 177.907 221.24 179.246 222.106 180.271C222.973 181.295 223.84 181.925 224.391 182.319C224.706 182.477 224.864 182.634 225.022 182.713C224.864 182.792 224.943 182.871 224.943 182.871C224.943 182.871 224.628 182.713 223.997 182.319C223.446 181.925 222.579 181.295 221.634 180.271C220.767 179.246 219.743 177.907 219.034 176.095C218.324 174.283 217.852 171.998 218.167 169.555V169.477H218.246C226.44 169.949 237.47 170.501 250.313 171.21C256.774 171.604 263.628 171.998 270.877 172.392C274.501 172.628 278.205 172.865 281.986 173.101C283.877 173.258 285.768 173.337 287.738 173.495C288.684 173.574 289.708 173.652 290.653 173.731C291.126 173.81 291.599 173.81 292.15 173.889C292.308 173.889 292.387 173.889 292.544 173.968H292.623C292.623 173.968 292.702 173.968 292.702 174.204V174.283V174.362L292.623 174.519C292.544 174.755 292.465 174.992 292.387 175.228C291.993 176.646 291.756 178.143 291.756 179.64C291.756 181.137 292.071 182.556 292.544 183.895C293.096 185.234 293.884 186.495 294.75 187.519C295.696 188.544 296.799 189.489 298.059 190.119L298.926 190.592L297.902 190.513C277.023 188.386 258.743 186.416 245.664 185.077C239.125 184.368 233.925 183.816 230.3 183.422C228.488 183.186 227.149 183.107 226.203 182.95C225.731 182.871 225.416 182.871 225.1 182.792C225.022 182.871 224.943 182.871 224.943 182.871Z" fill="#263238"/>
<path d="M271.586 97.1477C271.586 97.2265 267.174 97.2265 261.737 97.0689C256.301 96.9113 251.889 96.675 251.889 96.5962C251.889 96.5174 256.301 96.5174 261.737 96.675C267.174 96.8326 271.586 97.0689 271.586 97.1477Z" fill="#263238"/>
<path d="M277.968 109.202C277.968 109.281 271.98 109.281 264.652 109.124C257.246 108.966 251.337 108.73 251.337 108.651C251.337 108.572 257.325 108.572 264.652 108.73C271.98 108.887 277.968 109.124 277.968 109.202Z" fill="#263238"/>
<path d="M300.975 109.833C300.975 109.911 298.453 110.069 295.302 110.069C292.15 110.069 289.629 109.99 289.629 109.833C289.629 109.754 292.15 109.596 295.302 109.596C298.453 109.596 300.975 109.675 300.975 109.833Z" fill="#263238"/>
<path d="M277.968 115.112C277.968 115.19 271.98 115.19 264.652 115.033C257.246 114.875 251.337 114.639 251.337 114.56C251.337 114.481 257.325 114.481 264.652 114.639C271.98 114.796 277.968 114.954 277.968 115.112Z" fill="#263238"/>
<path d="M300.975 115.663C300.975 115.742 298.453 115.899 295.302 115.899C292.15 115.899 289.629 115.821 289.629 115.663C289.629 115.506 292.15 115.427 295.302 115.427C298.453 115.506 300.975 115.584 300.975 115.663Z" fill="#263238"/>
<path d="M270.168 120.785C270.168 120.863 265.914 120.863 260.714 120.785C255.513 120.706 251.259 120.469 251.259 120.391C251.259 120.312 255.513 120.312 260.714 120.391C265.992 120.548 270.247 120.706 270.168 120.785Z" fill="#263238"/>
<path d="M300.975 121.572C300.975 121.651 298.453 121.809 295.302 121.809C292.15 121.809 289.629 121.73 289.629 121.572C289.629 121.415 292.15 121.336 295.302 121.336C298.453 121.336 300.975 121.415 300.975 121.572Z" fill="#263238"/>
<path d="M277.968 126.851C277.968 126.93 271.98 126.93 264.652 126.773C257.246 126.615 251.337 126.379 251.337 126.3C251.337 126.221 257.325 126.221 264.652 126.379C271.98 126.536 277.968 126.773 277.968 126.851Z" fill="#263238"/>
<path d="M300.975 127.403C300.975 127.482 298.453 127.639 295.302 127.639C292.15 127.639 289.629 127.56 289.629 127.403C289.629 127.245 292.15 127.167 295.302 127.167C298.453 127.245 300.975 127.324 300.975 127.403Z" fill="#263238"/>
<path d="M277.338 133.706C277.338 133.785 271.35 133.785 264.022 133.627C256.616 133.469 250.707 133.233 250.707 133.154C250.707 133.076 256.695 133.076 264.022 133.233C271.429 133.391 277.338 133.627 277.338 133.706Z" fill="#263238"/>
<path d="M300.345 134.336C300.345 134.415 297.823 134.572 294.672 134.572C291.52 134.572 288.999 134.494 288.999 134.336C288.999 134.257 291.52 134.1 294.672 134.1C297.823 134.1 300.345 134.178 300.345 134.336Z" fill="#263238"/>
<path d="M260.556 140.797C260.556 140.876 258.271 140.955 255.513 140.876C252.756 140.797 250.471 140.718 250.471 140.561C250.471 140.482 252.756 140.403 255.513 140.482C258.271 140.561 260.556 140.639 260.556 140.797Z" fill="#263238"/>
<path d="M300.187 141.742C300.187 141.821 297.665 141.979 294.514 141.979C291.362 141.979 288.841 141.9 288.841 141.742C288.841 141.585 291.362 141.506 294.514 141.506C297.665 141.506 300.187 141.585 300.187 141.742Z" fill="#263238"/>
<path d="M274.738 148.518C274.738 148.597 269.222 148.597 262.446 148.44C255.671 148.282 250.155 148.124 250.155 147.967C250.155 147.888 255.671 147.888 262.446 148.046C269.301 148.203 274.738 148.361 274.738 148.518Z" fill="#263238"/>
<path d="M299.95 149.148C299.95 149.227 297.429 149.385 294.277 149.385C291.126 149.385 288.604 149.306 288.604 149.148C288.604 148.991 291.126 148.912 294.277 148.912C297.429 148.912 299.95 148.991 299.95 149.148Z" fill="#263238"/>
<path d="M270.168 155.846C270.168 155.924 265.677 155.924 260.083 155.846C254.489 155.767 249.998 155.53 249.998 155.452C249.998 155.373 254.489 155.373 260.083 155.452C265.677 155.53 270.247 155.688 270.168 155.846Z" fill="#263238"/>
<path d="M299.714 156.555C299.714 156.634 297.193 156.791 294.041 156.791C290.889 156.791 288.368 156.712 288.368 156.555C288.368 156.476 290.889 156.318 294.041 156.318C297.193 156.318 299.714 156.397 299.714 156.555Z" fill="#263238"/>
<path d="M274.58 163.489C274.58 163.567 268.592 163.567 261.265 163.41C253.858 163.252 247.949 163.016 247.949 162.937C247.949 162.858 253.937 162.858 261.265 163.016C268.592 163.173 274.58 163.41 274.58 163.489Z" fill="#263238"/>
<path d="M271.901 171.21C271.901 171.289 265.913 171.289 258.586 171.131C251.18 170.973 245.271 170.737 245.271 170.658C245.271 170.579 251.259 170.579 258.586 170.737C265.913 170.895 271.901 171.131 271.901 171.21Z" fill="#263238"/>
<path d="M298.217 163.961C298.217 164.04 295.696 164.197 292.544 164.197C289.392 164.197 286.871 164.119 286.871 163.961C286.871 163.882 289.392 163.725 292.544 163.725C295.696 163.725 298.217 163.803 298.217 163.961Z" fill="#263238"/>
<path d="M296.484 171.131C296.484 171.21 293.963 171.367 290.812 171.367C287.66 171.367 285.139 171.288 285.139 171.131C285.139 170.973 287.66 170.895 290.812 170.895C293.963 170.973 296.484 171.052 296.484 171.131Z" fill="#263238"/>
<path d="M262.054 99.8262C262.054 99.905 259.69 99.9838 256.853 99.9838C254.017 99.9838 251.653 99.8262 251.653 99.7474C251.653 99.6686 254.017 99.5898 256.853 99.5898C259.769 99.5898 262.054 99.6686 262.054 99.8262Z" fill="#263238"/>
<path d="M294.75 85.4078L260.083 86.1956V80.838L294.75 79.4985V85.4078Z" fill="#6161FF"/>
<path d="M211.433 135.952C223.13 129.772 228.442 116.871 223.299 107.136C218.155 97.402 204.504 94.5209 192.807 100.701C181.111 106.881 175.798 119.783 180.942 129.517C186.085 139.251 199.737 142.132 211.433 135.952Z" fill="#6161FF"/>
<g opacity="0.2">
<path d="M211.433 135.952C223.13 129.772 228.442 116.871 223.299 107.136C218.155 97.402 204.504 94.5209 192.807 100.701C181.111 106.881 175.798 119.783 180.942 129.517C186.085 139.251 199.737 142.132 211.433 135.952Z" fill="black"/>
</g>
<path d="M209.599 132.494C221.296 126.313 226.608 113.412 221.465 103.678C216.321 93.9435 202.67 91.0624 190.973 97.2427C179.277 103.423 173.965 116.324 179.108 126.059C184.251 135.793 197.903 138.674 209.599 132.494Z" fill="#6161FF"/>
<g opacity="0.1">
<path d="M223.379 112.282C223.458 109.288 222.828 106.373 221.409 103.694C216.288 93.9244 202.579 91.088 190.918 97.2336C186.112 99.7548 182.409 103.379 180.045 107.476C184.142 111.652 189.027 115.04 194.542 117.167C199.979 119.295 205.573 119.846 211.167 117.876C214.949 116.616 219.991 115.119 223.379 112.282Z" fill="white"/>
</g>
<path d="M207.542 127.725C198.56 132.453 188.081 130.325 184.221 122.998C180.36 115.67 184.457 105.822 193.439 101.094C202.421 96.3669 212.9 98.4943 216.761 105.822C220.7 113.149 216.524 122.998 207.542 127.725Z" fill="#6161FF"/>
<g opacity="0.2">
<path d="M207.542 127.725C198.56 132.453 188.081 130.325 184.221 122.998C180.36 115.67 184.457 105.822 193.439 101.094C202.421 96.3669 212.9 98.4943 216.761 105.822C220.7 113.149 216.524 122.998 207.542 127.725Z" fill="black"/>
</g>
<path d="M207.463 128.592C198.718 133.241 188.554 131.192 184.772 124.101C180.99 117.01 185.087 107.477 193.833 102.828C202.579 98.1794 212.742 100.228 216.524 107.319C220.306 114.41 216.288 123.944 207.463 128.592Z" fill="#6161FF"/>
<g opacity="0.2">
<path d="M207.463 128.592C198.718 133.241 188.554 131.192 184.772 124.101C180.99 117.01 185.087 107.477 193.833 102.828C202.579 98.1794 212.742 100.228 216.524 107.319C220.306 114.41 216.288 123.944 207.463 128.592Z" fill="white"/>
</g>
<path d="M202.894 115.355L207.07 113.149C207.306 113.78 207.385 114.489 207.464 115.277C207.385 115.907 207.227 116.459 207.227 116.459H207.385L209.197 116.143L209.591 116.065L210.064 115.04L209.749 114.804C209.827 113.858 209.749 112.834 209.355 111.889L211.718 110.707L212.033 109.84L211.482 110.155L211.088 109.367L208.724 110.628C207.07 108.186 204.548 107.949 202.421 109.052C199.506 110.549 199.821 112.992 200.215 115.119L196.039 117.325C195.488 115.986 195.488 114.41 195.882 113.149L193.36 113.543C192.888 114.883 193.045 116.852 193.754 118.507L192.021 119.453L191.627 118.822L191.391 119.768L192.1 121.107L194.463 119.846C196.197 122.289 198.639 122.525 200.767 121.422C203.603 119.846 203.288 117.483 202.894 115.355ZM202.658 113.78C202.5 112.598 202.579 111.652 203.603 111.18C204.548 110.707 205.573 110.786 206.361 111.889L202.658 113.78ZM196.67 118.665L200.373 116.695C200.53 117.877 200.451 118.822 199.427 119.374C198.56 119.846 197.536 119.689 196.67 118.665Z" fill="#6161FF"/>
<g opacity="0.3">
<path d="M202.894 115.355L207.07 113.149C207.306 113.78 207.385 114.489 207.464 115.277C207.385 115.907 207.227 116.459 207.227 116.459H207.385L209.197 116.143L209.591 116.065L210.064 115.04L209.749 114.804C209.827 113.858 209.749 112.834 209.355 111.889L211.718 110.707L212.033 109.84L211.482 110.155L211.088 109.367L208.724 110.628C207.07 108.186 204.548 107.949 202.421 109.052C199.506 110.549 199.821 112.992 200.215 115.119L196.039 117.325C195.488 115.986 195.488 114.41 195.882 113.149L193.36 113.543C192.888 114.883 193.045 116.852 193.754 118.507L192.021 119.453L191.627 118.822L191.391 119.768L192.1 121.107L194.463 119.846C196.197 122.289 198.639 122.525 200.767 121.422C203.603 119.846 203.288 117.483 202.894 115.355ZM202.658 113.78C202.5 112.598 202.579 111.652 203.603 111.18C204.548 110.707 205.573 110.786 206.361 111.889L202.658 113.78ZM196.67 118.665L200.373 116.695C200.53 117.877 200.451 118.822 199.427 119.374C198.56 119.846 197.536 119.689 196.67 118.665Z" fill="black"/>
</g>
<path d="M194.7 118.98L192.336 120.24L191.627 118.901L193.912 117.64C193.203 115.986 193.045 114.016 193.518 112.677L196.039 112.283C195.645 113.543 195.724 115.119 196.197 116.458L200.373 114.252C199.979 112.125 199.663 109.761 202.579 108.186C204.706 107.083 207.227 107.319 208.882 109.761L211.246 108.501L211.955 109.84L209.67 111.101C210.221 112.361 210.458 113.858 210.142 115.119L207.7 115.513C207.858 114.331 207.779 113.149 207.385 112.204L203.13 114.41C203.524 116.537 203.839 118.98 201.003 120.477C198.876 121.659 196.354 121.422 194.7 118.98ZM202.894 112.913L206.597 110.943C205.73 109.919 204.706 109.761 203.839 110.234C202.815 110.786 202.736 111.731 202.894 112.913ZM199.742 118.507C200.767 117.955 200.845 117.01 200.688 115.828L196.985 117.798C197.851 118.822 198.797 118.98 199.742 118.507Z" fill="#6161FF"/>
<path d="M218.022 114.883C218.022 114.883 218.022 115.04 217.943 115.277C217.864 115.592 217.864 115.986 217.628 116.459C217.391 117.483 216.761 118.98 215.815 120.713C214.87 122.368 213.373 124.259 211.482 125.992C210.537 126.859 209.434 127.647 208.173 128.356C206.991 129.065 205.652 129.695 204.233 130.089C201.397 130.956 198.561 131.429 195.96 131.271C193.36 131.113 191.076 130.326 189.5 129.223C187.845 128.119 186.821 126.938 186.191 126.071C185.875 125.598 185.639 125.283 185.481 125.047C185.324 124.81 185.245 124.653 185.245 124.653C185.245 124.653 185.324 124.732 185.56 124.968C185.718 125.204 185.954 125.519 186.269 125.992C186.978 126.78 188.003 127.962 189.657 128.986C191.312 130.01 193.518 130.798 196.039 130.877C198.561 131.035 201.397 130.562 204.155 129.695C205.573 129.223 206.833 128.671 208.015 127.962C209.197 127.253 210.3 126.465 211.246 125.677C213.137 124.022 214.634 122.21 215.579 120.556C216.525 118.901 217.155 117.483 217.47 116.459C217.864 115.434 217.943 114.883 218.022 114.883Z" fill="#263238"/>
<path d="M188.712 98.8883C188.712 98.8883 188.869 98.7308 189.263 98.4156C189.657 98.1792 190.209 97.7853 190.918 97.3913C192.336 96.6034 194.464 95.658 196.906 95.0276C199.348 94.3973 201.633 94.2397 203.288 94.2397C204.076 94.2397 204.785 94.3185 205.258 94.3185C205.73 94.3973 205.967 94.3973 205.967 94.4761C205.967 94.5549 204.943 94.4761 203.288 94.5549C201.633 94.6337 199.427 94.7913 196.985 95.4216C194.542 96.0519 192.494 96.9186 190.997 97.6277C189.657 98.3368 188.791 98.8883 188.712 98.8883Z" fill="white"/>
<path d="M183.275 104.246C183.196 104.167 183.748 103.458 184.457 102.591C185.245 101.725 185.875 101.094 185.954 101.173C186.033 101.252 185.481 101.961 184.772 102.828C184.063 103.694 183.354 104.325 183.275 104.246Z" fill="white"/>
<path d="M217.076 111.179C216.997 111.179 216.839 110.313 216.209 109.052C215.894 108.422 215.5 107.634 214.948 106.925C214.397 106.137 213.767 105.349 212.979 104.64C212.191 103.931 211.324 103.301 210.536 102.828C209.748 102.355 208.96 101.961 208.33 101.725C206.991 101.252 206.124 101.094 206.124 101.016C206.124 101.016 206.36 101.016 206.754 101.094C207.148 101.173 207.7 101.252 208.409 101.488C209.118 101.725 209.906 102.04 210.773 102.513C211.639 102.985 212.506 103.616 213.294 104.325C214.082 105.113 214.791 105.901 215.342 106.688C215.894 107.476 216.288 108.264 216.524 108.973C216.761 109.682 216.997 110.234 217.076 110.628C217.076 110.943 217.076 111.179 217.076 111.179Z" fill="white"/>
<path d="M203.209 109.052C203.209 109.052 203.209 108.816 203.445 108.58C203.682 108.343 204.076 108.107 204.548 108.028C205.021 107.949 205.494 108.028 205.809 108.186C206.124 108.343 206.203 108.501 206.203 108.501C206.124 108.58 205.494 108.186 204.627 108.343C203.761 108.58 203.288 109.131 203.209 109.052Z" fill="white"/>
<path d="M194.148 113.701C194.069 113.701 194.069 113.622 193.99 113.543C193.99 113.386 194.069 113.228 194.148 113.149C194.305 112.992 194.463 112.992 194.542 112.992C194.699 112.992 194.699 113.07 194.699 113.149C194.621 113.228 194.542 113.307 194.384 113.386C194.305 113.543 194.227 113.622 194.148 113.701Z" fill="white"/>
<path d="M70.0074 81.2319C70.6377 77.7651 74.4984 75.2439 77.8863 76.1893C75.2075 72.6438 76.7833 66.7346 80.8803 64.9224C84.9774 63.1103 90.3351 65.9467 91.123 70.3589C94.1958 64.2921 102.39 61.3769 108.535 64.2133C114.681 67.0497 117.911 75.1651 115.233 81.3894L107.984 112.984C106.645 115.663 103.808 117.554 100.735 117.79C97.7413 117.948 94.6685 116.451 93.0139 113.851C90.0987 115.584 86.0804 115.033 83.7167 112.669C81.3531 110.305 80.8015 106.208 82.5349 103.372C80.8015 105.42 77.3348 105.263 75.3651 103.529C73.3953 101.796 72.6862 98.8807 73.0802 96.2019C73.3953 93.523 74.5772 91.0806 75.759 88.7169C72.2135 88.3229 69.3771 84.6198 70.0074 81.2319Z" fill="#263238"/>
<path d="M97.1107 95.0198C103.65 85.4863 113.026 79.4983 124.608 78.3165C131.148 77.6861 133.905 78.7892 138.712 79.6559C143.518 80.5226 148.009 82.6499 151.082 86.4318C154.785 90.844 158.094 95.8865 159.197 101.559C160.379 107.39 161.482 113.299 161.561 119.208C161.639 125.196 160.536 131.263 157.463 136.384L142.651 140.324C134.378 141.348 125.948 142.294 117.675 141.112C109.402 139.93 101.129 136.227 96.244 129.53C89.3893 120.075 90.5712 104.553 97.1107 95.0198Z" fill="#263238"/>
<path d="M110.505 93.7595L129.887 84.0684L135.166 84.2259C146.985 83.2805 156.203 95.5716 157.149 105.105C158.173 115.742 158.961 128.663 157.936 136.621C155.888 152.615 142.572 155.137 142.572 155.137L142.494 165.931C143.124 168.846 140.445 176.173 137.609 178.222C124.608 176.331 117.833 173.652 113.972 164.749L105.699 99.5899C105.541 96.6747 107.59 94.1534 110.505 93.7595Z" fill="#FFBF9D"/>
<path d="M133.984 134.966C133.984 134.1 134.457 133.391 134.93 132.839C136.033 131.736 137.766 131.5 139.027 132.209C140.366 132.997 141.233 134.651 141.154 136.385C140.524 137.409 139.5 138.197 138.318 138.354C138.16 138.354 137.924 138.512 137.766 138.433C135.797 137.488 135.087 137.488 135.166 137.645C135.639 138.512 133.984 135.991 133.984 134.966Z" fill="#FF9A6C"/>
<path d="M152.815 119.209C152.894 120.312 152.027 121.257 150.924 121.336C149.821 121.415 148.797 120.627 148.797 119.524C148.718 118.421 149.585 117.475 150.688 117.396C151.791 117.396 152.737 118.184 152.815 119.209Z" fill="#263238"/>
<path d="M153.996 110.699C153.76 110.935 152.184 109.911 149.978 109.911C147.772 109.99 146.196 111.172 145.96 110.856C145.802 110.778 146.117 110.226 146.748 109.753C147.457 109.202 148.56 108.729 149.978 108.65C151.317 108.65 152.499 109.123 153.208 109.596C153.918 110.069 154.154 110.541 153.996 110.699Z" fill="#263238"/>
<path d="M141.39 129.057C141.39 128.9 142.73 128.663 144.936 128.269C145.487 128.19 146.039 128.033 146.118 127.718C146.275 127.324 145.96 126.693 145.724 126.063C145.172 124.724 144.542 123.306 143.912 121.809C141.39 115.821 139.578 110.857 139.815 110.699C140.051 110.62 142.257 115.427 144.778 121.415C145.409 122.912 145.96 124.33 146.512 125.669C146.748 126.3 147.142 127.009 146.906 127.875C146.748 128.269 146.354 128.584 146.039 128.742C145.645 128.9 145.33 128.9 145.093 128.9C142.809 129.136 141.39 129.215 141.39 129.057Z" fill="#263238"/>
<path d="M142.572 155.136C142.572 155.136 131.857 156.161 121.063 150.094C121.063 150.094 126.578 161.833 142.493 159.785L142.572 155.136Z" fill="#FF9A6C"/>
<path d="M135.009 130.791C135.403 130.791 135.482 133.154 137.53 134.809C139.657 136.463 142.179 136.069 142.179 136.463C142.179 136.621 141.627 136.936 140.524 137.015C139.5 137.094 137.924 136.779 136.663 135.754C135.403 134.73 134.772 133.391 134.694 132.445C134.536 131.421 134.851 130.791 135.009 130.791Z" fill="#263238"/>
<path d="M152.578 103.057C152.263 103.608 150.53 103.293 148.56 103.53C146.59 103.687 145.015 104.317 144.542 103.845C144.306 103.608 144.542 103.057 145.172 102.505C145.803 101.954 146.984 101.402 148.324 101.245C149.663 101.087 150.924 101.402 151.633 101.875C152.5 102.348 152.736 102.82 152.578 103.057Z" fill="#263238"/>
<path d="M130.991 120.075C130.991 121.178 131.937 122.045 133.118 121.966C134.221 121.966 135.167 121.1 135.088 119.997C135.088 118.893 134.143 118.027 132.961 118.106C131.858 118.106 130.991 118.972 130.991 120.075Z" fill="#263238"/>
<path d="M124.293 112.433C124.529 112.669 126.026 111.408 128.232 111.251C130.438 111.093 132.093 112.117 132.329 111.802C132.408 111.645 132.172 111.251 131.384 110.778C130.675 110.305 129.414 109.911 128.075 109.99C126.735 110.069 125.554 110.699 125.002 111.251C124.372 111.802 124.135 112.275 124.293 112.433Z" fill="#263238"/>
<path d="M125.002 105.263C125.475 105.736 127.13 105.105 129.178 104.948C131.227 104.711 132.96 105.027 133.354 104.475C133.512 104.239 133.197 103.766 132.409 103.293C131.621 102.899 130.36 102.584 128.942 102.742C127.524 102.899 126.342 103.372 125.712 104.002C125.002 104.475 124.766 105.027 125.002 105.263Z" fill="#263238"/>
<path d="M107.589 121.966L110.583 124.566C121.456 112.196 142.257 81.7832 141.075 83.5953C141.075 83.5953 132.644 80.9165 123.977 83.2014C115.311 85.4863 98.9223 91.3167 100.025 101.717C101.207 112.117 107.589 121.966 107.589 121.966Z" fill="#263238"/>
<path d="M110.663 125.984C110.663 124.803 109.166 122.045 107.984 121.887C104.832 121.493 99.1596 121.887 99.3959 129.845C99.6323 140.718 110.505 138.197 110.505 137.882C110.584 137.724 110.82 130.081 110.663 125.984Z" fill="#FFBF9D"/>
<path d="M107.432 134.021C107.354 134.021 107.275 134.179 106.96 134.336C106.644 134.494 106.093 134.572 105.541 134.415C104.36 134.021 103.335 132.209 103.257 130.239C103.178 129.215 103.414 128.269 103.729 127.481C104.044 126.694 104.517 126.142 105.147 125.984C105.699 125.827 106.172 126.142 106.251 126.457C106.408 126.772 106.329 127.009 106.408 127.009C106.408 127.009 106.644 126.851 106.566 126.378C106.487 126.142 106.408 125.906 106.093 125.669C105.857 125.433 105.463 125.354 105.069 125.433C104.202 125.512 103.493 126.3 103.099 127.166C102.705 128.033 102.469 129.136 102.547 130.239C102.705 132.445 103.808 134.415 105.463 134.888C106.251 135.045 106.881 134.809 107.196 134.572C107.432 134.336 107.511 134.1 107.432 134.021Z" fill="#FF9A6C"/>
<path d="M91.674 119.051C91.7528 119.051 91.674 118.342 91.5952 117.16C91.5164 115.899 91.5952 114.166 91.7528 111.96C92.1467 107.626 93.5649 101.56 97.1105 95.808C100.656 90.0563 105.383 86.0381 109.086 83.7532C110.977 82.5713 112.553 81.7834 113.656 81.2319C114.759 80.6804 115.39 80.444 115.39 80.3652C115.39 80.3652 115.232 80.3652 114.917 80.5228C114.602 80.6016 114.129 80.7592 113.577 80.9956C112.396 81.4683 110.82 82.1774 108.929 83.3592C105.147 85.6441 100.262 89.6624 96.7165 95.4928C93.171 101.323 91.7528 107.469 91.4376 111.881C91.2801 114.087 91.3588 115.899 91.4376 117.16C91.5164 117.79 91.5952 118.263 91.5952 118.578C91.5952 118.893 91.674 119.051 91.674 119.051Z" fill="#455A64"/>
<path d="M173.931 201.307L178.422 201.465L194.574 236.526L220.102 249.211L218.92 262.369C218.92 262.369 187.483 256.539 179.683 252.205C171.882 247.793 161.876 219.35 161.876 219.35C161.797 219.586 172.513 201.307 172.513 201.307" fill="#FFBF9D"/>
<path d="M218.605 233.296L221.914 229.829C222.544 229.435 223.253 229.199 224.041 229.277L234.441 229.592C236.411 229.75 238.144 230.853 239.247 232.508L243.029 238.89C243.029 238.89 245.551 243.302 245.235 244.326C244.763 245.902 243.029 245.587 243.029 245.587C243.029 245.587 242.635 247.635 242.005 248.029C240.902 248.738 239.484 248.187 239.484 248.187C239.09 248.975 238.302 249.447 237.435 249.447C237.278 249.447 237.12 249.369 236.884 249.369C235.623 248.975 235.072 246.611 235.072 246.611L229.793 245.666C229.793 245.666 222.229 250.708 219.55 254.017C216.871 257.326 209.938 254.805 209.938 254.805L207.338 242.356L218.605 233.296Z" fill="#FFBF9D"/>
<path d="M226.248 234.792C226.248 234.871 227.115 235.029 228.533 235.186C229.951 235.344 232 235.423 234.285 235.659L234.048 235.502C234.442 236.289 234.836 237.156 235.388 237.944C236.963 240.544 238.933 242.514 240.351 243.853C241.848 245.193 242.873 245.744 242.951 245.744C243.03 245.665 242.085 244.956 240.667 243.538C239.327 242.199 237.515 240.15 235.939 237.629C235.466 236.841 234.994 235.974 234.6 235.265L234.521 235.108H234.363C232 234.871 230.03 234.871 228.612 234.792C227.115 234.714 226.248 234.714 226.248 234.792Z" fill="#FF9A6C"/>
<path d="M226.011 239.756C226.011 239.835 226.72 240.072 227.981 240.308C229.242 240.465 231.054 240.544 233.024 240.15L232.63 239.914C232.866 240.544 233.102 241.175 233.417 241.805C234.521 244.09 236.096 245.823 237.278 246.926C238.539 248.029 239.484 248.423 239.484 248.423C239.563 248.344 238.696 247.793 237.593 246.611C236.49 245.508 234.993 243.775 233.969 241.569C233.654 240.938 233.417 240.387 233.26 239.756L233.181 239.52L232.945 239.599C229.005 240.308 226.011 239.52 226.011 239.756Z" fill="#FF9A6C"/>
<path d="M212.853 242.277C215.926 240.859 218.998 239.441 222.071 237.944C223.332 237.314 224.671 236.762 226.089 236.762C227.586 236.762 229.005 237.471 230.344 238.18C231.999 239.047 233.653 239.914 235.308 240.78C235.544 240.938 235.859 241.096 235.938 241.411C236.096 241.805 235.78 242.199 235.544 242.435C233.023 244.956 228.611 245.114 225.932 242.829C225.144 245.035 224.277 247.241 222.78 248.975C221.283 250.708 218.998 251.969 216.713 251.575" fill="#FFBF9D"/>
<path d="M216.792 251.575C216.792 251.575 216.871 251.654 217.029 251.654C217.186 251.732 217.423 251.732 217.817 251.732C218.447 251.732 219.471 251.654 220.574 251.023C221.677 250.472 222.859 249.447 223.883 248.029C224.829 246.611 225.617 244.799 226.326 242.908L225.853 243.065C227.193 244.247 229.241 244.878 231.211 244.72C232.235 244.641 233.259 244.405 234.205 243.853C234.678 243.617 235.15 243.302 235.544 242.908C235.781 242.75 235.938 242.593 236.175 242.278C236.332 242.041 236.569 241.726 236.411 241.253C236.332 240.938 236.096 240.702 235.859 240.544C235.623 240.387 235.465 240.308 235.229 240.229C234.835 239.993 234.441 239.835 234.047 239.599C233.259 239.205 232.55 238.811 231.762 238.417C230.265 237.708 228.847 236.841 227.271 236.447C225.696 236.053 224.12 236.526 222.859 237.077C221.598 237.629 220.495 238.181 219.471 238.732C217.501 239.678 215.847 240.544 214.586 241.096C213.404 241.647 212.774 242.041 212.853 242.041C212.853 242.12 213.562 241.805 214.744 241.332C216.004 240.781 217.738 239.993 219.786 239.126C220.811 238.653 221.992 238.102 223.253 237.55C224.514 236.999 225.853 236.605 227.271 236.999C228.69 237.314 230.108 238.18 231.526 238.89C232.235 239.284 233.023 239.678 233.811 240.071C234.205 240.308 234.599 240.465 234.993 240.702C235.387 240.938 235.781 241.096 235.781 241.332C235.859 241.568 235.465 241.962 235.15 242.278C234.756 242.593 234.362 242.908 233.968 243.144C233.102 243.617 232.156 243.853 231.211 243.932C229.32 244.09 227.508 243.538 226.247 242.435L225.932 242.199L225.774 242.593C225.065 244.562 224.435 246.296 223.489 247.714C222.623 249.132 221.52 250.078 220.417 250.629C218.289 251.969 216.792 251.496 216.792 251.575Z" fill="#FF9A6C"/>
<path d="M182.991 198.392C182.991 198.392 173.773 180.743 171.488 176.883C167.627 170.343 160.379 166.561 160.379 166.561L143.439 162.622C143.439 162.622 143.833 171.052 134.614 171.682C121.22 172.628 112.869 159.549 112.869 159.549C112.869 159.549 97.5834 161.125 93.3287 162.937C89.0741 164.749 77.0981 169.713 75.3647 185.628L71.2676 211.629L103.65 214.071L85.6074 214.465L92.1469 257.405L87.0256 274.424L160.615 274.66C160.615 274.66 159.827 258.036 162.664 243.617L168.021 230.696C170.149 225.496 171.488 220.059 171.803 214.465C172.039 210.762 171.882 208.004 171.882 208.004C171.882 208.004 180.155 205.089 182.991 198.392Z" fill="#6161FF"/>
<path d="M157.464 260.793L103.178 244.484L103.572 213.992L75.9952 211.944C75.9952 211.944 77.3347 227.781 78.5165 235.817C81.5105 255.751 84.5833 263.709 88.2864 267.175C92.0683 270.642 158.882 274.345 158.882 274.345L157.464 260.793Z" fill="#FFBF9D"/>
<path d="M188.27 270.405C187.797 271.115 187.01 271.587 186.143 271.43C185.985 271.43 185.828 271.351 185.591 271.272C184.409 270.799 184.725 268.278 184.725 268.278L178.973 266.86C178.973 266.86 171.015 271.193 168.021 274.187C165.027 277.26 158.33 274.03 158.33 274.03L156.912 261.345L168.415 252.441C168.415 252.441 167.706 252.993 168.573 251.181C169.439 249.447 172.749 250.393 172.749 250.393C173.379 249.526 175.585 249.369 175.585 249.369L184.961 251.181C186.852 251.575 188.507 252.757 189.452 254.49L192.919 261.108C192.919 261.108 194.652 265.836 194.258 266.86C193.628 268.436 191.973 267.963 191.973 267.963C191.973 267.963 191.264 270.957 190.476 270.957C189.767 271.193 188.27 270.405 188.27 270.405Z" fill="#FFBF9D"/>
<path d="M168.889 259.848C168.889 259.927 170.149 259.927 172.198 260.163C174.167 260.4 176.925 260.951 179.762 262.212C181.18 262.842 182.44 263.472 183.622 264.181C184.725 264.891 185.828 265.521 186.143 266.388C186.301 266.781 186.144 267.254 185.986 267.491C185.75 267.806 185.513 267.963 185.198 268.042C184.725 268.2 184.41 268.042 184.331 268.121C184.331 268.121 184.568 268.436 185.198 268.278C185.513 268.2 185.828 268.042 186.143 267.727C186.459 267.412 186.695 266.86 186.459 266.23C186.301 265.678 185.828 265.206 185.356 264.812C184.883 264.418 184.331 264.024 183.78 263.709C182.677 262.921 181.337 262.212 179.84 261.581C176.925 260.321 174.089 259.848 172.04 259.69C170.149 259.612 168.889 259.769 168.889 259.848Z" fill="#FF9A6C"/>
<path d="M167.706 265.836C167.706 265.993 171.567 266.151 176.294 266.781C181.022 267.412 184.725 268.278 184.804 268.121C184.804 268.042 183.937 267.727 182.361 267.333C180.864 266.939 178.737 266.466 176.373 266.151C174.01 265.836 171.803 265.678 170.306 265.678C168.731 265.678 167.706 265.757 167.706 265.836Z" fill="#FF9A6C"/>
<path d="M188.271 270.169C188.271 270.169 188.35 269.854 188.429 269.145C188.507 268.515 188.665 267.569 188.665 266.388C188.665 265.836 188.665 265.127 188.586 264.418C188.507 263.709 188.192 263 187.798 262.291C187.01 260.951 185.986 259.533 184.568 258.43C183.15 257.327 181.732 256.381 180.235 255.83C178.738 255.278 177.398 255.042 176.216 254.884C175.034 254.727 174.089 254.727 173.459 254.648C172.828 254.648 172.434 254.648 172.434 254.648C172.434 254.727 173.853 254.884 176.138 255.278C177.241 255.436 178.659 255.751 179.998 256.303C181.416 256.854 182.756 257.8 184.174 258.903C185.513 260.006 186.538 261.266 187.326 262.606C188.114 263.866 188.192 265.285 188.271 266.388C188.271 268.672 188.114 270.091 188.271 270.169Z" fill="#FF9A6C"/>
<path d="M175.901 251.969C175.901 252.048 177.319 252.205 179.525 252.678C181.653 253.151 185.119 253.623 186.853 256.775C188.822 259.69 190.398 262.369 191.029 264.575C191.738 266.703 191.501 268.2 191.659 268.2C191.659 268.2 191.738 267.884 191.816 267.175C191.816 266.545 191.738 265.599 191.501 264.418C190.95 262.133 189.374 259.296 187.404 256.381C186.931 255.672 186.38 254.963 185.75 254.411C185.119 253.86 184.331 253.466 183.622 253.23C182.204 252.678 180.786 252.442 179.683 252.284C177.398 251.89 175.901 251.89 175.901 251.969Z" fill="#FF9A6C"/>
<path d="M170.228 272.375C170.228 272.375 170.464 272.297 170.858 271.981C171.252 271.666 171.882 271.272 172.513 270.8C174.01 269.854 176.216 268.436 179.052 267.018H178.894C180.628 267.412 182.519 267.963 184.646 268.436L184.489 268.2C184.41 268.672 184.41 269.145 184.489 269.618C184.567 270.091 184.646 270.642 185.04 271.115C185.276 271.351 185.513 271.509 185.749 271.509C185.986 271.588 186.301 271.666 186.537 271.588C187.089 271.588 187.64 271.272 188.034 270.878C188.113 270.8 188.192 270.642 188.349 270.563L188.428 270.484V270.406C188.507 270.406 187.719 270.563 188.113 270.484L188.27 270.563C188.507 270.642 188.743 270.8 188.98 270.878C189.216 270.957 189.452 271.036 189.767 271.115C189.925 271.115 190.083 271.194 190.161 271.194C190.319 271.194 190.477 271.194 190.713 271.115C191.028 270.878 191.186 270.642 191.343 270.406C191.501 270.169 191.58 269.854 191.658 269.618C191.895 269.066 192.052 268.515 192.131 267.963L191.737 268.2C192.446 268.357 193.392 268.278 193.943 267.648C194.18 267.333 194.416 266.939 194.416 266.466C194.416 266.072 194.337 265.678 194.258 265.284C193.943 263.787 193.471 262.369 192.998 260.951C192.367 259.848 191.737 258.587 191.107 257.405C190.713 256.617 190.319 255.908 189.925 255.199C189.531 254.49 189.216 253.702 188.586 252.993C188.034 252.363 187.325 251.811 186.537 251.417C185.749 251.023 184.961 250.866 184.173 250.708C181.101 250.078 178.107 249.526 175.349 249.054C174.797 249.133 174.246 249.211 173.773 249.369C173.3 249.526 172.749 249.684 172.355 250.236L172.67 250.157C171.725 249.684 170.543 249.605 169.597 250.078C168.652 250.551 168.179 251.496 167.943 252.363L168.022 252.284C164.712 254.805 162.034 256.933 160.064 258.351C159.197 259.06 158.488 259.612 157.936 260.005C157.464 260.399 157.227 260.636 157.227 260.636C157.227 260.636 157.543 260.478 158.015 260.084C158.567 259.69 159.276 259.139 160.221 258.508C162.191 257.09 164.949 255.042 168.258 252.599L168.337 252.52V252.442C168.573 251.654 169.046 250.866 169.834 250.472C170.543 250.078 171.567 250.157 172.434 250.551L172.67 250.63L172.828 250.472C173.064 250.157 173.537 249.999 174.01 249.842C174.482 249.684 174.955 249.605 175.507 249.605H175.428C178.185 250.157 181.179 250.708 184.252 251.339C185.04 251.496 185.749 251.654 186.458 251.969C187.167 252.284 187.798 252.836 188.27 253.387C188.822 253.939 189.137 254.727 189.531 255.436C189.925 256.145 190.319 256.933 190.713 257.642C191.343 258.824 191.974 260.084 192.604 261.187C193.077 262.606 193.549 264.024 193.865 265.442C193.943 265.757 194.022 266.151 193.943 266.466C193.943 266.703 193.786 267.018 193.628 267.254C193.234 267.727 192.525 267.806 191.974 267.648L191.658 267.569L191.58 267.884C191.422 268.436 191.264 268.909 191.107 269.46C190.949 269.933 190.634 270.484 190.398 270.642C190.398 270.642 190.319 270.642 190.161 270.642C190.083 270.642 189.925 270.642 189.767 270.563C189.531 270.484 189.295 270.406 189.058 270.327C188.822 270.248 188.586 270.169 188.349 270.012L188.192 269.933C188.507 269.854 187.719 270.091 187.798 270.012L187.719 270.091C187.64 270.169 187.561 270.248 187.483 270.327C187.167 270.642 186.773 270.878 186.301 270.878C186.064 270.878 185.907 270.878 185.67 270.8C185.434 270.721 185.276 270.642 185.119 270.563C184.646 269.933 184.646 268.909 184.646 268.042V267.806L184.41 267.727C182.282 267.254 180.313 266.781 178.658 266.387H178.579H178.501C175.664 267.884 173.458 269.303 172.04 270.327C171.331 270.878 170.779 271.272 170.385 271.588C170.385 272.218 170.228 272.375 170.228 272.375Z" fill="#FF9A6C"/>
<path d="M276.279 273.794L298.97 217.853C299.837 215.726 298.182 213.52 295.74 213.52H222.859C221.52 213.52 220.338 214.229 219.787 215.41L197.962 268.83L152.185 269.539C150.294 269.539 148.718 270.957 148.718 272.769C148.718 274.581 150.215 276 152.185 276H273.048C274.466 275.842 275.727 275.054 276.279 273.794Z" fill="#455A64"/>
<path d="M163.531 178.852C163.452 178.931 164.319 180.585 165.579 183.264C166.84 186.022 168.337 189.883 169.597 194.295C170.858 198.707 171.488 202.804 171.882 205.798C172.276 208.792 172.355 210.683 172.434 210.604C172.513 210.604 172.513 210.132 172.513 209.265C172.513 208.398 172.434 207.216 172.355 205.719C172.119 202.725 171.488 198.549 170.228 194.058C168.967 189.567 167.391 185.707 165.973 183.028C165.264 181.688 164.713 180.585 164.24 179.876C163.767 179.246 163.531 178.852 163.531 178.852Z" fill="#263238"/>
<path d="M71.2683 211.55C71.2683 211.55 71.5046 211.629 71.9774 211.629C72.4501 211.708 73.1592 211.708 73.9471 211.786C75.6805 211.944 78.2017 212.102 81.1958 212.417C87.4201 212.89 96.087 213.52 106.014 214.308H106.33V213.993C106.566 210.683 106.724 207.217 106.96 203.671C107.275 197.447 107.59 191.538 107.669 186.101C107.984 180.665 106.645 175.701 104.517 172.155C102.39 168.61 99.6325 166.482 97.584 165.458C96.5597 164.985 95.693 164.67 95.1415 164.513C94.59 164.355 94.2748 164.276 94.2748 164.276C94.2748 164.355 95.5354 164.592 97.5052 165.695C99.4749 166.798 102.154 168.846 104.202 172.392C106.251 175.858 107.511 180.743 107.196 186.101C107.039 191.459 106.724 197.447 106.408 203.671C106.172 207.217 106.014 210.762 105.778 213.993L106.093 213.677C96.1658 213.047 87.4989 212.417 81.2745 212.023C78.2018 211.865 75.7593 211.708 74.0259 211.629C73.238 211.629 72.6077 211.55 72.0562 211.55C71.5046 211.55 71.2683 211.55 71.2683 211.55Z" fill="#263238"/>
<path d="M132.093 232.744C132.093 232.823 132.487 232.665 133.197 232.35C133.512 232.193 133.984 232.035 134.378 231.72C134.851 231.484 135.403 231.168 135.875 230.774C136.978 230.065 138.239 229.041 139.421 227.78C140.603 226.52 141.785 224.944 142.809 223.132C143.833 221.32 144.542 219.508 145.015 217.853C145.488 216.12 145.724 214.544 145.803 213.204C145.882 212.574 145.803 211.944 145.803 211.392C145.803 210.841 145.724 210.447 145.724 210.053C145.645 209.344 145.567 208.95 145.488 208.95C145.33 208.95 145.566 210.604 145.33 213.204C145.251 214.544 144.936 216.041 144.463 217.695C143.912 219.35 143.203 221.083 142.257 222.817C141.233 224.55 140.13 226.047 138.948 227.308C137.766 228.568 136.584 229.593 135.56 230.38C133.59 231.956 132.015 232.665 132.093 232.744Z" fill="#263238"/>
<path d="M247.677 251.339C249.253 252.678 252.011 251.969 253.823 249.842C255.635 247.714 255.872 244.878 254.296 243.539C252.72 242.199 249.962 242.908 248.15 245.036C246.338 247.242 246.102 250.078 247.677 251.339Z" fill="white"/>
</svg>
