<svg width="23" height="20" viewBox="0 0 23 20" fill="none" xmlns="http://www.w3.org/2000/svg">
<path d="M21.7679 9.11016L17.346 12.755L18.6706 18.1816C18.7407 18.4653 18.7207 18.7622 18.6131 19.0352C18.5055 19.3082 18.3151 19.5452 18.0656 19.7166C17.8162 19.8879 17.5188 19.986 17.2107 19.9986C16.9026 20.0112 16.5973 19.9377 16.3332 19.7874L11.322 16.9166L6.32167 19.7874C6.0575 19.9377 5.75227 20.0112 5.44413 19.9986C5.13599 19.986 4.83861 19.8879 4.58918 19.7166C4.33976 19.5452 4.14934 19.3082 4.04175 19.0352C3.93415 18.7622 3.91415 18.4653 3.98424 18.1816L5.30689 12.7606L0.884022 9.11016C0.650092 8.91961 0.480937 8.66806 0.397768 8.38706C0.314599 8.10607 0.321119 7.80814 0.41651 7.53063C0.511902 7.25312 0.691918 7.00839 0.933985 6.82713C1.17605 6.64586 1.46939 6.53614 1.77722 6.5117L7.60705 6.03479L9.88271 0.908257C10.0015 0.639258 10.202 0.409482 10.4588 0.247861C10.7156 0.08624 11.0173 0 11.3259 0C11.6346 0 11.9363 0.08624 12.1931 0.247861C12.4499 0.409482 12.6503 0.639258 12.7692 0.908257L15.0517 6.03479L20.8796 6.5117C21.1874 6.53614 21.4807 6.64586 21.7228 6.82713C21.9649 7.00839 22.1449 7.25312 22.2403 7.53063C22.3357 7.80814 22.3422 8.10607 22.259 8.38706C22.1759 8.66806 22.0067 8.91961 21.7728 9.11016H21.7679Z" fill="#F9A527"/>
</svg>
